<svg xmlns="http://www.w3.org/2000/svg" width="400" height="266.667" viewBox="0 0 400 NaN" fill-rule="evenodd"><path d="M184.22 62.648c-1.53 1.195-2.368 2.249-2.24 2.819l.422 1.6c.534 1.876.5 17.797-.04 19.668-.423 1.462-.25 3.132.326 3.132.092 0 .378.468.637 1.04.56 1.246.608 1.256 5.363 1.146l3.485-.081.353-.978c.276-.763.345-3.508.314-12.453-.022-6.311.064-11.908.192-12.438.2-.79.11-1.218-.435-2.367l-.666-1.402-1.87.133c-1.027.074-2.564-.01-3.415-.185-1.5-.307-1.58-.293-2.425.366m26.752.063c-.46.471-.838.963-.838 1.092s-.18.415-.4.635-.4.616-.4.881.18.991.4 1.614c.573 1.622.587 18.228.018 20.119-.408 1.356-.458 1.1.778 4.015.218.513.578.941.8.95s1.964.017 3.87.017l3.697-.017c.693-.051 1.434-3.566 1.135-5.381-.482-2.915-.394-17.657.118-19.865.402-1.736.398-1.82-.134-2.539-.302-.409-.553-.839-.558-.955-.018-.42-1.05-1.447-1.3-1.293-.263.163-2.613.703-3.092.711-.28.005-1.736-.352-2.696-.66-.422-.135-.772.033-1.4.676m26.808.005c-.968 1.269-1.3 2.312-1.103 3.474.237 1.403.232 21.419-.005 21.803-.28.451.922 4.003 1.362 4.029a214.13 214.13 0 0 0 3.834.021c4.478 0 4.266.023 4.266-.454 0-.225.255-.909.566-1.519.487-.955.535-1.332.346-2.723-.273-2.01-.266-18.901.01-21.094.183-1.457.14-1.706-.454-2.58-1.25-1.844-1.296-1.864-3.05-1.383-.853.234-1.67.419-1.818.412-.44-.022-2.367-.488-2.84-.687-.3-.13-.638.077-1.115.701m-80.446-.039c-2.386 1.456-3.064 3.176-1.843 4.679.478.588.368 18.297-.12 19.24-.736 1.423-.355 3.228.916 4.337.084.074.23.344.325.6.154.418.617.467 4.397.467h4.225l.352-1.374c.51-1.994.508-25.829-.004-27.244l-.355-.982-2.546-.003c-1.4-.002-2.967-.067-3.48-.146-.672-.103-1.194.016-1.867.426m105.88 4.129c-2.006.725-2.166 1.003-1.838 3.194.13.88.206 5.86.165 11.067l-.073 9.466.666.694c.768.799 3 1.214 3.46.647.273-.329.894-2.978.814-3.474-.26-1.63-.265-16.64-.005-18.257.233-1.446.24-2.018.026-2.089a.48.48 0 0 1-.305-.41c-.008-.304-.92-1.536-1.1-1.485-.05.014-.865.306-1.81.647m-125.25.815c-.348.53-.4 1.045-.26 2.588.23 2.531.242 14.943.017 16.931-.126 1.115-.046 2.019.283 3.192l.46 1.638 1.102-1.385c1.24-1.556 1.43-3.054.597-4.664-.593-1.148-.636-13.243-.05-14.547.997-2.221 1.073-2.884.39-3.406-1.275-.976-2.057-1.083-2.54-.347m-16.895 4.891c-1.51 1.765-1.725 2.478-1.355 4.488.35 1.892.262 18.29-.108 20.476-.17.999-.105 1.159.892 2.218 1.218 1.293 1.407 1.272 2.95-.333l.914-.95-.314-1.703c-.43-2.339-.425-17.869.007-19.964.52-2.51-1.733-5.699-2.987-4.232m159.567 1.278c-.82 1.245-.823 1.27-.473 2.733.455 1.901.5 15.075.072 17.119-.228 1.063-.224 1.629.02 2.346.544 1.608 1.194 2.696 1.565 2.619.435-.09 1.457-2.756 1.408-3.674-.28-5.301-.297-16.21-.026-17.917.308-1.94.295-2.095-.236-2.842-.3-.434-.563-.908-.563-1.053 0-.204-.582-.588-.89-.588-.026 0-.42.566-.875 1.257m17.486 5.314c-1.104 1.325-1.4 2.369-1.172 3.993.3 2.03.3 15.234.002 17.253-.356 2.419 1.134 5.031 2.036 3.567 1.058-1.716 1.117-1.994.793-3.749-.406-2.203-.416-14.761-.014-16.765.297-1.477-.233-3.936-.848-3.936-.116 0-.25-.194-.297-.43-.076-.376-.138-.368-.5.067m-194.25 1.284c-.936 1.002-1.193 1.454-1.06 1.867.89 2.785.93 3.259.816 10.145-.09 5.429-.206 7.187-.536 8.1-.232.642-.42 1.211-.42 1.265s.55.655 1.22 1.336l1.22 1.237.408-.769c.6-1.148.61-22.175-.001-23.569l-.408-.933-1.236 1.321m210.52 7.223c-.895.952-.84 24.252.057 25.001.63.524 1.517.458 3.153-.237l.933-.396.007-11.989c.005-10.732-.038-11.99-.414-11.99a1.17 1.17 0 0 1-.718-.299c-.68-.679-2.416-.731-3.018-.09m-227.2.231c-1.172.421-1.236.848-.684 4.564.55 3.703.563 12.155.023 14.394-.58 2.398-.542 5.2.068 5.2.26 0 .746.19 1.078.423 1.368.958 1.382.84 1.382-12.269 0-9.015-.08-12.128-.32-12.367-.375-.375-.344-.376-1.547.055m-19.335 6.293c-.46.508-.6 7.787-.4 22.969.02 1.747.632 2.141 2.745 1.77l1.8-.316.023-1.479-.004-10.279c-.014-4.84.074-9.477.196-10.304.287-1.95.016-2.309-1.984-2.637-1.988-.325-1.802-.347-2.366.276m265.48.254c-1.772.571-1.815.68-.98 2.46 1.05 2.245 1.683 13.92.845 15.625-.7 1.422-.965 2.652-.713 3.298 1.1 2.823 1.15 2.895 2.043 2.895.75 0 .88-.107 1.027-.834.33-1.653.2-23.303-.154-23.646-.375-.375-.228-.39-2.067.202M11.02 101.637c-.162.2-.66 1.042-1.107 1.871l-.812 1.508.515 1.692c.816 2.685.797 91.186-.02 92.988-1.078 2.377.882 5.389 3.12 4.795l1.952-.51c1.358-.35 33.9-.151 35.733.219 2.98.6 5.514-1.329 5.022-3.822-.29-1.476-.348-90.635-.06-94.056l.175-2.079-1.255-1.202c-1.805-1.729-3.238-2.049-5.032-1.121-.693.358-34.253.333-34.686-.027-.58-.481-3.208-.671-3.546-.256m145.797.716c-.596.601-1.083 1.203-1.083 1.337s-.18.394-.4.577c-.524.435-.507 1.419.044 2.48.637 1.225.59 62.162-.05 63.398-.507.981-.504 2.232.006 2.655.22.183.4.497.4.699s.1.368.222.368.38.294.57.654c.48.894 1.335 1.024 5.31.804l3.414-.189.323-.892c.478-1.323.46-69.882-.02-71.505l-.336-1.139-1.875-.002c-1.032-.001-2.678-.078-3.66-.17l-1.784-.169-1.082 1.094m26.91-.038c-.85.968-1.915 2.875-1.716 3.074.8.8 1.072 61.955.29 64.975-.53 2.045 1.187 5.18 2.818 5.143l6.93-.087.383-.918c.626-1.498.57-70.57-.058-72.017l-.442-1.018-7.413-.052-.8.9m26.96-.084c-.305.494-.555 1.021-.555 1.17s-.167.593-.37.987c-.316.609-.316.919-.003 2.097.548 2.056.545 61.783-.002 63.84-.805 3.02 1.06 5.628 3.652 5.107 1.147-.23 1.995-.233 3.33-.011 2.142.355 2.353.21 3.114-2.146.432-1.335.455-1.757.186-3.385-.467-2.829-.414-60.904.058-63.101.753-3.505-.87-5.803-3.696-5.235-.938.188-1.733.2-2.314.033-1.822-.522-2.792-.338-3.4.644m27.245-.736c-.183.082-.334.289-.335.461s-.188.669-.416 1.107-.422 1.277-.43 1.866l-.01 67.014c.067 2.757 1.2 3.918 3.39 3.478 1.145-.23 1.93-.228 3.22.01 2.632.485 4.23-1.623 3.685-4.861-.296-1.756-.296-62.485-.001-64.437.2-1.323.146-1.623-.553-3.066l-.775-1.6-1.67.047c-.92.026-1.822.173-2.007.327-.2.175-.43.185-.588.029-.297-.297-3.03-.59-3.5-.375m110.043.596l-.405 1.109c-.08.22-.14 21.7-.133 47.733l-.195 49.149c-.278 2.436.43 4.188 1.7 4.178.44-.004 3.56-.112 6.934-.242 8.15-.313 34.12.037 35.166.474.86.358.944.29 2.143-1.703.63-1.047.637-1.126.28-2.8-.534-2.491-.55-90.744-.018-93.227.367-1.709.258-2.217-.993-4.629-.38-.73-2.32-.86-4.017-.269-.99.344-33.357.366-35.378.024-3.652-.619-4.8-.573-5.073.203M120.414 110.6c-.876.893-.96 1.099-.794 1.933.335 1.672.442 55.961.113 57.671-.684 3.567 1.72 7.112 3.363 4.959.674-.883 1.174-3.653.895-4.957-.326-1.517-.205-56.593.126-57.74.183-.634.068-.877-.854-1.8-1.317-1.316-1.617-1.323-2.85-.066m142.704-.112l-1.548.593-.004 62.848.57.606c.845.9 2.84 1.405 3.386.858.382-.382.996-2.89.863-3.526-.18-.865-.22-57.086-.04-58.4.2-1.469.163-1.682-.463-2.595-.796-1.16-.755-1.154-2.764-.384m17.722.347c-.56.682-.778 1.164-.644 1.43.112.221.23 13.902.262 30.402l.068 30.666c.015 1.022 1.012 2.517 1.44 2.161.704-.585 1.322-3.366 1.114-5.014-.242-1.917-.246-53.808-.005-56.747.172-2.09.16-2.153-.606-3.03l-.782-.896-.848 1.028m-142.707-.035c-.36.433-.408 62.183-.05 63.467.257.921.794 1.038 1.222.266.163-.293.36-.593.44-.666.904-.83 1.192-2.036.796-3.334-.67-2.19-.608-54.474.066-56.916.536-1.942.472-2.092-1.19-2.773-.823-.337-1.033-.345-1.283-.044m159.82 7.667c-.897 1.224-1.23 3.196-.906 5.364.36 2.405.258 44.898-.112 47.071-.22 1.29.453 4.058 1.12 4.612.957.794 2.077-2.742 1.662-5.247-.316-1.911-.308-44.978.01-46.914.333-2.035-.478-5.22-1.33-5.22-.11 0-.31.15-.446.334m-193.202.263c-1.054.834-1.886 2.927-1.575 3.964.395 1.32.438 46.431.045 47.892-.275 1.024-.2 1.332.793 3.73.196.467.558.902.805.966 1.035.271 1.078-.888 1.066-28.298-.01-27.727-.066-29.098-1.134-28.254m209.844 6.158c-.203.318-.453.805-.554 1.081-.25.677-.252 47.918-.002 48.578.368.972.855 1.253 1.85 1.066.867-.163 1.222-.422 2.204-1.612.7-.86.507-46.812-.21-47.975-.812-1.313-2.746-1.983-3.287-1.138m-226.742.383c-1.336.936-2.01 3.65-1.32 5.303.585 1.4.585 38.003 0 39.026-.443.776-.523 2.809-.128 3.278.15.177.54.733.866 1.235 1.8 2.758 1.816 2.546 1.807-23.999-.007-24.961-.042-25.672-1.224-24.843m-20.052 6.186c-.88 1.406-.42 43.918.475 44.069.5.085 2.656-.409 2.656-.609 0-.138.173-.25.385-.25.716 0 .736-.561.71-20.219L72 131.53l-1.185-.298c-1.754-.442-2.638-.376-3.013.225m265.998.09l-1 .28v2.053c0 1.143.177 2.555.4 3.187.338.956.4 3.498.4 16.278 0 16.257.092 14.965-1.265 17.66-.406.807.364 2.115 2.006 3.406l.703.553.23-.616c.283-.75.372-42.373.092-42.826-.222-.36-.188-.361-1.567.025m-212.667 53.238c-.33.275-.6.616-.6.757s-.253.829-.562 1.529c-.5 1.13-.53 1.435-.267 2.745.392 1.949.38 8.552-.02 10.485-.336 1.627-.283 1.847.85 3.566.3.44.602.95.693 1.133.228.463 1.174.42 1.174-.053a.79.79 0 0 1 .354-.6c1.103-.665 1.614-2.396 1.26-4.272-.318-1.683-.315-2.713.03-11.408.056-1.407-1.62-4.626-2.286-4.391-.014.004-.296.234-.626.509m-53.03.475c-.083.26-.285.826-.447 1.257-.188.5-.302 3.536-.314 8.4-.027 10.038.12 10.4 3.612 8.916 1.277-.543 1.68-1.634 1.315-3.559-.302-1.594-.337-9.18-.05-10.802.23-1.301-.187-3.251-.743-3.462a11.9 11.9 0 0 1-1.076-.517c-1.23-.666-2.13-.757-2.298-.233m143.076.095c-1.358 1.358-1.888 3.08-1.432 4.648.517 1.778.414 8.922-.154 10.699-.455 1.424 1.534 4.352 2.675 3.938 1.36-.494 3.18-.606 4.694-.288l1.627.341 1.985-2.905-.42-1.86c-.528-2.342-.55-7.741-.038-9.915.763-3.246-1.274-5.555-4.055-4.597-.602.207-1.19.283-1.3.168-.6-.57-3.072-.729-3.572-.229m26.92-.183c-1.04.791-1.563 2.913-1.293 5.26.336 2.922.33 6.901-.015 9.375-.276 1.987-.19 2.528.608 3.787.6.945 1.058 1.172 1.792.886.914-.357 4.234-.346 5.146.016.787.313 1.796-.223 1.796-.955 0-.188.117-.341.258-.341.64 0 .99-1.37.708-2.762-.33-1.621-.365-8.736-.054-10.849.222-1.507-.522-3.645-1.57-4.516-.384-.319-2.632.096-3.283.606-.232.181-.533.171-.933-.034-1.06-.541-2.738-.793-3.16-.473m25.768-.077c-.44.136-1.16.543-1.6.905l-.8.658-.052 7.271-.074 8.055c-.028.983.334 1.344 2.283 2.273l1.56.743.508-1.1.747-1.574c.147-.289.12-1.155-.066-2.228-.25-1.43-.234-6.792.033-11.698.033-.601-.473-2.44-.825-3-.4-.653-.523-.673-1.715-.305m17.333.335c-.443.676-.998 2.439-.934 2.97.247 2.064.258 10.947.015 12.037-.306 1.373.632 4.082 1.454 4.195s1.687-2.93 1.317-4.657c-.45-2.101-.49-7.097-.078-9.599.482-2.918-.787-6.454-1.774-4.946m16.745-.297c-.957 1.259-1.224 2.923-.883 5.508.32 2.431.257 6.472-.157 10.15-.17 1.499.24 2.732 1.243 3.751.84.851 2.01-2.311 1.628-4.392-.376-2.037-.403-7.958-.047-10.131.333-2.034-.478-5.219-1.33-5.219-.11 0-.315.15-.455.333m-193.723.8c-1.664 2.247-1.66 2.237-1.165 4.068.576 2.127.462 8.661-.184 10.546l-.415 1.213 1.134 1.253c2.197 2.428 2.472 1.51 2.418-8.08-.05-9.219-.384-10.896-1.788-9m52.213.481c-1.715 1.568-1.806 2.022-.877 4.386.643 1.638.61 7.425-.05 8.671-1.042 1.965-.724 3.729.672 3.729.194 0 .353.098.353.217 0 .706 1.812 1.021 5.215.907l3.482-.117.373-.837c.577-1.292.594-15.023.02-16.77l-.416-1.267h-1.63c-.897 0-2.522-.075-3.612-.167l-1.982-.168-1.55 1.416m27.548-.748c-.376.343-.762.828-.858 1.078s-.3.456-.45.456-.275.18-.275.4-.134.4-.298.4c-.317 0-.286.206.424 2.839.555 2.063.22 8.52-.52 9.947-.524 1.014-.44 1.154 1.692 2.832 1.293 1.017 1.512 1.102 2.266.876.46-.137 1.962-.246 3.34-.24 2.73.011 2.852-.049 3.6-1.765.273-.619.306-1.116.124-1.866-.136-.563-.225-3.783-.197-7.156.045-5.529 0-6.245-.46-7.268l-.5-1.134-1.336.193c-1.48.214-1.94.209-4.27-.042-1.435-.154-1.67-.107-2.284.45m-96.316.223c-.257.281-.467.625-.467.764s-.162.35-.36.467c-.817.483-.963 1.275-.5 2.771.606 2.002.772 8.011.258 9.298-1.067 2.667-1.08 2.556.43 3.876l1.37 1.198.38-.726c.497-.948.508-16.257.013-17.452-.36-.87-.48-.891-1.113-.196m50.442.442c-.51 1.53-.523 15.913-.017 17.037.42.934.33.966 2.38-.844l.916-.81-.84-1.774c-1.115-2.362-.976-7.612.288-10.838.208-.53.07-.862-.866-2.075-1.44-1.867-1.468-1.877-1.86-.696m179.74-.528a13.28 13.28 0 0 0-1.067.801c-2.14 1.895-2.086 1.785-1.448 3.022l.8 1.548c.293.567.4 1.667.4 4.101 0 2.631-.083 3.396-.4 3.658-.22.183-.4.483-.4.667s-.18.484-.4.667c-1.02.847-.494 1.946 1.378 2.873.97.481 1.784.841 1.81.8.594-.961.848-2.445.635-3.707-.133-.788-.227-4.013-.207-7.166s-.066-6.182-.2-6.731l-.225-.997-.685.464m16.156.656c-2.23 1.834-2.233 1.842-1.558 3.186l.8 1.596c.39.779.517 7.426.143 7.426-.116 0-.547.664-.958 1.476-.753 1.486-.774 2.257-.062 2.257.213 0 .427.096.475.213s.59.456 1.2.755l1.11.543.304-.666c.436-.959.38-15.795-.065-16.87l-.327-.79-1.063.874" fill="#5b5757"/><path d="M0 133.333v133.334h400V0H0v133.333m166.166-73.177c1.948 1.35 1.893.854 1.9 17.114-.003 18.41.678 16.979-7.997 16.789-7.86-.173-7.26 1.202-7.26-16.615 0-18.714-.387-17.886 8.386-17.949 3.874-.028 4.013-.009 4.98.661m26.173-.446c.82.312 2.328 1.814 2.328 2.319 0 .214.19.834.424 1.38.5 1.191.678 25.647.183 26.603-.15.287-.348.95-.442 1.475-.1.554-.513 1.28-.987 1.733l-.815.78h-11.156l-2.274-2.274-.082-13.608c-.102-16.81-.066-17.018 3.154-18.13 1.61-.555 8.42-.752 9.667-.278m27.724.354c.694.331 1.264.74 1.266.907s.176.371.385.451c1.403.539 1.53 1.806 1.548 15.522.023 17.828.276 17.375-9.546 17.131-7.478-.185-7.114.695-7.1-17.142.02-15.947-.063-15.491 3.086-16.852 2.055-.888 8.504-.899 10.35-.017m27.04.048c1.294.6 2.465 1.801 2.873 2.948.364 1.022.206 27.836-.168 28.589-.9 1.832-2.24 2.315-6.68 2.425-4.925.122-6.744-.067-7.34-.763-.24-.281-.56-.515-.712-.519-.752-.023-1.6-2.53-1.53-4.525.16-4.621.173-20.254.016-21.467-.406-3.133.703-5.401 3.35-6.851 1.417-.777 8.406-.664 10.192.163M266 63.77c.9.616 1.8 2.03 2.113 3.28.105.431.356.911.56 1.067.315.241.313.521-.013 1.883-.597 2.494-.55 15.18.062 17.124.42 1.335.422 1.498.016 2.29a7.64 7.64 0 0 0-.602 1.939c-.67 4.395-8.657 3.683-8.673-.774-.082-21.965-.04-23.898.524-24.691.302-.424.548-.888.548-1.032 0-.427 1.285-1.14 2.483-1.377 1.763-.348 2.098-.316 2.983.291m-125.693.256c3.38.962 3.474 1.359 3.47 14.911-.004 14.784.013 14.718-4.043 14.869-2.14.079-2.45-.049-3.283-1.35-.625-.976-.765-24.01-.158-26.034.4-1.339 1.91-3.089 2.474-2.872.208.08.9.294 1.54.476M122.9 69.857c2.474.71 4.4 4.14 4.026 7.21-.285 2.405-.295 15.696-.014 19.066.392 4.699-4.038 8.791-6.98 6.447-.256-.205-.466-.443-.466-.529 0-.295-1.26-1.518-1.564-1.518-.167 0-.303-.156-.303-.346s-.14-.486-.31-.656c-.226-.226-.307-3.709-.302-12.932.008-13.372.067-14.038 1.292-14.508.212-.081.386-.294.386-.473 0-.487 1.16-1.481 2.03-1.742 1.045-.313 1.174-.314 2.203-.019m160.5.78c1.577 1.798 1.656 2.493 1.648 14.6-.008 14.131-.275 15.385-3.275 15.385-1.258 0-3.092-.961-3.096-1.622-.001-.183-.102-.333-.225-.333-.8 0-.91-1.577-.88-11.6.018-5.574-.063-10.554-.178-11.067-.23-1.019.215-2.706.89-3.379.215-.216.392-.555.392-.754 0-1.64 3.552-2.565 4.724-1.23m16.636 6.242c.637.398 1.208 1.488 1.425 2.721.103.587.352 1.322.552 1.634.3.481.307.784-.016 2-.495 1.86-.55 14.96-.07 17.034.234 1.011.24 1.5.023 1.848-.163.26-.382 1.046-.487 1.747-.645 4.301-4.49 4.292-6.62-.016l-.996-2.013.414-1.425c.547-1.881.58-14.943.045-17.209-.37-1.57-.314-1.826.978-4.4 1.2-2.388 2.902-3.076 4.752-1.921m-193.47.402c1.087 1.404 1.2 2.757 1.2 14.347.01 12.566-.09 13.499-1.584 14.81-1.005.882-1.713.902-3.334.093-.44-.219-.93-.401-1.1-.406-.42-.012-1.088-1.022-1.49-2.249-.5-1.553-.495-23.052.017-24.554.882-2.589 4.847-3.879 6.272-2.041m210.65 8.052c1.344 0 2.553.656 3.105 1.686.306.57.552 23.56.27 25.316-.537 3.354-8.584 3.44-8.584.091 0-.235-.103-.426-.228-.426-.442 0-.552-3.617-.155-5.136s.377-8.247-.042-15.597c-.137-2.388-.104-3.267.12-3.267.168 0 .306-.218.306-.483 0-1.007 2.66-2.827 3.516-2.405.247.122 1.008.221 1.692.221m-227.173.953l.898.952v12.673c0 11.358-.046 12.752-.445 13.427-1.24 2.1-5.815 1.723-6.943-.573-.493-1.005-.528-24.442-.037-25.476.966-2.036 4.972-2.652 6.527-1.003M72.62 91.969c1.6 1.512 1.572 1.257 1.56 14.331-.015 14.953.074 14.648-4.313 14.805-4.492.161-4.534.027-4.534-14.504 0-13.22-.025-13.01 1.83-14.944l.97-1.009 1.734.178c1.505.155 1.867.305 2.753 1.143m263.364-.292c1.687 1.687 1.64 1.216 1.557 15.036-.058 9.77-.15 12.601-.408 12.687-.183.061-.333.275-.333.476 0 .821-1.705 1.257-3.702.947l-2.012-.29c-.08 0-.425-.45-.765-1l-.62-1 .046-12c.025-6.6.137-12.392.25-12.871.533-2.277 4.41-3.563 5.986-1.985m-280.39 8.348c1.92.958 1.786-2.948 1.805 52.865.018 53.94.068 51.877-1.288 53.18-1.17 1.124-1.294 1.13-23.946 1.13H10.23l-1.444-.733c-2.754-1.398-2.54 3.215-2.385-51.267l-.014-48.642c-.352-3.773.57-6.064 2.722-6.752 1.967-.629 45.195-.425 46.485.219m111.34.508c.942.942 1.068 1.215 1.073 2.334l-.46 72.982c-1.898 2.569-12.177 2.527-14.08-.058-.528-.716-.534-1.144-.534-37.443V101.63l.906-.935c1.133-1.169 1.013-1.148 7.028-1.192l5-.036 1.066 1.066m26.74-.247c.546.451 1 1.021 1.005 1.267s.188.927.402 1.514c.336.916.39 5.929.39 35.466v34.4l-.607 1.715c-.9 2.545-1.786 2.952-6.416 2.952-6.25 0-8.25-.745-8.735-3.254-.343-1.772-.305-70.042.04-71.648.597-2.785 1.583-3.175 8.12-3.207l4.805-.024.995.819m27.317.161c2.433 1.8 2.234-1.597 2.234 38.096 0 38.005.067 36.229-1.42 37.468-1.6 1.334-2.62 1.572-6.73 1.572-5.457 0-7.563-.766-8.156-2.968-.384-1.427-.38-70.746.003-72.173.646-2.4 2.2-2.975 8.04-2.975h4.704l1.324.98m26.124-.66c.487.176.886.416.886.533s.16.213.354.213c.42 0 1.36.993 1.61 1.701.234.66.226 71.965-.008 72.605-1.2 3.277-11.463 3.995-15.144 1.059-.732-.583-1.697-4.13-1.3-4.774.235-.381.28-62.383.046-64.278-.218-1.763.29-5.002.873-5.579 1.75-1.729 9.493-2.633 12.68-1.48m147.198.651c2.46 1.82 2.238-3.416 2.238 52.803v49.595l-.698 1.249c-.384.686-.807 1.248-.94 1.248s-.244.158-.244.351-.467.613-1.037.934l-1.036.582h-22.347c-22.294 0-22.35-.001-23.164-.562-.827-.57-1.75-2.05-1.75-2.808 0-.228-.254-.771-.565-1.208-.526-.74-.54-.886-.213-2.174.594-2.334.68-91.141.092-93.575-.422-1.74-.418-1.827.126-2.95.308-.637.564-1.45.57-1.807.01-.757.353-1.239 1.458-2.047l.8-.585 45.4-.017 1.313.971m-269.784 8.101c2.44 2.121 2.233-.875 2.183 31.328l.183 30.266c.613 4.673-1.635 7.726-5.456 7.409-1.552-.129-3.545-1.389-4.105-2.596-.414-.891-.427-63.481-.014-64.253.385-.72 2.97-3.186 3.765-3.594.858-.44 1.668-.102 3.444 1.44m17.802.411c1.482.971 1.425-.372 1.426 33.847.002 34.52.07 32.999-1.535 33.82-1.632.834-4.09 1.02-4.75.359-.243-.244-.53-.443-.636-.443-.8 0-.85-2.014-.853-33.802-.005-34.78-.097-32.733 1.56-34.501l.91-.971 1.616.634c.89.348 1.908.824 2.264 1.057m124.415-.422c1.665 1.852 1.588.248 1.535 31.795-.044 26.335-.013 28.565.415 29.923s.43 1.539.03 2.477c-.237.556-.51 1.43-.6 1.944-.268 1.398-.564 1.812-1.714 2.399-1.813.925-4.616.62-6.006-.653l-.924-.846-.008-32.6.504-33.317c2.045-2.854 4.808-3.311 6.777-1.122m16.312-.328c1.912 1.889 1.782-.593 1.8 34.587.017 32.324-.022 33.746-.93 33.746-.127 0-.412.18-.63.4-1.37 1.37-4.65-.035-5.517-2.363-.54-1.448-.203-63.443.348-64.029.297-.317.54-.691.54-.832s.21-.434.47-.65c2.702-2.256 2.542-2.22 3.92-.859m16.17 8.11c1.84.631 2.867 3.107 2.635 6.357-.124 1.73-.135 46.78-.012 48.533.392 5.579-3.142 8.178-6.394 4.702-.976-1.042-1.528-3.87-1.094-5.595.426-1.693.43-45.569.005-47.261-.337-1.339-.052-2.884.893-4.832.495-1.022 1.077-1.474 2.607-2.027a5.62 5.62 0 0 0 .427-.166c.014-.012.434.119.933.289m-192.684.498c1.18.98 1.202 1.515 1.203 30.207 0 29.741.052 28.765-1.603 29.912l-1.056.731-1.822-.553c-1.784-.542-2.73-1.241-3.106-2.296-.335-.942-.23-54.556.11-55.885.553-2.162 4.582-3.521 6.275-2.116m-17.41 6.247c1.898.793 1.8-.66 1.8 27.195 0 27.597.122 25.67-1.694 26.793-1.706 1.054-5.425-.308-5.827-2.134-.248-1.13-.294-48.758-.047-49.739.302-1.203 1.156-1.806 3.032-2.142l1.77-.336c.02-.014.453.15.965.363m228.922-.101c.883.198 1.472.529 1.9 1.068l.622.781-.004 50.797-.956.831c-2.493 2.165-7.577 1.125-7.61-1.557-.004-.4-.268-1.261-.585-1.914l-.577-1.188.528-1.686c.647-2.066.688-37.298.047-40.278-.286-1.33-.27-1.646.126-2.475.25-.523.453-1.318.453-1.767 0-2.266 2.6-3.387 6.054-2.612m-246.957 6.11c1.138.003 2.516.931 2.854 1.921.23.671.27 42.845.044 44.033-.575 3.01-6.85 3.481-8.147.612-.654-1.446-.714-43.436-.064-44.697.785-1.525 1.868-2.184 3.283-1.996.513.068 1.427.125 2.03.127m264.9.262c1.673.896 1.613.021 1.613 23.456 0 23.235.032 22.591-1.167 23.78-1.39 1.38-5.42.812-6.333-.892-.425-.794-.427-43.891-.003-44.917.612-1.476 4.182-2.341 5.9-1.427M70.552 182.909c3.57.414 3.646.658 3.66 11.754.013 11.875-.216 12.537-4.345 12.537-4.225 0-4.593-1.066-4.48-12.983.1-9.426.2-10.045 1.947-11.051.946-.544.83-.535 3.22-.257m36.327.897c.924 1.126 1.37 17.34.567 20.594-1.03 4.172-6 3.539-7.338-.933-.63-2.121-.513-16.754.145-18.269.945-2.175 5.245-3.078 6.626-1.392m16.607-.728c2.597.906 3.868 3.472 3.43 6.922-.282 2.216-.28 7.893.005 10.098.896 6.954-7.417 10.213-9.597 3.762-.5-1.475-.56-16-.074-17.727.75-2.664 3.497-4.01 6.237-3.055m41.104-.057c3.347.172 3.495.672 3.493 11.779-.003 12.851.22 12.493-7.73 12.354-7.702-.134-7.39.357-7.5-11.742-.123-13.368-.456-13.016 11.737-12.391m27.877.069c1.138.176 2.1 1.248 2.313 2.577.094.587.317 1.276.495 1.531.54.772.39 14.772-.175 16.06-.238.545-.433 1.175-.433 1.4s-.48.889-1.067 1.475l-1.067 1.067h-4.6c-8.162 0-8.292-.177-8.394-11.467-.1-11.012.22-12.102 3.714-12.678 1.62-.268 7.414-.245 9.224.035m27.023-.031c3.236.624 3.866 2.622 3.827 12.141-.034 8.211-.074 8.459-1.67 10.312-2.15 2.497-11.267 2.506-13.76.014-1.34-1.34-2.038-15.656-.952-19.534.776-2.772 6.48-4.105 12.554-2.933m26.9-.006c3.5.74 3.765 1.572 3.776 11.849.01 9.699-.05 10.002-2.248 11.431-1.392.905-9.553 1.282-11.042.511-2.526-1.309-3.722-3.803-3.28-6.844.314-2.165.326-7.609.022-9.733-.306-2.136.55-6 1.33-6 .113 0 .392-.188.62-.416.954-.955 7.724-1.454 10.822-.798m19.645-.033c1.185.439 1.856 1.417 2.077 3.026.104.759.343 1.59.53 1.846.28.381.275.718-.02 1.821-.535 2.011-.49 8.65.073 10.432.424 1.347.42 1.431-.134 2.575-.315.65-.572 1.485-.572 1.857 0 3.031-6.236 3.758-7.972.929-.64-1.042-.695-2.166-.62-12.591l.058-8.019.787-.882c.654-.733 1.05-.915 2.333-1.08 2.165-.277 2.5-.268 3.458.086m16.716.048c1.922.803 2.104 1.762 2.172 11.465.074 10.634-.45 12.667-3.258 12.667-1.937 0-4.236-3-4.163-5.434.018-.604.023-3.679.01-6.833-.03-8.12-.004-8.482.725-9.725.76-1.299 1.36-1.847 2.42-2.219 1.07-.375 1.003-.377 2.094.079m16.85.025c.867.218 1.522 1.285 1.948 3.174.4 1.771.4 1.716.154 7.733-.123 3.029-.073 4.796.17 6.093.27 1.428.275 1.938.024 2.339-.176.282-.395 1.065-.488 1.739-.468 3.413-4.743 4.113-5.974.977-.2-.485-.443-.881-.562-.881s-.217-.186-.217-.414-.185-.771-.412-1.208c-.372-.721-.37-.943.028-2.36.365-1.301.4-2.339.27-6.191l-.2-5.561c-.113-3.216 2.235-6.355 4.272-5.711.197.063.64.185.986.271m-210.105.231c1.35.947 1.427 1.548 1.427 11.283 0 10.227-.016 10.386-1.186 11.663-.965 1.054-1.503 1.132-3.564.52-2.916-.866-3.05-1.397-3.04-11.935.01-8.668.132-9.931 1.043-10.845.953-.957 4.313-1.391 5.32-.686m52.936.51c1.927 1.532 2.134 19.642.25 21.869-2.025 2.396-5.74 1.685-6.44-1.23-.447-1.864-.44-18.167.01-19.526.685-2.077 4.178-2.706 6.18-1.113m177.423-.102c.894.839.967 1.627.984 10.562.023 12.641-.337 13.582-4.836 12.617-.74-.159-1.346-.399-1.346-.533s-.152-.245-.337-.245c-1.27 0-2.307-16.657-1.276-20.485.675-2.508 4.912-3.7 6.81-1.916m16.726.006c.883 1.091 1.006 2.447 1.008 11.119.001 11.374-.37 12.546-3.866 12.183-3.35-.348-4.586-2.564-4.07-7.307.12-1.1.15-4.34.066-7.2-.226-7.71.234-9.178 2.952-9.414 2.222-.193 3.402-.006 3.91.619" fill="#fafafa"/><path d="M156.073 59.776c-3.197.717-3.273 1.127-3.273 17.668 0 17.817-.6 16.442 7.26 16.615 8.675.19 7.994 1.621 7.997-16.789.003-16.26.058-15.764-1.9-17.114-1.082-.75-7.383-.987-10.093-.38m26.6.212c-3.22 1.112-3.256 1.32-3.154 18.13l.082 13.608L181.874 94h11.156l.815-.78c.474-.453.887-1.179.987-1.733.094-.525.293-1.188.442-1.475.495-.956.327-25.412-.183-26.603-.233-.546-.424-1.166-.424-1.38 0-.505-1.507-2.007-2.328-2.319-1.246-.474-8.056-.277-9.667.278m27.04.093c-3.15 1.361-3.066.905-3.086 16.852-.024 17.837-.388 16.957 7.1 17.142 6.614.164 8.354-.451 9.233-3.265 1.268-4.06.227-28.826-1.235-29.388-.21-.08-.383-.283-.385-.451-.02-1.502-8.667-2.165-11.617-.89m27.198-.132c-2.646 1.45-3.755 3.718-3.35 6.851.157 1.213.145 16.846-.016 21.467-.07 1.995.777 4.502 1.53 4.525.15.004.47.238.712.519 1.083 1.265 10.727 1.144 12.54-.157 1.9-1.364 1.82-.692 1.83-15.879.007-14.376.017-14.221-1.03-15.637-1.52-2.052-9.53-3.16-12.215-1.689m-71.655 1.267c1.62.336 1.73 1.321 1.74 15.738.013 17.204.542 15.822-6.082 15.895-5.19.057-5.8-.093-6.427-1.581-.47-1.116-.463-.769-.293-13.135.072-5.262.012-9.817-.148-11.083-.307-2.436.433-5.037 1.552-5.452l1.336-.481c.75-.265 6.922-.191 8.322.099M192 61.133c0 .11.18.2.4.2s.4.132.4.293.252.646.56 1.078c.57.799.897 25.477.376 28.254-.32 1.711-1.204 2-6.003 1.968-7.245-.048-6.723 1.063-6.697-14.259.01-6.087-.077-11.607-.192-12.267-.388-2.21.854-4.475 2.833-5.166 1.067-.373 8.322-.461 8.323-.101m27.387.154c.323.175.896.932 1.272 1.682l.685 1.363-.002 12.567c-.004 17.015.38 16.11-6.815 16.05-5.487-.045-6.872-1.268-6.363-5.616.285-2.435.275-18.714-.013-20.857-.222-1.645.118-3.276.68-3.276.13 0 .235-.161.235-.359 0-.409.787-1.18 1.668-1.636.807-.417 7.855-.351 8.652.082m27.048.091c.363.238 1.062 1.185 1.552 2.104l.9 1.671-.442 1.89c-.626 2.679-.64 16.843-.018 19.523.37 1.596.373 1.923.026 2.884-.216.596-.463 1.402-.55 1.792-.368 1.655-9.865 2.701-10.957 1.207-.18-.247-.45-.449-.596-.449-.56 0-1.202-3.651-.893-5.09.38-1.774.382-18.437.002-20.209-.43-2.006.63-4.677 2.19-5.52.894-.483 8-.324 8.795.197m16.58 2.101c-1.198.237-2.483.95-2.483 1.377 0 .144-.246.608-.548 1.032-.565.793-.606 2.726-.524 24.691.008 2.385.825 3.169 3.57 3.426 3.338.313 4.764-.428 5.102-2.652a7.64 7.64 0 0 1 .602-1.939c.406-.792.405-.955-.016-2.29-.613-1.944-.66-14.63-.062-17.124.326-1.362.328-1.642.013-1.883-.203-.156-.454-.636-.56-1.067-.303-1.25-1.214-2.664-2.113-3.28-.885-.607-1.22-.639-2.983-.291m-125.502.852c-1.53 1.623-1.573 2.039-1.556 15.318.02 14.678-.08 14.3 3.775 14.157 4.056-.151 4.04-.085 4.043-14.869.004-13.552-.09-13.949-3.47-14.911-.64-.182-1.332-.396-1.54-.476-.218-.084-.75.248-1.252.781m128.732 1.85c.525.613.96 1.303.97 1.534.112 3.042-.018 23.074-.152 23.497-.43 1.35-1.184 1.726-3.313 1.651-3.302-.117-3.06.865-3.22-12.99-.164-14.175-.21-13.969 3.12-14.528l1.463-.247c.098-.017.608.47 1.133 1.083m-124.5.868l.688.551-.017 11.016c-.02 13.098-.015 13.062-2.002 13.723-3.38 1.125-3.448.896-3.383-11.406.027-5.133-.05-10.074-.168-10.979-.22-1.654.137-2.845 1.255-4.191.36-.433 2.37.279 3.627 1.286m-21.038 2.827c-.872.261-2.03 1.255-2.03 1.742 0 .179-.174.392-.386.473-1.225.47-1.284 1.136-1.292 14.508-.005 9.223.076 12.706.302 12.932.17.17.31.465.31.656s.136.346.303.346c.303 0 1.564 1.223 1.564 1.518 0 .23.842.863 1.533 1.151 1.007.422 2.02.017 3.57-1.424 2.33-2.166 2.582-2.777 2.343-5.645-.28-3.37-.27-16.661.014-19.066.284-2.391-.316-4.083-2.085-5.887-1.37-1.398-2.57-1.776-4.144-1.304m158.963.81c-.547.451-.994.982-.994 1.181s-.177.538-.392.754c-.674.673-1.118 2.36-.89 3.379.115.513.196 5.493.178 11.067-.03 10.023.09 11.6.88 11.6.123 0 .224.15.225.333.004.661 1.838 1.622 3.096 1.622 1.56 0 2.346-.768 2.874-2.813.653-2.524.586-23.116-.08-25.011-1.057-3.001-2.87-3.783-4.896-2.112m-156.853.677c.36.237 1.084 1.134 1.607 1.995l.95 1.565-.283 4.026c-.36 5.142-.36 11.44.001 15.952.307 3.826.29 3.909-1.14 5.434-1.485 1.584-2.677 1.568-4.16-.055l-.935-1.023V86.624c0-13.775-.055-13.267 1.596-14.824 1.038-.979 1.427-1.051 2.364-.437m160.948 2.481c.49 1.106.516 1.424.26 3.332-.355 2.646-.36 13.574-.01 15.891.47 3.101-.703 6.365-2.3 6.391s-2.943-3.055-2.496-5.725c.338-2.021.305-15.338-.042-16.958-.393-1.83.037-3.208 1.47-4.716l1.085-1.141.744.852c.41.468.988 1.402 1.286 2.074m13.677 2.604c-.957.192-1.878 1.49-3.088 4.352-.336.795-.343 1.151-.048 2.4.536 2.266.502 15.328-.045 17.209l-.414 1.425.996 2.013c2.13 4.308 5.974 4.317 6.62.016.105-.701.324-1.487.487-1.747.217-.348.21-.837-.023-1.848-.478-2.074-.424-15.174.07-17.034.323-1.216.326-1.519.016-2-.2-.312-.45-1.047-.552-1.634-.418-2.38-1.935-3.569-4.02-3.152m-195.166.582c-2.304 1.048-2.34 1.279-2.344 14.568-.003 11.587.068 12.47 1.118 13.927.234.325.557.595.718.6s.65.187 1.1.406c2.357 1.176 3.984.328 4.593-2.392.46-2.054.455-22.978-.006-24.837-.67-2.703-2.476-3.497-5.17-2.272m4.155 2.837c.288.838.353 2.978.3 10-.036 4.913.033 9.593.154 10.4.532 3.543-1.67 6.383-3.486 4.495-.263-.272-.593-.495-.734-.495s-.256-.154-.256-.341-.25-.554-.554-.815c-.532-.456-.545-.618-.333-4.126.27-4.491.252-13.385-.035-15.955-.256-2.297.533-3.795 2.533-4.81l1.144-.58.45.58c.248.319.616 1.06.817 1.647m193.33-1.041l.844 1.227.004 23.06-.622 1.081c-1.267 2.201-2.33 2.017-3.577-.619-.587-1.24-.684-1.731-.543-2.743.373-2.669.467-14.283.137-16.832-.61-4.705 1.8-8.02 3.757-5.174m14.516 6.453c-1.134.551-2.267 1.669-2.267 2.238 0 .265-.138.483-.306.483-.223 0-.256.879-.12 3.267.42 7.35.437 14.083.042 15.597s-.287 5.136.155 5.136c.125 0 .228.191.228.426 0 3.349 8.047 3.263 8.584-.091.28-1.756.035-24.746-.27-25.316-.552-1.03-1.76-1.686-3.105-1.686-.684 0-1.445-.099-1.692-.221-.278-.137-.755-.073-1.25.167m-229.2.654c-1.962.99-1.912.613-1.87 14.145.04 12.88.038 12.866 1.416 13.886.895.662 3.918.942 4.842.448 1.495-.801 1.488-.735 1.488-14.501V87.238l-.898-.952c-1.13-1.2-3.03-1.335-4.978-.353m232.475.611c2.083.87 1.935-.162 1.935 13.457 0 13.591.092 12.922-1.867 13.551-1.92.617-2.85.501-3.865-.483l-.935-.907v-24.18l.924-.924c1.056-1.056 2.156-1.205 3.808-.514m-228.196.66l.686.803-.024 24.19-1.635 1.672-1.452-.601c-2.732-1.131-2.628-.922-2.423-4.878.098-1.901.1-7.177.026-11.723-.174-9.405-.273-8.942 2.093-9.78 1.748-.619 1.95-.595 2.73.317m-22.172 4.453c-1.856 1.934-1.83 1.724-1.83 14.944 0 11.586.014 11.891.56 12.774 1.524 2.465 6.84 2.399 7.882-.099.486-1.163.615-24.53.142-25.676-.625-1.514-2.185-2.582-4.05-2.774l-1.734-.178-.97 1.009m265.64-.527c-2.9.542-3.003 1.057-3.057 15.403l-.046 12 .62 1c.34.55.685 1 .765 1s.985.131 2.012.29c1.997.31 3.702-.126 3.702-.947 0-.201.15-.415.333-.476.583-.194.62-24.999.038-26.122-1.065-2.059-2.104-2.571-4.366-2.148M72.653 93.978c.607.925.685 1.249.514 2.155-.11.587-.2 5.895-.22 11.797-.024 12.533.195 11.646-2.948 11.947-3.523.338-3.61.068-3.424-10.544.076-4.326.024-9.306-.116-11.066-.273-3.444-.233-3.605 1.312-5.343.9-1.012 3.962-.35 4.883 1.054m263.34-.329l.628.85-.06 23.947-.696.644c-.803.745-3.205.672-4.324-.132l-.592-.425-.057-11.466-.02-12.103c.114-1.947 3.93-2.926 5.12-1.315M9.108 99.806c-2.15.688-3.074 2.979-2.722 6.752.08.867.087 22.755.014 48.642-.154 54.482-.37 49.869 2.385 51.267l1.444.733h21.935c22.652 0 22.777-.006 23.946-1.13 1.356-1.303 1.306.76 1.288-53.18-.02-55.813.114-51.907-1.805-52.865-1.3-.644-44.518-.848-46.485-.219m146.198-.156c-.308.06-.968.531-1.467 1.045l-.906.935v36.718l.534 37.443c1.902 2.585 12.18 2.627 14.08.058.436-.591.648-34.146.46-72.982-.005-1.119-.13-1.392-1.073-2.334l-1.066-1.066-5 .036c-2.75.02-5.253.086-5.56.147m26.933.105c-1.256.364-2.165 1.44-2.487 2.943-.345 1.606-.383 69.876-.04 71.648.485 2.509 2.484 3.254 8.735 3.254 4.63 0 5.515-.407 6.416-2.952l.607-1.715v-34.4l-.39-35.466c-.214-.587-.395-1.268-.402-1.514s-.46-.816-1.005-1.267l-.995-.819-4.805.024c-2.644.013-5.18.132-5.634.264m26.957.274c-2.753 1.457-2.55-1.616-2.552 38.495-.003 35.824.02 36.659 1.022 37.533 2.53 2.206 11.474 2.177 14.14-.046 1.486-1.239 1.42.537 1.42-37.468 0-39.693.2-36.296-2.234-38.096l-1.324-.98h-4.704c-4.27 0-4.8.051-5.766.562m26.804.159c-.66.394-1.365.879-1.567 1.079-.584.577-1.09 3.816-.873 5.579.233 1.895.19 63.897-.046 64.278-.398.644.567 4.191 1.3 4.774 3.68 2.936 13.944 2.218 15.144-1.059.234-.64.242-71.945.008-72.605-.25-.708-1.192-1.701-1.61-1.701-.195 0-.354-.096-.354-.213 0-1.147-10.112-1.259-12-.132m110.8-.119c-1.105.808-1.448 1.29-1.458 2.047-.005.357-.26 1.17-.57 1.807-.544 1.123-.548 1.21-.126 2.95.59 2.434.502 91.241-.092 93.575-.328 1.288-.313 1.434.213 2.174.31.437.565.98.565 1.208 0 .758.923 2.238 1.75 2.808.815.561.87.562 23.164.562h22.347l1.036-.582c.57-.321 1.037-.741 1.037-.934s.11-.351.244-.351.557-.562.94-1.248l.698-1.249v-49.595c0-56.219.222-50.983-2.238-52.803L393 99.467l-45.4.017-.8.585m-292.272.996c1.846.517 1.744-2.52 1.75 52.351l.004 49.243-.607 1.252c-.73 1.509-2.702 2.243-5.14 1.915-2.217-.298-35.6-.257-37.24.046-1.905.352-3.536-.297-4.6-1.832l-.72-1.036.065-45.969-.045-51.302c-.128-2.894.267-3.915 1.763-4.568 1.39-.607 42.63-.699 44.77-.1m111.26.068c1.188 1.303 1.173.834 1.175 37.527.003 36.656.012 36.374-1.175 37.143-1.034.67-7.16.828-9.25.238l-1.73-.487-.496-1.577c-.44-1.405-.464-1.883-.207-4.377.332-3.236.243-62.247-.097-63.665-.138-.577-.05-1.474.265-2.687l.472-1.821 1.36-.425c2.35-.734 8.974-.644 9.68.131m26.69-.183c1.483 1.038 1.405-1.038 1.4 37.545l-.315 36.262c-1.183 2.597-11.703 2.283-12.292-.367-.266-1.197-.27-70.503-.003-71.698.206-.924.285-.995 1.924-1.729 1.347-.603 8.42-.613 9.276-.013m27.004-.001c.175.211.455.384.62.384 1.05 0 1.067.571 1.16 36.789.107 42.608.822 38.17-6.168 38.27-5.73.082-7.48-1.353-6.94-5.69.286-2.295.29-62.026.003-64.303s.558-4.527 1.996-5.316c1.213-.665 8.798-.774 9.33-.134m27.322.271c1.32 1.007 2.08 3.546 1.637 5.474-.403 1.751-.353 61.681.053 63.796.39 2.023-.533 4.6-1.92 5.374-2.937 1.637-10.36.47-10.717-1.686-.09-.538-.27-1.323-.405-1.744-.15-.475-.14-1.437.028-2.533.223-1.447.2-60.392-.023-64.568-.092-1.708.435-3.276 1.36-4.049 1.284-1.072 8.605-1.119 9.988-.064m146.246-.109c1.28.785 1.662 2.403 1.57 6.622-.12 5.485-.106 90.679.016 92.934.198 3.673-1.635 5.648-4.812 5.186-1.272-.185-8.848-.267-21.69-.234-21.83.055-20.374.167-21.318-1.64l-.685-1.309.005-49.44c.006-52.039-.03-50.545 1.22-51.897l.616-.666 22.248.044c18.02.036 22.36.112 22.828.4m-271.964 5.988c-.796.408-3.38 2.874-3.765 3.594-.413.772-.4 63.362.014 64.253.56 1.207 2.553 2.467 4.105 2.596 3.82.317 6.07-2.736 5.456-7.409-.125-.953-.208-14.573-.183-30.266.05-32.203.258-29.207-2.183-31.328-1.776-1.542-2.586-1.88-3.444-1.44m16.457 1.131c-1.656 1.768-1.564-.279-1.56 34.501.003 31.788.054 33.802.853 33.802.106 0 .393.199.636.443 1.165 1.164 5.186.018 5.896-1.681.586-1.404.586-63.586-.001-64.99-.452-1.083-1.08-1.543-3.3-2.412l-1.616-.634-.91.971m125.024-.754c-.836.25-1.792 1.051-2.597 2.174-.5.698-.513 1.558-.504 33.317l.008 32.6.924.846c1.4 1.273 4.193 1.578 6.006.653 1.15-.587 1.446-1.001 1.714-2.399.1-.514.373-1.388.6-1.944.4-.938.398-1.117-.03-2.477s-.46-3.588-.415-29.923l-.147-29.462c-.506-2.618-3.022-4.147-5.568-3.385m17.926.457l-1.354 1.126c-.26.216-.47.508-.47.65s-.243.515-.54.832c-.55.586-.888 62.581-.348 64.029.868 2.328 4.147 3.733 5.517 2.363.22-.22.504-.4.63-.4.908 0 .947-1.422.93-33.746-.018-35.18.112-32.698-1.8-34.587-1.2-1.195-1.42-1.217-2.566-.267m-158.055.941c1.228.664 1.83 1.124 1.83 1.398 0 .152.247.488.55.747.52.446.538.63.333 3.326-.17 2.253-.163 50.477.01 57.255.042 1.635-.684 4.133-1.2 4.133-.145 0-.444.18-.664.4-.91.909-3.486.164-4.1-1.186-.446-.979-.417-63.489.03-64.324.388-.725 1.318-1.535 1.776-1.547.183-.005.333-.129.333-.276 0-.359.345-.336 1.103.074m19.313 1.731l.634.462.01 31.275c.01 34.254.07 32.924-1.508 33.271-.413.09-1.084.269-1.492.398-2.513.792-2.388 2.442-2.362-31.189l-.183-31.279c-.21-1.832.008-2.54 1.242-4.024.393-.472 2.3.091 3.66 1.086m124.623-.596c.456.519.83 1.089.83 1.267l-.392 63.814c-1.126 1.718-4.27 1.849-5.676.236l-.6-.689-.042-31.252.004-31.785c.205-2.34 4.257-3.437 5.877-1.591m16.367-.342c1.06 1.002 1.05.78 1.028 30.333l.176 30.267c.548 4.402-1.337 7.29-3.524 5.399l-1.003-.867.024-29.999-.197-31.536c-.4-2.779 1.88-5.127 3.496-3.597m15.128 6.52c-1.53.553-2.112 1.005-2.607 2.027-.945 1.948-1.23 3.493-.893 4.832.426 1.692.42 45.568-.005 47.261-.434 1.725.118 4.553 1.094 5.595 3.252 3.476 6.786.877 6.394-4.702-.123-1.753-.112-46.803.012-48.533.134-1.878-.483-4.726-1.184-5.47-.412-.436-2.202-1.319-2.384-1.176a5.62 5.62 0 0 1-.427.166m-194.865.348c-1.617.338-2.38 1.005-2.734 2.389-.34 1.329-.444 54.943-.11 55.885.376 1.055 1.322 1.754 3.106 2.296l1.822.553 1.056-.731c.746-.517 1.136-1.03 1.33-1.748.49-1.821.365-55.003-.134-56.68-.606-2.039-1.668-2.52-4.336-1.964m197.026 2.051c.52.836.53 1.355.53 28.293-.001 29.307.042 28.384-1.356 29.21-2.217 1.31-3.86-2.028-3.213-6.531.276-1.93.24-41.928-.043-47.558-.193-3.85 2.438-6.051 4.08-3.414m-193.653.635c.428 1.43.47 53.799.043 55.38-.344 1.276-1.305 1.909-2.218 1.461-.33-.162-.848-.364-1.152-.448-1.514-.419-1.476.317-1.48-28.637-.004-29.525-.098-27.982 1.763-28.935 1.78-.911 2.503-.631 3.045 1.179m-19.978 3.807c-1.876.336-2.73.939-3.032 2.142-.247.981-.2 48.609.047 49.739.587 2.672 5.534 3.343 7.094.962.66-1.006.65-50.118-.008-51.509-.34-.715-2.01-1.911-2.33-1.67-.018.014-.815.165-1.77.336m227.423-.001c-1.007.447-1.82 1.582-1.82 2.539 0 .449-.204 1.244-.453 1.767-.396.829-.412 1.145-.126 2.475.64 2.98.6 38.212-.047 40.278l-.528 1.686.577 1.188c.317.653.58 1.514.585 1.914.032 2.682 5.116 3.722 7.61 1.557l.956-.831.004-50.797-.622-.781c-.965-1.212-4.394-1.768-6.135-.995m3.32 1.006c2.533.589 2.333-1.653 2.337 26.085.003 25.879.05 25.029-1.366 25.76-2.776 1.436-4.947.439-5.266-2.416-.098-.877-.118-12.079-.045-24.893l.133-23.297 1.054-.911c.58-.5 1.194-.856 1.365-.791s.976.274 1.788.463m-227.743.796c.602.81.83 48.629.24 50.155-.477 1.23-3.235 1.392-4.37.256-.488-.488-1.042-3.358-.87-4.505.23-1.537.222-40.304-.01-41.225-.328-1.306.383-4.119 1.186-4.691 1.367-.973 3.096-.969 3.824.01m-21.673 4.177c-.85.403-1.476 1.024-1.94 1.927-.65 1.261-.6 43.251.064 44.697 1.296 2.869 7.572 2.398 8.147-.612.227-1.188.185-43.362-.044-44.033-.338-.99-1.716-1.918-2.854-1.921-.603-.002-1.517-.059-2.03-.127s-1.118-.037-1.343.069m263.418.524c-1.392.864-1.367.413-1.343 23.809.023 22.95-.003 22.47 1.282 23.312 2.296 1.505 5.9.512 6.352-1.75.532-2.659.167-43.403-.397-44.359-.92-1.562-4.12-2.111-5.894-1.012m-260.474.552c.514.102 1.234.397 1.6.657l.665.471-.074 18.462.178 20.061c.292 1.852-.097 5.08-.696 5.776-.652.759-3.68 1.143-4.468.566-1.2-.877-1.817-3.548-1.428-6.179.157-1.061.226-9.004.174-19.963l-.086-18.2.745-.933c.8-.99 1.38-1.115 3.4-.718m265.188.782c.57.614.677.986.677 2.333l.025 20.814c.026 19.373-.043 20.963-.933 21.701-.517.43-3.78.077-4.223-.456-.497-.6-.5-43.706.007-44.119.31-.258 2.657-.925 3.447-.981.177-.012.627.306 1 .708M67.333 183.166c-1.748 1.006-1.857 1.625-1.947 11.051-.113 11.917.255 12.983 4.48 12.983 4.13 0 4.358-.662 4.345-12.537-.013-11.096-.09-11.34-3.66-11.754-2.4-.278-2.273-.287-3.22.257m36.243-.085c-3.53.643-3.632.935-3.827 10.786-.203 10.297.06 11.47 2.86 12.709 4.44 1.967 5.17.299 5.164-11.814-.004-11.529-.312-12.387-4.196-11.681m16.537-.049c-2.885 1.06-3.208 2.282-3.175 12.035.03 8.746.114 9.249 1.836 10.902 3.69 3.547 8.878-.191 8.146-5.871-.284-2.205-.287-7.882-.005-10.098.625-4.91-2.814-8.433-6.802-6.968m36.33.034c-3.61.504-3.695.792-3.59 12.346.11 12.099-.202 11.608 7.5 11.742 7.95.139 7.727.497 7.73-12.354.003-12.382.447-11.654-7.283-11.941-1.247-.046-3.208.047-4.358.207m26.8-.011c-3.495.576-3.814 1.666-3.714 12.678.102 11.29.232 11.467 8.394 11.467h4.6l1.067-1.067c.587-.586 1.067-1.25 1.067-1.475s.195-.855.433-1.4c.564-1.288.716-15.288.175-16.06-.178-.255-.4-.944-.495-1.531-.213-1.329-1.175-2.401-2.313-2.577-1.8-.28-7.603-.303-9.224-.035m27.1.009c-3.4.726-3.732 1.721-3.777 11.682-.053 11.843.36 12.455 8.432 12.453 5.362-.001 6.123-.329 7.727-3.332.85-1.59.935-15.5.108-17.6-.634-1.611-2.033-2.958-3.333-3.208-1.523-.294-7.768-.29-9.157.005m26.756.053c-.602.175-1.282.505-1.51.734s-.508.416-.62.416c-.78 0-1.636 3.864-1.33 6 .304 2.124.292 7.568-.022 9.733-.44 3.041.755 5.535 3.28 6.844 1.49.771 9.65.394 11.042-.511 2.198-1.429 2.258-1.732 2.248-11.431-.01-10.277-.276-11.109-3.776-11.849-1.543-.327-8.118-.281-9.31.064m25.498-.183c-1.284.165-1.68.347-2.333 1.08l-.787.882-.058 8.019c-.076 10.425-.02 11.549.62 12.591 1.736 2.829 7.972 2.102 7.972-.929 0-.372.257-1.207.572-1.857.554-1.144.558-1.228.134-2.575-.562-1.782-.608-8.421-.073-10.432.294-1.103.298-1.44.02-1.821-.187-.256-.426-1.087-.53-1.846-.22-1.609-.892-2.587-2.077-3.026-.957-.354-1.293-.363-3.458-.086m18.08.055c-1.06.372-1.658.92-2.42 2.219-.73 1.243-.756 1.605-.725 9.725l-.01 6.833c-.073 2.434 2.226 5.434 4.163 5.434 2.81 0 3.332-2.033 3.258-12.667-.068-9.703-.25-10.662-2.172-11.465-1.09-.456-1.024-.454-2.094-.079m16.493.112c-1.764.625-2.9 2.821-2.807 5.432l.2 5.561c.14 3.852.095 4.89-.27 6.191-.398 1.417-.4 1.639-.028 2.36.227.437.412.981.412 1.208s.097.414.217.414.372.396.562.881c1.23 3.136 5.506 2.436 5.974-.977.093-.674.312-1.457.488-1.739.25-.401.246-.911-.024-2.339-.244-1.297-.294-3.064-.17-6.093.245-6.017.246-5.962-.154-7.733-.426-1.889-1.08-2.956-1.948-3.174-.346-.086-.79-.208-.986-.271s-.856.063-1.465.279m-211.073.078c-2.763.387-2.93 1.048-2.943 11.676-.012 10.538.123 11.069 3.04 11.935 2.06.612 2.6.534 3.564-.52 1.17-1.277 1.186-1.436 1.186-11.663 0-11.954-.06-12.098-4.846-11.428m51.195.271c-1.227.965-1.328 1.795-1.347 11.034-.022 11.544.397 13.045 3.513 12.58 4.138-.617 4.493-1.631 4.406-12.581-.083-10.479-.276-11.03-3.993-11.404-1.66-.166-1.95-.125-2.58.371m178.54-.336c-2.806.289-3.07 1.369-2.97 12.165.084 8.97.34 10.854 1.477 10.854.185 0 .337.11.337.245s.606.374 1.346.533c4.5.965 4.86.024 4.836-12.617-.022-11.519-.097-11.686-5.027-11.18m16.86.005c-2.718.236-3.178 1.704-2.952 9.414.083 2.86.054 6.1-.066 7.2-.517 4.743.718 6.959 4.07 7.307 3.496.363 3.867-.809 3.866-12.183-.003-11.934-.096-12.157-4.917-11.738m-207.895 3.435c.578 1.636.6 1.838.274 4.323-.312 2.448-.24 6.691.167 9.955.38 3.052-2.86 6.564-4.523 4.901-.22-.22-.5-.4-.62-.4-1.04 0-1.326-2.387-1.285-10.666.047-9.257.127-9.704 1.914-10.627l1.02-.527 1.224.663c1.094.592 1.29.846 1.83 2.378m140.872-2.287c.35 0 .935.718 1.306 1.6.612 1.458.4 17.403-.246 18.448-1.448 2.344-4.715 2.27-5.76-.13-.73-1.674-.664-17.415.077-18.852.47-.911 3.95-1.948 4.252-1.267.05.11.216.201.37.201m17.97 2.156c.227 1.003.284 3.072.19 6.777-.077 2.967-.023 6.036.123 6.917.3 1.821-.473 4.557-1.552 5.493-1.485 1.287-3.695-2.407-3.146-5.26.135-.706.21-4.172.168-7.703-.077-6.399-.076-6.422.563-7.354 1.403-2.048 3.053-1.539 3.655 1.13m16.658-.629c.227.69.325 3.477.325 9.301 0 9.054-.012 9.13-1.657 10.619-1.34 1.212-3.416-2.306-3.058-5.181.226-1.806.267-7.752.08-11.2-.26-4.755 3.02-7.449 4.31-3.539m-228.03-.906c.73 1.031 1.06 3.327.813 5.645-.313 2.922-.302 6.511.03 9.087.51 3.968-.373 5.729-3.098 6.186-2.62.44-4.198-2.152-3.632-5.963.37-2.489.382-6.515.028-9.344-.297-2.369.342-5.431 1.29-6.187.73-.581 4.044-.163 4.57.576m33.405-.555c1.167.904 1.727 16.919.69 19.69-.827 2.206-2.2 2.161-4.082-.136l-.976-1.191.01-7.754c.012-9.232.292-10.246 2.966-10.746l.812-.16c.082-.02.343.114.58.297m59.885.086c1.25.389 1.552 2.53 1.504 10.648-.062 10.737-.067 10.747-5.636 10.812-6.386.075-8.15-1.404-7.336-6.149.403-2.351.413-6.557.022-9.187-.354-2.382.26-5.285 1.232-5.82 1.086-.598 8.557-.82 10.214-.304m26.775-.166c.104.007.504.552.9 1.21l.7 1.197.014 8.07c.014 8.012-.034 8.521-.926 9.931-.767 1.209-.827 1.22-7.4 1.274-3.123.026-5.267-2.618-4.738-5.841.14-.858.2-3.918.13-6.798-.222-9.301.45-9.838 11.33-9.043m27.493.435c.386.282.705.644.7.804s.188.653.408 1.094.41 1.089.424 1.441c.027.721.047 12.806.023 13.845-.055 2.377-2.27 4.321-4.557 3.998-1.007-.142-2.307-.128-3.366.037-1.947.303-4.4-.84-4.4-2.054 0-.078-.258-.489-.572-.915-.51-.69-.548-.954-.35-2.456.287-2.19.296-8.404.016-10.615-.277-2.179.693-4.551 2.185-5.345 1.327-.706 8.446-.581 9.47.166m26.733-.222c.302.164.77.755 1.04 1.316l.87 1.759c.33.646.325.979-.04 2.586-.563 2.472-.553 7.33.02 9.686.437 1.803-.17 4.454-1.018 4.454-.122 0-.22.168-.22.373 0 .868-2.036 1.519-3.846 1.23-1.143-.183-2.146-.181-3.12.005-1.62.309-3.103-.179-3.645-1.199-1.403-2.638-1.45-2.849-1.1-4.863.224-1.323.268-3.274.14-6.267-.248-5.86-.25-5.556.047-6.65.316-1.162 1.068-2.237 1.8-2.573.75-.344 8.405-.223 9.08.143M89.48 185.4c.76 1.83.798 17.202.046 18.733-.83 1.692-.867 1.714-2.12 1.283-2.8-.964-3.217-2.138-2.893-8.127.178-3.289.17-5.463-.026-6.968-.5-3.843.795-6.054 3.546-6.054.895 0 1.013.092 1.446 1.133m51.472-.479c1.313.86 1.415 1.562 1.468 10.06.053 8.62.068 8.529-1.58 9.747-1.002.74-2.514 1.033-2.887.559-.776-.983-1.314-3.551-1.08-5.154.128-.88.17-4.09.094-7.133-.133-5.328.057-7.291.83-8.564.216-.356 2.38-.023 3.156.485m178.177-.321c1.175 1.5.994 19.166-.2 20.618-.7.841-4.252-.311-4.252-1.379 0-.215-.198-.692-.44-1.061-.385-.587-.4-.939-.133-2.857.376-2.692.392-7.491.033-9.705-.4-2.524.356-5.155 1.63-5.601 1.207-.423 3.045-.431 3.37-.015m16.93.933c.782 1.761.884 16.657.125 18.179-.248.497-.45 1.052-.45 1.234 0 .925-3 .529-3.908-.516-.694-.806-1.274-2.678-1.028-3.318.09-.237.16-3.575.155-7.416-.012-8.096.1-8.662 1.773-9.107 2.227-.59 2.714-.453 3.334.944" fill="#a9a9a9"/><path d="M184.25 61.41c-1.002.263-2.913 2.194-2.924 2.955-.288 19.419.077 27.635 1.227 27.635.176 0 .66.176 1.076.392 1.065.553 7.92.542 8.768-.014 1.182-.774 1.268-1.821 1.27-15.445l.001-12.8-.613-1.2c-.337-.66-.66-1.26-.72-1.333-.195-.24-7.26-.406-8.084-.19m26.812.057c-1.83.805-2.955 3.305-2.42 5.371.607 2.343.622 17.892.02 20.206-.252.968-.312 1.669-.16 1.856.135.165.378.78.54 1.367.623 2.271 1.166 2.496 5.99 2.491 3-.003 3.996-.09 4.286-.381.208-.207.497-.377.644-.377s.4-.63.56-1.4.4-1.555.51-1.745.06-1.149-.13-2.133c-.51-2.641-.496-17.167.02-19.636.413-1.975.032-3.393-1.39-5.174-.55-.689-7.128-1.035-8.468-.445m26.83-.09c-.264.097-.813.744-1.22 1.438l-.74 1.26.007 12.963c.01 16.784-.375 15.725 5.7 15.733 5.797.008 6.935-1.142 6.303-6.366-.166-1.373-.2-5.823-.115-11.458l.166-10.002c.01-.94-1.727-3.603-2.37-3.63-2.69-.114-7.367-.077-7.743.062m-81.946.667c-1.3.894-1.86 2.627-1.494 4.637.19 1.053.152 16.209-.056 21.852-.013.367.073 1.262.192 1.99l.217 1.323 1.598.494c1.95.604 8.14.574 9.08-.044.914-.601 1.52-3.512 1.204-5.772-.288-2.049-.196-18.535.113-20.302.198-1.129-.282-2.919-1.148-4.289-.62-.977-8.25-.89-9.707.111m34.114.423l1.87-.133.666 1.402c.546 1.149.625 1.577.435 2.367-.128.53-.214 6.127-.192 12.438.03 8.945-.038 11.69-.314 12.453l-.353.978-3.485.081c-4.755.11-4.802.1-5.363-1.146-.26-.572-.545-1.04-.637-1.04-.576 0-.75-1.67-.326-3.132.542-1.871.575-17.792.04-19.668-.57-2.002-.563-2.11.2-2.934 1.822-1.966 2.338-2.202 4.043-1.851.85.175 2.388.259 3.415.185m23.808-.009c1.18.306 3.432.058 4.292-.474.25-.154 1.28.873 1.3 1.293.005.116.256.546.558.955.532.719.536.803.134 2.539-.512 2.208-.6 16.95-.118 19.865.3 1.815-.442 5.33-1.135 5.381-.127.01-1.8.017-3.697.017s-3.65-.007-3.87-.017-.582-.437-.8-.95c-1.236-2.915-1.186-2.659-.778-4.015.57-1.891.555-18.497-.018-20.119-.22-.623-.4-1.35-.4-1.614s.18-.661.4-.881.4-.506.4-.635c0-.61 1.69-1.944 2.238-1.768.31.099.982.29 1.496.423m26.533-.014c1.43.328 1.384.33 3.15-.154 1.753-.481 1.798-.461 3.05 1.383.593.874.637 1.123.454 2.58-.275 2.193-.282 19.084-.01 21.094.19 1.391.14 1.768-.346 2.723-.31.61-.566 1.294-.566 1.519 0 .477.212.454-4.266.454a214.13 214.13 0 0 1-3.834-.021c-.44-.026-1.64-3.578-1.362-4.029.237-.384.242-20.4.005-21.803-.28-1.666 1.264-4.576 2.218-4.175.242.102.92.295 1.506.429m-77.72-.047l2.546.003.355.982c.512 1.415.515 25.25.004 27.244L165.233 92h-4.225c-3.78 0-4.243-.049-4.397-.467-.095-.256-.24-.526-.325-.6-1.27-1.109-1.652-2.914-.916-4.337.488-.943.598-18.652.12-19.24-1.582-1.948 1.012-5.519 3.7-5.105.513.079 2.08.144 3.48.146m100.58 3.445c-2.453.665-2.908 1.58-2.457 4.941.23 1.701.272 4.471.147 9.35-.246 9.603-.244 9.737.158 10.926.873 2.583 5.118 2.291 5.704-.392.348-1.593.246-23.083-.11-23.503-.93-1.092-1.62-1.827-1.69-1.803-.044.015-.832.231-1.752.481m-125.185.501c-.753.886-1.082 2.159-.905 3.498.228 1.712.235 16.858.01 17.447-.68 1.77.862 5.598 2.008 4.985A2.63 2.63 0 0 1 140.23 92c1.016 0 2.01-2.621 1.8-4.746-.268-2.712-.185-15.873.1-17.429.284-1.497.19-1.726-1.102-2.645-1.485-1.057-2.525-1.351-2.963-.837m127.54.39c.275.33.505.74.51.911a.48.48 0 0 0 .305.41c.214.071.207.643-.026 2.089-.26 1.617-.256 16.627.005 18.257.08.496-.54 3.145-.814 3.474-.47.567-2.693.152-3.46-.647l-.666-.694.073-9.466c.04-5.207-.034-10.187-.165-11.067-.35-2.349.104-2.828 3.65-3.841.05-.014.316.244.59.574M140.5 67.968c.682.522.606 1.185-.39 3.406-.585 1.304-.542 13.399.05 14.547.833 1.61.642 3.108-.597 4.664l-1.102 1.385-.46-1.638c-.33-1.173-.41-2.077-.283-3.192.225-1.988.213-14.4-.017-16.931-.284-3.135.652-3.884 2.8-2.241m-19.982 4.221c-1.708 1.877-1.923 2.59-1.458 4.84.678 3.278.474 18.64-.28 21.144-.173.574 2.328 3.16 3.057 3.16.963 0 3.312-2.616 3.085-3.436-.35-1.26-.46-18.936-.13-20.993.348-2.18-.036-3.188-1.842-4.837-1.195-1.091-1.333-1.084-2.43.122m160.814-.376c-.82.658-1.87 2.31-1.842 2.905.015.338.05 5.418.076 11.288.053 11.636.102 12.033 1.62 13.027.785.515 1.888-.325 2.156-1.642.08-.399.246-1.097.366-1.553s.123-1.416.005-2.134c-.3-1.817-.297-15.111.002-16.937.395-2.407-1.26-5.852-2.382-4.954m-158.64.928c1.462 1.534 1.717 2.284 1.362 4.003-.432 2.095-.438 17.625-.007 19.964l.314 1.703-.914.95c-1.544 1.605-1.733 1.626-2.95.333-.997-1.059-1.06-1.219-.892-2.218.37-2.186.457-18.584.108-20.476-.338-1.837-.285-2.134.62-3.51 1.088-1.654 1.403-1.754 2.36-.749m159.286-.046c.232.089.422.281.422.426s.253.619.563 1.053c.53.747.544.902.236 2.842-.27 1.707-.255 12.616.026 17.917.05.918-.973 3.584-1.408 3.674-.37.077-1.02-1.011-1.565-2.619-.243-.717-.247-1.283-.02-2.346.438-2.044.383-15.218-.072-17.119-.313-1.308.593-3.99 1.348-3.99.026 0 .237.073.47.162m15.55 6.038c-1.27 1.743-1.616 2.934-1.3 4.452.385 1.797.388 15.031.003 17.184-.275 1.542-.253 1.697.403 2.831.38.66.763 1.399.85 1.642.43 1.221 1.516.662 2.413-1.242.774-1.643.723-22.473-.06-23.883-1.16-2.089-1.43-2.204-2.32-.984m-193.066-.21c-2.165 1.124-3.038 2.763-2.5 4.699.614 2.206.642 15.064.037 16.778s-.524 1.982 1.167 3.721c1.88 1.933 1.9 1.937 2.682.391.67-1.342.947-21.991.322-24.037-.488-1.596-.9-1.971-1.708-1.552m194.454.944c.615 0 1.145 2.459.848 3.936-.402 2.004-.392 14.562.014 16.765.324 1.755.265 2.033-.793 3.749-.902 1.464-2.392-1.148-2.036-3.567.298-2.019.297-15.223-.002-17.253-.238-1.624.068-2.668 1.172-3.993.362-.435.424-.443.5-.067.047.236.18.43.297.43m-192.995 12.4c0 9.304-.06 11.048-.408 11.702l-.408.769-1.22-1.237c-.67-.681-1.22-1.282-1.22-1.336s.19-.623.42-1.265c.33-.913.447-2.671.536-8.1.114-6.886.075-7.36-.816-10.145-.132-.413.125-.865 1.06-1.867l1.236-1.321.408.933c.344.788.408 2.64.41 11.867M313.825 87.4l-.95 1 .243 4.133c.134 2.274.17 7.559.08 11.746l-.164 7.612.95 1.009c1.044 1.108 1.523 1.135 3.59.204 1.88-.846 1.76.06 1.708-13-.055-13.351.085-12.524-2.242-13.243-2.018-.624-2.13-.605-3.218.539m-226.092-.467c-.22.143-.64.261-.933.264s-.87.275-1.28.604l-.747.599.315 4.267c.3 4.077.2 13.83-.18 17.6l-.162 1.6.894.443c2.08 1.03 2.678 1.094 3.4.363l.67-.672.013-23.868-.644-.733c-.714-.813-.783-.837-1.356-.467m229.675.768a1.17 1.17 0 0 0 .718.299c.376 0 .42 1.258.414 11.99l-.007 11.989-.933.396c-1.636.695-2.523.761-3.153.237-.898-.749-.952-24.049-.057-25.001.602-.641 2.34-.589 3.018.09m-228.66.086c.24.239.32 3.352.32 12.367 0 13.109-.014 13.227-1.382 12.269-.332-.233-.817-.423-1.078-.423-.6 0-.647-2.802-.068-5.2.54-2.239.527-10.691-.023-14.394-.552-3.716-.488-4.143.684-4.564 1.203-.431 1.172-.43 1.547-.055M67.49 93.749l-.644.946.052 23.835.688.591c.87.748 3.893.601 4.724-.23.744-.744.762-24.097.018-24.954-1.196-1.38-3.953-1.487-4.838-.188m265.69-.188c-2.215.719-2.36.984-1.968 3.616.236 1.588.293 4.754.198 11.007-.167 11.032-.26 10.375 1.553 10.903 3.316.964 3.25 1.229 3.326-13.015l.062-11.338-.594-.834c-.67-.939-.71-.945-2.577-.339m-262.95.298c2 .328 2.27.687 1.984 2.637-.122.827-.2 5.464-.196 10.304l.004 10.279-.023 1.479-1.8.316c-2.113.371-2.724-.023-2.745-1.77-.18-15.182-.05-22.461.4-22.969.564-.623.378-.601 2.366-.276m265.182.328c.344.343.484 21.993.154 23.646-.146.727-.277.834-1.027.834-.893 0-.943-.072-2.043-2.895-.252-.646.014-1.876.713-3.298.838-1.705.206-13.38-.845-15.625-.834-1.78-.79-1.889.98-2.46 1.84-.592 1.692-.577 2.067-.202m-124.573 6.927c-1.71.876-2.658 3.34-2.14 5.553.546 2.329.514 61.43-.035 63.466-.982 3.649 1.364 6.441 4.918 5.856.858-.142 2.145-.141 3.15.001 2.016.286 3.425-.307 3.687-1.551.08-.388.3-1.126.483-1.639.273-.76.266-1.33-.04-3.067-.42-2.392-.273-61.381.157-63.466.146-.705.108-1.383-.1-2-.182-.514-.405-1.267-.494-1.675-.287-1.302-1.545-1.841-3.883-1.662-1.1.084-2.616.05-3.368-.077-1.12-.188-1.543-.141-2.325.261m26.85-.065c-1.817.927-1.718-1.247-1.717 37.551l.474 35.917c.653 1.37 1.744 1.799 3.746 1.473.967-.157 2.128-.152 3.168.014 3.282.525 4.783-1.088 4.598-4.937-.1-2.301-.118-62.796-.008-65.2.172-3.761-1.36-5.487-4.434-4.992-1.002.161-2.24.165-3.313.011-1.376-.198-1.87-.166-2.514.163m-227.422.256c-1.703.783-2.46 2.977-1.885 5.457.618 2.666.633 90.778.015 92.814-.538 1.773-.5 2.722.136 3.357.294.294.534.603.534.688s.356.51.792.945l.792.792 21.347-.009c22.4-.009 22.19.002 23.134-1.134.677-.816 1.058-2.563.84-3.859-.12-.709-.214-22.989-.21-49.511l-.375-48.8c-.565-.861-3.37-1.335-5.73-.969-1.86.288-34.745.191-37.124-.11-.86-.108-1.502-.012-2.266.339m146.8-.252c-.367.129-.992.305-1.39.392-1.072.237-1.037-.909-1.118 35.888l-.124 34.4c-.164 1.359.335 3.257.966 3.67.892.584 9.563.818 10.204.275.778-.661 1.388-3.881 1.1-5.812-.212-1.423-.207-60.186.006-64.399.067-1.33-.627-3.859-1.133-4.133-.576-.31-7.752-.547-8.512-.281m26.598.131c-.64.188-1.243.633-1.67 1.234l-.67.94v35.15c0 40.167-.227 36.557 2.344 37.225 1.72.446 8.008.359 8.747-.122 1.22-.793 1.212-.575 1.21-37.324-.003-37.676.05-36.188-1.358-37.071-.572-.358-7.407-.384-8.602-.032m164.16.077c-.833.682-1.627 3.623-1.387 5.139.3 1.956.27 92.215-.04 93.898-.28 1.513.046 2.575 1.357 4.427l.42.591 44.2.053.49-.618c1.5-1.89 1.8-2.948 1.39-4.912-.535-2.557-.548-90.165-.014-92.906.286-1.464.277-1.919-.055-2.933-.966-2.945-1.546-3.346-4.415-3.054-2.353.239-37.566.253-39.767.016-1.31-.141-1.705-.087-2.176.299m-333.26.632c.433.36 33.993.385 34.686.027 1.794-.928 3.227-.608 5.032 1.121l1.255 1.202-.175 2.079c-.29 3.421-.232 92.58.06 94.056.492 2.493-2.043 4.422-5.022 3.822-1.833-.37-34.375-.569-35.733-.219l-1.952.51c-2.24.594-4.2-2.418-3.12-4.795.818-1.802.837-90.303.02-92.988l-.515-1.692.812-1.508c1.224-2.274 1.202-2.258 2.86-2.063.802.094 1.61.296 1.792.448m148.777-.295l1.875.002.336 1.139c.48 1.623.497 70.182.02 71.505l-.323.892-3.414.189c-3.974.22-4.83.09-5.31-.804-.192-.36-.45-.654-.57-.654s-.222-.166-.222-.368-.18-.516-.4-.699c-.5-.423-.513-1.674-.006-2.655.64-1.236.687-62.173.05-63.398-.55-1.061-.568-2.045-.044-2.48.22-.183.4-.442.4-.577s.487-.736 1.083-1.337l1.082-1.094 1.784.169c.982.092 2.628.169 3.66.17m29.03.887c.628 1.447.684 70.519.058 72.017l-.383.918-3.157.037-3.772.05c-1.63.037-3.348-3.098-2.818-5.143.783-3.02.512-64.175-.29-64.975-.2-.199.865-2.106 1.716-3.074l.8-.9 7.413.052.442 1.018m21.716-.898c.58.167 1.376.155 2.314-.033 2.826-.568 4.45 1.73 3.696 5.235-.472 2.197-.525 60.272-.058 63.101.27 1.628.246 2.05-.186 3.385-.76 2.356-.972 2.501-3.114 2.146-1.336-.222-2.184-.219-3.33.011-2.59.521-4.457-2.087-3.652-5.107.547-2.057.55-61.784.002-63.84-.313-1.178-.313-1.488.003-2.097.204-.394.37-.838.37-.987 0-1.614 1.8-2.435 3.955-1.814m27.355.283c.157.156.378.146.588-.029.185-.154 1.088-.301 2.007-.327l1.67-.047.775 1.6c.7 1.443.753 1.743.553 3.066-.295 1.952-.295 62.681.001 64.437.545 3.238-1.053 5.346-3.685 4.861-1.288-.238-2.074-.24-3.22-.01-2.192.44-3.324-.721-3.39-3.478-.023-.947-.013-65.243.01-67.014.008-.589.2-1.429.43-1.866s.415-.936.416-1.107c.004-.647 3.213-.718 3.845-.086m111.606.018c2.02.342 34.39.32 35.378-.024 1.697-.591 3.637-.461 4.017.269 1.25 2.412 1.36 2.92.993 4.629-.533 2.483-.516 90.736.018 93.227.358 1.674.35 1.753-.28 2.8-1.2 1.993-1.284 2.061-2.143 1.703-1.045-.437-27.016-.787-35.166-.474l-6.934.242c-1.26.01-1.968-1.742-1.7-4.178.114-.998.202-23.115.195-49.149l.133-47.733.405-1.109c.283-.776 1.42-.822 5.073-.203m-232.847 8.066c-1.262 1.156-1.37 1.698-1.024 5.133.43 4.265.364 53.063-.074 55.136-.505 2.392.173 4.848 1.585 5.742l1.024.647 1.183-.639c1.42-.766 2.3-3.285 1.87-5.402-.12-.607-.212-14.241-.2-30.296l.02-29.192-1.08-1.008c-1.334-1.244-2.045-1.27-3.3-.121m143.177-.346c-2.657.606-3.026 1.262-2.588 4.602.264 2.009.27 40.306.008 57.923-.044 2.941.96 3.932 4.165 4.117.557.032 1.646-1.331 1.825-2.283.48-2.559.186-62.811-.31-63.379-1.293-1.484-1.125-1.431-3.1-.98m17.16.615l-.84.889v31.37c.001 34.348-.074 32.696 1.532 33.441 1.006.466 2.233-.759 2.24-2.236l.002-62.4c-.01-.468-1.334-1.954-1.742-1.954-.195 0-.732.401-1.193.89m-157.275.443c.922.923 1.037 1.166.854 1.8-.33 1.147-.452 56.223-.126 57.74.28 1.304-.22 4.074-.895 4.957-1.644 2.153-4.047-1.392-3.363-4.959.33-1.71.222-55.999-.113-57.671-.167-.834-.082-1.04.794-1.933 1.232-1.257 1.532-1.25 2.85.066m14.92-.864c-.83.285-.872 1.857-.872 32.328 0 37.308-.256 34.681 3.232 33.227.952-.396 1.826-3.029 1.557-4.69-.287-1.774-.266-55.037.023-57.03.168-1.164.154-1.842-.045-2.16-.518-.83-3.1-1.944-3.895-1.675m127.7 1.07c.626.913.664 1.126.463 2.595-.18 1.314-.142 57.535.04 58.4.133.636-.48 3.144-.863 3.526-.547.547-2.54.042-3.386-.858l-.57-.606.004-62.848 1.548-.593c2.01-.77 1.968-.776 2.764.384m17.194 2.861c-.24 2.939-.237 54.83.005 56.747.208 1.648-.4 4.429-1.114 5.014-.43.356-1.426-1.139-1.44-2.161l-.068-30.666-.262-30.402c-.134-.266.083-.748.644-1.43l.848-1.028.782.896c.766.877.778.94.606 3.03m-142.335-2.16c.276.265.25.653-.134 2.044-.674 2.442-.735 54.726-.066 56.916.396 1.298.108 2.504-.796 3.334-.08.073-.278.373-.44.666-.428.772-.965.655-1.222-.266-.357-1.284-.308-63.034.05-63.467.322-.388 1.878.074 2.608.773M103.99 118.2c-1.577 1.064-2.446 3.271-1.978 5.027.558 2.097.567 44.648.01 47.016-.3 1.316-.313 1.713-.018 2.4.194.453.49 1.198.66 1.655.47 1.272 2.3 2.031 2.993 1.239.732-.838.766-2.102.766-28.414.001-26.335-.04-27.863-.796-28.915-.53-.738-.554-.738-1.636-.008m193.35 0c-.86 1.324-1.32 3.42-1.056 4.814.3 1.634.318 45.986.01 47.585-.777 4.016 2.532 7.501 3.716 3.912.54-1.631.415-54.156-.13-55.461-.663-1.587-1.8-1.971-2.54-.85m1.53.267c.693.864 1.12 3.295.86 4.886-.318 1.936-.326 45.003-.01 46.914.415 2.505-.705 6.041-1.662 5.247-.668-.554-1.34-3.322-1.12-4.612.37-2.173.47-44.666.112-47.071-.372-2.491.39-5.698 1.352-5.698.11 0 .322.15.468.334m-192.982 28.517c.012 27.41-.03 28.569-1.066 28.298-.247-.064-.61-.499-.805-.966-1.003-2.398-1.068-2.706-.793-3.73.393-1.461.35-46.572-.045-47.892-.31-1.037.52-3.13 1.575-3.964 1.068-.844 1.123.527 1.134 28.254m208.288-22.491c-.64.64-1.17 2.4-1.178 3.907l.01 21.467-.014 21.893c-.08 4.044 1.103 4.9 5.3 3.834.948-.241 1.56-46.352.658-49.697-.425-1.581-3.643-2.529-4.767-1.404m-227.507.247c-1.428.703-2.027 2.692-1.627 5.393.418 2.816.406 37.749-.013 39.836-.583 2.902.39 5.144 2.473 5.708 2.227.603 2.14 1.634 2.137-25.41-.004-28.058.113-27.047-2.97-25.527m231.216 1.286c.718 1.163.92 47.115.21 47.975-.982 1.19-1.337 1.449-2.204 1.612-.995.187-1.482-.094-1.85-1.066-.25-.66-.248-47.901.002-48.578.717-1.946 2.62-1.917 3.84.057m-229.074-.27c.37.976.37 47.781-.001 48.757-.342.898-.76.789-1.537-.4-.327-.502-.717-1.058-.866-1.235-.395-.469-.315-2.502.128-3.278.585-1.023.585-37.626 0-39.026-.58-1.392-.494-2.45.32-3.86 1.066-1.846 1.53-2.073 1.955-.958m-21.276 5.103c-.453.522-.6 1.025-.6 2.05l-.008 20.958c-.01 23.728-.19 22.495 3.186 22.029 2.8-.386 2.545 1.73 2.63-22.667.083-24.407.303-22.326-2.415-22.799-2.164-.377-2.083-.39-2.792.429m266.2-.12c-2.7.487-2.705.5-2.314 5.837.375 5.101.24 32.199-.17 34.057-.657 2.981.97 5.295 3.545 5.044 1.178-.114 1.8-2.858 1.415-6.256-.163-1.44-.222-9.208-.152-20.009.133-20.447.295-19.146-2.325-18.673m-262.918.493l1.185.298v1.635l.027 21.283c.027 19.658.007 20.219-.71 20.219-.212 0-.385.112-.385.25 0 .2-2.155.694-2.656.609-.895-.151-1.354-42.663-.475-44.069.375-.601 1.26-.667 3.013-.225m264.552.29c.28.453.19 42.076-.092 42.826l-.23.616-.703-.553c-1.642-1.291-2.412-2.599-2.006-3.406 1.357-2.695 1.265-1.403 1.265-17.66 0-12.78-.062-15.322-.4-16.278-.223-.632-.4-2.044-.4-3.187v-2.053l1-.28c1.38-.386 1.345-.385 1.567-.025m-214.434 52.72c-1.773.759-1.948 1.824-1.588 9.648.14 3.063.09 4.325-.245 5.937l-.423 2.047.68 1.435c.87 1.834 2.146 3.036 2.752 2.589a3.91 3.91 0 0 1 .867-.464c.243-.082.5-.349.593-.592s.268-.622.412-.842c1.003-1.533 1.127-2.276.693-4.146-.448-1.932-.37-7.416.145-10.064.19-.978.154-1.501-.152-2.233-.22-.525-.404-1.151-.41-1.39-.028-1.276-2.073-2.461-3.324-1.925m-53.222.452c-.695.837-1.195 3.594-.964 5.306.17 1.265.12 6.333-.12 11.733-.1 2.251 1.397 3.847 3.447 3.675l1.675-.14.547-1.201c.818-1.797.806-16.827-.015-18.437-.682-1.336-3.722-1.959-4.57-.936m19.696.091c-2.224 1.013-2.88 2.563-2.378 5.61.412 2.492.368 7.486-.083 9.593-.472 2.2-.17 2.855 2.228 4.82 1.564 1.282 3.15-1.548 2.633-4.695-.146-.883-.198-3.969-.12-6.995.195-7.457-.292-9.238-2.28-8.333m16.468-.015c-1.893 1.11-2.75 3.855-2 6.428.394 1.366.326 5.667-.13 8.254-.45 2.555-.44 2.585 1.533 4.725 2.63 2.855 3.215 1.195 3.21-9.11-.007-10.365-.327-11.632-2.603-10.297m18.6.097c.808.702 1.616 2.657 1.57 3.8-.345 8.695-.348 9.725-.03 11.408.353 1.876-.158 3.607-1.26 4.272a.79.79 0 0 0-.354.6c0 .473-.946.516-1.174.053-.09-.183-.403-.693-.693-1.133-1.133-1.719-1.186-1.939-.85-3.566.4-1.933.413-8.536.02-10.485-.263-1.31-.233-1.615.267-2.745.31-.7.562-1.388.562-1.529 0-.187.95-1.17 1.226-1.266.013-.005.335.261.715.591m15.59-.124c-.647.74-.797 2.7-.8 10.457-.004 9.742.316 10.932 2.538 9.447 2.307-1.541 2.797-2.457 2.352-4.389-.33-1.439-.347-8.665-.023-10.525.374-2.144-.747-4.227-2.72-5.051-.862-.36-.983-.354-1.347.061m19.268-.304c-2.48.808-3.32 2.311-2.888 5.161.286 1.883.238 9.337-.068 10.665-.293 1.274.302 4.002.873 4.002.147 0 .642.266 1.1.591 2.006 1.429 9.75.584 9.778-1.067.004-.189.21-.652.456-1.029.398-.609.413-.931.133-2.871-.392-2.708-.405-7.19-.028-9.491.304-1.856-.154-4.212-1.074-5.525-.402-.575-6.82-.912-8.28-.436m26.267.288c-2.282 1.195-2.3 1.277-2.318 10.531l-.014 7.79 1.294 1.124c1.58 1.37 1.57 1.368 6.02 1.217l3.595-.122 1.504-2.467.037-7.6c.04-8-.182-9.554-1.507-10.584-.6-.467-7.682-.376-8.61.111m26.707.239c-1.42 1.421-2.053 3.339-1.627 4.939.543 2.041.517 8.3-.043 10.314l-.43 1.545 1.152 1.679c1.412 2.057 1.385 2.048 5.935 2l3.695-.038.632-.769c1.506-1.831 1.777-2.805 1.323-4.761-.5-2.197-.525-7.056-.03-9.608.307-1.586.305-1.975-.01-2.587-.205-.396-.372-.902-.372-1.124s-.36-.813-.798-1.313l-.798-.909-3.99-.011c-3.883-.01-4.005.007-4.64.643m27.136-.189c-1.448 1.206-1.6 2.232-1.573 10.509.017 4.775.127 7.754.292 7.866.147.1.532.619.857 1.155.745 1.225.545 1.18 4.994 1.141 3.635-.031 3.767-.053 4.4-.705 1.615-1.661 1.904-2.514 1.6-4.687-.34-2.348-.337-8.017.005-10.125.314-1.935-.33-3.988-1.582-5.035-.905-.757-8.103-.853-8.983-.119m24.98-.168c-1.288.458-2.042 2.965-1.63 5.413.37 2.193.346 7.79-.042 9.898-.59 3.197.36 4.986 2.925 5.515 3.046.628 3.42-.546 3.376-10.635-.044-10.359-.617-11.62-4.63-10.191m18.614-.074c-2.408 1.407-2.057 20.185.392 20.962.56.178 1.286-.527 1.815-1.764.383-.897.374-16.95-.01-17.866-.624-1.484-1.268-1.875-2.196-1.332m16.302.332c-.86 1.324-1.32 3.419-1.056 4.813.35 1.852.314 8.718-.058 10.738-.27 1.458-.25 1.767.133 2.354.244.372.443.831.443 1.021 0 .372 1.232 1.81 1.544 1.803 2.485-.054 3.205-19.574.78-21.116a1.29 1.29 0 0 0-1.785.387m19.534-.044c-2.365.749-2.32.591-2.266 8.244.026 3.593-.042 7.013-.152 7.6-.362 1.932.24 3.078 2.07 3.933 1.975.923 1.912.932 2.52-.336 1.025-2.14.592-20.422-.473-19.982a244.5 244.5 0 0 1-1.698.541m16.4.181c-1.328.442-2.16 1.749-2.1 3.304.337 9.038.338 10.062.012 11.79-.366 1.935.05 3.396 1.12 3.94 2.99 1.523 2.897 1.531 3.562-.305.57-1.574.663-15.437.116-17.346-.578-2.019-.665-2.063-2.71-1.383m-262.87.489a11.9 11.9 0 0 0 1.076.517c.556.211.974 2.161.743 3.462-.288 1.622-.253 9.208.05 10.802.365 1.925-.038 3.016-1.315 3.559-3.492 1.484-3.64 1.122-3.612-8.916.012-4.864.126-7.9.314-8.4.162-.431.364-.997.447-1.257.17-.524 1.068-.433 2.298.233m144.35.091c.12.115.708.039 1.3-.168 2.78-.958 4.818 1.351 4.055 4.597-.51 2.174-.5 7.573.038 9.915l.42 1.86-1.985 2.905-1.627-.341c-1.514-.318-3.333-.206-4.694.288-1.14.414-3.13-2.514-2.675-3.938.568-1.777.67-8.921.154-10.699-.456-1.568.074-3.29 1.432-4.648.5-.5 2.982-.341 3.572.229m26.508.061c.4.205.7.215.933.034.65-.51 2.9-.925 3.283-.606 1.05.871 1.793 3.009 1.57 4.516-.31 2.113-.276 9.228.054 10.849.283 1.392-.068 2.762-.708 2.762-.14 0-.258.153-.258.341 0 .732-1.01 1.268-1.796.955-.912-.362-4.232-.373-5.146-.016-.734.286-1.193.059-1.792-.886-.797-1.259-.884-1.8-.608-3.787.345-2.474.35-6.453.015-9.375-.52-4.522 1.25-6.424 4.452-4.787m24.324-.245c.352.56.858 2.399.825 3-.267 4.906-.282 10.268-.033 11.698.187 1.073.213 1.939.066 2.228a67.11 67.11 0 0 0-.747 1.574l-.508 1.1-1.56-.743c-1.95-.929-2.31-1.29-2.283-2.273.012-.431.046-4.056.074-8.055l.052-7.271.8-.658c.7-.584 1.896-1.107 2.67-1.176.148-.013.44.246.646.576m17.205 1.592c.432 1.335.456 1.756.187 3.384-.413 2.502-.373 7.498.078 9.599.37 1.727-.49 4.771-1.317 4.657s-1.76-2.822-1.454-4.195c.243-1.09.232-9.973-.015-12.037-.064-.531.49-2.294.934-2.97.576-.88.9-.561 1.587 1.562m16.08-1.859c.693.865 1.12 3.296.86 4.886-.356 2.173-.33 8.094.047 10.131.383 2.081-.79 5.243-1.628 4.392-1.003-1.019-1.412-2.252-1.243-3.751.414-3.678.477-7.719.157-10.15-.378-2.871.302-5.841 1.338-5.841.11 0 .322.15.468.333m-193.275 1.2c.587 1.977.613 15.57.033 16.931-.544 1.274-.668 1.258-2.034-.251l-1.134-1.253.415-1.213c.646-1.885.76-8.419.184-10.546-.496-1.831-.5-1.821 1.165-4.068.835-1.128.925-1.102 1.37.4m57.985-1h1.63l.416 1.267c.573 1.747.556 15.478-.02 16.77l-.373.837-3.482.117c-3.403.114-5.215-.201-5.215-.907 0-.119-.16-.217-.353-.217-1.396 0-1.714-1.764-.672-3.729.66-1.246.693-7.033.05-8.671-.93-2.364-.838-2.818.877-4.386l1.55-1.416 1.982.168c1.1.092 2.715.167 3.612.167m24.955.087c.367.017 1.27-.056 2.004-.162l1.336-.193.5 1.134c.46 1.023.504 1.739.46 7.268-.028 3.373.06 6.593.197 7.156.182.75.15 1.247-.124 1.866-.758 1.716-.88 1.776-3.6 1.765-1.378-.006-2.88.103-3.34.24-.754.226-.973.141-2.266-.876-2.132-1.678-2.216-1.818-1.692-2.832.738-1.427 1.074-7.884.52-9.947-.7-2.633-.74-2.839-.424-2.839.164 0 .298-.18.298-.4s.124-.4.275-.4.354-.205.45-.456c.47-1.227 1.46-1.708 3.142-1.528.88.095 1.9.187 2.266.204m-99.753.665c.495 1.195.484 16.504-.013 17.452l-.38.726-1.37-1.198c-1.51-1.32-1.497-1.209-.43-3.876.514-1.287.348-7.296-.258-9.298-.453-1.496-.307-2.288.5-2.771.2-.117.36-.327.36-.467 0-.279.834-1.262 1.1-1.297.092-.013.308.315.48.729m51.2.942c.935 1.213 1.074 1.545.866 2.075-1.264 3.226-1.403 8.476-.288 10.838l.84 1.774-.916.81c-2.048 1.81-1.958 1.778-2.38.844-.506-1.124-.492-15.507.017-17.037.393-1.181.42-1.171 1.86.696m178.978 6.04c-.02 3.153.074 6.378.207 7.166.213 1.262-.04 2.746-.635 3.707-.025.041-.84-.319-1.81-.8-1.872-.927-2.4-2.026-1.378-2.873.22-.183.4-.483.4-.667s.18-.484.4-.667c.317-.262.4-1.027.4-3.658 0-2.434-.107-3.534-.4-4.101l-.8-1.548c-.548-1.061-.51-1.286.334-2.035l1.114-.987a13.28 13.28 0 0 1 1.067-.801l.685-.464.225.997c.124.549.21 3.577.2 6.731m16.793 1.805c.014 5.235-.076 7.92-.282 8.373l-.304.666-1.11-.543c-.61-.299-1.15-.639-1.2-.755s-.262-.213-.475-.213c-.712 0-.69-.771.062-2.257.41-.812.842-1.476.958-1.476.374 0 .246-6.647-.143-7.426l-.8-1.596c-.675-1.344-.67-1.352 1.558-3.186l1.063-.874.327.79c.23.557.333 3.061.347 8.497" fill="#8c8c8c"/><path d="M157.333 61.055c-.278.188.866.271 3.77.274 4.724.005 4.43-.131 5.4 2.493.35.935.428 1.594.287 2.4-.31 1.781-.4 18.254-.1 20.311.434 3.074-.38 5.506-2.023 6.04-.458.149-.435.178.158.2.782.03 1.39-.532 1.85-1.707.224-.573.313-4.541.312-13.999-.001-17.213.49-15.848-5.787-16.128-2.166-.097-3.617-.053-3.867.116m26.344.179c-1.98.691-3.22 2.956-2.833 5.166.115.66.202 6.18.192 12.267-.022 13.076-.023 13.069 1.394 13.682 1.32.572 2.284.611 1.206.049-.42-.219-.908-.398-1.084-.398-1.15 0-1.515-8.216-1.227-27.635.01-.615 1.735-2.55 2.564-2.873.552-.216 7.626-.226 8.185-.011.186.071.635.754.997 1.516.414.872.69 1.217.746.93.05-.252-.16-.806-.464-1.233s-.553-.908-.553-1.068-.18-.293-.4-.293-.4-.09-.4-.2c-.001-.36-7.256-.272-8.323.101m27.058-.029c-.88.456-1.668 1.227-1.668 1.636 0 .198-.106.359-.235.359-.563 0-.903 1.631-.68 3.276.29 2.165.297 18.447.007 20.857-.307 2.56 1.022 5.448 2.51 5.45.293 0 .258-.102-.134-.382-1.036-.744-1.183-.948-1.482-2.069-.167-.623-.414-1.267-.55-1.432-.153-.187-.093-.888.16-1.856.6-2.304.588-17.862-.015-20.192-.555-2.142 1.1-5.486 2.74-5.532 7.922-.221 7.968-.208 9.302 2.613.724 1.531 1.003 1.817.652.667-.438-1.43-1.352-2.988-1.94-3.308-.808-.438-7.848-.509-8.663-.087m26.905-.024c-1.56.843-2.62 3.514-2.19 5.52.38 1.772.378 18.435-.002 20.209-.31 1.439.332 5.09.893 5.09.147 0 .42.21.61.466s.44.368.56.247.01-.337-.247-.481c-1.254-.702-1.314-1.396-1.322-15.194l-.007-12.963.726-1.237c.398-.681.834-1.305.967-1.388.194-.119 6.152-.221 8.008-.136.644.029 2.38 2.691 2.37 3.631l-.166 10.002c-.095 5.635-.05 10.085.115 11.458.336 2.772-.307 5.306-1.482 5.841-.37.169-.606.375-.524.457.304.304 1.813-.854 1.956-1.5.08-.368.324-1.157.54-1.753.347-.961.344-1.288-.026-2.884-.62-2.68-.608-16.844.018-19.523l.442-1.89-.9-1.671c-1.302-2.442-1.515-2.533-6.016-2.562-2.242-.014-4.02.093-4.33.261m-82.232.486c-1.092.853-1.655 3.067-1.365 5.369.162 1.284.223 5.796.15 11.097-.163 11.879-.16 12.031.186 12.8.253.559.273.451.126-.666-.097-.734-.154-1.574-.127-1.867.212-2.267.273-20.617.073-21.719-.362-1.991.206-3.8 1.432-4.558.505-.312.917-.617.917-.678 0-.248-.993-.09-1.392.222m38.535 4.066c.002.734.054 1.002.115.597s.06-1.006-.004-1.334-.113.004-.11.737m69.707-.388c-2.025.34-3.435 1.752-3.36 3.362.016.359.08.312.235-.174.586-1.834.982-2.21 2.834-2.692 1.996-.519 1.645-.66 3.307 1.333.294.353.534.524.534.381 0-.327-1.846-2.499-2.087-2.457l-1.463.247m-125.63.5c-.573.633-.533 1.006.05.478s2.055.035 3.6 1.383c.808.709.937.756.817.297-.32-1.221-3.787-2.9-4.458-2.158m82.838 1.495c-.455 2.4-.424 16.978.04 19.382.19.984.25 1.944.13 2.133s-.348.975-.51 1.745-.412 1.4-.56 1.4-.447.18-.667.4c-.233.234-.276.4-.102.4.566 0 1.57-1.276 1.865-2.369.254-.942.44-24.489.195-24.733-.038-.039-.216.7-.395 1.642m-83.853.252c-.278.53-.316 1.119-.152 2.357.12.908.196 5.851.17 10.984-.065 12.302.003 12.531 3.383 11.406 1.996-.664 2-.701 1.964-13.076-.018-6.094-.12-9.892-.247-9.263-.265 1.302-.336 14.773-.09 17.254.2 2.125-.785 4.746-1.8 4.746a2.63 2.63 0 0 0-1.041.273c-1.145.613-2.688-3.215-2.01-4.985.224-.583.22-15.465-.004-17.449-.11-.961-.056-1.707.15-2.09.175-.327.258-.655.184-.729s-.3.184-.504.572M193.72 76.8c0 5.207.036 7.337.08 4.733s.043-6.863 0-9.466-.08-.474-.08 4.733m73.553-7.733c0 .66.052.93.115.6s.064-.87 0-1.2-.115-.06-.115.6m-6.678 9.466c0 5.325.087 8.379.22 7.734.122-.587.22-4.067.22-7.734s-.1-7.146-.22-7.733c-.133-.645-.22 2.409-.22 7.733M120.46 71.8c-1.103 1.059-1.868 2.257-1.713 2.683.064.174.278-.043.478-.483.42-.929 2.088-2.8 2.496-2.8 1.62.001 3.44 3.381 3.07 5.704-.328 2.057-.218 19.733.13 20.993.166.599.001.888-1.177 2.066-1.704 1.704-2.12 1.706-3.762.019-1.548-1.589-1.792-1.402-.283.216 1.592 1.708 2.736 1.745 4.243.137 1.43-1.525 1.448-1.608 1.14-5.434-.362-4.512-.362-10.81-.001-15.952l.283-4.026-.95-1.565c-1.556-2.562-2.516-2.94-3.954-1.558m160.106.299c-.64.651-1.11 1.336-1.05 1.522.067.201.373-.031.754-.575 1.144-1.628 1.353-1.682 2.328-.608 1.13 1.245 1.13.793-.003-.516l-.87-1.006-1.16 1.183m-13.516 6.568c0 4.18.037 5.89.082 3.8s.045-5.51 0-7.6-.082-.38-.082 3.8m16.57-4.534c.102.367.14 1.267.082 2-.13 1.685-.137 16.393-.007 18a12.01 12.01 0 0 1-.064 2.267l-.16 1.067.4-1.2c.322-.967.348-1.579.13-3.153-.36-2.59-.346-13.267.02-15.978.25-1.859.23-2.252-.15-2.909-.406-.704-.424-.711-.252-.094m-4.572.638c-.088.35-.042 1.16.102 1.8.26 1.151.262 1.145.254-.638-.01-1.91-.096-2.196-.356-1.162M118.8 86.995c0 6.322.092 10.745.2 10.072.412-2.354.524-17.858.142-19.672-.312-1.484-.352-.401-.352 9.6m-14.79-8.775c-2 1.015-2.79 2.513-2.533 4.81.287 2.57.306 11.464.035 15.955-.212 3.508-.2 3.67.333 4.126.305.261.554.628.554.815s.115.341.256.341.47.223.734.495c1.816 1.888 4.018-.952 3.486-4.495-.12-.807-.2-5.487-.154-10.4.07-9.325-.017-10.231-1.117-11.647l-.45-.58-1.144.58m193.412-.02c-1.42 1.588-1.783 3.063-1.43 5.8.33 2.549.236 14.163-.137 16.832-.318 2.279 1.74 5.541 2.998 4.755.562-.351 1.685-2.174 1.667-2.706-.007-.191-.26.132-.566.719-1 1.93-2.036 2.452-2.462 1.242-.086-.243-.468-.982-.85-1.642-.656-1.134-.678-1.289-.403-2.831.38-2.134.38-15.3 0-17.198-.27-1.344-.24-1.564.42-2.955 1.32-2.786 1.96-2.898 3.134-.547.372.747.636 1.046.69.779.12-.618-1.485-2.848-2.05-2.848-.26 0-.716.27-1.01.6M106.17 80.075c.625 2.046.348 22.695-.322 24.037-.772 1.546-.802 1.542-2.682-.391-1.69-1.739-1.774-2.002-1.167-3.721s.577-14.572-.037-16.778c-.47-1.689-.256-2.322 1.298-3.845 1.535-1.505 2.293-1.323 2.9.698M279.583 85.2c0 3.96.037 5.617.083 3.683a192 192 0 0 0 0-7.2c-.045-2.026-.082-.443-.083 3.517m21.03-2.8c0 .807.05 1.137.11.733s.06-1.063 0-1.466-.11-.074-.11.733m-.23 9.333c0 4.034.037 5.684.082 3.667s.045-5.317 0-7.333-.082-.367-.082 3.666m13.34-4.675c-.508.508-.924 1.013-.924 1.121s.455-.248 1.01-.792 1.176-.987 1.377-.987c.857 0 3.382.972 3.803 1.465.252.294.462.404.467.243.052-1.734-4.26-2.524-5.734-1.05m-227.117-.171c-2.366.838-2.267.375-2.093 9.78.084 4.546.072 9.822-.026 11.723-.205 3.956-.31 3.747 2.423 4.878l1.452.601 1.635-1.672.024-24.19-.686-.803c-.778-.912-.98-.936-2.73-.317m2.482.513l.644.733-.013 23.868-.67.672c-.732.731-1.33.667-3.4-.363l-.894-.443.162-1.6c.382-3.77.482-13.523.18-17.6l-.315-4.267.747-.599c.41-.329.987-.601 1.28-.604s.713-.121.933-.264c.573-.37.642-.346 1.356.467m104.85.6c0 .66.052.93.116.6s.063-.87 0-1.2-.116-.06-.116.6m73.334.267c0 .66.052.93.115.6s.064-.87 0-1.2-.115-.06-.115.6m-6.62 2.046c.15 1.761.75 2.495 2.007 2.463l.94-.024-.933-.264c-1.235-.348-1.34-.474-1.768-2.135l-.366-1.42.12 1.38m52.188 10.235l-.04 11.614.933.905c.514.497.934.812.934.698s-.368-.573-.817-1.023l-.816-.816.16-7.63c.09-4.196.054-9.369-.077-11.496-.2-3.261-.243-2.049-.277 7.748m-119.478-9.894c-.33 1.294-.92 1.934-2.04 2.218-.51.13-.51.133-.005.164 1.05.063 2.257-1.082 2.442-2.315.24-1.599.006-1.639-.397-.067m73.43.079c-.1.477-.43 1.137-.734 1.467-.693.754-.385.794.362.047.304-.305.62-.965.702-1.467.188-1.162-.086-1.201-.33-.047M319.32 99.6c0 5.133.036 7.196.08 4.583a333.77 333.77 0 0 0-.001-9.334c-.043-2.52-.08-.382-.08 4.751m-164.352-7.451c.234.234.952.477 1.595.54 1.23.12 1.12.043-.825-.582-1.095-.351-1.16-.348-.77.042m-87.193.769c-1.55 1.744-1.6 1.904-1.317 5.349.14 1.76.192 6.74.116 11.066-.187 10.612-.1 10.882 3.424 10.544 1.597-.153 3.875-1.21 2.608-1.21-.172 0-.41.162-.526.36-.42.707-3.703.776-4.495.094l-.688-.591-.052-23.835.644-.946c.714-1.048 1.394-1.182 3.305-.652 1.795.499 2 .949 2.046 4.477l.04 3.093.198-2.8c.28-3.955-.218-4.82-3.012-5.232-1.666-.245-1.84-.224-2.3.283m90.692.073c.403.061 1.063.061 1.466 0s.074-.111-.733-.111-1.137.05-.733.111m26.666 0c.404.061 1.064.061 1.467 0s.073-.111-.733-.111-1.137.05-.734.111m26.67 0c.405.062 1.005.06 1.333-.003s-.004-.114-.737-.112-1.002.054-.596.115m5.466-.002c.33.063.81.061 1.066-.006s-.016-.119-.603-.116-.795.058-.463.122m21.33-.001c.33.064.87.064 1.2 0s.06-.115-.6-.115-.93.052-.6.115m5.333 0c.33.064.87.064 1.2 0s.06-.115-.6-.115-.93.052-.6.115m35.195 1.062c-.077.688-.04 1.498.082 1.8.153.378.228-.012.24-1.25.02-2.094-.12-2.334-.322-.55m53.55-.922c-.94.342-1.914 1.193-1.657 1.45.1.101.332.004.514-.215s1.047-.615 1.923-.88l1.592-.481 1.3 1.686-.062 11.376c-.047 8.697-.146 11.621-.42 12.416l-.358 1.04.525-.564c.506-.543.527-1.013.556-12.511l.03-11.946-.628-.85c-.686-.927-1.74-1.093-3.315-.521m-1.716 14.163l-.03 11.157.6.5c.344.287 1 .497 1.534.491.93-.009.93-.01-.303-.39-1.578-.486-1.505.12-1.37-11.275.062-5.31-.001-9.751-.147-10.441-.178-.839-.263 2.149-.283 9.958M279.6 97.33c.15.898 1.232 2.143 1.85 2.131.16-.004.008-.225-.34-.492s-.865-.954-1.15-1.527l-.518-1.042.155.93m3.64.458c-.017.177-.336.627-.7 1-.794.794-.536.896.367.143.368-.307.57-.709.497-.991-.068-.26-.137-.329-.154-.152m17.382 3.279c0 .806.05 1.136.11.733s.06-1.063 0-1.467-.11-.073-.11.734m-290.854.098c-1.496.653-1.89 1.674-1.763 4.568.122 2.786.12-1.178.045 51.302l-.065 45.969.72 1.036c1.063 1.535 2.694 2.184 4.6 1.832 1.64-.303 35.022-.344 37.24-.046 2.44.328 4.4-.406 5.14-1.915l.607-1.253-.004-49.431-.248-50.063c-.306-.791-.36 95.367-.056 97.192.217 1.296-.164 3.043-.84 3.859-.943 1.136-.724 1.125-23.134 1.134l-21.347.009-.792-.792c-.436-.435-.792-.861-.792-.945s-.24-.394-.534-.688c-.635-.635-.674-1.584-.136-3.357.618-2.036.603-90.148-.015-92.814-.947-4.083 1.144-6.315 5.365-5.728 2.786.388 33.72.409 35.986.025 2.018-.342 4.845.106 5.534.877.463.519.466.519.466-.005 0-1.114-1.08-1.169-23.565-1.218-20.236-.044-21.322-.022-22.41.452m146.774-.306c-.513.152-.784.331-.602.397s.748-.018 1.258-.186c.992-.327 7.676-.115 8.4.267.506.27 1.2 2.799 1.133 4.13-.213 4.213-.218 62.976-.006 64.399.288 1.931-.322 5.151-1.1 5.812-.307.26-1.54.322-5.073.253-4-.077-4.514-.043-3.6.237 1.448.445 8.024.174 8.854-.364 1.187-.771 1.178-.488 1.175-37.144-.002-36.693.013-36.224-1.175-37.527-.613-.673-7.25-.87-9.254-.274m26.962-.036c-.933.373-.484.61.554.294 1.084-.331 7.66-.253 8.225.097.353.219.992 1.472 1.42 2.786.072.22.14.064.152-.347.026-.936-.594-2.16-1.37-2.703-.687-.482-7.843-.583-8.98-.127m26.656.252c-1.44.803-2.28 3.049-1.996 5.324s.283 62.008-.003 64.303c-.297 2.386.565 4.455 2.184 5.237 1.4.677 7.976.657 9.275-.028.858-.452 1.867-2.614 1.664-3.565-.102-.481-.496.488-.85 2.093-.274 1.245-1.682 1.836-3.694 1.551-1.004-.142-2.29-.143-3.15-.001-3.554.585-5.9-2.207-4.918-5.856.55-2.036.58-61.137.035-63.466-.522-2.229.426-4.663 2.175-5.586.545-.288.812-.523.592-.521s-.812.234-1.316.515m3.05-.226c.733.125 2.233.16 3.333.077 2.338-.174 3.596.365 3.883 1.666a12.56 12.56 0 0 0 .546 1.675l.383.933-.116-.933c-.17-1.351-.777-2.934-1.128-2.934-.166 0-.448-.175-.626-.389-.257-.31-1.066-.383-3.966-.356-2.95.027-3.39.077-2.31.261m23.633.419c-.945.789-1.472 2.342-1.38 4.065.224 4.176.246 63.121.023 64.568-.17 1.096-.18 2.058-.028 2.533.134.421.318 1.215.41 1.763.1.606.375 1.109.7 1.283.528.283.528.271-.025-.813l-.56-1.099-.001-34.947c-.001-37.237 0-37.251 1.228-37.295.47-.017 1.358-.793.908-.793-.217 0-.79.331-1.275.735m3.392-.397c1.046.154 2.267.154 3.2 0 1.358-.224 1.188-.249-1.692-.249-3.01 0-3.1.015-1.508.249m5.493.071c.673.509 1.107.504.682-.009-.183-.22-.527-.396-.766-.391-.365.007-.35.071.084.4m101.638.391c-.706.763-1.233 2.16-1.2 3.173.015.449.226.059.6-1.105.733-2.289 1.29-2.718 3.18-2.458 1.817.25 37.38.252 39.83.003 2.87-.292 3.45.109 4.415 3.054.332 1.014.34 1.469.055 2.933-.534 2.741-.52 90.349.014 92.906.41 1.964.112 3.022-1.39 4.912l-.49.618-22.096-.026c-24.84-.03-22.27.205-23.386-2.143-.314-.66-.62-1.06-.678-.89-.156.454 1.21 2.946 1.74 3.169.247.104 9.33.168 20.183.14l21.69.234c3.177.462 5-1.513 4.812-5.186-.122-2.255-.136-87.449-.016-92.934.075-3.415.022-4.006-.453-5.066-.917-2.046.79-1.907-23.945-1.956l-22.248-.044-.616.666m-193.07 1.868c-.324 1.251-.416 2.154-.277 2.734.337 1.405.43 60.422.1 63.665-.24 2.369-.22 2.985.133 4l.416 1.2-.138-1.333c-.076-.734-.115-1.514-.086-1.734s.086-15.7.127-34.4c.075-33.989.107-35.579.715-35.826.205-.083.172-.139-.1-.153-.296-.015-.555.517-.9 1.847m27.382-1.534c-.145.183-.345.784-.445 1.334-.25 1.391-.195 70.251.057 71.389.338 1.518 2.367 2.093 7.045 1.993 4.53-.096 5.59-.67 5.522-2.996-.017-.579-.11-.463-.482.591-.657 1.864-.95 1.984-4.964 2.037-4.333.057-5.786-.273-6.535-1.484-.806-1.305-.857-70.753-.052-71.86.837-1.152.907-1.338.502-1.338-.21 0-.502.15-.648.334m65.817 1.106c.434 1.168.558 1.991.483 3.2-.127 2.059-.13 62.569-.004 65.122.08 1.587-.012 2.118-.562 3.267-.36.754-.57 1.371-.46 1.371.835 0 1.88-3.538 1.55-5.253-.406-2.113-.452-62.043-.05-63.794.358-1.558-.228-4.163-1.144-5.086-.285-.286-.23.048.187 1.173M193.94 105.6c0 .66.052.93.116.6s.063-.87 0-1.2-.116-.06-.116.6m27.022.867c-.423 2.722-.488 61.045-.07 63.266.366 1.949.4-.748.408-31.133l-.077-33.267c-.047 0-.164.51-.26 1.134M346.198 153.2l.216 46.933c.283-1.361.285-92.128.002-93.733-.117-.66-.214 20.4-.218 46.8m-152.47-14.8l.07 15.667v-31.334c-.04-8.616-.07-1.566-.07 15.667m-72.396-29.6c0 .147.245.267.544.267s1.03.453 1.625 1.008l1.08 1.008-.02 29.192.2 30.296c.21 1.062-.3 3.954-.852 4.829-.116.183-.094.333.05.333.514 0 1.24-2.503 1.197-4.133-.172-6.778-.18-55.002-.01-57.255.205-2.696.187-2.88-.333-3.326-.303-.259-.55-.595-.55-.747 0-.274-.603-.734-1.83-1.398-.758-.41-1.103-.433-1.103-.074m-1.227.753c-1.255 1.049-1.214-.001-1.26 31.897l.27 28.71c.426-2.012.48-50.908.062-55.073-.346-3.435-.238-3.977 1.024-5.133.993-.91.913-1.244-.096-.401m17.855.104c-.482.547-.482.554.014.285.85-.462 3.19.41 4.083 1.521.287.357.325.357.325.004 0-.523-.947-1.196-2.598-1.847l-1.33-.524-.495.561m124.522-.296c-.833.241-1.95 1.355-1.948 1.942.001.163.236-.059.523-.494.42-.636.875-.878 2.332-1.236 1.413-.347 1.605-.447.877-.452-.514-.003-1.316.104-1.784.24m2.858-.108c-.004.176.147.416.335.534s.61.559.934.982.6.632.6.463c0-.415-1.85-2.384-1.86-1.979m15.203.512c-1.172.986-1.53 1.874-1.327 3.302l.17 1.2.04-1.475c.04-1.505 1.347-3.459 2.313-3.459.4 0 1.724 1.491 1.733 1.954.004.172.017 14.473.03 31.78l.333 30.133c.195-.839.234-1.926.105-2.933-.112-.88-.192-14.5-.178-30.267.028-29.553.035-29.331-1.024-30.333-.815-.772-1.18-.756-2.195.098m-143.5 1.368c-.314.57-.36 1.121-.2 2.467.112.953.195 15.01.185 31.237l.294 30c.256.407.284.283.15-.688-.218-1.601-.207-62.728.012-63.298.268-.698.01-.533-.44.282m181.9 1.14c0 .264-.4.462-2.4 1.219-1.203.453-.208.511 1.094.063 1.093-.376 2.286-1.555 1.573-1.555-.147 0-.267.123-.267.273M72.9 114.933c0 1.54.044 2.17.098 1.4s.053-2.03 0-2.8-.098-.14-.098 1.4m69.14-.761c-.248 2.375-.172 55.069.082 56.495.117.66.228-12.15.247-28.467l-.062-29.667c-.053 0-.173.738-.267 1.639m118.56 27.961l.217 27.734c.283-1.594.285-54.23.001-55.6-.12-.588-.22 11.928-.218 27.866m6.465 0l.07 13.8v-27.6c-.04-7.59-.07-1.38-.07 13.8m12.533 0l.072 13.667v-27.333c-.04-7.517-.072-1.367-.072 13.666m18.567-24.817c-.225.139-.072.262.46.368.668.134.888.392 1.34 1.571.393 1.021.546 1.227.555.745.022-1.229-1.642-3.125-2.356-2.684m-192.866.469c.34.648.837 1.047.837.672 0-.133-.257-.47-.572-.749-.568-.504-.57-.504-.265.077m-2.104.274c-1.71 1.041-1.63-.371-1.625 28.943.005 28.293-.02 27.718 1.204 28.527.687.455 1.056.198.483-.336-.32-.298-.66-.868-.755-1.267s-.327-1.031-.514-1.403c-.28-.555-.273-.966.033-2.267.56-2.381.553-44.923-.007-47.029-.468-1.756.4-3.963 1.978-5.027 1.04-.701.33-.827-.797-.141m193.784.118c-1.01 1.569-1.34 3.38-1.015 5.522.43 2.824.43 43.574.001 46.176-.503 3.045.717 6.658 2.247 6.658 1.093 0 2.34-1.557 2.306-2.879-.015-.567-.1-.457-.4.515-1.2 3.93-4.654.715-3.825-3.57.3-1.543.28-46.163-.02-47.666-.26-1.306.273-3.706 1.022-4.601.216-.258.323-.538.238-.623s-.335.125-.555.468m-190.705 1.804c.214 1.675.187 52.894-.028 54.094-.243 1.359-.81 1.96-1.654 1.748-.466-.117-.61-.075-.48.138.51.823 1.912.014 2.31-1.331.384-1.298.375-54.28-.01-55.164-.245-.567-.266-.49-.138.515m194.34 2.286c.002.733.053 1.001.115.596s.06-1.005-.004-1.333-.113.003-.11.737m13.418 2.071c-.863.757-.997 1.041-1.1 2.329-.114 1.413-.11 1.427.147.4.675-2.714 1.174-3.182 3.136-2.944.82.099 1.07.071.723-.079-1.455-.631-1.902-.586-2.905.294m-225.76-.114c1.367.407 1.366.383 1.37 26.043.003 27.044.1 26.013-2.137 25.41-2.084-.564-3.056-2.806-2.473-5.708.42-2.087.43-37.02.013-39.836-.4-2.704.2-4.693 1.627-5.387.8-.394.85-.455.307-.467-1.673-.034-3.156 2.964-2.587 5.231.23.921.24 39.688.01 41.225-.408 2.721.52 4.585 2.547 5.11 3.16.82 2.972 2.455 2.972-25.949-.001-27.003.086-25.669-1.675-25.816-.64-.054-.64-.054.027.144m229.8.368c.546.264.753.73 1.215 2.741.068.294.137.072.154-.492.038-1.277-.69-2.581-1.427-2.556-.513.017-.5.033.058.307M300.394 146.8l.073 11.113v-22.4c-.04-6.112-.073-1.033-.073 11.287m12.44 3.089l.206 19.578c.207-1.283.12-39.865-.092-40.075-.08-.081-.132 9.142-.114 20.497m-245.53-19.122l-.77.966.086 18.2-.174 19.963c-.272 1.839.058 4.359.714 5.448.32.531.236-.365-.138-1.477-.074-.22-.124-9.22-.112-20l.024-20.961c0-2.277.81-2.909 3.21-2.504 2.497.421 2.64.654 2.71 4.391l.056 2.94.092-2.533c.157-4.325-.205-4.915-3.202-5.222l-1.726-.177-.77.966m252.023 19.1l.073 10.066V139.8c-.04-5.537-.073-1.007-.073 10.067m13.787-19.345c-.78.189-1.56.485-1.733.657-.234.234-.313 5.369-.314 20.339l.216 18.987c.38-1.826.49-29.117.136-33.929-.393-5.363-.403-5.341 2.394-5.838 2.542-.452 2.39-1.706 2.252 18.729l.145 19.954c.4 3.546-.225 6.109-1.55 6.344l-.928.165.834.035c1.994.084 1.994.083 1.98-21.897l-.013-20.936c0-1.277-.114-1.661-.677-2.268-.758-.818-.77-.819-2.742-.342M72.862 171.2c-.003 1.99.043 2.301.21 1.452.118-.595.12-1.735.004-2.533-.19-1.316-.21-1.215-.215 1.081m121.085 0c0 .807.05 1.137.11.733s.06-1.063 0-1.466-.11-.074-.11.733m85.336.133c.001.88.05 1.208.1.729a7.12 7.12 0 0 0-.002-1.6c-.06-.401-.1-.009-.108.871m21.327 0c.002.734.053 1.002.115.597a4.79 4.79 0 0 0-.004-1.334c-.063-.328-.113.004-.11.737m-33.337.134c0 .66.052.93.115.6s.064-.87 0-1.2-.115-.06-.115.6m-148.478 1.632c.178 1.846 1.774 4.021 2.453 3.342.06-.059-.317-.359-.837-.666-.624-.368-.95-.763-.965-1.166-.01-.335-.19-1.089-.395-1.676l-.375-1.066.12 1.232m23.25-.432c-.308 1.25-1.028 2.471-1.63 2.764-.54.261-.54.267.05.284.81.025 1.6-.821 1.81-1.94.236-1.253.038-2.2-.23-1.108m189.003.751c.143 1.893.463 2.321 1.718 2.295l.967-.02-.933-.336c-.826-.297-.987-.516-1.4-1.913l-.468-1.577.117 1.551m-70.485-.054c-.05 2.038 1.48 3.169 4.277 3.169.926 0 2.365-1.669 2.332-2.706l-.028-.894-.318 1.028c-.485 1.562-1.405 2.393-2.4 2.175-.45-.098-1.275-.245-1.837-.328-1.102-.163-1.353-.531-1.772-2.608l-.215-1.067-.03 1.231m52.354.361c.114 1.55 1.23 2.809 2.487 2.807.985-.002 2.952-.576 2.51-.732-.194-.068-.9.026-1.546.209-1.896.531-2.674-.17-3.412-3.076-.074-.293-.092.063-.038.792m5.968.609c-.445 1.522-.444 1.528.067.903.403-.492.76-2.439.448-2.436-.037 0-.268.69-.515 1.533m-39.398-.42c-.02.927 1.392 2.619 2.185 2.619.4 0 1.795-1.163 1.795-1.496 0-.181-.355.026-.79.459-1.127 1.128-2.126.559-2.858-1.627l-.312-.936-.02.981m-206.926.353c-.092 1.099-3.543 2.441-4.495 1.748-.112-.082-.07.008.1.2.87 1.036 4.814-.57 4.568-1.86-.1-.523-.125-.537-.163-.088m82.106.939c0 .153.185.348.41.435.626.24.7-.019.1-.387-.33-.206-.52-.223-.52-.048m-17.067.369c0 .386 1.074.67 1.647.436.58-.238.57-.251-.188-.213-.444.022-.954-.051-1.133-.162s-.326-.138-.326-.061m-14.934.571c-.386.213-.498.371-.266.374.476.006 1.238-.438 1.06-.617-.07-.069-.426.04-.793.243m114.867-.133c.49.53 7.915.574 8.548.051.415-.343.408-.358-.08-.172a3.86 3.86 0 0 1-1.267.173 145.64 145.64 0 0 0-5.866-.008 3.17 3.17 0 0 1-1.134-.186c-.438-.178-.474-.152-.2.142m-116.82 8.03c-1.784.916-1.884 1.438-1.9 9.895-.013 6.762.016 7.259.336 5.733.25-1.191.302-2.82.184-5.671-.36-8.665-.054-9.855 2.532-9.855.57 0 1.012-.016.985-.036-.733-.531-1.204-.545-2.138-.066M264.267 184l-.934.196 1 .036c.55.019 1-.085 1-.232s-.03-.251-.066-.232-.487.124-1 .232m16.907.096c-.762.357-1.708 1.793-1.705 2.587.002.491.16.316.64-.719.456-.979.85-1.439 1.385-1.617.4-.137.632-.309.493-.381s-.505-.014-.813.13m16.983-.11c-.218.134-.057.261.465.365.668.134.888.392 1.34 1.571.3.776.55 1.197.556.936.04-1.381-1.583-3.354-2.362-2.872m-230.5.302c-.257.15-.467.404-.467.567s.202.111.467-.127c.256-.232.946-.471 1.533-.53l1.067-.108-1.067-.037c-.587-.02-1.277.086-1.533.235m37.774.329c.382.382.694 1.117.82 1.933.254 1.636.27 15.691.02 16.783-.163.712-.147.742.148.272 1.03-1.644.362-18.396-.77-19.272-.725-.561-.875-.37-.22.284m53.026-.426c.403.061 1.063.061 1.466 0s.074-.111-.733-.111-1.137.05-.733.111m26.67 0c.405.062 1.005.06 1.333-.003s-.003-.114-.737-.112-1 .054-.596.115m6.196.002c.828.203 1.174.584 1.863 2.05.387.821.645 1.147.654.824.033-1.202-1.523-3.091-2.5-3.036-.536.03-.536.034-.016.162m20.467-.002c.403.061 1.063.061 1.467 0s.073-.111-.734-.111-1.136.05-.733.111m5.47-.002c.33.063.81.061 1.066-.006s-.016-.119-.603-.116-.795.058-.463.122m20.197.113c-.742.37-1.488 1.445-1.8 2.594-.297 1.094-.295.79-.047 6.65.127 2.993.083 4.944-.14 6.267-.34 2.014-.293 2.225 1.1 4.863.542 1.02 2.026 1.508 3.645 1.199.974-.186 1.977-.188 3.12-.005 1.8.289 3.846-.362 3.846-1.23 0-.205.1-.373.22-.373.85 0 1.455-2.651 1.018-4.454-.574-2.365-.582-7.214-.015-9.704.37-1.624.375-1.939.042-2.453a5.03 5.03 0 0 1-.551-1.277c-.2-.809-1.34-2.116-1.836-2.103-.2.006-.036.276.342.6 1.26 1.084 1.9 3.121 1.587 5.055-.342 2.108-.345 7.777-.005 10.125.314 2.173.025 3.026-1.6 4.687-.633.652-.765.674-4.4.705-4.45.039-4.25.084-4.994-1.141-.325-.536-.7-1.055-.857-1.155-.165-.112-.275-3.091-.292-7.866-.033-9.655.264-10.64 3.33-11.044l1.2-.158-1.2-.024c-.66-.013-1.44.096-1.733.242m6.466-.114c.33.064.87.064 1.2 0s.06-.115-.6-.115-.93.052-.6.115m-172.907.31c.504.112.927.483 1.256 1.102.364.685.496.792.498.4.004-.86-.902-1.737-1.756-1.702l-.757.032.76.168m15.11.263c-1.45.778-2.02 2.701-1.65 5.56.196 1.505.204 3.679.026 6.968-.28 5.197-.213 5.66 1.022 6.953.907.949 2.864 1.712 3.226 1.258.56-.702 1.37-2.592 1.35-3.156-.013-.362-.3.123-.704 1.189-.745 1.966-1.127 2.183-2.235 1.275-2.397-1.965-2.7-2.62-2.228-4.82.45-2.107.495-7.101.083-9.593-.502-3.044.147-4.579 2.378-5.621.896-.419.927-.466.322-.486-.37-.012-1.085.201-1.592.473m2.603-.161c.862 1.056 1.09 3.086.95 8.518-.076 2.978-.037 6.063.086 6.856.147.949.217-1.097.204-6-.018-7.576-.29-9.707-1.243-9.707-.18 0-.18.109.002.333m13.96.435c-1.324 1.238-1.385 1.672-1.396 9.956l-.01 7.705.976 1.191c1.623 1.981 3.91 2.369 3.85.654-.01-.29-.134-.235-.432.192-.614.881-1.223.741-2.418-.556-1.973-2.14-1.982-2.17-1.533-4.725.455-2.587.523-6.888.13-8.254-.7-2.464.158-5.458 1.824-6.292.876-.438.997-.639.384-.639-.303 0-.92.346-1.373.768m20.846-.207c.254.351.502.759.55.905l.523 1.551c.332.981.377 1.577.192 2.533-.51 2.628-.585 8.114-.14 10.037.434 1.87.3 2.613-.693 4.146-.144.22-.333.61-.42.867s-.308.466-.493.466-.485.18-.668.4c-.48.58.08.491.88-.14 1.145-.9 2.128-3.305 1.947-4.761-.408-3.264-.48-7.507-.167-9.955.373-2.927-.224-5.593-1.42-6.339-.547-.342-.55-.337-.095.29m16.182.011c.91.479 1.37.966 1.933 2.058.788 1.526 1.062 1.058.36-.618-.44-1.051-1.275-1.671-2.57-1.903-.91-.163-.906-.157.275.463m15.74-.187c-1.112.607-1.746 3.341-1.366 5.891.39 2.63.38 6.836-.022 9.187-.814 4.745.95 6.224 7.336 6.149 5.57-.065 5.574-.075 5.636-10.812.048-8.05-.2-9.893-1.42-10.649-.407-.251-.373.116.057.628.824.98 1.3 3.527 1 5.354-.377 2.301-.364 6.783.028 9.491.28 1.94.265 2.262-.133 2.871-.247.377-.452.84-.456 1.029-.028 1.651-7.772 2.496-9.778 1.067-.457-.325-.952-.591-1.1-.591-.57 0-1.166-2.728-.873-4.002.306-1.328.354-8.782.068-10.665-.432-2.85.41-4.353 2.888-5.161.22-.072.04-.135-.4-.141s-1.1.154-1.466.354m26.95.232c-1.365.935-1.574 2.171-1.425 8.412.07 2.88.01 5.94-.13 6.798-.53 3.223 1.615 5.867 4.738 5.841 6.574-.054 6.634-.065 7.4-1.274.71-1.12.944-1.918 1.02-3.461l.077-1.6-.207 1.6c-.13.995-.492 2.066-.96 2.833l-.753 1.234-3.595.122c-4.45.151-4.44.153-6.02-1.217l-1.294-1.124.014-7.79c.018-9.254.03-9.315 2.318-10.541.653-.35.7-.431.26-.44-.297-.006-.946.267-1.44.607m5.785-.429c.332.064.812.062 1.067-.005s-.017-.119-.603-.116-.796.057-.464.121m21.72.293c-1.24.953-2.003 3.174-1.76 5.119.277 2.224.265 8.438-.02 10.615-.197 1.502-.16 1.766.35 2.456.314.426.572.837.572.915 0 1.214 2.443 2.357 4.4 2.054 1.06-.165 2.36-.179 3.366-.037 2.1.298 5.003-2.05 4.414-3.583-.06-.158-.303.133-.537.646a9.06 9.06 0 0 1-1.068 1.703l-.642.769-3.695.038c-4.55.048-4.523.057-5.935-2l-1.152-1.679.43-1.545c.56-2.014.586-8.273.043-10.314-.428-1.609.207-3.519 1.65-4.962.77-.771.507-.898-.406-.195m4.81-.298c.257.068.677.068.934 0s.046-.121-.467-.121-.723.054-.467.121m4.827.575a4.73 4.73 0 0 1 .981 1.679c.14.506.43 1.155.646 1.442.354.47.365.418.11-.546-.155-.587-.4-1.181-.523-1.32a1.04 1.04 0 0 1-.242-.624c0-.39-1.024-1.365-1.45-1.38-.137-.005.078.332.477.749m21.44-.57c.33.063.87.063 1.2 0s.06-.116-.6-.116-.93.052-.6.116m20.192.527c-.258.394-.51 1.264-.564 1.934l-.094 1.217.486-1.6c.428-1.411.593-1.637 1.4-1.918l.913-.318-.836-.015c-.622-.011-.956.168-1.305.7m4.62-.38c.153.185.532.935.842 1.667.554 1.307.562 1.313.44.338-.124-.985-.88-2.316-1.327-2.332-.128-.005-.107.143.046.327m16.587-.126c0 .161.128.372.285.469s.4.434.517.749c.23.571.23.571.248.014.01-.307-.223-.776-.517-1.041s-.533-.351-.533-.191m14.55.373c-.998 1.413-1.3 3.308-.943 5.919.312 2.283.243 6.487-.166 10.165-.28 2.517 1.906 5.873 3.113 4.781.764-.692 1.64-2.193 1.508-2.581-.063-.183-.37.223-.68.902-.474 1.033-.993 1.565-1.526 1.565-.25 0-1.456-1.497-1.456-1.807 0-.19-.2-.649-.443-1.021-.384-.587-.402-.896-.133-2.354.362-1.967.393-9.082.047-10.818-.26-1.306.273-3.707 1.022-4.602.216-.257.326-.535.244-.617s-.346.129-.586.468m18.807-.234c-1.355.475-2.003 2.888-1.582 5.885.277 1.968.164 8.03-.2 10.7-.103.762-.02 1.219.293 1.6.428.522.434.519.265-.133-.095-.367-.15-.847-.124-1.067s.08-3.707.116-7.749c.08-8.522.018-8.291 2.346-9.028 1.46-.463 1.55-.526.728-.526-.513 0-1.342.143-1.842.318m2.91-.278c0 .074.18.479.398.899.345.662.4.688.4.197.001-.312-.178-.717-.398-.9s-.4-.271-.4-.196m14.058.252c-1.12.298-1.8 1.431-1.783 2.977.008.733.067.664.494-.571.58-1.68.382-1.487 2.107-2.05 1.706-.558 1.953-.41 2.43 1.454.488 1.905.512 15.627.03 16.793-.188.454-.27.898-.18.987.994.993 1.215-16.444.236-18.646-.62-1.397-1.107-1.534-3.334-.944m-266.132 2.226c-.377 1.329-.413 1.965-.2 3.6.348 2.688.338 6.999-.024 9.428-.566 3.811 1.013 6.403 3.632 5.963 2.606-.437 3.636-2.304 3.115-5.643l-.254-1.63.016 2.134c.013 1.645-.114 2.415-.556 3.367l-.572 1.234-1.675.14c-2.05.172-3.547-1.424-3.447-3.675.242-5.464.29-10.467.1-11.733-.16-1.133-.123-1.95.125-2.799.193-.659.314-1.379.27-1.6s-.288.326-.54 1.214m70.52-.348c-.178.712-.232 3.162-.146 6.6.075 3.006.032 6.186-.096 7.066-.232 1.603.307 4.171 1.082 5.154 1.01 1.28 4.214-1.045 4.57-3.315l.163-1.039-.367.965c-.64 1.682-3.317 3.78-4.05 3.172-.934-.775-1.516-14.374-.796-18.603.106-.624.132-1.134.057-1.134s-.263.51-.418 1.134m182.414 8.187c.013 4.715.095 8.458.18 8.318.204-.33.157-16.528-.048-16.734-.086-.085-.146 3.702-.133 8.416m-35.978.146c.004 7.01.063 8.391.332 7.733.243-.591.26-1.217.063-2.4-.15-.893-.21-4.016-.14-7.066.07-3.007.04-5.767-.067-6.134s-.2 3.174-.188 7.867m-210.68-5.467l-.005 2.534.225-1.732c.123-.952.125-2.092.004-2.533-.157-.572-.22-.077-.224 1.731m206.41-.533c0 .807.05 1.137.11.733s.06-1.063 0-1.466-.11-.074-.11.733m21.33.133c.002.734.053 1.002.115.597a4.79 4.79 0 0 0-.004-1.334c-.063-.328-.113.004-.11.737m-106.676 0c.003.587.057.796.12.464s.062-.812-.005-1.067-.12.017-.116.603m73.333 0c.003.587.058.796.122.464s.06-.812-.006-1.067-.12.017-.116.603M142.04 190.2c-.226 1.887-.16 8.935.094 9.933.114.446.218-1.886.235-5.266.033-6.205-.033-7.131-.33-4.667m78.8.451c-.4 2.484-.368 7.273.08 9.082.34 1.371.364 1.061.384-4.733.022-6.774-.01-7.088-.464-4.349m110.163 4.016c-.001 3.3.09 5.7.205 5.333.276-.891.286-8.918.013-10.267-.136-.669-.217 1.167-.218 4.934m-70.406.133c0 3.099.09 5.243.204 4.8.277-1.089.29-8.012.015-9.333-.143-.692-.22.899-.22 4.533m-66.887.267c0 2.493.04 3.549.09 2.346s.05-3.243.001-4.533-.1-.307-.1 2.187m73.333-.134c0 2.42.04 3.41.1 2.2a65.87 65.87 0 0 0 0-4.4c-.05-1.21-.1-.22-.1 2.2m12.534.134c-.001 2.493.04 3.549.09 2.346s.05-3.243 0-4.533-.09-.307-.09 2.187m20.798-.134c0 2.274.04 3.204.09 2.067a56.96 56.96 0 0 0 0-4.133c-.05-1.137-.09-.207-.09 2.066m-21.238 5.8c-.068.55-.028 1.24.087 1.534.14.359.215.033.227-1 .02-1.75-.133-2.009-.314-.534m-11.86.467c.002.733.054 1.002.115.596s.06-1.005-.003-1.333-.114.004-.112.737m33.334 0c.002.733.053 1.002.115.596s.06-1.005-.004-1.333-.113.004-.11.737m-181.93 1.162c-.02.517 1.14 2.971 1.403 2.971.12 0 .406.186.633.413s.473.353.546.28-.182-.408-.566-.746-.99-1.213-1.35-1.947-.66-1.17-.666-.971m141.867.37c-.06 1.882 3.31 4.181 4.788 3.266.602-.372 1.863-2.36 1.843-2.905-.015-.391-.196-.196-.602.649-.956 1.99-1.088 2.066-2.925 1.688s-2.014-.517-2.632-2.038c-.25-.619-.464-.916-.472-.66m70.385-.114c0 1.301 1.243 2.479 2.878 2.727 1.448.22 1.922.099 1.922-.491 0-.357-.054-.349-.35.056-.335.457-.396.454-1.397-.083-.575-.308-1.193-.56-1.373-.56s-.632-.448-1.004-.996-.677-.841-.677-.653m-51.466.601c0 .538 1.04 2.036 1.727 2.486.884.579 2.895-1.438 2.164-2.17-.087-.086-.162.013-.168.221-.046 1.83-2.037 2.18-2.8.492-.5-1.111-.924-1.582-.924-1.029m35.204.563c-.012 1.339 3.656 2.317 4.405 1.174.243-.37.39-.822.33-1.005s-.28.054-.5.525-.488.857-.62.857c-.392 0-3.21-1.416-3.424-1.72-.117-.167-.198-.098-.2.169" fill="#949494"/></svg>