<svg xmlns="http://www.w3.org/2000/svg" width="400" height="266.667" viewBox="0 0 400 NaN" fill-rule="evenodd"><path d="M353.067 96.588c-.66.146-1.415.493-1.677.772s-.61.507-.77.507c-.393 0-2.354 1.92-2.354 2.304 0 .168-.158.366-.35.439s-.505.657-.696 1.296-.483 1.246-.65 1.351c-.217.135-.33 3.216-.4 10.733l-.086 10.543H342.4v6.4h3.733V161.6h6.667v-30.667h9.333v-6.4h-9.4l.112-8.981c.083-6.684.194-9.01.433-9.089.176-.059.32-.349.32-.644 0-2.34 2.836-3.152 7.667-2.197l.866.172v-6.92l-1.51-.304c-1.8-.362-5.876-.352-7.555.018m-106.134 16.345c0 16.045-.035 16.608-.958 15.2-.24-.366-.596-.666-.79-.666s-.51-.216-.702-.479-.83-.701-1.415-.973-1.132-.593-1.212-.714-.98-.433-2-.694-1.895-.564-1.944-.674c-.12-.273-6.978-.255-6.978.018 0 .12-.79.375-1.754.567s-1.817.512-1.895.715-.3.367-.472.367c-.524 0-1.98.796-2.733 1.494-.38.352-.793.639-.918.639s-.228.166-.228.369-.24.432-.532.508-.6.343-.705.591-.464.77-.82 1.159c-1.142 1.248-1.31 1.49-1.684 2.44-.203.513-.502 1.07-.665 1.237s-.452 1.006-.643 1.866-.484 1.649-.65 1.754c-.41.258-.423 10.548-.016 10.819.158.105.5.961.76 1.903s.642 1.88.848 2.086.373.546.373.758c0 .813.712 1.746 3.333 4.368 2.507 2.506 2.646 2.618 3.87 3.108.584.234 1.063.514 1.063.622 0 1.558 12.803 1.291 14.513-.303.286-.266.662-.485.834-.485s.72-.358 1.217-.795 1.005-.798 1.13-.8.464-.305.752-.671c.83-1.055 1.02-.806 1.02 1.333v2h6.934V97.067h-6.934v15.866M3.8 114.322c-.477.062-.867.2-.867.308s-.413.346-.92.529c-2.167.783-2.03-1.138-1.95 27.546s-.103 26.366 2.142 27.284c1.225.5 49.708.634 51.006.14 1.035-.393 2.214-1.597 2.402-2.453.09-.409.273-.743.408-.743.148 0 .246-9.715.246-24.4l-.267-24.4c-.147 0-.267-.191-.267-.425 0-.777-.883-1.936-1.848-2.425-.523-.266-1.037-.603-1.142-.75-.185-.259-46.997-.461-48.943-.211m23.888 4.341c.05.149.462.27.917.27.875 0 3.97.781 4.195 1.059.073.09.66.333 1.302.54s1.303.507 1.467.667.718.454 1.23.653 1.054.495 1.2.656.673.519 1.17.796c1.013.565 1.594 1.027 2.634 2.096.393.403.867.733 1.054.733s.34.144.34.32.6.883 1.333 1.572 1.334 1.377 1.334 1.531.215.437.48.629.688.798.945 1.348.57 1 .695 1 .443.6.707 1.334.572 1.333.686 1.333.405.69.65 1.533.533 1.594.642 1.667c.268.179 1.063 4.091 1.063 5.229 0 .497.12.904.267.904s.267.6.267 1.334c0 1.244-.045 1.333-.667 1.333-.648 0-.667-.053-.667-1.867 0-1.026-.092-1.866-.205-1.866s-.422-1.2-.69-2.667-.564-2.667-.66-2.667-.408-.72-.69-1.6-.598-1.6-.705-1.6-.385-.48-.62-1.066-.524-1.067-.644-1.067-.425-.472-.68-1.048-.997-1.591-1.65-2.254-1.19-1.334-1.19-1.491-.3-.422-.667-.589-.666-.464-.666-.661-.172-.357-.38-.357-.6-.276-.867-.614-.905-.848-1.418-1.133-1.053-.651-1.2-.812-.688-.453-1.2-.651-1.027-.512-1.142-.7-.703-.474-1.307-.637-1.243-.44-1.42-.618-1.15-.485-2.16-.684-1.908-.47-1.994-.602-1.417-.312-2.956-.399l-2.8-.159.127-.665c.135-.706 4.305-.763 4.54-.063M28.8 121.2c0 .22-.12.4-.267.4s-.266-.18-.266-.4.12-.4.266-.4.267.18.267.4m-2.933 2.8c0 .147.27.269.6.271 1 .008 4.286.77 4.448 1.029.084.133.692.394 1.352.581s1.32.481 1.466.653.747.54 1.334.817c1.156.547 1.768.985 2.676 1.916.322.33.68.6.794.6.275 0 1.996 1.776 1.996 2.06 0 .122.33.542.734.934 1.245 1.213 1.578 1.691 2.067 2.97.26.68.556 1.236.66 1.236s.416.69.696 1.533.602 1.602.715 1.686c.667.492 1.22 6.914.596 6.914a.4.4 0 0 1-.4-.4c0-.22-.12-.4-.267-.4s-.266-.45-.266-1c.001-1.297-.8-5.667-1.04-5.667-.102 0-.41-.66-.683-1.466s-.597-1.467-.718-1.467-.395-.42-.6-.933-.497-.934-.627-.934-.366-.27-.523-.6c-.542-1.136-3.287-4.2-3.764-4.2-.15 0-.43-.215-.62-.479s-.8-.688-1.35-.945-1-.565-1-.685-.57-.434-1.266-.697-1.327-.558-1.4-.655c-.218-.289-3.3-1.072-4.218-1.072-.467 0-.85-.12-.85-.267s-.53-.266-1.178-.266c-1.522 0-2.022-.205-2.022-.829 0-.428.203-.505 1.333-.505.734 0 1.334.12 1.334.267m50.4 0c0 .147-.238.267-.528.267-1.38 0-2.947.89-4.765 2.707-1.92 1.92-2.707 3.384-2.707 5.031 0 .437-.12.795-.267.795s-.267.6-.267 1.333.12 1.334.267 1.334.267.405.267.9c0 1.692 2.566 5.5 3.707 5.5.16 0 .517.224.8.497s1.054.71 1.734.97 1.235.563 1.235.673.72.418 1.6.681 1.6.561 1.6.66.56.393 1.24.653c1.828.698 3.56 2.209 3.56 3.105 0 .272.12.494.267.494s.267.66.267 1.467-.12 1.466-.267 1.466-.267.171-.267.379c0 .885-.968 2.036-2.066 2.458-.624.24-1.134.539-1.134.666s-.9.231-2 .231-2-.107-2-.238-.27-.306-.6-.389c-1.106-.277-3.4-2.826-3.4-3.778 0-.227-.18-.481-.4-.566s-.4-.32-.4-.525c0-.218-.274-.371-.666-.371-.367 0-.667.1-.667.222s-.72.452-1.6.733-1.6.592-1.6.69-.36.258-.8.355c-.8.176-1.162 1.211-.554 1.587.136.084.325.511.42.949s.267.797.378.797.33.27.488.6c.624 1.311 3.168 4.048 4.01 4.316.322.102.757.357.967.566 1.493 1.494 12.69 1.549 12.69.063 0-.112.403-.373.896-.579.95-.396 3.37-2.743 3.37-3.266 0-.17.173-.376.385-.457s.536-.664.72-1.295.438-1.219.562-1.305c.86-.597.695-7.252-.2-8.147-.22-.22-.4-.566-.4-.768 0-.324-.778-1.354-1.607-2.128-.157-.146-.54-.536-.854-.866s-.73-.6-.928-.6-.427-.172-.507-.381-.736-.593-1.458-.853-1.312-.565-1.312-.678-.66-.399-1.467-.633-1.467-.513-1.467-.619-.66-.417-1.466-.691-1.467-.58-1.467-.679-.474-.41-1.053-.69c-1.006-.487-1.614-1.286-1.614-2.122 0-.213-.12-.388-.266-.388s-.267-.24-.267-.533.12-.533.267-.533.266-.19.266-.421c0-1.856 4.566-3.415 5.796-1.979.25.293.6.533.797.533s.34.114.34.253.3.577.666.972.667.822.667.947.3.228.667.228.666-.108.666-.24.6-.456 1.334-.719 1.333-.567 1.333-.673.42-.332.933-.501.934-.485.934-.701c0-.556-.804-2.059-1.236-2.313-.2-.117-.366-.357-.367-.533-.003-.371-1.67-2.053-2.033-2.053-.135 0-.436-.222-.668-.493s-.98-.658-1.66-.858-1.237-.46-1.237-.574-1.26-.209-2.8-.209c-1.69 0-2.8.106-2.8.267m36.266-.043c0 .123-.842.375-1.873.559s-2.02.482-2.2.662-.897.545-1.594.811-1.266.561-1.266.656-.362.387-.805.649c-1.028.607-4.528 4.153-4.528 4.587 0 .181-.168.393-.373.472s-.515.571-.688 1.095-.42.952-.553.952-.437.69-.68 1.533-.577 1.619-.74 1.724c-.403.257-.417 10.549-.014 10.819.155.105.497.881.758 1.724s.553 1.534.65 1.534.397.541.668 1.2.6 1.199.733 1.199.24.172.24.381.276.599.614.867.832.856 1.098 1.309.9 1.041 1.386 1.308.902.584.902.704.4.417.866.662.927.528 1 .631.704.403 1.4.666 1.267.563 1.267.667c0 1.328 13.848 1.332 14.933.005.074-.09.554-.325 1.067-.523s1.053-.492 1.2-.654.567-.431.933-.595c.78-.35 1.697-1.108 3.305-2.729 1.59-1.603 1.878-1.955 2.458-2.99.277-.495.64-1.044.804-1.222s.46-.87.658-1.539.44-1.214.537-1.214c1.125 0 1.093-12.51-.034-13.334-.1-.073-.4-.763-.643-1.533s-.544-1.4-.645-1.4-.422-.45-.71-1-.737-1.157-.994-1.348-.468-.476-.468-.632c0-.305-1.525-1.812-2.922-2.887-.477-.366-1.005-.795-1.173-.951s-.815-.51-1.438-.785-1.134-.576-1.134-.669-.96-.398-2.133-.678-2.133-.6-2.133-.712-1.74-.205-3.867-.205-3.867.101-3.867.224M193.6 124c0 .147-.176.267-.39.267-.818 0-2.953.886-3.288 1.365-.193.276-.474.501-.623.501s-.653.382-1.12.848l-.846.848-.158-3.296h-6.908V161.6h6.933v-11.422c0-10.6.19-14.211.78-14.711.087-.074.324-.61.527-1.191.4-1.147 2.076-2.93 3.032-3.229.327-.102.68-.319.786-.483.255-.398 6.556-.408 6.82-.011.105.158.58.514 1.057.791s.867.615.867.751.18.379.4.542.548.926.73 1.696.422 1.4.534 1.4.203 5.82.203 12.934V161.6h6.967l-.083-14.311c-.065-11.152-.157-14.336-.417-14.422-.183-.062-.333-.337-.333-.613 0-.764-.775-2.882-1.283-3.506-1.158-1.423-2.783-2.888-3.367-3.034-.355-.089-.702-.309-.77-.489s-.798-.488-1.62-.685-1.494-.459-1.494-.583-1.56-.224-3.466-.224c-2.134 0-3.467.103-3.467.267m83.2-.043c0 .123-.843.375-1.873.559s-2.02.478-2.2.654-.747.483-1.26.682-1.054.497-1.2.66-.627.526-1.067.807c-1.106.707-3.6 3.144-3.6 3.517 0 .169-.186.378-.413.465s-.538.52-.692.962-.38.804-.5.804-.425.54-.677 1.2-.543 1.2-.647 1.2c-.238 0-1.072 3.741-1.072 4.807 0 .436-.12.793-.267.793-.154 0-.266.844-.266 2s.112 2 .266 2c.147 0 .265.45.264 1-.004 1.194.82 4.866 1.092 4.866.105 0 .407.6.67 1.334s.573 1.333.687 1.333.405.382.646.849c.442.855 4.214 4.751 4.6 4.751.114 0 .444.22.732.489s1.09.705 1.784.969 1.26.566 1.26.67c0 .474 4.182 1.072 7.488 1.072 3.372 0 7.178-.562 7.178-1.059 0-.119.72-.432 1.6-.696s1.6-.583 1.6-.709.42-.405.934-.62l.933-.39v-4.53c0-5.259.12-5.139-2.525-2.529-1.114 1.1-2.12 2-2.233 2s-.455.229-.756.51c-.547.51-2.687 1.356-3.43 1.356-.215 0-.4.12-.4.267 0 .16-1.067.267-2.667.267s-2.667-.107-2.667-.267c0-.147-.235-.267-.524-.267-.8 0-2.91-.776-3.488-1.282-2.76-2.424-4.52-4.581-4.52-5.539 0-.208-.1-.379-.22-.379-1.067 0-1.12-9.554-.057-10.4.092-.073.334-.65.537-1.283s.59-1.266.856-1.409.485-.39.485-.548c0-.374 1.983-2.36 2.355-2.36.157 0 .38-.15.498-.333.28-.437 1.785-1.267 2.3-1.267.222 0 .454-.15.515-.333.142-.427 7.318-.479 7.61-.055.105.152.725.45 1.38.66s1.37.596 1.592.856.528.473.68.474 1.09.841 2.1 1.867 1.93 1.865 2.067 1.865c.58 0 .3-9.104-.283-9.256-.293-.077-.533-.224-.533-.326 0-.236-1.763-1.085-2.254-1.085-.203 0-.4-.123-.46-.274-.1-.302-2.67-1.051-3.62-1.056-.33-.002-.6-.123-.6-.27 0-.166-1.466-.267-3.866-.267-2.127 0-3.867.101-3.867.224m34.89-.023c-.05.11-.9.415-1.914.679s-2.076.713-2.383 1-.72.52-.917.52-.427.18-.512.4-.312.4-.506.4-.57.277-.838.615-.696.694-.952.791-.467.301-.467.453-.172.275-.382.275-.45.21-.532.466-.45.816-.818 1.242-.668.913-.668 1.083-.23.554-.51.855-.716 1.283-.97 2.183-.544 1.637-.648 1.637c-.9 0-.897 12.42.014 13.067.103.073.38.787.617 1.585s.52 1.518.63 1.6.44.628.73 1.215.743 1.223 1 1.415.468.467.468.612c0 .357 3.067 3.44 3.423 3.44.156 0 .38.15.497.333s.694.572 1.28.864 1.127.606 1.2.698c1.06 1.325 12.93 1.325 13.866 0 .074-.105.595-.404 1.158-.666s1.223-.649 1.467-.86l2.576-2.232.156 3.996h7.177v-37.067h-7.2v4.368l-.82-.839c-.45-.461-1.05-.912-1.333-1.002s-.513-.271-.513-.404-.4-.442-.867-.686-.932-.544-1.01-.667-.98-.435-2-.696-1.896-.564-1.945-.674c-.116-.261-7.44-.261-7.555.001m67.244.017c0 .12-.785.374-1.745.565s-1.9.483-2.067.649-.767.508-1.313.76-1.243.672-1.55.933c-1.31 1.115-3.725 3.585-3.725 3.81 0 .135-.22.459-.487.722s-.652.897-.855 1.41-.505 1.073-.672 1.245-.462 1.071-.656 2-.483 1.774-.64 1.879c-.44.289-.396 10.396.045 10.543.183.061.338.371.345.689.02.93.665 3.136.976 3.331.157.099.472.627.7 1.173s.66 1.26.963 1.584.55.699.55.833c0 .355 2.457 2.703 3.43 3.278.46.271.836.578.836.68s.54.394 1.2.646 1.2.543 1.2.647c0 .483 4.188 1.072 7.62 1.072 3.46 0 7.312-.551 7.312-1.045 0-.112.486-.363 1.08-.559s1.164-.485 1.266-.643.562-.494 1.02-.748c1.074-.596 3.7-3.231 4.306-4.306.254-.458.61-.928.795-1.046s.333-.372.333-.567.18-.503.4-.686c.698-.58.473-1.273-.533-1.636-.514-.186-.934-.415-.934-.51s-.5-.399-1.133-.675-1.292-.655-1.486-.841c-.502-.482-1.647-.433-1.647.07a.65.65 0 0 1-.39.558c-.215.083-.464.382-.554.666s-.574.963-1.075 1.509-.913 1.142-.913 1.326a.34.34 0 0 1-.335.337c-.183.003-.725.35-1.204.772a6.51 6.51 0 0 1-2.066 1.121c-.658.194-1.197.447-1.197.561s-1.26.209-2.8.209-2.8-.094-2.8-.209-.535-.366-1.19-.559-1.453-.58-1.774-.859-.662-.507-.757-.507c-.412 0-2.36-2.153-2.805-3.098-.268-.569-.56-1.095-.65-1.168-.306-.252-.778-2.001-.954-3.534l-.177-1.533h27.833l-.13-3.667c-.126-3.559-.713-6.758-1.277-6.955-.14-.049-.254-.271-.254-.492 0-.445-.743-1.873-1.267-2.433-.183-.197-.333-.469-.333-.605 0-.369-3.27-3.715-3.63-3.715-.172 0-.37-.15-.44-.334s-.59-.501-1.152-.704-1.173-.52-1.355-.701-1.116-.487-2.076-.678-1.746-.445-1.746-.565-1.68-.218-3.733-.218-3.734.098-3.734.218M27.08 142.252l17.72 17.969c0 .138.27.352.6.476.354.133-2.997.257-8.17.301l-8.768.076-2.678 2.663c-1.473 1.465-2.897 2.663-3.165 2.663s-.487.12-.487.267-.3.266-.666.266-.667-.112-.667-.248-.27-.332-.6-.434-4.2-3.784-8.6-8.181l-8-7.996.025-1.137c.028-1.299-.01-1.245 3.108-4.448l2.334-2.396v-8.78c0-4.829.066-8.78.147-8.78s8.122 7.974 17.867 17.719m114.523-4.319c.004 13.958.156 16.131 1.198 17.174.22.219.398.562.398.762s.36.76.8 1.242.867 1.084.947 1.336.352.525.605.605.853.506 1.336.947 1.04.801 1.242.801.528.164.728.364c1.484 1.484 14.074 1.635 14.074.169 0-.124.42-.363.932-.532s1.022-.452 1.133-.627.513-.518.894-.759c1.12-.712 2.262-1.971 2.775-3.063.263-.56.553-1.079.645-1.152.405-.326.82-1.727.984-3.328.098-.956.28-1.739.407-1.739s.23-5.76.23-12.8v-12.8h-7.2l-.01 12.067c-.01 12.116-.248 15.886-1.015 16.142-.17.056-.308.257-.308.446 0 .536-1.728 1.881-2.922 2.275-.593.196-1.078.456-1.078.58s-1.02.224-2.267.224-2.266-.094-2.266-.209-.544-.369-1.208-.565-1.328-.582-1.476-.858-.444-.502-.66-.502-.39-.12-.39-.266-.21-.478-.468-.736c-1.12-1.12-1.198-2.025-1.328-15.598l-.124-13H141.6l.004 13.4m-114.617-7.766c.777.166 1.473.381 1.546.478s.66.347 1.302.554 1.305.502 1.472.655.72.511 1.23.795 1.085.733 1.277 1 .474.484.626.484c.32 0 1.826 1.547 1.826 1.876 0 .12.274.438.61.705s.832.966 1.106 1.553.585 1.126.693 1.2c.236.16 1.058 2.534 1.058 3.053 0 .203.12.409.265.458.623.209.662 4.222.04 4.222-.315 0-.576-.15-.58-.333-.027-1.124-.558-4.326-.737-4.451-.118-.082-.438-.749-.7-1.483s-.58-1.393-.683-1.466-.387-.524-.63-1-.553-.867-.686-.867-.315-.231-.405-.513c-.2-.635-1.726-2.154-2.16-2.154-.177 0-.39-.181-.476-.404s-.458-.519-.83-.66-.673-.362-.673-.493-.57-.452-1.267-.715-1.327-.559-1.4-.656c-.198-.264-2.322-.758-4.067-.945-1.28-.138-1.533-.25-1.533-.679 0-.618 1.492-.702 3.787-.214m92.702.42c.098.154.594.37 1.102.48 1.463.318 2.347.909 4.144 2.768 1.816 1.881 1.94 2.061 2.448 3.548.266.779.604 1.503.75 1.607.38.272.354 8.173-.028 8.42-.162.104-.374.619-.47 1.143s-.383 1.191-.638 1.482c-.632.719-1.115 1.473-1.303 2.032-.086.256-.232.467-.325.467s-.59.361-1.102.801-1.144.868-1.4.951-.467.255-.467.383-.72.446-1.6.708-1.6.568-1.6.682-1.38.208-3.067.208-3.066-.101-3.066-.223-.706-.419-1.57-.659-1.64-.62-1.725-.844-.298-.408-.47-.408c-.408 0-3.423-2.97-3.43-3.381-.003-.172-.164-.472-.358-.666-.47-.472-1.247-2.795-1.247-3.734 0-.413-.12-.752-.267-.752-.158 0-.267-.978-.267-2.4s.11-2.4.267-2.4c.147 0 .268-.27.27-.6.005-.961.756-3.52 1.063-3.622.154-.051.444-.486.644-.965.35-.84 2.72-3.346 3.163-3.346.12 0 .472-.239.785-.53s.967-.605 1.455-.697.887-.265.887-.385c0-.54 7.08-.604 7.422-.068m119.192-.016c.102.16.486.374.852.476 1.022.286 1.977.783 2.214 1.153.117.183.347.333.512.333.255 0 1.743 1.468 2.785 2.748.17.21.51.965.75 1.679s.583 1.385.756 1.492c.462.285.445 8.793-.018 8.948-.183.061-.333.277-.333.48 0 .8-.893 2.935-1.366 3.266-.275.193-.5.474-.5.623 0 .233-1.04 1.281-2.685 2.705-.555.482-2.524 1.259-3.187 1.259-.3 0-.528.12-.528.267 0 .16-1.066.267-2.666.267-1.467 0-2.667-.094-2.667-.209s-.57-.37-1.267-.567-1.39-.494-1.54-.659c-.366-.401-1.222-.945-1.785-1.135-.252-.085-.53-.382-.618-.659s-.272-.505-.41-.505-.25-.18-.25-.4-.117-.4-.26-.4-.46-.39-.704-.866-.523-.927-.62-1c-.32-.242-1.083-3.439-1.083-4.53 0-.589-.12-1.07-.267-1.07s-.267-.6-.267-1.334.12-1.333.267-1.333.267-.466.267-1.036c0-.964.723-3.73 1.053-4.031.08-.073.38-.55.663-1.059s.794-1.183 1.134-1.497.616-.708.616-.874.174-.303.385-.303.542-.213.734-.473.888-.706 1.548-.992 1.26-.601 1.333-.701c.393-.532 6.81-.588 7.148-.063m81.33-.022c.104.153.766.495 1.47.759 1.37.514 4.263 3.143 4.59 4.171.1.315.395.786.654 1.045s.555 1.027.657 1.707.298 1.236.435 1.236c.143 0 .25 1.484.25 3.466 0 1.907-.096 3.467-.214 3.467s-.36.715-.54 1.589-.49 1.75-.685 1.946-.437.61-.535.92c-.193.607-3.03 3.545-3.424 3.545-.132 0-.404.165-.606.366s-.912.528-1.58.725-1.214.453-1.214.567-1.26.209-2.8.209-2.8-.094-2.8-.209-.536-.366-1.2-.559-1.453-.58-1.774-.859-.67-.507-.772-.507c-.395 0-2.95-2.784-3.1-3.377-.086-.343-.26-.623-.384-.623-.272 0-1.048-2.504-1.048-3.381 0-.34-.12-.619-.267-.619-.163 0-.266-1.244-.266-3.2s.103-3.2.266-3.2c.147 0 .267-.266.267-.591 0-.733.8-2.875 1.074-2.875.11 0 .276-.298.368-.663.32-1.27 4.235-4.671 5.38-4.671.208 0 .378-.111.378-.248 0-.565 7.032-.694 7.41-.136m65.86.062c.06.177.284.322.5.322 1.12 0 4.174 2.572 4.83 4.067.177.403.435.733.572.733.214 0 .828 2.186.828 2.947 0 .156-3.905.253-10.133.253-5.574 0-10.133-.09-10.132-.2.004-.525.58-2.2.757-2.2.11 0 .36-.439.554-.977.572-1.581 4-4.623 5.195-4.623.234 0 .426-.111.426-.248 0-.604 6.403-.676 6.603-.074" fill="#8c8c8c"/><path d="M28.267 121.2c0 .22.12.4.266.4s.267-.18.267-.4-.12-.4-.267-.4-.266.18-.266.4" fill="#908c8c"/></svg>