<svg xmlns="http://www.w3.org/2000/svg" width="400" height="266.667" viewBox="0 0 400 NaN" fill-rule="evenodd"><path d="M78.07 33.067c-.183.293-.47.533-.638.533-.476 0-1.498.603-2.26 1.334a18.57 18.57 0 0 1-1.408 1.199c-.392.294-.827.804-.965 1.134s-.435.6-.66.6-.407.125-.407.278-.27.555-.6.893-.83 1.021-1.113 1.521-.585.968-.672 1.041c-.3.243-.815 1.617-.815 2.133 0 .279-.16.603-.36.72C67 45.149 67 58.854 68.172 59.547c.2.117.37.597.38 1.066s.25 1.214.53 1.654.583.98.672 1.2c.594 1.481 1.65 3.273 2.372 4.022.223.232.406.556.406.718s.216.453.48.645.69.798.946 1.348.562 1 .678 1 .357.32.536.711a6.01 6.01 0 0 0 .824 1.266c1.357 1.508 2.137 2.52 2.137 2.772 0 .153.2.333.467.401.437.114.437.123-.008.152-.262.017-.544-.149-.63-.369s-.302-.4-.484-.4c-.512 0-2.012-.809-2.012-1.086 0-.136-.24-.247-.534-.247-.633 0-.66.249-.155 1.456.28.666.508.872.867.779.618-.159 1.282 1.224 1.043 2.174-.09.362-.06.658.066.658s.508.24.846.533.837.533 1.107.533.493.12.493.267.227.267.505.267.574.18.658.4.356.4.603.4.822.277 1.275.616 1.246.784 1.76.989c1.9.759 2.912 1.656 2.923 2.595.006.476-.102.866-.238.866s-.325.27-.417.6c-.2.679-.73 1.866-.94 2.067-.71.679-.735 1.571-.048 1.65.667.077.72.174.72 1.326 0 .683.1 1.333.2 1.444s.2.493.2.849c0 .432.185.696.555.793s.514.301.43.626c-.07.267.1.685.378.938s.505.618.505.815.133.359.295.359.226.181.14.402c-.09.236.063.539.37.731.29.181.526.587.526.903s.195.649.434.74c.594.228 1.213-.343 1.022-.943-.107-.336.144-.801.794-1.47.522-.538.95-1.134.95-1.324s.307-.676.682-1.08c.48-.518.636-.917.528-1.348-.122-.486-.043-.611.385-.611.383 0 .538-.176.538-.608s.234-.696.8-.91c.44-.166.8-.493.8-.726a.42.42 0 0 1 .414-.423c.58 0 1.986-.76 1.986-1.073 0-.143-.195-.26-.434-.26-.477 0-.333-2.005.18-2.52.14-.139.253-.469.253-.733s.18-.48.4-.48c.25 0 .4-.252.4-.667 0-.394.153-.667.374-.667.206 0 .5-.33.675-.733.585-1.425 1.073-2.068 1.675-2.208.398-.093.698-.44.865-1 .14-.472.35-.859.466-.859s.212-.543.212-1.206c0-1.042.09-1.242.667-1.46 1.425-.542.9-1.596-.734-1.444-2.097.195-4.288.709-4.685 1.098-.194.19-.546.346-.78.346-.587 0-2.2.599-2.2.817 0 .097-.567.393-1.26.658s-1.495.7-1.784.969-.742.489-1.008.489-.483.18-.483.4c0 .613-1.215.488-1.95-.2-.353-.33-.976-.84-1.385-1.133-1.012-.726-6.8-6.321-6.8-6.573 0-.112-.308-.539-.685-.949-1.34-1.455-1.448-1.592-1.448-1.803 0-.117-.22-.407-.486-.644s-.717-.851-1-1.365-.724-1.09-.98-1.281-.467-.526-.467-.742a.65.65 0 0 0-.4-.547c-.22-.084-.4-.302-.4-.484 0-.484-.802-2.012-1.057-2.012-.12 0-.406-.47-.636-1.044s-.543-1.122-.695-1.216-.278-.458-.278-.807-.12-.709-.267-.8-.267-.452-.267-.802-.166-.734-.37-.851c-1.077-.62-1.072-12.347.005-12.347.2 0 .365-.201.365-.448 0-.731.618-2.219.922-2.219.155 0 .452-.385.66-.856s.658-1.115.998-1.431.62-.71.62-.877.12-.302.266-.302.712-.42 1.256-.934 1.192-.933 1.44-.933a.69.69 0 0 0 .602-.4c.085-.22.39-.4.68-.4s.6-.12.69-.267.57-.266 1.066-.266.976-.12 1.067-.267.518-.267.95-.267.784.12.784.267.533.267 1.185.267 1.258.12 1.35.266.39.267.67.267.6.164.717.364.577.55 1.022.777c.872.445 3.325 2.932 3.325 3.371 0 .147.224.482.497.744.544.523.817 1.414 1.02 3.332.073.69.302 1.395.508 1.566.558.464.536 5.534-.025 5.75-.22.084-.4.317-.4.518s-.36.55-.8.778-.8.537-.8.687-.36.4-.8.553-.8.447-.8.653-.185.374-.41.374a1.33 1.33 0 0 0-.734.272c-1.63 1.376-2.018 1.597-2.855 1.63-1.71.066-3.33-.081-3.587-.327-.14-.133-.41-.242-.6-.242s-.556-.185-.813-.411c-1.986-1.747-2.733-2.537-2.733-2.886 0-.223-.12-.479-.267-.57s-.267-.63-.267-1.2.12-1.109.267-1.2.267-.517.267-.949.117-.784.26-.784.506-.54.806-1.2.664-1.2.807-1.2.26-.129.26-.286c0-.365.534-.894 1.133-1.121.257-.097.467-.3.467-.451s.233-.275.518-.275.59-.12.682-.267c.234-.379 2.698-.331 3.373.067 2.592 1.525 2.62 5.533.04 5.533-.19 0-.347.161-.347.357 0 .433-1.117.976-2.008.976-.688 0-1.135.936-.83 1.733.218.57 3.103.576 3.103.006 0-.217.3-.47.667-.562s.667-.275.667-.406.18-.237.4-.237.4-.123.4-.274.302-.388.67-.528a1.84 1.84 0 0 0 .927-.927c.14-.369.378-.671.528-.671.47 0 .348-3.915-.126-4.097-.22-.084-.4-.372-.4-.639s-.515-.992-1.144-1.609L89.18 42.4h-3.523c-2.288 0-3.524.098-3.524.281 0 .154-.36.406-.8.559s-.8.419-.8.59-.26.429-.578.573-.708.504-.867.797-.386.605-.506.693c-.324.239-.982 1.581-.982 2.004 0 .203-.18.37-.4.37-.246 0-.4.25-.4.651 0 .358-.12.725-.267.815s-.266 1.376-.266 2.934.116 2.84.266 2.933.267.429.267.752.3.91.667 1.306.666.837.666.982.36.476.8.736.8.626.8.815.172.342.38.342.59.209.844.463c1 1.001 7.196 1.7 7.71.871.1-.147.397-.267.682-.267s.758-.21 1.05-.467l1.067-.933c.293-.257.713-.467.933-.467s.4-.12.4-.266.166-.267.37-.267.566-.3.806-.667.57-.666.73-.666.763-.51 1.34-1.134c2.45-2.649 2.422-2.563 2.26-7.286-.165-4.798-.367-6.391-.862-6.802-.206-.171-.374-.649-.374-1.062s-.12-.826-.267-.916-.267-.354-.267-.585-.27-.694-.6-1.029-.96-1.061-1.4-1.617c-.932-1.176-2.3-2.503-2.58-2.503-.108 0-.495-.3-.862-.666s-.972-.667-1.346-.667c-.5 0-.678-.14-.678-.533 0-.516-.178-.534-5.33-.534-5.043 0-5.35.029-5.665.534m106.518 4.41c-.19.214-.752.39-1.25.39s-.982.12-1.072.266-.398.267-.683.267-.517.18-.517.4-.176.4-.39.4c-.804 0-3.076 2.682-3.076 3.63 0 .204-.18.37-.4.37-.265 0-.4.265-.4.784 0 .432-.12.859-.267.949-.152.095-.266 1.465-.266 3.2s.114 3.106.266 3.2.267.462.267.824.18.729.4.813.4.381.4.659.12.504.267.504.266.124.266.276c0 .291 1.735 2.124 2 2.124.256 0 .924.736.924 1.018 0 .259.87.495 2.8.758.586.08 1.18.253 1.32.385.347.329 3.346.304 3.346-.027 0-.147.355-.267.788-.267.932 0 1.97-.42 3.104-1.258.454-.335.958-.609 1.12-.609s.39-.168.508-.374c.63-1.105 2.47.197 2.53 1.79.032.864-1.153 2.584-1.782 2.584-.227 0-.934.712-.934.941 0 .098-.57.749-1.267 1.446-1.7 1.711-2.98 3.275-2.992 3.68-.004.183-.188.333-.408.333a.4.4 0 0 0-.4.4c0 .22-.12.4-.267.4s-.266.24-.266.534-.178.533-.4.533-.4.182-.4.404c0 .51-.564 1.53-1 1.809-.184.118-.334.424-.334.68s-.108.581-.24.72c-.64.671-1.36 2.367-1.36 3.203 0 .584-.15.992-.4 1.088-.325.125-.4.766-.4 3.458v3.305h-.647c-.356 0-.828.18-1.048.4s-.694.4-1.053.4-.802-.18-.985-.4-.587-.404-.9-.409c-.617-.009-1.5-.572-1.5-.957 0-.131-.24-.389-.533-.572s-.534-.513-.534-.731-.128-.398-.285-.398c-.37 0-1.048-.678-1.048-1.048 0-.157-.124-.285-.276-.285s-.626-.33-1.055-.734c-1.457-1.369-2.607-2.2-3.047-2.2-.24 0-.508-.18-.592-.4s-.357-.4-.605-.4-.6-.138-.76-.307c-.833-.833-8.816-.157-9.56.809-.244.318-.42.241-1.044-.46-.413-.463-.9-.842-1.106-.842s-.356-.125-.356-.278-.286-.566-.636-.915-.8-1.005-1-1.455-.45-.818-.557-.818-.437-.533-.734-1.184-.66-1.258-.807-1.349-.267-.376-.267-.633-.24-.725-.533-1.04-.534-.75-.534-.967-.104-.46-.23-.539-.295-.712-.374-1.407-.274-1.308-.435-1.361c-.39-.131-.378-2.381.015-2.512.185-.062.358-.995.436-2.355.1-1.933.24-2.414.905-3.387l.777-1.133h8.536l.83.776c.64.6.876 1.099 1.032 2.2.305 2.143.288 6.891-.025 6.891-.147 0-.267.13-.267.29 0 .418-1.117 1.29-1.666 1.301-.257.005-.467.121-.467.257 0 .537-1.067.553-2.042.03-.56-.3-1.166-.545-1.348-.545s-.542-.33-.8-.733-.612-.854-.786-1c-.298-.251-.504-1.922-.403-3.267.026-.335.222-.6.446-.6a.4.4 0 0 0 .4-.4c0-.24.246-.4.613-.4.337 0 .744-.131.905-.291.2-.211.442-.211.836 0 .3.16.852.291 1.228.291.427 0 .684.149.684.395 0 .445.962.761 1.907.627.765-.108 1.06-1.456.378-1.719-.23-.088-.418-.327-.418-.532s-.25-.371-.56-.371-.897-.241-1.3-.535c-.988-.703-4.5-1.049-5.077-.5-.213.203-.717.539-1.12.747s-.733.525-.733.705-.18.395-.4.479-.4.451-.4.813-.12.734-.267.824c-.54.335-.182 3.125.567 4.4.13.22.362.698.518 1.062s.845 1.179 1.532 1.81l1.672 1.538c.625.577 6.378.568 6.378-.01 0-.22.2-.4.467-.401.72-.003 2.94-2.049 3.417-3.149.235-.541.537-1.163.672-1.383 1.27-2.073 1.3-6.471.067-7.503-.196-.162-.356-.443-.356-.622 0-.49-.705-1.805-1.322-2.467-.3-.322-.545-.703-.545-.846s-.24-.336-.533-.429-.534-.312-.534-.486-.345-.47-.768-.657-1.112-.636-1.533-.998-1.147-.73-1.614-.818-.912-.328-.99-.534c-.11-.282-.732-.373-2.552-.373h-2.408v1.066c0 .708-.12 1.067-.354 1.067-.194 0-.635.3-.98.667s-.845.666-1.113.666c-.36 0-.487.203-.487.77 0 .526-.2.907-.666 1.206-.383.251-.667.691-.667 1.034 0 .364-.235.7-.6.86-.5.224-.612.502-.682 1.857-.085 1.666-.306 1.996-1.343 2.003-.4.002-.675.197-.764.537-.077.293-.246.533-.375.533-.44 0-.285 5.495.164 5.867.22.183.4.619.4.97 0 .602.458 1.671.842 1.964.097.074.39.674.65 1.333s.6 1.288.757 1.396.18.197.054.2-.803-.416-1.502-.93-1.405-.933-1.57-.933-.298-.18-.298-.4-.2-.404-.466-.408c-.56-.011-1.4-.607-1.4-.992s-1.43-.713-1.55-.353c-.053.157-.446.286-.874.286-.73 0-.777.066-.777 1.067 0 .77.11 1.067.4 1.067.22 0 .4.12.4.266s.227.267.504.267.57.171.65.379.423.433.762.497l.616.118-.608.036c-.335.02-.678.217-.762.437-.094.245-.5.4-1.043.4-.49 0-.963.12-1.054.266s-.4.267-.7.267-.59.168-.67.374-.555.451-1.058.545-.915.286-.915.426-.227.255-.505.255-.57.171-.65.379-.423.419-.762.467c-.56.079-.624.243-.696 1.754-.043.917-.193 1.667-.333 1.667s-.254.356-.254.792v.792l1-.655c.55-.36 1.176-.807 1.392-.992.57-.491 1.612-1.004 2.038-1.004.204 0 .37-.18.37-.4s.217-.4.483-.4.74-.238 1.05-.529 1.085-.733 1.717-.982 1.21-.537 1.282-.641c.613-.866 3.015-1.233 4.2-.641 1.227.612 1.328 1.193.208 1.193-.5 0-.984.12-1.074.267s-.398.266-.683.266-.517.123-.517.273-.3.409-.667.576-.667.451-.667.63-.3.523-.666.763-.667.618-.667.84-.18.471-.4.555-.4.306-.4.493-.2.496-.423.689c-.29.24-.393.672-.327 1.36.062.653.005.916-.164.748-.142-.143-.372-.26-.51-.26s.077.256.475.569c1.063.837 2.62.304 3.177-1.087.222-.553.69-1.111 1.08-1.289.38-.173.7-.424.7-.558 0-.522 4.4-1.132 6.558-.909 1.56.161 1.817.543 1.05 1.556-.215.285-.395.715-.4.956a.7.7 0 0 1-.408.592c-.22.084-.4.373-.4.642s-.114.602-.253.741c-.388.388.168 2.445.93 3.444 1.254 1.643 2.05 4.51 2.09 7.514.018 1.488.1 2.583.203 2.435s.216.223.273.826.02 1.128-.082 1.166c-.313.115.645 1.096 1.773 1.815 2.027 1.292 1.962 1.537 2.053-7.787l.08-8.274.63-.509c.892-.722 2.017-.655 2.656.157.51.646 2.18.984 2.18.44 0-.124.5-.437 1.134-.695s1.452-.636 1.84-.84c2.6-1.364 8.007 1.022 8.893 3.923.108.351.345.819.528 1.039s.41.73.507 1.133c.26 1.096 1.17 1.002 1.28-.133.072-.743.2-.88.884-.956.44-.049 1-.259 1.222-.467s.484-.315.562-.238.292-.043.477-.266.454-.407.596-.407.928-.597 1.747-1.327c.864-.771 2.028-1.506 2.773-1.754.706-.234 1.352-.537 1.436-.672.83-1.346 9.454 1.229 9.454 2.823 0 .148.24.419.533.602s.533.463.533.623.246.634.546 1.056c1.194 1.676 1.637 6.438 1.005 10.805-.345 2.389-.11 3.044 1.097 3.044.313 0 .552.174.552.4 0 .491 2.262.573 2.56.092.118-.19.073-.235-.117-.117-.183.113-.308.021-.308-.226 0-.228.12-.415.266-.415.172 0 .267-2.927.267-8.247v-8.246l.7-.82c.89-1.059 1.98-1.106 2.757-.118.533.677.553 1.007.553 9.191 0 8.118.022 8.5.516 8.764.657.352 2.07.357 2.284.009.09-.147.51-.267.934-.267.492 0 .918-.213 1.184-.592.23-.326.415-.446.415-.267s.18.326.4.326.4-.172.4-.382.25-.462.558-.559c1.14-.362 1.31-1.498 1.31-8.871 0-7.529.116-8.055 1.77-8.055 1.57 0 1.825.922 1.874 6.756.055 6.542.008 5.957.485 6.139.24.092.752-.214 1.294-.771.493-.508.962-.924 1.04-.924.216 0 1.802-1.518 1.802-1.724 0-.098.42-.62.93-1.16s.932-1.124.933-1.297.272-.353.602-.4c.567-.081.608-.236.734-2.778.134-2.708.377-3.404 1.29-3.694 1.33-.422 1.46-10.669.146-11.427-.204-.117-.37-.548-.37-.959 0-.77-.644-2.3-1.083-2.571-.138-.085-.25-.357-.25-.605s-.27-.779-.6-1.18-1.02-1.298-1.533-1.995c-1.503-2.04-5.417-5.676-6.11-5.676-.16 0-.29-.12-.29-.267s-.13-.267-.286-.267-.466-.18-.686-.4-.624-.4-.898-.4-.573-.12-.664-.266-.443-.267-.783-.267-.767-.18-.95-.4-.73-.4-1.217-.4-.96-.12-1.05-.267-.75-.266-1.466-.266-1.376-.12-1.467-.267-1.425-.267-3.082-.267c-1.768 0-2.918.105-2.918.267 0 .376-1.694.333-2.08-.053s-.432-2.88-.053-2.88c.148 0 .266-.706.266-1.585 0-.871.12-1.658.267-1.749s.267-.439.267-.775.25-.898.556-1.251.656-.816.777-1.031c.36-.644 4.348-.461 5.04.23.54.541.104 2.694-.546 2.694-.125 0-.226.3-.226.667s-.12.666-.267.666-.267.3-.267.667c0 .806-.688.904-.933.134-.093-.293-.46-.606-.818-.696-.703-.176-.903-.905-.25-.905.614 0 .53-1.523-.095-1.721-.746-.237-1.205.038-1.748 1.047-.9 1.67-.263 4.674.992 4.674.212 0 .535.18.718.4.522.63 2.667.546 2.667-.104 0-.278.18-.574.4-.659s.4-.286.4-.447c0-.376.674-1.056 1.047-1.056.157 0 .286-.125.286-.278s.252-.543.56-.867c1.122-1.182 1.334-5.262.33-6.322-.21-.22-.525-.614-.703-.875-.218-.321-.927-.565-2.187-.753-1.026-.153-2.073-.389-2.328-.525-.615-.329-2.337-.317-2.337.016 0 .145-.437.446-.97.669s-1.25.705-1.588 1.07-.712.665-.83.665-.386.389-.597.865-.612 1.051-.89 1.277c-.326.264-.56.888-.654 1.735-.08.727-.24 1.385-.357 1.462s-.326.736-.465 1.466c-.215 1.124-.258.749-.284-2.439-.023-2.997-.11-3.836-.43-4.1-.22-.182-.4-.599-.4-.925 0-.654-.73-2.275-1.026-2.275-.102 0-.413-.42-.69-.933s-.635-.933-.797-.933-.443-.24-.626-.534-.513-.533-.73-.533a.4.4 0 0 1-.398-.4c0-.249-.252-.4-.667-.4-.366 0-.666-.104-.666-.232s-.508-.299-1.128-.382-1.17-.279-1.222-.435c-.152-.456-4.112-.345-4.528.126m-70.72 2.202c-1.402.056-2.06.195-2.213.467-.12.213-.564.387-.988.387s-.845.12-.936.267-.403.267-.694.267-.852.3-1.248.666-.844.667-.996.667-.45.24-.662.533-.538.534-.725.534-.34.154-.34.342-.36.555-.8.815-.8.602-.8.76-.213.481-.474.718c-.65.591-1.393 1.798-1.393 2.26a.61.61 0 0 1-.367.522c-.348.133-.43.38-.862 2.574-.1.508-.344 1.087-.543 1.286-.523.523-.52 7.405.005 7.709.202.118.436.634.52 1.147.353 2.137.532 2.716.88 2.85.202.077.367.368.367.645s.12.505.267.505.266.18.266.4.158.4.35.4.515.42.716.933.5.934.662.934.765.48 1.338 1.066 1.184 1.067 1.36 1.067.384.175.467.389c.375.977 2.307.988 2.307.013 0-.399.198-.695.534-.802.302-.096.533-.403.533-.71 0-.298.24-.879.534-1.291s.46-.941.372-1.175c-.117-.305-.005-.424.4-.424.42 0 .562-.166.562-.667 0-.414.15-.666.4-.666.28 0 .4-.281.4-.931 0-.723.104-.921.466-.891 1.242.104 1.448-.023 1.28-.789-.128-.585-.02-.87.512-1.332.513-.446.676-.845.676-1.656 0-.961.066-1.068.667-1.068s.666-.107.666-1.067c0-.876.092-1.066.516-1.066.364 0 .54-.216.6-.734.06-.525.255-.757.684-.818.508-.072.6-.249.6-1.145 0-.693.116-1.045.334-1.017.75.098.966-.058 1.133-.82.097-.44.346-.8.555-.8.243 0 .378-.286.378-.8 0-.666.107-.8.638-.8.55 0 .67-.173.868-1.266.19-1.036.343-1.283.846-1.354.338-.048.672-.238.743-.422.263-.688.236-4.425-.033-4.425-.15.001-.713-.299-1.252-.666s-1.28-.667-1.643-.667-.823-.16-1.02-.357c-.39-.391-4.016-.634-7.41-.497M11.296 46.533c-.084.22-.426.4-.76.4-.746 0-2.482.707-2.995 1.22-.21.209-.494.38-.633.38-.347 0-3.976 3.64-3.976 3.987 0 .154-.18.28-.4.28s-.4.237-.4.533-.12.534-.266.534-.267.227-.267.504-.18.574-.4.659-.4.433-.4.775-.125.747-.277.899c-.7.7-.044 12.79.7 13.079.202.077.367.322.367.543 0 .915 2.792 4.197 4.6 5.407.548.367.997.757.998.867s.302.2.67.2c.414 0 .666.151.666.4s.25.4.65.4c.358 0 .725.12.816.267s.63.266 1.197.266c.576 0 1.214.183 1.445.414.535.535 5.25.704 5.42.195.06-.179.55-.408 1.088-.509a6.39 6.39 0 0 0 1.781-.668l1.547-.904c.934-.527 4.988-4.494 4.988-4.881 0-.158.17-.383.376-.5.53-.301 2.3-2.918 2.3-3.407 0-.223.18-.406.4-.406s.4-.226.4-.502c0-1.196 1.606-2.228 3.245-2.085 1.436.126 1.52.099 1.678-.533.22-.879-.262-1.412-1.29-1.422-.458-.005-1.067-.185-1.35-.4s-.735-.392-1-.392c-.383 0-.483-.214-.483-1.033 0-1.626-.267-2.565-.96-3.37-.352-.411-.64-.908-.64-1.105s-.12-.358-.266-.358-.267-.24-.267-.534-.178-.533-.4-.533-.4-.189-.4-.421-.54-.961-1.2-1.621-1.2-1.286-1.2-1.392c0-.284-1.98-2.166-2.28-2.166-.142 0-.408-.24-.59-.533s-.513-.534-.73-.534-.398-.183-.398-.406c0-.239-.33-.473-.8-.567-.44-.088-.8-.265-.8-.393s-.3-.234-.667-.234c-.414 0-.666-.151-.666-.4 0-.337-.623-.4-4.01-.4-3.317 0-4.035.069-4.162.4m258.093 6.944c-.19.214-.64.39-1.003.39-.707 0-1.503.382-2.356 1.133-.292.257-.688.467-.88.467s-.35.18-.35.4-.12.4-.266.4c-.312 0-2.4 1.976-2.4 2.271 0 .109-.222.394-.493.631s-.66.896-.866 1.465-.523 1.091-.706 1.161-.335.409-.335.751-.12.697-.266.787c-.158.098-.267 1.731-.267 4s.11 3.903.267 4c.146.091.266.458.266.816s.1.652.2.654.44.512.733 1.133c.586 1.244.78 1.536 1.667 2.502.33.359.6.716.6.793 0 .252.755.902 1.048.902.157 0 .286.16.286.355 0 .337.64.751 1.666 1.079.257.082.467.333.467.558 0 .299.287.408 1.067.408 1.27 0 1.33-.255.287-1.253-1.003-.962-1.87-2.533-2.322-4.213-.52-1.93-.497-2 .65-2 1.48 0 2.2.793 2.862 3.2.368 1.319.865 1.6 2.83 1.6 1.017 0 1.84-.118 1.858-.267l.067-.511c.018-.135.143-.345.276-.467.14-.129.162-.082.05.111-.105.184-.094.334.026.334.43 0 .877-1.075 1.047-2.525l.173-1.475h1.106c1.116 0 2.037.873 2.013 1.907-.026 1.113-2.158 4.493-2.833 4.493-.198 0-.36.114-.36.254s-.45.327-1 .415-1.208.273-1.463.412-.855.256-1.333.261l-.87.009.63.524c.8.668 3.772.752 4.4.125.22-.22.7-.4 1.064-.4.744 0 2.327-.756 2.654-1.267a.8.8 0 0 1 .598-.333c.21 0 .534-.24.717-.534s.484-.533.668-.533c.43 0 3.804-3.266 3.804-3.684 0-.174.17-.316.377-.316s.423-.134.477-.297c.196-.586 5.22-.165 5.46.457.078.205.5.373.914.373s.772.12.772.267.29.267.647.267.81.16 1.005.357a2.68 2.68 0 0 0 .752.512c.218.085.013.165-.455.176s-.925.141-1.016.288-.586.267-1.1.267-1.117.18-1.337.4-.864.4-1.432.4-1.106.12-1.197.266-.567.267-1.06.267-.936.123-.986.273c-.084.252-1.66.635-3.996.971-.662.096-1.018.304-1.108.648a.71.71 0 0 1-.691.508c-.307 0-.56.151-.56.335 0 .302-.622.654-1.933 1.092-.866.29-.525 1.182.648 1.698.954.418 1.124 1.636.964 6.903-.114 3.734-.08 4.141.365 4.545.27.243.5.604.5.802 0 .268.502.358 2 .358 1.6 0 2-.08 2-.4 0-.22.23-.4.512-.4.713 0 2.154-1.511 2.154-2.258 0-.34.18-.687.4-.771.265-.102.4-.52.4-1.237s-.135-1.136-.4-1.237a.65.65 0 0 1-.4-.548c0-1.225-1.68-2.775-2.92-2.694l-1.213.079-.08 1.232c-.068 1.054-.001 1.253.467 1.375.453.118.546.357.546 1.4 0 1.142-.04 1.224-.443.892-.346-.285-.468-.293-.556-.033-.204.607-.993.343-1.467-.49-.5-.896-.65-3.566-.2-3.843.146-.091.266-.394.266-.673s.24-.637.534-.794.533-.416.533-.577c0-.412 2.906-3.156 3.342-3.156.198 0 .434-.12.525-.267s.51-.266.935-.266.867-.152.985-.338c.22-.35 2.35-.996 3.283-.996.293 0 .53-.178.53-.4 0-.229.24-.4.564-.4.743 0 3.248-.859 3.5-1.2.107-.146.197-.172.2-.057.006.312-.848 1.596-1.39 2.089-.26.237-.474.631-.474.875s-.18.512-.4.597-.4.381-.4.658-.12.505-.267.505-.266.244-.266.542-.18.61-.4.695-.4.433-.4.776-.105.687-.233.766-.292.771-.366 1.537-.27 1.44-.434 1.495c-.437.146-.37 2.53.098 3.425.22.42.4 1.267.4 1.882s.12 1.191.268 1.282.267.458.267.816.103.651.23.651.437.54.69 1.2.57 1.2.704 1.2.453.48.707 1.066c.494 1.14.627 1.216 1.404.8.34-.183.556-.177.675.016.097.156.434.403.75.549a32.79 32.79 0 0 1 1.507.77c.514.279 1.377.512 1.918.519s1.058.133 1.15.28 1.05.266 2.133.266 2.043-.12 2.134-.266.39-.267.667-.267.69-.267.918-.593.415-.485.415-.353.31-.052.69-.408c.632-.589.683-.793.587-2.326-.165-2.636-1.488-3.51-5.323-3.517-1.897-.004-2.28-.153-2.757-1.072-.826-1.598 1.088-2.444 4.854-2.143.842.067 2.465-1.523 2.72-2.666.844-3.76-5.165-5.377-10.19-2.743-1.458.765-1.44.769-1.536-.312-.13-1.446.8-2.9 2.022-3.161a22.44 22.44 0 0 0 2.141-.6c1.23-.426 4.172-.497 4.86-.118.255.141 1.183.451 2.063.691 4.122 1.122 5.788 5.826 3.074 8.679-.545.573-1.2 1.042-1.433 1.042-.612 0-.6 1.249.026 1.448 1.67.539 3.338 3.273 3.23 5.293-.102 1.926-1.947 4.981-3.017 4.996-.527.008-.905.401-1.09 1.132-.206.821.808 1.123 1.112.331.086-.225.483-.4.91-.4.415 0 .83-.12.92-.267s.402-.266.69-.266.59-.169.67-.376.526-.533.992-.726c.914-.378 2.337-1.678 2.817-2.575.2-.371.303-3.278.316-8.772.022-9.975.06-10.086 3.245-9.917.7.037 1.4-.058 1.553-.211.372-.372.024-1.69-.446-1.69-.204 0-.37-.24-.37-.533s-.12-.534-.267-.534-.266-.123-.266-.274c0-.418-3.45-3.726-3.885-3.726-.2 0-.382-.111-.382-.247 0-.308-1.33-.984-2.397-1.219-.442-.097-.803-.278-.803-.403 0-1.309-10.3-1.202-11.623.12-.528.529-3.044.586-3.044.07 0-.191-.42-.499-.933-.684s-.936-.48-.94-.654-.514-.547-1.134-.829-1.204-.63-1.3-.772c-.206-.309-2.034-.972-2.694-.978-.256-.002-.466-.184-.466-.404 0-.288-.295-.4-1.05-.4-.578 0-1.125-.12-1.216-.266s-.398-.267-.682-.267c-.997 0-1.53-.901-1.682-2.844-.25-3.181-.48-4.39-.864-4.537-.205-.079-.372-.351-.372-.607 0-.598-.77-2.145-1.068-2.145-.126 0-.31-.253-.407-.561-.213-.672-2.072-2.639-2.494-2.639-.164 0-.298-.123-.298-.274s-.303-.388-.673-.529-.743-.438-.83-.66-.375-.404-.644-.404-.553-.104-.632-.232-.626-.308-1.216-.403-1.072-.29-1.072-.435c0-.458-7.267-.319-7.678.147m85.186 24.837c-.85.142-2.308 1.318-2.308 1.863 0 .196-.13.356-.286.356-.37 0-1.048.679-1.048 1.048 0 .157-.128.286-.285.286-.303 0-1.048.653-1.048.918 0 .087-.52.665-1.157 1.286s-1.233 1.339-1.325 1.596-.292.466-.443.466c-.478 0-.357 5.245.125 5.43.255.098.4.508.4 1.131 0 1.192.5 3.022.98 3.594.195.231.354.561.354.733 0 .354.268.397.68.108 1.053-.735 1.435-2.839 1.267-6.987-.147-3.623-.116-4.101.277-4.321.243-.136.442-.457.442-.714 0-.68 1.93-2.579 3.185-3.132.595-.263 1.082-.575 1.082-.693s.24-.215.533-.215.533.093.533.208.534.366 1.186.559c.67.198 1.363.619 1.593.971.224.342.65.698.948.793s.54.343.54.553c0 .47-.007.47 1.122-.002 1.863-.778 1.783-1.33-.404-2.816-.54-.366-.982-.756-.983-.866s-.153-.2-.338-.2-.485-.24-.668-.534-.507-.533-.718-.533-.48-.172-.598-.382c-.232-.414-2.384-.712-3.638-.504M233.18 85.96c-.076.198-.103 1.18-.06 2.183l.08 1.824.933.098c.514.055 1.054.243 1.2.42.47.563 2.47.954 2.98.581.388-.284.414-.571.2-2.163l-.246-1.836-.867.083c-.63.061-.867-.025-.867-.317 0-.27-.4-.459-1.203-.581-.662-.099-1.27-.286-1.35-.416-.217-.351-.645-.285-.802.124m40.98.011c-.196.236-.462.429-.59.429-.24 0-.826.465-1.937 1.533-.344.33-.734.6-.868.6s-.42.248-.636.55c-.764 1.071-1.978 1.435-2.923.876-1.213-.716-1.328-.326-1.332 4.516-.006 5.996.363 5.989 4.135-.075l2.045-3.2c.806-1.247 1.54-2.477 1.632-2.733s.285-.467.43-.467c.286 0 .672-1.645.504-2.148-.07-.208-.22-.168-.46.119m-84.943.538c-1.213.453-1.627.746-1.762 1.252-.238.887 0 2.372.38 2.372.167 0 .464.36.66.8s.524.8.73.8.378.161.378.358c0 .502 5.675 5.983 6.53 6.308 1.094.416 1.47.328 1.47-.346 0-.337.13-.743.288-.901.362-.362.172-3.887-.33-6.085-.958-4.211-4.332-6.053-8.344-4.558m67.7-.078c-.1.164-.168 3.974-.147 8.467.04 8.59-.08 9.822-1.058 10.861-.76.809-1.168.807-1.988-.014l-.654-.654V90.4h-.696c-.618 0-.68.082-.544.733.084.404.084.576.001.384-.162-.377-1.16.317-1.16.806 0 .133-.54 1.014-1.2 1.958s-1.2 1.776-1.2 1.849-.5.899-1.134 1.837c-1.774 2.67-3.248 5.041-3.46 5.562-.32.792-2.62 2.871-3.177 2.871-1.297 0-1.83-1.117-1.83-3.833 0-1.388-.073-2.713-.162-2.945-.227-.59-.905-.528-.905.083 0 .277-.163.567-.363.644-.73.281-1 4.7-.567 9.685l.183 2.167-.867.433c-.477.238-1.077.433-1.332.433s-.533.18-.617.4-.457.4-.83.4-.675.12-.675.266-.287.267-.638.267-.7.165-.78.367-.48.434-.895.517c-1.837.366-2.368.55-2.568.888-.117.199-.507.361-.866.361s-.654.12-.654.267-.4.267-.91.267-.958.142-1.016.316c-.104.31-1.912.488-9.273.917-1.686.098-3.128.272-3.204.387-.79 1.198-7.338.003-7.962-1.454-.055-.128-.595-.704-1.2-1.279l-1.643-1.567c-.3-.286-.69-.52-.867-.52s-.324-.15-.325-.334-.57-.565-1.266-.85-1.386-.66-1.533-.835c-.83-.994-7.702-.993-8.533 0-.147.175-.836.551-1.532.835s-1.266.667-1.267.85-.157.334-.348.334c-.522 0-3.386 3.195-3.386 3.777 0 .278-.18.575-.4.66s-.4.373-.4.642-.103.552-.228.63-.303.953-.396 1.947-.3 1.848-.44 1.898-.27.37-.27.712.122.663.27.713.346.903.44 1.897.27 1.871.396 1.948.228.421.228.763.18.691.4.776.4.397.4.695.12.542.266.542.267.24.267.533.16.533.357.533.494.3.66.667.435.667.595.667.447.15.637.333c.984.949 1.793 1.533 2.123 1.533.204 0 .435.17.515.378s.8.516 1.624.685 1.548.418 1.632.555c.252.407 5.118.305 5.8-.121.325-.204 1.04-.449 1.59-.546s1.21-.395 1.467-.663.736-.571 1.066-.673.6-.356.6-.566.165-.382.367-.382c.523 0 3.366-3.171 3.366-3.754 0-.267.152-.582.338-.699.505-.319.995-2.528.995-4.484v-1.73h1.067c.587 0 1.067.12 1.067.267 0 .346 4.87.356 5.215.011.14-.141 1.493-.372 3.005-.515 1.52-.143 3.012-.43 3.337-.643s1.065-.454 1.648-.537c2.153-.309 2.934-.514 3.195-.838.147-.182.627-.399 1.066-.483 1.752-.331 2.93-.714 3.018-.981.05-.154.3-.281.55-.281a1.27 1.27 0 0 0 .778-.32c.176-.176.32-.23.32-.12 0 .375-.813 1.774-1.03 1.774-.12 0-.446.478-.726 1.063s-.59 1.065-.7 1.067c-.235.004-1.02 1.578-1.02 2.044 0 .197-.156.359-.346.359s-.508.446-.705.99-.52 1.153-.72 1.353-.362.646-.362.994-.12.706-.267.796-.266.505-.266.921c0 .426-.175.823-.4.909-.24.092-.4.495-.4 1.01 0 .932-.527 2.661-.892 2.926-.298.216-.298 10.119 0 10.335.284.207.786 1.711 1.012 3.033.094.55.285 1 .425 1s.255.293.255.651.12.725.266.815.267.402.267.691.18.595.4.68.4.307.4.494c0 .571.714 1.758 1.307 2.174.308.215.56.561.56.767s.236.502.524.656.847.579 1.24.943.817.662.942.662.228.18.228.4.233.4.518.4.59.12.682.267.458.266.816.266c.4 0 .65.154.65.4 0 .22.093.4.207.4s1.204.125 2.423.278c2.57.322 6.38-.087 6.62-.711.08-.211.524-.367 1.045-.367.498 0 .905-.12.905-.266s.3-.267.666-.267c.415 0 .667-.151.667-.4 0-.23.24-.4.564-.4.31 0 1.137-.42 1.836-.933s1.4-.934 1.56-.934.416-.24.573-.533.462-.533.676-.533.39-.11.39-.244.24-.525.532-.867c1.063-1.244 1.868-2.661 1.868-3.285 0-.352.12-.714.267-.804s.266-.479.266-.862a2.03 2.03 0 0 1 .435-1.177c.673-.743.697-8.421.027-8.796-.254-.142-.462-.446-.462-.674 0-.535-4.22-4.756-5.005-5.005-.327-.104-.595-.295-.595-.425s-.45-.445-1-.701-1.096-.621-1.213-.813-.446-.347-.73-.347-.668-.24-.85-.534-.537-.533-.786-.533-.528-.12-.62-.267-1.29-.266-2.682-.266c-1.5 0-2.518.107-2.518.266 0 .147-.24.267-.533.267s-.533.126-.533.28-.42.456-.934.671-.933.508-.933.653-.156.263-.347.263c-.612 0-1.782.655-1.784 1-.001.183-.1.333-.242.333-.42 0-2.9 2.586-3.106 3.238-.11.345-.347.747-.53.894-1.115.904-.92 7.801.238 8.45.24.134.437.42.437.635 0 .499.568 1.52 1 1.796.183.118.333.349.333.514 0 .532 3.187 3.361 4.142 3.676.508.168.925.416.925.551 0 .443 4.956.3 5.333-.154.183-.22.6-.4.926-.4.636 0 2.224-.496 2.67-.834 1.268-.963 2.537-2.228 2.537-2.53 0-.203.18-.369.4-.369.265 0 .4-.265.4-.785 0-.431.12-.858.267-.949s.267-.803.267-1.583c0-.935.136-1.531.4-1.75.533-.443.553-2.891.024-3.094-.206-.079-.52-.496-.7-.925s-.49-.781-.69-.781-.368-.18-.368-.4c0-.246-.25-.4-.65-.4-.358 0-.716-.106-.797-.236s-.555-.314-1.055-.407-1.063-.356-1.25-.581c-.388-.467-1.414-.314-2.03.304-.213.213-.53.388-.7.39s-.722.421-1.22.933-1.097.931-1.333.932c-.42.002-1.096 1.101-1.096 1.785 0 .191-.12.347-.267.347s-.266.42-.266.933c0 1.294 1.99 1.467 2.307.201.23-.92 1.26-1.949 2.56-2.558.55-.257 1-.582 1-.722 0-.391.715-.301 1.162.146.22.22.663.4.984.4 1.513 0 3.038 3.931 1.72 4.437-.262.1-.4.516-.4 1.202 0 .989-.197 1.413-1.01 2.173-.886.829-1.106.988-1.372.988-.157 0-.286.092-.286.204s-.586.412-1.302.666c-2.216.787-6.687.494-6.696-.44-.001-.13-.302-.514-.668-.854s-.667-.745-.667-.901-.107-.491-.238-.746a25.17 25.17 0 0 1-.531-1.129 12.75 12.75 0 0 0-.531-1.067c-1.11-1.869-1.02-6.048.15-6.907.3-.22.867-1.13 1.057-1.693.086-.257.27-.467.4-.467s.695-.419 1.235-.931 1.192-.932 1.45-.933.467-.167.467-.367c0-.318 1.652-.78 2.533-.709 1.924.156 2.8.375 2.8.701 0 .205.242.373.537.373.56 0 1.343.385 2.17 1.066.96.791 3.693 3.497 3.693 3.655 0 .089.274.533.61.987 1.185 1.605 1.833 5.638.99 6.158-.147.091-.267.398-.267.683s-.122.517-.27.517-.47.42-.716.934-.603.933-.795.933-.35.186-.35.412-.36.617-.798.867-.8.604-.8.788-.153.333-.338.333-.815.418-1.4.928-1.21.931-1.385.934-.62.305-.988.671-.852.667-1.08.667-.412.107-.412.238-.48.429-1.067.664-1.066.548-1.066.696-.535.269-1.188.269c-1.086 0-3.88-2.051-3.88-2.849 0-.086-.27-.416-.6-.732-1.017-.976-2.867-3.299-2.867-3.601 0-.157-.114-.285-.254-.285s-.453-.42-.697-.933-.533-.934-.643-.934-.418-.57-.684-1.266-.642-1.425-.836-1.619-.353-.614-.353-.934-.24-.974-.534-1.454c-.527-.865-.782-3.793-.33-3.793.277 0 .865-1.957.865-2.878 0-.415.176-.987.39-1.271s.396-.848.4-1.251.13-.734.275-.734.267-.303.267-.675.18-.744.4-.828.4-.441.4-.792.12-.638.267-.638.266-.244.266-.542.18-.61.4-.695.4-.325.4-.534c0-.42.67-1.542 1.398-2.346.258-.284.47-.668.47-.853s.17-.433.38-.55c.326-.183 1.507-1.622 2.42-2.947 1.697-2.467 5.2-4.577 5.2-3.133 0 .22.156.4.346.4s.814.48 1.387 1.067 1.198 1.066 1.388 1.066.346.117.346.26.4.459.866.703.963.607 1.08.807.448.364.734.364.52.12.52.266.227.267.504.267.568.163.644.362.495.433.93.52.977.344 1.204.572.757.413 1.18.413.897.131 1.057.291c.543.544 7.856-.043 8.615-.691.22-.187.79-.424 1.264-.525s.93-.29 1.01-.422.682-.475 1.336-.764 1.19-.653 1.19-.808.156-.281.348-.281.754-.42 1.252-.934 1.06-.933 1.252-.933.348-.132.348-.292.48-.838 1.067-1.505 1.066-1.375 1.066-1.574.112-.362.247-.362c.313 0 1.087-1.529 1.087-2.146 0-.255.18-.533.4-.617s.4-.451.4-.813.12-.734.266-.824.267-.868.267-1.727c0-1.013.117-1.601.333-1.674.23-.076.334-.766.334-2.2s-.105-2.123-.334-2.199c-.198-.067-.333-.581-.333-1.273 0-.64-.12-1.237-.267-1.327s-.266-.503-.266-.917-.18-.901-.4-1.083-.4-.589-.4-.902c0-.618-.825-1.292-1.233-1.007-.288.201-2.767 3.669-2.767 3.871 0 .073-.5.892-1.132 1.819s-1.255 1.923-1.405 2.213-.53.656-.84.811a6.11 6.11 0 0 0-.982.627c-.55.456-1.355.175-1.905-.665-.393-.599-.44-1.633-.415-8.782.03-7.877.016-8.112-.512-8.441-.298-.187-.543-.438-.543-.558s.12-.144.267-.053.267.038.267-.118-.2-.283-.467-.284-.827-.24-1.267-.531c-.875-.58-2.914-.729-3.22-.236M141.72 87.589c-.273.508-.412 1.008-.308 1.112s.188-.012.188-.257.1-.444.22-.444.17.352.106.782c-.346 2.356 5.78 4.096 7.334 2.083.472-.611.078-2.647-.544-2.81-.54-.141-.54-.151-.035-.371.365-.159.282-.179-.28-.067-.44.087-.896.329-1.013.538-.345.611-.95.441-1.974-.555-1.387-1.347-2.97-1.351-3.693-.011m25.462-.682c-.797.257-2.927 1.605-3.315 2.098-.497.63-.33 11.853.186 12.643.835 1.274 7.534 1.079 7.04-.205-.136-.356.276-.504 1.106-.396.183.024.333-.085.333-.242s.297-.398.66-.535c2.266-.862 2.165-9.756-.14-12.353l-.985-1.11-2.1-.06c-1.155-.033-2.408.039-2.785.16m155.45.201c-.664.8-.65 4.38.022 5.092.778.825 2.876.879 2.817.072-.02-.29-.12-.61-.222-.711s-.183-1.045-.183-2.097c0-2.496-1.286-3.74-2.434-2.356m34.36.559c-.754 1.23-1.317 2.499-1.173 2.643.06.059.266-.287.46-.768a15.06 15.06 0 0 1 .973-1.875c.34-.55.56-1 .486-1s-.41.45-.746 1m-108.06-.2c-.1.146-.445.266-.787.266s-.69.18-.776.4-.457.4-.828.4-.675.12-.675.267-.23.267-.51.267-.56.141-.616.313-.57.444-1.137.604c-1.292.362-1.38.688-1.253 4.616.09 2.742.14 3 .607 3 .706 0 .64.764-.1 1.058-.424.171-.47.247-.156.258.835.032 7.97-10.777 7.558-11.446-.215-.348-1.12-.35-1.336-.003M149.505 88c.167.22.363.64.435.933.125.507.133.505.162-.034.017-.312-.18-.732-.435-.933-.406-.318-.427-.314-.162.034M126.4 91.569c0 .677-.133.937-.532 1.041a1.16 1.16 0 0 0-.713.631c-.1.271-.34.588-.535.706s-.353.613-.353 1.102c0 .663-.135.924-.53 1.027-.292.077-.643.434-.78.795s-.444.731-.682.822c-.313.12-.41.438-.354 1.152.07.859-.007 1.008-.588 1.155-.434.11-.64.327-.587.621.043.249-.107.524-.333.611s-.413.433-.413.768-.178.678-.396.761c-.232.09-.328.327-.232.578.112.29-.018.474-.404.575-.312.081-.568.355-.568.608s-.292.592-.65.755c-.462.21-.673.549-.733 1.176-.06.608-.27.962-.685 1.144-.473.207-.6.48-.6 1.291 0 .804-.116 1.059-.533 1.168-.293.077-.533.292-.533.477s-.224.397-.498.468c-.326.086-.563.482-.69 1.156-.106.564-.422 1.348-.703 1.742s-.5.889-.5 1.099-.3.52-.667.687c-.497.226-.667.509-.667 1.109 0 .539-.132.806-.4.806-.25 0-.4.252-.4.667 0 .481-.143.666-.515.666-.363 0-.54.216-.6.725-.07.612-.742 1.211-1.753 1.566-.038.013.007.403.1.867.163.817 2.502 1.387 2.502.61 0-.127.5-.308 1.133-.402 2.84-.428 3.183-.518 3.316-.864.082-.213.522-.368 1.046-.368.498 0 .905-.12.905-.267s.3-.267.666-.267c.415 0 .667-.151.667-.4 0-.22.185-.4.412-.4s.712-.3 1.08-.666.777-.667.91-.667c.408 0 3.73-3.234 3.73-3.631 0-.203.16-.369.355-.369s.525-.33.734-.733.51-.854.67-1 .456-.682.655-1.189.58-1.137.842-1.4.478-.679.478-.924.16-.635.354-.866c.476-.567.98-2.399.98-3.567 0-.522.18-1.13.4-1.35.487-.486.594-6.728.12-6.887-.155-.052-.4-.812-.547-1.689l-.422-2.526c-.286-1.697-1.95-2.295-1.95-.7m-77.82.994c-.75.749-1.435 1.589-1.523 1.866s-.272.504-.408.504-.25.18-.25.4-.12.4-.267.4-.266.292-.266.648-.163.811-.363 1.01c-.933.933-.932 8.272.001 8.822.2.118.362.409.362.648 0 .788.634 2.206.987 2.206.2 0 .346.179.346.397s.24.548.533.731.534.47.534.638c0 .54 3.366 3.291 4.034 3.297.238.002.573.171.743.376.884 1.065 10.156 1.168 10.156.113 0-.112.4-.304.867-.427 1.113-.286 1.384-1.808.482-2.71-.302-.302-.55-.656-.55-.787s-.178-.306-.396-.39c-.23-.088-.328-.327-.234-.572.2-.524-.62-1.466-1.278-1.466-.297 0-.492-.192-.492-.482 0-.265-.3-.888-.667-1.385s-.666-1.18-.666-1.518-.12-.615-.267-.615-.267-.152-.267-.336-.3-.66-.666-1.055c-.507-.547-.667-1.008-.667-1.926 0-1.138-.06-1.236-1.067-1.75-.586-.299-1.066-.713-1.066-.92s-.2-.585-.467-.842-.467-.555-.467-.663-.1-.287-.2-.397-.2-.467-.2-.794-.18-.663-.4-.747-.4-.323-.4-.529-.18-.525-.4-.708-.4-.604-.4-.937c0-.691-.45-.93-1.755-.93-.5 0-.91-.12-.91-.266 0-.608-.806-.185-2.087 1.096m312.353.37c0 .807.1 1.467.2 1.467s.2-.66.2-1.467-.1-1.466-.2-1.466-.2.66-.2 1.466m-26 2.362c.001.314.283 1.127.627 1.805s.688 1.47.764 1.76c.1.388.443.568 1.3.683.64.086 1.205.284 1.257.44s.498.284 1 .284.97.12 1.06.266.57.267 1.064.267 1.078.18 1.298.4c1.08 1.079 1.3-.583.325-2.562-.538-1.104-2.456-2.371-3.588-2.371-.535 0-.832-.133-.832-.373s-.402-.42-1.133-.504a18 18 0 0 1-2.134-.399c-.928-.249-1-.227-1 .304m-5.867.953c.513.103 1.203.333 1.533.512s.6.264.6.19c0-.305-1.624-.948-2.32-.919-.676.027-.66.048.187.217m23.374 1.819c-.32.521-1.172 3.247-1.05 3.368.076.075-.116.459-.426.854-.558.708-.793 2.511-.328 2.511.13 0 .298.24.375.533a.71.71 0 0 0 .682.534c.3 0 .7.21.892.466s.79.692 1.333.967c1.108.564 1.5 1.219.947 1.626-.2.151-.598.844-.882 1.54s-.653 1.266-.82 1.266-.377.361-.467.801l-.327 1.6c-.1.44-.33.8-.534.8-.23 0-.37.294-.37.785 0 .431-.12.858-.267.949s-.267.507-.267.927-.143.809-.318.868c-1.024.341-1.065 11.464-.044 11.856.218.084.362.546.362 1.161 0 .563.12 1.097.267 1.188s.267.461.267.824.18.728.4.813.4.373.4.642.12.563.266.654.267.398.267.682.18.518.4.518.4.219.4.487.285.754.632 1.081.855 1.007 1.128 1.513.647.919.834.919.34.129.34.286c0 .369.68 1.047 1.048 1.047.157 0 .286.129.286.286 0 .373.68 1.048 1.056 1.048.16 0 .36.169.438.376s.436.449.792.538.647.28.647.424.167.262.37.262.44.18.525.4.398.4.696.4.54.12.54.266.287.267.638.267.708.18.792.4.36.4.6.4c.527 0 2.297.586 2.494.827.93 1.136 14.933 1.084 14.933-.056 0-.131.233-.238.518-.238s.59-.12.682-.266.443-.267.783-.267.75-.16.914-.356.777-.515 1.366-.709 1.07-.514 1.07-.711.185-.357.4-.357c.542 0 1.654-.732 2.733-1.8.48-.477.98-.867 1.108-.867s.634-.499 1.124-1.108a49.78 49.78 0 0 1 1.292-1.552c.853-.946 2.667-3.733 2.667-4.098 0-.212.18-.454.4-.538s.4-.391.4-.68.12-.6.266-.691.267-.569.267-1.064c0-.666.14-.944.533-1.069.517-.164.534-.403.534-7.577 0-7.068-.025-7.429-.534-7.89a1.9 1.9 0 0 1-.533-1.241c0-.417-.12-.759-.267-.759s-.266-.303-.266-.675-.18-.744-.4-.828-.4-.302-.4-.484c0-.495-.806-2.013-1.07-2.013-.126 0-.302-.232-.393-.516-.335-1.057-5.498-6.22-6.555-6.556-.284-.09-.517-.276-.517-.412s-.18-.249-.4-.249-.4-.12-.4-.267-.3-.266-.666-.266c-.415 0-.667-.151-.667-.4s-.252-.4-.667-.4c-.366 0-.666-.12-.666-.267s-.354-.267-.787-.267-.884-.173-1.002-.384c-.316-.565-4.05-1.251-6.49-1.192-2.635.064-2.715.348-.787 2.802.733.933 1.333 1.798 1.333 1.922s.305.513.678.863c1.623 1.524-.26 2.494-2.486 1.28-1.03-.561-3.525-3.342-3.525-3.929 0-.131-.182-.308-.404-.393s-.513-.441-.646-.791c-.354-.931-3-1.392-3.313-.578-.085.22-.434.4-.778.4-1.126 0-1.468.534-1.58 2.462-.216 3.745-3.946 4.647-3.946.955 0-.726-.114-1.017-.4-1.017a.4.4 0 0 0-.4.4c0 .22-.227.4-.504.4s-.574.18-.66.4c-.266.694-2.303-.576-2.303-1.435 0-.099-.36-.573-.8-1.055s-.8-.989-.8-1.126-.12-.25-.267-.25-.267-.24-.267-.534-.177-.533-.4-.533-.4-.227-.4-.505c0-.671-1.355-1.174-1.692-.628m-34.308 2.066c0 .807-.12 1.467-.266 1.467s-.267-.66-.267-1.467.12-1.466.267-1.466.266.66.266 1.466m24.534 2.993c-.367.065-.78.229-.92.363s-.457.244-.705.244-.52.18-.605.4-.34.4-.566.4c-.5 0-1.455.518-2 1.086a2.83 2.83 0 0 1-.87.591c-.257.095-.467.297-.467.448 0 .457-2.584.34-2.763-.125-.084-.22-.337-.4-.562-.4s-.408-.12-.408-.266c0-.393-1.363-.307-2.133.133-.52.297-1.942.383-6.467.391-3.2.005-5.8.115-5.8.245s-.42.436-.933.679-.934.529-.934.634-.27.31-.6.454a1.95 1.95 0 0 0-.863.864c-.145.33-.4.6-.568.6s-.453.36-.635.8-.428.8-.546.8c-.252 0-1.054 1.531-1.054 2.012 0 .182-.166.394-.37.472-.367.141-.555.918-.867 3.582-.1.77-.27 1.4-.397 1.4-.325 0-.295 2.331.033 2.534.146.09.266.499.266.909 0 .889.48 2.4.94 2.957.18.22.488.85.682 1.4s.48 1 .634 1 .45.39.655.867c.43.999.464 1.04 2.877 3.56.997 1.041 1.98 1.946 2.182 2.012.3.1.308.18-.017.507-.213.213-.594.704-.846 1.09-.75 1.146-4.345 1.175-5.052.04-.118-.188-.568-.342-1-.342s-.787-.12-.787-.267-.345-.267-.767-.267-.917-.18-1.1-.4-.61-.4-.953-.4c-.844 0-1.692-1.679-1.225-2.427.17-.274.312-.714.312-.976s.204-.769.453-1.125c.557-.795.665-5.099.133-5.276-.176-.059-.396-.58-.488-1.157s-.273-1.115-.4-1.194-.232-.376-.232-.66-.114-.518-.254-.518-.453-.42-.697-.933-.61-.934-.812-.934-.37-.128-.37-.285c0-.338-.666-1.048-.983-1.048-.122 0-.372-.24-.555-.533s-.572-.534-.864-.534-.53-.152-.53-.339c0-.806-8.992-1.496-9.467-.727-.09.146-.458.266-.816.266s-.65.093-.65.206-.444.444-.987.734c-1.405.75-3.003 2.418-3.97 4.142-.28.5-.655 1.065-.832 1.255-.978 1.05-1.028 7.867-.07 9.53.338.587.783 1.397 1 1.8s.487.733.623.733.247.162.247.359.483.768 1.074 1.267l1.776 1.511c.387.332 1.164.678 1.727.768.6.097 1.023.311 1.023.529 0 .558 6.278.526 6.838-.034.22-.22.692-.4 1.048-.4s.648-.12.648-.266.3-.267.666-.267.667-.115.667-.256.45-.39 1-.554c1.054-.314 2.467-.007 2.467.537 0 .15.293.273.65.273s.725.12.815.267.692.266 1.336.266c.7 0 1.255.144 1.384.366.118.2.874.439 1.68.531 3.086.348 3.414.448 3.27.995-.073.28-.284.508-.47.508s-.486.36-.668.8-.497.8-.7.8-.368.129-.368.286c0 .369-.678 1.048-1.048 1.048-.157 0-.285.128-.285.285 0 .321-.66 1.048-.95 1.048-.103 0-.47.27-.812.6-1.38 1.325-2.518 2.067-3.175 2.067-.227 0-.483.185-.57.411-.138.358-.215.362-.592.032-.238-.209-.704-.463-1.034-.563a1.7 1.7 0 0 1-.876-.698c-.152-.284-.452-.516-.666-.516s-.39-.12-.39-.266-.15-.267-.336-.267-.66-.3-1.055-.667-.904-.666-1.13-.666-.41-.119-.41-.263-.406-.433-.9-.64-.983-.508-1.083-.67-.414-.294-.7-.294-.517-.12-.517-.267-.457-.266-1.016-.266-1.25-.177-1.533-.392c-.596-.45-5.45-.587-5.45-.154 0 .14-.45.328-1 .418-2.302.375-3.688.808-4.015 1.254-.192.26-.582.474-.867.474s-.518.18-.518.4-.156.4-.347.4c-.575 0-1.782.646-1.785.955-.001.158-.31.452-.685.654s-.882.701-1.124 1.111-.566.746-.718.746-.445.378-.65.84-.6 1.059-.858 1.327-.562.789-.655 1.16-.275.673-.404.673-.312.483-.406 1.073-.276 1.137-.403 1.216-.232.726-.232 1.438c0 .772-.13 1.339-.32 1.402-.2.071-.343.924-.387 2.489l-.08 2.553c-.006.093-1.748.215-3.87.27-3.168.082-3.92.177-4.2.535-.923 1.173-6.61 1.24-6.61.077 0-.287-1.785-1.186-2.356-1.186-.17 0-.3-.164-.3-.364 0-.261-.538-.403-1.9-.5-2.724-.195-5.3.048-5.3.501 0 .199-.21.363-.464.363-.638 0-2.734.883-2.735 1.152-.002.287-.7.981-.986.981-.123 0-.43.48-.685 1.067s-.566 1.067-.693 1.067c-.265 0-1.104 2.066-1.104 2.72 0 .239-.126.477-.28.528-.52.174-.632 3.008-.155 3.963.24.479.434 1.088.434 1.354 0 1.664 3.982 6.635 5.316 6.635.303 0 .55.168.55.373 0 1.117 8.733.955 9.365-.173.125-.224.506-.477.845-.562.734-.185 3.4-2.89 3.4-3.454 0-.217.18-.463.4-.547s.4-.391.4-.68.12-.6.266-.691.267-.757.267-1.482.12-1.318.267-1.318.266-.6.266-1.333-.12-1.333-.266-1.333-.267-.24-.267-.534.113-.533.252-.533.4-.33.603-.733c.25-.524.655-.807 1.414-.991.586-.141 1.184-.4 1.33-.576.256-.305 1.095-.475 4-.806.733-.084 1.395-.25 1.47-.369.283-.449 1.518-.566 1.905-.179.21.211.636.463.943.561s.706.533.887.969.464.791.63.791.462.36.657.8.524.8.73.8.378.153.378.341c0 .37 3.207 3.659 3.57 3.659.12 0 .457.3.745.666s.683.667.877.667.422.182.507.404.458.519.828.66.674.379.674.529.233.274.518.274.59.12.682.266.443.267.783.267.768.18.95.4c.388.467 7.734.605 7.734.145 0-.14.45-.326 1-.414s1.208-.274 1.463-.412.704-.252 1-.252.537-.115.537-.254.41-.449.91-.686 1.118-.663 1.374-.946.573-.514.703-.514c.366 0 2.95-2.754 3.534-3.766.286-.495.724-1.121.974-1.391s.53-.888.62-1.374.328-.947.525-1.022c.42-.162.688-1.26.873-3.581.073-.916.242-1.666.376-1.666s.244-.66.244-1.467-.12-1.467-.267-1.467-.266-.534-.266-1.187-.168-1.83-.373-2.617c-.56-2.153.56-4.462 2.167-4.462.186 0 .34-.129.34-.286 0-.369.678-1.048 1.048-1.048.157 0 .285-.16.285-.357s.3-.494.667-.661.667-.429.667-.583.5-.796 1.133-1.428 1.367-1.558 1.652-2.059c1.125-1.978 1.215-1.861 1.215 1.587 0 1.848.113 3.273.266 3.368.147.091.267.505.267.921 0 .425.175.822.4.909.22.084.4.397.4.695s.12.542.267.542.266.24.266.533.178.533.4.533.4.237.4.534.12.533.267.533.267.18.267.4.103.4.23.4.448.57.714 1.266.648 1.432.85 1.633.436.721.523 1.156.32.853.52.93.362.419.362.761.103.686.23.764.295.952.374 1.941.276 1.842.437 1.896c.463.154.373 3.477-.107 3.958-.22.22-.4.691-.4 1.047 0 .722-.85 1.715-1.467 1.715a.4.4 0 0 0-.4.4c0 .274-.275.4-.88.4-.484 0-1.014.134-1.18.299-.517.517-3.805.169-4.227-.447-.196-.286-.55-.717-.786-.959-.346-.353-.44-1.121-.48-3.907l-.05-3.467.747-.693c.756-.701 1.52-.915 1.52-.426 0 .15.756.266 1.733.266 1.612 0 1.736.042 1.76.6.062 1.375-.1 2.479-.387 2.663-.457.291-1.774.245-1.774-.063 0-.146-.467-.266-1.038-.266-1.144 0-1.362.275-1.362 1.72 0 .957-.227.868 3.56 1.397 1.303.182 2.306-.323 2.306-1.162 0-.375.16-.622.4-.622.25 0 .4-.252.4-.667 0-.366.12-.666.267-.666s.266-.48.266-1.067.12-1.067.267-1.067.267-.233.267-.517-.12-.592-.267-.683-.267-.496-.267-.902c0-1.149-2.058-2.698-3.586-2.698-.427 0-.68-.149-.68-.4 0-.307-.342-.4-1.475-.4-1.066 0-1.518.111-1.63.4-.084.22-.446.4-.804.4-.578 0-1.158.464-2.33 1.867-.73.875-1.03 2.131-.84 3.536.103.769.268 2.948.367 4.842.123 2.386.28 3.479.512 3.556.183.061.333.289.333.507 0 .445.626 1.159 1.017 1.159.14 0 .317.24.394.533.155.593 5.038.834 5.39.267.09-.147.864-.267 1.72-.267s1.895-.178 2.317-.398 1.217-.399 1.77-.4c.827-.001 1.05-.12 1.26-.668.14-.367.362-.667.494-.667.466 0 .797-1.494.942-4.245.08-1.528.27-2.902.422-3.053.448-.448.347-4.044-.125-4.435-.22-.183-.4-.611-.4-.951s-.12-.692-.267-.783-.266-.457-.266-.815-.107-.651-.238-.651-.3-.289-.4-.642-.234-.833-.324-1.067c-.142-.37.165-.425 2.4-.425 1.53 0 2.562-.107 2.562-.266 0-.147.143-.267.318-.267.44 0 1.815-1.353 1.815-1.783 0-.193.18-.35.4-.35.307 0 .4-.339.4-1.451 0-.798.12-1.525.267-1.616s.266-1.384.266-2.958v-2.793l-.93-.93c-1.827-1.827-6.823-2.186-8.372-.602-1.707 1.746-.647 6.883 1.42 6.883.21 0 .458.12.55.267s.698.266 1.35.266 1.184-.12 1.184-.266.347-.267.772-.267c.86 0 1.095-.375 1.095-1.755 0-.835-.067-.912-.8-.912-.44 0-.8.12-.8.267s-.36.267-.8.267-.8-.12-.8-.267-.18-.267-.4-.267c-.63 0-.533-1.776.116-2.124 1.12-.6 2.608-.091 3.3 1.133.987 1.719.34 5.791-.92 5.791-.3 0-.725.18-.945.4-.5.51-1.71.515-2.378.009-.284-.216-.9-.396-1.368-.4s-.925-.129-1.016-.275-.354-.267-.585-.267c-.5 0-1.522-1.051-2.09-2.148-.224-.432-.51-.785-.638-.785-.57 0-.728-3.205-.413-8.334.146-2.386.28-3.133.56-3.133.2 0 .375-.27.387-.6s.082-.45.156-.267c.152.379 7.023.496 7.023.121 0-.118.45-.365 1-.55 1.542-.52 2.994-1.216 2.997-1.437.002-.11.213-.202.47-.205s.75-.302 1.094-.667.736-.662.867-.662.24-.18.24-.4a.4.4 0 0 1 .4-.4c.22 0 .4-.109.4-.244s.36-.584.8-.999.8-.909.8-1.098.174-.409.387-.491.59-.677.836-1.325.553-1.176.68-1.176.23-.353.23-.784.12-.859.267-.949c.157-.097.266-1.687.266-3.867s-.11-3.77-.266-3.867c-.147-.09-.267-.505-.267-.92 0-.426-.175-.823-.4-.909-.22-.085-.4-.392-.4-.683 0-.681-.534-1.879-1.13-2.538-.893-.984-.598-2.412.628-3.042.383-.198 1.008-.647 1.388-1s.87-.641 1.1-.641.502-.186.63-.413.484-.432.794-.455.513-.125.45-.226.066-.252.285-.336c.488-.188.546-2.049.078-2.517-.317-.317-1.063-.358-2.346-.127" fill="#645c5b"/><path d="M17.067 33.467c0 .565.13.936.333.94.183.003.806.976 1.384 2.161s1.208 2.215 1.4 2.288.35.422.35.773.12.638.267.638.267.125.267.278.12.422.27.6L22.4 42.4c.436.513.794 1.121.797 1.35s.244.674.537.989.534.697.534.85.12.278.266.278.267.227.267.504.18.574.4.659.404.367.408.628c.01.584.61 1.409 1.02 1.409.168 0 .304.24.304.533s.12.533.267.533.267.294.267.654.153.749.34.866c.48.302 1.26 1.584 1.26 2.071 0 .225.113.409.25.409s.465.36.724.8.627.8.815.8.343.202.343.448c0 .8.63 2.219.987 2.219.2 0 .346.29.346.644s.15.698.334.764.238.221.12.345-.447.08-.733-.099c-.49-.305-.522-.249-.522.877 0 .982.09 1.202.483 1.202.265 0 .715.177 1 .392s.893.395 1.35.4c1.165.012 1.57.568 1.194 1.643-.38 1.09-.4 1.032.372 1.032.367 0 .667.128.667.284s.3.678.667 1.159.666 1.073.666 1.316.15.441.335.441.494.36.69.8.524.8.732.8.378.246.378.547c0 .618.712 2.119 1.007 2.121.106 0 .415.54.686 1.2s.6 1.199.73 1.199.424.448.652.996.637 1.238.907 1.533a3.74 3.74 0 0 1 .69 1.204c.1.367.483.953.83 1.303s.63.86.63 1.133.15.499.333.502.618.606.966 1.341.846 1.451 1.11 1.592c.308.165.428.445.337.792-.08.301-.01.537.157.537s.298.125.298.278.3.602.667.998.666.87.666 1.055.112.336.247.336c.61 0 .4.963-.32 1.404-.93.579-.48 1.262.83 1.262 1.2 0 1.64.256 1.64.93 0 .333.18.754.4.937s.4.501.4.708.18.444.4.529.4.421.4.747.1.684.2.794.2.288.2.397.2.406.467.663.467.636.467.842.48.621 1.066.92c1.007.514 1.067.612 1.067 1.75 0 .918.16 1.379.667 1.926.366.395.666.87.666 1.055s.12.336.267.336.267.276.267.615.3 1.021.666 1.518.667 1.12.667 1.385c0 .29.195.482.492.482.658 0 1.48.942 1.278 1.466-.094.245.005.484.234.572.218.084.396.259.396.39s.24.478.533.772.534.889.534 1.333c0 .813.62 1.138.9.467.074-.184.144-.078.155.235.013.334.242.627.555.709.293.076.533.347.533.6s.3.739.667 1.079c.374.347.666.915.666 1.295 0 .386.227.819.53 1.007.29.182.734.903.986 1.602s.614 1.273.805 1.273.347.198.347.441.3.835.667 1.316c.792 1.039.964 3.405.266 3.672-.22.085-.4.398-.4.696 0 .321-.175.541-.43.541-.31 0-.397.178-.308.643.084.437.017.601-.21.515-.49-.189-.747.406-.37.86.18.218.25.472.156.567s-.17.031-.17-.14-.12-.311-.267-.311-.266.422-.266.938c0 .868-.05.926-.667.771-.583-.146-.667-.08-.667.528 0 .441-.146.696-.4.696a.4.4 0 0 0-.4.4c0 .22-.12.4-.266.4s-.267.286-.267.636c0 .411-.188.684-.533.775-.36.094-.534.363-.534.831 0 .38-.12.691-.266.691s-.267.24-.267.534-.17.533-.378.533-.537.36-.73.8-.505.8-.69.8-.335.263-.335.585-.28.892-.624 1.267-.783 1.101-.977 1.615-.557 1.173-.807 1.466a3.58 3.58 0 0 0-.629 1.267c-.114.481-.347.733-.678.733-.38 0-.55.26-.68 1.041-.12.713-.338 1.083-.7 1.175-.324.085-.514.366-.514.763a.95.95 0 0 1-.6.891c-.37.163-.633.544-.685.997-.06.529-.234.733-.62.733-.457 0-.523.147-.45 1s.005 1.012-.492 1.083c-.4.057-.73.447-1.067 1.266-.267.65-.636 1.183-.82 1.184s-.333.249-.333.553c0 .59-.577 1.314-1.048 1.314-.157 0-.285.3-.285.667s-.12.667-.267.667-.267.167-.267.371-.18.441-.4.525-.403.367-.408.629c-.01.583-.61 1.408-1.02 1.408-.167 0-.304.3-.304.667s-.12.666-.267.666-.266.167-.266.372-.18.44-.4.525-.4.389-.4.677a.79.79 0 0 1-.534.693c-.414.131-.533.403-.533 1.218 0 .933-.07 1.049-.65 1.049-.5 0-.667.157-.733.733-.052.453-.314.834-.685.997-.47.205-.6.481-.6 1.266 0 .893-.073 1.004-.666 1.004-.534 0-.667.133-.667.668 0 .381-.287.918-.667 1.248-.727.632-.855 1.163-.333 1.374.2.08.145.143-.133.155-.257.012-.467.193-.467.403s-.27.42-.6.466c-.455.065-.62.288-.682.925-.056.585-.248.883-.634.984-.43.112-.523.299-.42.837.094.494-.01.768-.366.958-.274.147-.498.503-.498.791s-.172.524-.383.524c-.236 0-.415.328-.467.856-.064.661-.235.892-.75 1.011-.54.125-.682.34-.748 1.127-.065.767-.206.99-.667 1.056-.443.063-.617.31-.718 1.017-.102.714-.274.953-.734 1.018-.425.061-.6.266-.6.705 0 .341-.18.689-.4.773-.233.09-.4.489-.4.957 0 .634-.14.838-.666.97-.514.129-.667.34-.667.917 0 1.082-.257 1.593-.8 1.593-.502 0-.8.504-.8 1.355 0 .368-.187.512-.667.512-.53 0-.666.134-.666.651 0 .358-.12.725-.267.815s-.267.458-.267.816c0 .401-.153.651-.4.651-.22 0-.4.227-.4.505s-.298.788-.662 1.134-.664.846-.666 1.113c-.005.536-.606 1.248-1.053 1.248-.157 0-.285.23-.285.512 0 .713-.276 1.355-.58 1.355-.446 0-1.02.739-1.02 1.314 0 .313-.174.552-.4.552-.29 0-.4.297-.4 1.067 0 .939-.075 1.067-.622 1.067-.644 0-1.075.605-1.355 1.901-.085.398-.383.762-.687.842a.71.71 0 0 0-.536.707c0 .311-.18.635-.4.72-.226.086-.4.483-.4.91 0 .563-.188.847-.734 1.107s-.755.577-.818 1.228c-.06.624-.26.945-.693 1.11-.58.221-.943 1.57-.953 3.55-.004.81 27.558.578 28.213-.237.248-.308.66-.635.918-.725s.467-.41.467-.711c0-.328.272-.671.68-.857.44-.2.664-.504.637-.861-.09-1.158.027-1.484.524-1.484.324 0 .608-.289.786-.8.153-.439.598-1.218.99-1.73s.64-1.112.556-1.334c-.087-.227-.01-.403.178-.403.433 0 1.25-.961 1.25-1.47 0-.218.25-.648.558-.955.32-.321.503-.767.428-1.052-.092-.353.034-.517.442-.575.447-.064.6-.313.705-1.145.1-.794.27-1.09.667-1.165.648-.121.924-.509.93-1.305.003-.407.164-.6.503-.6.377 0 .542-.262.67-1.066.1-.691.31-1.067.567-1.067s.397-.262.397-.737c0-.508.186-.818.6-1s.627-.535.684-1.13c.07-.717.195-.866.733-.866.56 0 .65-.124.65-.905 0-.558.153-.964.4-1.058a.66.66 0 0 0 .4-.562c0-.225.193-.409.43-.409.32 0 .388-.163.267-.644-.133-.532-.022-.707.638-.999.683-.302.8-.499.8-1.355 0-.891.074-1.002.667-1.002.518 0 .667-.137.667-.613 0-.337.1-.727.246-.867s.285-.613.333-1.053c.057-.52.22-.772.463-.719.51.11.815-.441.82-1.481.003-.599.13-.867.413-.867a.66.66 0 0 0 .562-.4c.084-.22.32-.4.525-.4.214 0 .37-.27.37-.638 0-.351.15-.696.333-.766.51-.196 1.534-2.284 1.534-3.125 0-.574.154-.785.666-.914.413-.103.667-.356.667-.664 0-.274.3-.695.667-.935s.666-.608.666-.817a.79.79 0 0 1 .334-.594c.372-.239.99-1.696 1.194-2.813.1-.558.285-.734.77-.734.55 0 .637-.127.637-.933 0-.652.12-.933.4-.933a.4.4 0 0 0 .4-.4c0-.22.12-.4.266-.4s.267-.292.267-.649c0-.414.193-.71.533-.818.293-.093.604-.452.7-.798s.328-.695.534-.774.376-.503.376-.953c0-.674.106-.808.636-.808.654 0 .953-.561.96-1.8.002-.348.168-.6.394-.6.462 0 .943-.807.943-1.583 0-.303.167-.551.37-.551s.444-.292.534-.649.402-.725.695-.818c.547-.173.744-.666.266-.666-.146 0-.266-.12-.266-.267s.24-.266.533-.266c.356 0 .533-.178.533-.534 0-.328-.18-.535-.466-.537a1.91 1.91 0 0 1-.85-.246c-.506-.321.08-1.083.83-1.083.284 0 .446-.114.36-.254s.087-.383.385-.542c.364-.195.54-.2.54-.014 0 .152.18.276.4.276.25 0 .4-.252.4-.666 0-.367.13-.667.286-.667.47 0 1.048-.724 1.048-1.314 0-.314.173-.553.4-.553.29 0 .4-.296.4-1.066 0-.894.087-1.067.54-1.067.312 0 .64-.253.777-.6.458-1.161 1.616-2.508 1.616-1.88 0 .306.18.625.4.71s.4.39.4.679.12.6.267.691.266.398.266.682.117.518.26.518.458.39.7.867.635 1.071.873 1.32c.898.941 1.1 1.272 1.1 1.802 0 .306.175.544.4.544s.4.223.4.495.3.818.666 1.213.667.834.667.973.12.253.267.253.266.3.266.666c0 .415.15.667.4.667a.4.4 0 0 1 .4.4c0 .22.12.4.267.4s.267.304.267.676c0 .416.358 1.033.933 1.608.513.514.933 1.17.933 1.458s.12.525.267.525.267.227.267.504.18.574.4.659.4.337.4.562.12.408.266.408.267.151.267.336.3.66.667 1.055.666.958.666 1.251.16.627.358.745.58.722.85 1.344.7 1.201.975 1.285c.28.089.483.409.483.761 0 .334.238.823.53 1.087s.675.882.853 1.374.48.895.67.895.346.233.346.518.12.592.267.682.266.458.266.816c0 .401.154.651.4.651.223 0 .4.237.4.533s.12.534.267.534.267.3.267.666c0 .39.153.667.37.667.202 0 .43.24.508.533s.33.534.564.534.425.198.425.441.3.835.667 1.316.667 1.002.667 1.158.12.285.266.285.267.3.267.666.15.668.333.669c.347.002 1 1.174 1 1.793 0 .195.18.424.4.509s.4.38.4.658.12.505.267.505.267.24.267.533.167.533.37.533.44.27.526.6.46.949.83 1.375.674 1.054.674 1.394c0 .366.272.798.666 1.056.367.24.667.645.667.9s.3.788.667 1.183.666.954.666 1.239.12.52.267.52.267.184.267.408.18.478.4.562.4.278.4.43.36.62.8 1.04.8 1.007.8 1.304.18.608.4.693.4.446.4.804.3.95.666 1.317.667.782.667.924c0 .388.62 1.422 1 1.665.183.117.333.447.333.733s.12.52.267.52.267.18.267.4a.4.4 0 0 0 .4.4c.222 0 .4.237.4.533s.12.534.266.534.267.24.267.533c0 .301.178.533.408.533s.478.21.562.467c.328.996.923 2.185 1.17 2.338.143.088.26.392.26.675s.24.666.533.849.534.474.534.647c0 .489.9 1.954 1.203 1.956.15.001.39.272.533.602l.264.6H164.4l-.02-1.107c-.012-.647-.203-1.289-.46-1.545-.24-.242-.566-.914-.722-1.494s-.385-1.054-.508-1.054-.373-.36-.556-.8-.496-.8-.7-.8-.367-.171-.367-.379c0-.476-.865-2.017-1.134-2.02-.1-.001-.2-.241-.2-.535s-.12-.533-.266-.533-.267-.133-.267-.295-.36-.749-.8-1.305-.8-1.203-.8-1.438-.18-.429-.4-.429-.4-.181-.4-.403c0-.57-.563-1.491-1.267-2.073-.33-.273-.6-.676-.6-.895s-.18-.58-.4-.8-.4-.674-.4-1.008-.36-.985-.8-1.445-.8-1.019-.8-1.242-.3-.665-.666-.984-.667-.801-.667-1.073-.18-.562-.4-.647-.4-.321-.4-.525-.12-.371-.267-.371-.266-.162-.266-.36-.244-.639-.54-.982-.6-.901-.696-1.241-.29-.618-.46-.619c-.323-.003-.97-1.198-.97-1.793 0-.196-.18-.424-.4-.509s-.4-.321-.4-.525-.12-.371-.267-.371-.266-.242-.266-.536-.24-.742-.534-.993-.533-.629-.533-.839-.3-.775-.667-1.256-.67-1.032-.675-1.225c-.01-.482-.65-1.285-1.02-1.285-.167 0-.304-.156-.304-.347 0-.612-.655-1.782-1-1.784-.183-.001-.333-.242-.333-.535s-.12-.534-.267-.534-.266-.125-.266-.278-.3-.602-.667-.997-.667-.99-.667-1.322-.122-.603-.272-.603-.41-.3-.576-.666-.465-.667-.66-.667c-.203 0-.357-.287-.357-.667 0-.366-.12-.666-.267-.666s-.267-.244-.267-.542-.18-.611-.4-.695-.4-.326-.4-.537-.3-.706-.666-1.102-.667-.936-.667-1.201-.282-.746-.627-1.069-.848-1.068-1.118-1.654-.65-1.163-.84-1.28-.347-.341-.347-.498-.42-.856-.934-1.556-.933-1.392-.933-1.54-.18-.338-.4-.423-.4-.457-.4-.828-.12-.675-.267-.675-.266-.24-.266-.534-.123-.533-.274-.533-.388-.303-.53-.674-.438-.743-.66-.828-.404-.322-.404-.527-.12-.371-.267-.371-.266-.3-.266-.667c0-.388-.154-.666-.368-.666-.202 0-.522-.39-.71-.867-.446-1.125-2.196-3.31-2.33-2.909-.057.17-.274.309-.483.309-.314 0-.322-.094-.047-.533.183-.294.494-.534.692-.534.24 0 .154-.255-.264-.776-1.225-1.524-1.557-2.002-1.557-2.242 0-.432-1.97-2.941-2.07-2.638-.054.161-.273.226-.487.144-.294-.113-.317-.238-.092-.509s.19-.573-.127-1.21c-.233-.468-.424-.965-.424-1.105s-.3-.49-.667-.778-.666-.704-.666-.924-.15-.567-.334-.771c-.85-.95-1-1.204-1-1.713 0-.299-.15-.546-.333-.549s-.616-.603-.962-1.333-.735-1.329-.866-1.329-.24-.24-.24-.533-.177-.534-.4-.534c-.25 0-.4-.252-.4-.666 0-.367-.12-.667-.266-.667s-.267-.3-.267-.667-.13-.666-.286-.666c-.42 0-1.047-.7-1.047-1.168a.82.82 0 0 0-.334-.619c-.395-.253-1.266-1.766-1.266-2.199 0-.323-.234-.641-1.4-1.905-1.028-1.113-1.05-2.643-.037-2.643.64 0 .683-.07.54-.866-.14-.78-.07-.907.704-1.267.615-.286.884-.609.945-1.133.06-.518.235-.734.6-.734.372 0 .515-.185.515-.666 0-.415.15-.667.4-.667.268 0 .4-.267.4-.806 0-.6.17-.883.667-1.109.367-.167.667-.476.667-.687s.23-.705.5-1.099.597-1.178.703-1.742c.126-.674.363-1.07.69-1.156.274-.071.498-.282.498-.468s.24-.4.533-.477c.417-.109.533-.364.533-1.168 0-.811.127-1.084.6-1.291.415-.182.626-.536.685-1.144.06-.627.27-.966.733-1.176.357-.163.65-.503.65-.755s.256-.527.568-.608c.386-.101.516-.285.404-.575-.096-.251 0-.488.232-.578.218-.083.396-.426.396-.761s.186-.681.413-.768.376-.362.333-.611c-.052-.294.153-.511.587-.621.58-.147.657-.296.588-1.155-.057-.714.04-1.032.354-1.152.238-.091.545-.461.682-.822s.488-.718.78-.795c.398-.104.53-.364.53-1.049 0-.535.154-.97.373-1.054.206-.079.437-.384.514-.678s.39-.6.693-.679c.422-.111.553-.358.553-1.047 0-.725.105-.902.533-.902s.534-.178.534-.946c0-.653.206-1.152.666-1.612.367-.367.667-.901.667-1.188s.18-.521.4-.521a.4.4 0 0 0 .4-.4c0-.22.12-.4.267-.4s.266-.42.266-.933.13-.934.286-.934c.305 0 1.048-.654 1.048-.923 0-.325 1.805-1.955 2.36-2.131.44-.139.573-.395.573-1.097 0-.503.114-.915.254-.915s.3-.749.333-1.664c.068-1.42.158-1.679.613-1.762.567-.105 1.467-.921 1.467-1.331 0-.134.18-.394.4-.577s.4-.598.4-.923c0-.372.247-.704.666-.895.455-.207.667-.518.667-.976 0-.37.12-.672.267-.672s.266-.18.266-.4a.4.4 0 0 1 .8 0c0 .22.12.4.267.4s.267-.48.267-1.067c0-.999.05-1.067.77-1.067.44 0 .838-.172.925-.4.085-.22.045-.4-.087-.4-.453 0-.606-1.093-.2-1.419.216-.173.472-.657.57-1.075.1-.436.4-.82.698-.898.287-.075.522-.364.522-.642s.11-.715.247-.969a6.37 6.37 0 0 0 .391-.93c.08-.257.39-.467.687-.467.4 0 .54-.174.54-.666 0-.415.15-.667.4-.667.22 0 .4-.176.4-.392 0-.238.157-.331.4-.238 1.17.449 1.704-.102 1.787-1.839.068-1.43.163-1.701.68-1.928.365-.16.6-.496.6-.86 0-.343.284-.783.667-1.034.456-.299.666-.68.666-1.206 0-.567.128-.77.487-.77.268 0 .77-.3 1.113-.666s.786-.667.98-.667c.235 0 .354-.359.354-1.067 0-.586-.12-1.066-.267-1.066s-.267-.24-.267-.534.156-.533.347-.533.498-.42.684-.933.51-.934.72-.934c.23 0 .383-.265.383-.666 0-.367.12-.667.266-.667s.267-.292.267-.648c0-.469.166-.672.6-.733.5-.071.614-.277.682-1.219.063-.868.19-1.133.547-1.133.63 0 1.104-.52 1.104-1.207 0-.312.3-.849.667-1.193s.667-.851.667-1.126.3-.778.666-1.118c.438-.406.667-.904.667-1.454v-.836h-14.667c-14.078 0-14.666.02-14.666.492 0 .271-.24.71-.536.977-.586.531-1.33 1.884-1.33 2.418 0 .187-.37.738-.823 1.226-1.5 1.616-1.577 1.728-1.577 2.263 0 .292-.3.813-.667 1.158s-.666.905-.666 1.246c0 .725-1.168.905-1.43.22-.373-.971-.667-.246-.66 1.627.008 2.115-.098 2.392-.976 2.551-.4.072-.59.408-.762 1.359-.2 1.09-.318 1.263-.87 1.263-.53 0-.638.134-.638.8 0 .514-.135.8-.378.8-.21 0-.458.36-.555.8-.167.762-.382.918-1.133.82-.218-.028-.334.324-.334 1.017 0 .896-.092 1.073-.6 1.145-.43.061-.624.293-.684.818-.06.518-.236.734-.6.734-.424 0-.516.19-.516 1.066 0 .96-.066 1.067-.666 1.067s-.667.107-.667 1.068c0 .811-.163 1.21-.676 1.656-.53.462-.64.747-.512 1.332.17.766-.037.893-1.28.789-.362-.03-.466.168-.466.891 0 .65-.12.931-.4.931-.25 0-.4.252-.4.666 0 .501-.14.667-.562.667-.404 0-.516.119-.4.424.09.234-.078.762-.372 1.175s-.534.993-.534 1.291a.78.78 0 0 1-.5.7c-.332.105-.557.51-.667 1.198-.105.655-.413 1.234-.833 1.564-.367.289-.667.777-.667 1.086s-.12.562-.266.562-.267.221-.267.492c0 .595-.806 1.375-1.42 1.375-.3 0-.446.222-.446.673 0 .473-.198.749-.666.927-.576.218-.667.418-.667 1.46 0 .663-.095 1.206-.212 1.206s-.326.387-.466.859c-.167.56-.467.907-.865 1-.602.14-1.1.783-1.675 2.208-.165.403-.47.733-.675.733-.22 0-.374.273-.374.667 0 .415-.15.667-.4.667-.22 0-.4.216-.4.48s-.114.594-.253.733c-.514.515-.658 2.52-.18 2.52.24 0 .434.12.434.267s.18.266.4.266c.698 0 .433.415-.466.731-.477.167-1.197.237-1.6.156-.57-.116-.734-.048-.734.305 0 .26-.342.584-.8.757-.566.214-.8.479-.8.91s-.155.608-.538.608c-.428 0-.507.125-.385.611.108.431-.048.83-.528 1.348-.375.404-.682.891-.682 1.08s-.428.786-.95 1.324c-.65.669-.9 1.134-.794 1.47.19.6-.428 1.171-1.022.943-.24-.091-.434-.425-.434-.74s-.237-.722-.526-.903c-.308-.192-.462-.495-.37-.731.085-.221.02-.402-.14-.402s-.295-.161-.295-.359-.227-.564-.505-.815-.448-.671-.378-.938c.085-.325-.054-.528-.43-.626s-.555-.361-.555-.793c0-.356-.1-.738-.2-.849s-.2-.761-.2-1.444c0-1.157-.05-1.248-.733-1.327-.612-.07-.735.018-.74.533-.008.689-1.57-.87-1.585-1.582-.004-.183-.173-.333-.376-.333-.213 0-.493-.495-.663-1.17-.162-.644-.476-1.24-.698-1.325s-.404-.399-.404-.697-.12-.542-.267-.542-.266-.183-.266-.408a.62.62 0 0 0-.355-.544c-.195-.075-.517-.552-.716-1.059s-.45-.922-.56-.922c-.246 0-1.036-1.556-1.036-2.041 0-.197-.248-.607-.55-.91-.416-.416-.508-.742-.378-1.335.237-1.079-.38-2.446-1.026-2.279-.522.135-1.245-1.158-1.245-2.226 0-.298-.17-.542-.377-.542-.51 0-2.3-1.758-2.3-2.262 0-.223-.112-.405-.248-.405s-.325-.24-.418-.533-.342-.534-.552-.534-.382-.222-.382-.493-.357-1.021-.795-1.667-.797-1.305-.8-1.466-.245-.569-.538-.907-.533-.777-.533-.974-.12-.359-.267-.359-.267-.24-.267-.534-.177-.533-.4-.533c-.245 0-.4-.249-.4-.644 0-.355-.1-.685-.2-.734-.394-.175-1.666-2.062-1.666-2.471 0-.23-.1-.418-.222-.418s-.382-.3-.578-.666-.494-.667-.662-.667-.458-.6-.646-1.333c-.207-.807-.5-1.334-.717-1.334-.206 0-.375-.161-.375-.359 0-.534-.802-2.041-1.087-2.041-.135 0-.247-.18-.247-.4s-.12-.4-.266-.4-.267-.16-.267-.355-.357-.706-.793-1.134c-.495-.486-.795-1.056-.8-1.519-.004-.408-.187-.811-.407-.895s-.4-.321-.4-.525-.12-.372-.267-.372-.266-.24-.266-.533-.112-.533-.247-.533c-.285 0-1.087-1.507-1.087-2.041 0-.198-.136-.359-.304-.359-.43 0-1-.836-1.02-1.47-.004-.295-.308-.859-.675-1.255s-.666-.904-.666-1.13-.12-.412-.265-.412c-.263 0-.893-1.082-1.748-3-.245-.55-.584-1-.753-1s-.53-.51-.8-1.133c-.7-1.616.27-1.525-16.37-1.53l-15.266-.004v.934m248.46 41.107c.648 6.279 8.88 8.027 11.948 2.537 1.203-2.153.673-4.044-1.134-4.044-.5 0-.608.144-.608.814 0 2.145-2.007 4.519-3.822 4.519-1.565 0-3.638-2.005-3.648-3.528-.008-1.056-.93-1.805-2.226-1.805-.65 0-.66.036-.5 1.507m-121.18 7.9c-.118.188-.733.57-1.367.85-1.18.519-1.388.456-1.73-.522-.05-.145-.302-.055-.557.2s-.666.467-.912.469c-.62.007-1.78 1.293-1.78 1.971 0 .414-.145.538-.563.481s-.653.144-.92.8a9.85 9.85 0 0 1-.812 1.544c-.25.366-.533 1.116-.626 1.666s-.285 1-.425 1c-.433 0-.326 7.876.112 8.239.2.168.44.774.533 1.347s.347 1.223.567 1.443.4.506.4.635c0 .41 1.087 1.422 1.352 1.258.14-.086.328.215.42.669.164.822 1.196 1.876 1.836 1.876.185 0 .4.165.476.367.343.891 8.35 1.246 8.28.366-.02-.256.07-.466.2-.466s.237.12.237.266.3.267.666.267c.415 0 .667-.151.667-.4 0-.22.17-.4.378-.4.6 0 2.018-.896 2.02-1.267.001-.183.182-.333.402-.333.38 0 .447-.14.507-1.067.015-.22.296-.438.626-.485.378-.054.6-.27.6-.584 0-.275.12-.573.267-.664.403-.249.32-.667-.133-.667-.23 0-.4-.24-.4-.564 0-.43.125-.532.523-.428.752.197 1.25-.477.776-1.049-.267-.322-.368-1.353-.372-3.8-.006-3.741-.734-6.622-2.135-8.459-.382-.501-.762-1.328-.845-1.838-.087-.535-.305-.928-.516-.928-.2 0-.365-.156-.365-.347 0-.349-1.414-.987-2.2-.987-.23 0-.488-.18-.573-.4-.218-.568-.67-.495-1.256.2l-.505.6-.17-.6c-.194-.691-2.297-.893-2.693-.259m86.672.694c-.063.241-.45.631-.86.866-.722.414-.75.515-.897 3.184-.115 2.079-.256 2.833-.574 3.065-.362.265-.422 1.103-.422 5.85 0 6.595.18 6.246-3.25 6.259-2.766.01-2.7.092-2.835-3.054-.087-1.913-.213-2.502-.612-2.882-.46-.437-.502-.938-.502-6.02 0-6.026-.18-6.703-1.77-6.703-1.57 0-1.696.612-1.696 8.248 0 6.339-.048 7.106-.5 7.983-.275.533-.624 1.281-.775 1.661-.278.701-4.825 1.344-6.084.861-.794-.304-.907-1.507-.907-9.662 0-9.014-.014-9.091-1.64-9.091-1.803 0-1.86.324-1.807 10.013.044 7.803.002 8.78-.385 9.062-.57.417-.594 2.593-.033 3.059.22.182.4.483.4.668 0 .827 26.048 1.067 26.722.246.2-.23.554-.617.81-.859.644-.608.726-15.789.086-15.789-.26 0-.438-.453-.56-1.439-.214-1.713.037-3.094.563-3.094.593 0 .445-.947-.285-1.815-.79-.937-2-1.283-2.184-.617m-61.952-.061c-1.592.525-3.734 1.516-3.734 1.728 0 .694-1.37.516-2.106-.273-.858-.919-1.72-1.054-2.634-.414-.6.414-.593.452-.593 8.379 0 8.151-.052 8.806-.695 8.806-.588 0-.537 11.577.057 13.062l.43 1.072h1.6c1.45 0 2.352-.359 2.352-.934 0-.094.18-.351.4-.571.313-.312.4-1.12.4-3.68v-3.28l1.267.288c1.453.33 4.677.355 6.533.049 1.313-.216 1.474-.359.97-.862-.163-.164-.205-.446-.092-.627.153-.248.29-.215.545.136.344.471 1.977-.108 1.977-.701 0-.11.428-.628.95-1.151s1.136-1.397 1.363-1.942.55-1.082.716-1.192c.22-.144.2-.267-.066-.438-.303-.195-.267-.35.2-.851.727-.78.906-8.623.2-8.349-.502.193-.954-.69-.954-1.862 0-.514-.116-1.007-.26-1.095s-.484-.665-.758-1.283c-1.248-2.802-5.417-4.882-8.05-4.015m21.317-.075c-.082.086-.382.195-.667.243-1.696.285-3.352 1.138-5.03 2.592-1.016.88-1.946 1.6-2.067 1.6s-.22.271-.22.603c0 .37-.232.705-.6.867-1.348.591-1.61 11.166-.294 11.943.198.117.36.507.36.867s.12.653.266.653.267.24.267.533.178.534.4.534.4.138.4.306c0 .346 1.72 2.094 2.06 2.094.122 0 .397.243.61.54.218.302.834.612 1.398.702.555.088 1.073.265 1.152.393.204.33 6.51.296 6.51-.035 0-.147.364-.267.81-.267.472 0 .872-.166.962-.4.084-.22.3-.4.477-.4.485 0 2.552-1.852 2.552-2.287 0-.209.117-.38.26-.38.47 0 1.08-1.564 1.062-2.726-.01-.627.1-2.274.267-3.66.332-2.921.014-7.042-.64-8.286l-.846-1.614c-.236-.451-.596-.884-.8-.962s-.37-.279-.37-.447c0-1.303-7.357-3.974-8.283-3.006m47.95.95c-.823 1.163-1 2.792-.333 3.048.23.089.4.487.4.946 0 .436.12.867.267.957.495.306.27 1.488-.4 2.11-.822.761-1.07 7.624-.276 7.624.707 0 .942.992.942 3.967 0 3.251.294 3.84 1.777 3.556.724-.138 2.642-1.867 2.97-2.677.206-.507 1.7-2.907 3.453-5.546.624-.938 1.134-1.765 1.134-1.837s.54-.905 1.2-1.849 1.2-1.786 1.2-1.869c0-.574 1.283-2.006 1.8-2.009l.6-.003v7.274c0 8.057.076 8.459 1.6 8.459 1.562 0 1.6-.242 1.6-10.16 0-7.652.06-9.023.4-9.306.22-.183.4-.498.4-.7s.12-.367.266-.367.267-.24.267-.533-.113-.534-.252-.534-.4-.33-.603-.733c-.868-1.817-5.812-.476-5.812 1.576 0 .27-.124.491-.275.491-.418 0-.772 1.148-.47 1.524.242.3-.053.926-1.73 3.674-.385.629-2.742 4.245-3.396 5.21-.252.371-.71 1.166-1.015 1.767-.613 1.2-1.25 1.598-1.814 1.13-.85-.705-.353-8.265.588-8.954.67-.49.433-5.549-.31-6.566-.892-1.223-3.21-1.041-4.18.33m23.674-.262c-.518 1.002-.522 2.874-.007 4.106.326.779.4 2.46.4 9.06v8.103l.654.705c.36.388.75.701.867.694.497-.027 2.368-1.274 2.614-1.744.148-.281.778-1.269 1.4-2.196s1.132-1.746 1.132-1.819c0-.756 2.883-4.098 3.373-3.91.196.075.437-.077.537-.338s.4-.693.67-.961.487-.787.487-1.153c0-.481.144-.667.515-.667.322 0 .558-.225.63-.6.064-.33.132 2.235.152 5.701.03 5.244.104 6.356.437 6.632.22.183.4.498.4.7s.12.367.266.367.267.18.267.4c0 .308.343.4 1.483.4 1.265 0 1.473-.069 1.407-.467-.108-.654.254-1.138.72-.959.592.227.583-10.082-.01-10.574-.33-.274-.4-1.227-.4-5.458 0-5.307-.147-6.009-1.26-6.009-.156 0-.353-.18-.437-.4-.36-.938-2.304-.231-2.304.838 0 .515-.105.646-.42.525-.686-.263-1.267.51-.9 1.198.3.562-.03 1.691-.626 2.129-.117.087-.418.528-.667.98-.4.725-1.082 1.809-4.112 6.534a60.01 60.01 0 0 0-1.261 2.063c-1.802 3.136-2.148 2.69-2.148-2.77 0-4.591.085-5.23.695-5.23.293 0 .37-.565.37-2.667 0-1.466-.1-2.666-.224-2.666s-.36-.3-.527-.667c-.5-1.094-3.593-1.005-4.175.12m61.193-.387c-.22.264-.815.4-1.753.4-3.15 0-3.04-.366-3.043 9.903-.003 6.723-.075 8.305-.402 8.934-.533 1.021-.52 1.963.028 1.963.345 0 .396.181.256.923l-.173.923 4.744-.011c2.85-.007 5.42-.151 6.44-.363.933-.194 2.312-.319 3.065-.278 1.55.083 2.04-.039 2.04-.51 0-.18.3-.487.667-.684s.666-.576.666-.845.153-.488.34-.488c.644 0 1.25-3.578.644-3.81-.192-.074-.488-.599-.658-1.166s-.613-1.443-.984-1.946-.675-1.186-.675-1.517-.205-.716-.455-.856c-.405-.226-.36-.343.4-1.053.47-.44.855-.984.855-1.21s.12-.485.267-.575c1.27-.785-.26-6.534-1.74-6.534-.244 0-.506-.24-.583-.533-.1-.345-.364-.533-.775-.533-.35 0-.636-.12-.636-.267 0-.473-8.136-.346-8.533.133m14.733-.001c-.396.451-.448 2.699-.066 2.935.146.09.266.443.266.783s.18.767.4.95.4.677.4 1.099.12.768.267.768.267.354.267.786.162.883.36 1 .43.514.515.88c.49 2.134.732 2.784 1.106 2.993.23.129.418.53.418.893 0 .441.216.758.653.957 1.056.481 2.398 4.224 1.515 4.224-.166 0-.302.129-.302.286 0 .366.678 1.047 1.042 1.047 1.177 0 1.1 1.214-.243 3.869-.732 1.448-1.332 2.841-1.332 3.096a1.35 1.35 0 0 1-.35.816c-.806.81-1.35 3.006-.95 3.841.5 1.048 3.305 1.308 4.222.391.3-.3.642-.546.76-.546.244 0 .853-1.564.853-2.19 0-.231.18-.489.4-.573s.4-.45.4-.813.12-.733.267-.824.267-.445.267-.787.165-.686.366-.763c.425-.163.664-1.156.918-3.822.12-1.255.346-2.086.66-2.434.263-.29.443-.632.4-.761s.087-.773.287-1.433l.458-1.536c.052-.184.428-.482.836-.661.906-.398 1.13-.691 1.136-1.478.002-.335.184-.677.404-.762s.4-.417.4-.738.13-.714.287-.871.29-1.112.292-2.12c.005-1.747 1.205-4.901 1.864-4.901.872 0 1.37-2.321.748-3.484-.822-1.536-5.324.01-5.324 1.829 0 .306-.12.631-.267.722s-.266.445-.266.787-.18.692-.4.776c-.484.186-.533 1.142-.067 1.32.223.086.135.275-.267.571-.38.281-.6.723-.6 1.212 0 .423-.112.839-.25.924-.156.096-.15.444.014.917.358 1.024-.94 4.511-1.802 4.84-.315.12-.617.353-.672.518-.132.396-1.023.044-1.023-.405 0-.192.15-.404.333-.471.267-.098.267-.193 0-.476-.183-.194-.333-.68-.333-1.081s-.18-.907-.4-1.127a1.54 1.54 0 0 1-.4-.937c0-.295-.12-.611-.267-.701s-.266-.37-.266-.62-.24-.903-.534-1.45-.533-1.228-.533-1.514-.12-.592-.267-.683-.266-.406-.266-.701-.18-.717-.4-.937-.4-.748-.4-1.172c0-1.996-4.24-3.726-5.534-2.258m25.264.004c-.184.222-.858.635-1.5.919l-1.165.515v3.377c0 2.892.058 3.355.4 3.223.328-.126.4.133.4 1.438 0 1.237-.09 1.592-.4 1.592-.34 0-.4.652-.4 4.267s.06 4.266.4 4.266c.277 0 .4.278.4.898a2.97 2.97 0 0 0 .553 1.6c1.095 1.391 3.1.546 2.957-1.247-.09-1.118.478-3.129.932-3.303.257-.099.364-.752.38-2.31.012-1.194.082-2.021.156-1.838s.304.334.512.334.378.128.378.284c0 .164.227.213.533.116.453-.144.534-.048.534.629 0 .962.586 1.608 1.653 1.821.5.1.877.391 1.03.794.133.35.424.706.646.791s.404.264.404.398c0 .45 2.32 3.204 3.097 3.676 2.382 1.446 4.676.623 2.903-1.043-.367-.344-.667-.723-.667-.842s-.66-1.07-1.466-2.115c-1.524-1.972-1.648-2.232-1.196-2.512.168-.104.066-.457-.266-.924-.296-.416-.538-.887-.538-1.048s-.172-.292-.382-.292-.465-.259-.565-.575-.477-.848-.836-1.181c-.65-.603-.65-.607-.102-.901.303-.162.55-.471.55-.686s.12-.39.267-.39.267-.141.267-.313.205-.539.456-.816c.393-.434.402-.537.066-.747-.323-.202-.288-.314.21-.665.343-.242.6-.702.6-1.074 0-.359.11-.652.242-.652s.172-.27.087-.6c-.134-.521-.1-.554.265-.256.324.266.446.27.53.021.063-.188.797-.373 1.76-.443l1.65-.119v-1.872c0-2.324-.262-2.579-2.666-2.585-2.248-.006-3.44.43-4.733 1.731-1.022 1.029-1.697 2.523-1.14 2.523.7 0 .23 1.008-.528 1.16-.63.126-.8.3-.8.818 0 .361-.12.731-.267.822s-.267.357-.267.592c0 .508-1.585 1.991-1.986 1.858-.162-.054-.313-1.148-.358-2.583-.06-1.975-.17-2.562-.533-2.837-.43-.326-.428-.347.01-.355 1.008-.018.323-2.878-.82-3.417-.9-.426-1.245-.409-1.65.078m-60.658.175c-3.485.341-4.14.842-4.14 3.173 0 1.195.265 1.292 1.49.546.452-.276 1.232-.589 1.733-.697s1.03-.283 1.178-.391c1.39-1.024 5.995.329 6.804 2 1.4 2.871-.544 4.911-4.67 4.926-2.325.008-2.593.169-2.485 1.482.103 1.237.46 1.384 3.445 1.423 3.06.041 4.774 1.438 4.774 3.89 0 1.142-1.48 3.164-2.412 3.297-.36.052-.74.232-.845.4-.25.404-4.447.407-5.3.004-.353-.167-1.154-.457-1.78-.644s-1.27-.501-1.433-.697-.446-.356-.63-.356-.474-.168-.645-.373c-.245-.296-.472-.312-1.1-.075-2.048.773-.696 4.981 1.6 4.981.52 0 .8.135.8.375 0 .416 1.337.62 5.6.858 2.802.156 4.588-.216 4.47-.93-.044-.264.454-.665 1.398-1.125 4.827-2.355 4.94-8.709.2-10.676-.97-.402-.84-1.07.26-1.355 1.67-.433 2.483-1.878 2.483-4.409v-2.206l-1.266-1.309c-1.877-1.938-4.764-2.578-9.528-2.112m-109.296 2.728c1.618.431 2.458 1.012 3.318 2.293 1.748 2.604 2.14 10.135.526 10.135-.436 0-.568.185-1.467 2.057-.5 1.041-1.5 1.676-2.64 1.676-.246 0-.448.12-.448.267s-.48.266-1.066.266-1.067-.12-1.067-.266-.23-.267-.512-.267c-1.187 0-2.688-1.439-2.688-2.577 0-.186-.21-.451-.47-.589-.674-.361-.636-8.416.042-8.917.376-.279.562-1.021.665-2.657.028-.453.325-.626 2.43-1.418 1.195-.451 1.692-.451 3.376-.003m-22.474.209c2.328.668 3.444 2.032 4.055 4.956.842 4.025-.057 8.863-1.648 8.863-.213 0-.525.303-.694.673a1.68 1.68 0 0 1-.994.836c-.38.091-.822.269-.986.398-.32.25-4.984.472-5.78.276-1.216-.3-1.52-1.8-1.52-7.47 0-6.452.427-7.205 4.8-8.456 1.555-.445 1.5-.443 2.77-.076m-25.302.506c.586.145 1.606.326 2.266.404 2.476.289 2.387.22 2.345 1.848-.03 1.13.07 1.546.437 1.814.638.467.642 6.957.006 7.661-.213.235-.388.667-.388.959 0 .906-1.794 2.76-2.67 2.76-.42 0-.838.12-.93.267s-.57.266-1.066.266-.976-.12-1.067-.266-.392-.267-.67-.267c-.876 0-1.87-.602-2.027-1.226-.083-.331-.32-.667-.527-.746-.224-.086-.376-.52-.376-1.071 0-.509-.12-1-.267-1.09s-.266-1.336-.266-2.816c0-1.59-.107-2.651-.267-2.651-.43 0-.307-.493.267-1.067.396-.396.534-.892.537-1.933.004-1.143.138-1.551.734-2.224 1.12-1.265 1.245-1.285 3.93-.622m178.933-.021c.535.592 4.486.808 4.758.26.074-.15.103-.12.064.067-.11.516.86 1.237 1.454 1.082.74-.194.732 1.128-.01 1.525-.294.157-.534.454-.534.661 0 .606-1.104 1.205-2.22 1.205-.972 0-1.026.042-.87.667.4 1.598-3.91.792-4.997-.934-1.32-2.094.824-6.223 2.354-4.533m4.4 8.815c1.926.309 3.275 1.246 2.74 1.903-.344.424-.33 2.681.02 2.922.555.385-.113.997-1.28 1.172-.668.1-1.215.289-1.215.419s-1.32.236-2.934.236H323.2v-2.267c0-1.857-.074-2.266-.408-2.266-1.003 0-.613-1.687.492-2.132.807-.325 3.444-.319 5.516.013" fill="#8c8c8b"/><path d="M275.1 74.451c-.1.761-.1 1.438-.044 1.504.2.2.667-1.274.667-2.106 0-1.307-.448-.874-.623.602m-6.843.851c0 .22.12.474.266.565s.267-.016.267-.236-.12-.474-.267-.564-.266.015-.266.235m2.613 2.885c.25.249.39.249.64 0s.178-.32-.32-.32-.57.071-.32.32m1.333 0c.25.249.39.249.64 0s.178-.32-.32-.32-.57.071-.32.32m4.083.495c-.35.292-.582.588-.513.657s.407-.174.75-.54c.75-.797.64-.849-.238-.117m-7.096 1.352c.623.398 3.078.775 3.467.533.146-.092-.454-.236-1.334-.321s-1.84-.243-2.133-.353l-.533-.2.533.341m33.486 3.149c-.243.153.506.238 2.064.233 1.36-.004 2.38-.113 2.3-.245-.192-.311-3.87-.301-4.363.012m17.914.475c.403.061 1.063.061 1.467 0s.073-.111-.734-.111-1.136.05-.733.111M209.452 93.2l.08 4.217V89.15c-.045-2.319-.08-.497-.08 4.05m-3.912.883l.16 8.59c.226-.226.25-17.079.024-17.304-.06-.061-.144 3.861-.185 8.714m23.612-7.15c0 .954.048 1.344.108.867s.06-1.257 0-1.733-.108-.087-.108.866m50.955 2.4c0 2.274.04 3.204.09 2.067a56.96 56.96 0 0 0 0-4.133c-.05-1.137-.09-.207-.09 2.066m-58.93.8c0 2.567.04 3.617.09 2.334s.05-3.384 0-4.667-.09-.233-.09 2.333m76.92-4.141c-.184.184.064 2.008.273 2.008.097 0 .132-.48.076-1.067-.104-1.089-.13-1.16-.35-.941m4.703.141c-.09.147.082.267.384.267s.55-.12.55-.267-.173-.266-.384-.266-.458.12-.55.266m-133.2.267c.912.292 1.613.292.933 0-.293-.126-.773-.226-1.066-.221-.43.006-.403.049.133.221m63.276 1.2c.002.733.054 1.002.115.596s.06-1.005-.003-1.333-.114.004-.112.737m23.428-.4c0 .22.103.64.23.933.145.337.23.386.23.134 0-.22-.104-.64-.23-.934-.144-.336-.23-.385-.23-.133m113.98.296c.1.164.018.402-.184.53-.29.184-.27.233.1.237.3.002.467-.198.467-.53 0-.293-.127-.533-.283-.533s-.2.133-.1.296m-48.256.266c-.266.844-.404 2.925-.223 3.365.118.287.25-.313.34-1.527.145-1.982.108-2.554-.117-1.838m-180.95.357c-.176.212-.28.642-.233.955.07.451.15.37.38-.385.327-1.065.312-1.125-.148-.57m172.327.948c0 .66.052.93.116.6s.063-.87 0-1.2-.116-.06-.116.6m17.558-.223c-.017.392-.18.772-.364.846-.26.105-.26.139.008.156.423.026.68-.588.512-1.23-.084-.326-.135-.251-.156.228m24.783.722c-.178.431-.27 1.065-.205 1.409.105.555.123.541.155-.126.02-.413.166-.993.325-1.289s.234-.593.17-.658-.265.233-.444.664M163.25 94.933c-.024 3.007.045 5.606.153 5.776s.164-1.81.124-4.4c-.107-6.97-.23-7.576-.277-1.376m14.905-4.982c-.03.655.455 1.517.853 1.512.238-.003.233-.063-.02-.223-.2-.12-.45-.569-.577-.996-.136-.455-.242-.577-.256-.293m130.958 1.53c-.404.511-.48.73-.216.629.44-.169 1.376-1.453 1.04-1.429-.113.009-.484.368-.825.8M98.8 91.2c.09.147.018.267-.162.267s-.272.055-.204.122c.196.196 1.3-.161 1.3-.42 0-.13-.247-.236-.55-.236s-.475.12-.384.267m157.828 2.267c-.001 1.32.044 1.893.1 1.274s.057-1.699.002-2.4-.1-.194-.102 1.126m-81.828 1.2c0 1.777.078 2.954.173 2.615s.174-1.515.174-2.615-.078-2.277-.174-2.616-.173.838-.173 2.616m67.067.9c0 4.045.84 5.181 2.022 2.734l.404-.834-.57.733c-1.12 1.444-1.324 1.043-1.324-2.6 0-2.044-.103-3.333-.267-3.333s-.266 1.278-.266 3.3m63.2-2.767l-1.467.18 1.682.043c1.064.028 1.622-.054 1.518-.223-.09-.147-.188-.247-.216-.223s-.71.124-1.517.223m18.69 2.763c.06.053 1.43.158 3.044.234 1.873.088 2.5.06 1.733-.077-1.2-.214-4.987-.339-4.777-.157m-1.242.828c-.237.362-.37.812-.293 1 .086.215.145.168.158-.124.012-.257.26-.707.554-1s.416-.534.273-.534-.454.296-.692.658m7.953.028c.69.374.865.684.746 1.314-.028.147.1.119.284-.063.4-.394-.638-1.677-1.343-1.659-.253.006-.127.169.313.408m-129.072.648c0 .513.055.723.122.466a2.19 2.19 0 0 0 0-.933c-.067-.257-.122-.047-.122.467m55.234 1.6c0 1.393.045 1.963.1 1.266s.055-1.836 0-2.533-.1-.127-.1 1.267m-101.1-.534c0 .514.054.724.12.467a2.16 2.16 0 0 0 0-.933c-.067-.257-.12-.047-.12.466m111.582.44c-.415.554-.554.601-.91.307-.352-.29-.4-.282-.288.053.214.649.85.577 1.38-.155.27-.375.45-.721.4-.77s-.313.205-.582.565m43.362 1.16c0 .66.052.93.115.6s.064-.87 0-1.2-.115-.06-.115.6m-71.707 2.534c.001 1.613.045 2.239.098 1.39a26.8 26.8 0 0 0-.001-2.933c-.054-.765-.097-.071-.097 1.543m-84.078-1.4c.014.401.07.467.173.2.084-.22.284-.488.446-.596.18-.121.114-.198-.174-.2-.313-.003-.46.193-.445.596m154.245 1.658c-.44.361-.67.66-.513.665s.57-.29.913-.657c.796-.847.628-.85-.4-.008m56.038-.069c-.1.336-.15.971-.136 1.411.02.552.096.389.25-.525.233-1.393.165-1.925-.113-.886m-19.812.975c.22.346.33.816.242 1.043-.104.272-.05.347.154.221.442-.274.4-.547-.243-1.265l-.555-.63.402.631m-88.892.569c0 .44.046.8.103.8s.156-.36.22-.8.018-.8-.103-.8-.22.36-.22.8m45.733-.533c.09.146.345.266.565.266s.326-.12.235-.266-.345-.267-.565-.267-.326.12-.235.267m-164.467.81c.536.521.678.502.462-.061-.083-.217-.326-.394-.54-.394-.31 0-.293.093.078.455m191.8 1.746l-1.466.362 1.322-.128c.728-.071 1.442-.248 1.587-.393s.2-.251.144-.234l-1.587.393m-20.3.31c-.33.421-.32.432.09.111.25-.196.58-.279.733-.185s.278.045.278-.11c0-.446-.698-.329-1.1.184M121.93 151.467c-.274.437-.267.533.038.533.204 0 .434-.24.5-.533s.06-.534-.038-.534-.327.24-.5.534m-39.618 2.469c-.395.29-.35.334.375.36.454.016.725-.045.603-.136a2.48 2.48 0 0 1-.375-.36c-.084-.107-.356-.046-.603.136m-1.458 1.051c-.39.389-.415.746-.053.746.147 0 .237-.143.2-.318s.293-.401.733-.502c.75-.172.757-.185.12-.215-.374-.017-.824.113-1 .289" fill="#9c9c59"/><path d="M268.58 80.33c.055.387.27.603.597.603.78 0 .787-.536.01-.89-.64-.292-.686-.271-.607.287m2.152.387c.257.067.677.067.934 0s.046-.122-.467-.122-.723.055-.467.122m-123.63 1.816c-.09.235-.004.4.21.4.2 0 .432-.18.517-.4.1-.235.003-.4-.2-.4-.2 0-.432.18-.516.4m185.963 1.342c0 .225.185.479.41.566.603.232.635.024.078-.508-.414-.395-.49-.403-.49-.058m-57.697.26c-.093.242 0 .398.238.398.432 0 .53-.416.153-.649-.13-.081-.307.032-.39.251m-115.52 8.798l.083 3.385-.001-6.934c-.045-1.861-.083-.264-.082 3.549M369.87 87.4c-.002.33.116.6.262.6.334 0 .334-.283 0-.8-.21-.323-.26-.285-.262.2m-113.604 8.022l.2 7.778c.25 0 .233-15.122-.017-15.373-.1-.1-.183 3.317-.183 7.595m74.31-6.978c-.277.277-.21 1.156.09 1.156.146 0 .266-.3.266-.667 0-.698-.06-.783-.355-.489m-152.073 2.111c.09.232.162.472.162.533s.18.112.4.112.4-.237.4-.533c0-.365-.178-.534-.562-.534-.403 0-.516.12-.4.422M97.867 91.6c-.25.302-.255.4-.014.4.175 0 .498-.18.718-.4.343-.343.345-.4.014-.4-.212 0-.536.18-.718.4m65.69 2.133c.001 1.174.048 1.62.104.993a13.31 13.31 0 0 0-.001-2.133c-.058-.546-.104-.033-.103 1.14m162.694-1.558c-.153.243-.813.528-1.465.633-1.168.189-1.16.192.48.225 1.61.033 1.666.011 1.666-.633 0-.769-.28-.861-.68-.225M174.73 93.333c0 .514.054.724.12.467a2.16 2.16 0 0 0 0-.933c-.067-.257-.12-.047-.12.466m159.776 1.222c.09.232.17.562.18.733s.116.072.234-.221c.237-.591.13-.934-.297-.934-.153 0-.206.19-.117.422M174.73 96c0 .513.054.723.12.467s.068-.677 0-.934-.12-.046-.12.467m149.004.133c.23.278.843.4 2.004.4 1.24 0 1.712-.103 1.826-.4.13-.335-.196-.4-2.004-.4-1.888 0-2.116.05-1.826.4m-86.007 2.812c-.087.14.02.255.236.255s.454.15.528.333c.085.211.142.172.156-.104.024-.5-.68-.87-.92-.484m-82.793 1.988c0 .22.12.4.267.4s.267-.18.267-.4-.12-.4-.267-.4-.267.18-.267.4m210.196 2.534c0 .513.054.723.12.466a2.16 2.16 0 0 0 0-.933c-.067-.257-.12-.047-.12.467m-47.245 1.88c.015.864.032.881.274.274.17-.427.165-.738-.017-.92-.188-.188-.27.014-.257.646m-37.85.76c-.2.127-.32.368-.264.535.06.184.283.09.563-.236.48-.559.337-.702-.3-.299m29.2.204c-.324.325-.183.889.223.889.222 0 .4-.237.4-.533 0-.532-.284-.694-.623-.356M69.067 131.2c0 .147.18.267.4.267s.4-.12.4-.267-.18-.267-.4-.267-.4.12-.4.267m13.066 23.208c0 .371.7.618 1.083.382.224-.139.2-.252-.054-.419-.496-.315-1.03-.295-1.03.037m-1.166.738c-.073.117-.04.361.072.542.255.413 1.094.118 1.094-.383 0-.393-.942-.521-1.166-.159" fill="#ada13e"/><path d="M.112 62.533L.2 65.281v-5.333C.15 58.436.112 59.6.112 62.533m270.155 18.8c1.05.695 1.743.695.86 0-.373-.293-.9-.532-1.17-.531-.375.001-.3.127.31.531m-129.2.768c0 .128.17.375.38.548.31.258.353.216.235-.234-.14-.536-.614-.779-.614-.314m216.727 4.766c-.88.973-2.055 3.765-2.102 4.994-.072 1.92.57 2.406 3.182 2.406h2.06v-2.665l-.944.081c-2.103.181-2.97-1.485-1.59-3.057.868-.989.975-1.411.48-1.906-.427-.427-.587-.405-1.086.147m-209.06 1.141c.57.229.747.93.667 2.62-.012.266.062.283.28.066.77-.769.037-2.974-.978-2.944-.557.017-.557.022.032.258m-7.203.496c-.072.277-.04.649.068.827.123.199.247.005.322-.504.13-.895-.174-1.148-.4-.323m183.716 2.975c.172.176.25.485.17.687-.18.471.293.477.682.009.23-.279.135-.431-.434-.687-.55-.247-.654-.249-.42-.009m-2.307 5.049c-.563.563-.614 1.091-.12 1.256.282.094 1.053-1.469.833-1.688-.077-.077-.397.117-.712.432m4.7-.13c-.163.424.372.669 1.46.669a3.11 3.11 0 0 1 1.445.43c.598.392.657.393.657.007 0-.842-3.274-1.858-3.562-1.106m-171.905 1.469c0 .586.094 1.066.207 1.066s.162-.48.106-1.066-.15-1.067-.207-1.067-.106.48-.106 1.067m86.667.286c0 .683.883.606 1.016-.089.062-.32-.08-.464-.463-.464s-.553.171-.553.553m75.2 1.98c0 .807.12 1.467.267 1.467s.266-.66.266-1.467-.12-1.466-.266-1.466-.267.66-.267 1.466m-146.2.9c-.283.103-.378.294-.25.5.163.264.308.259.697-.026.555-.405.25-.728-.446-.474" fill="#21222d"/></svg>