<svg xmlns="http://www.w3.org/2000/svg" width="400" height="400" viewBox="0 0 400 NaN" fill-rule="evenodd"><path d="M134.03 4.621c-8.21 1.781-14.5 7.574-17.56 16.179l-1.068 3L115 135l-4 2.72c-5.195 3.534-12.573 7.911-26.4 15.666-21.506 12.062-32.9 20.596-41.103 30.788-30.355 37.709-19.17 81.366 28.58 111.547 11.445 7.233 27.972 13.49 38.69 14.647 2.072.224 3.927.566 4.12.76.2.2.3 10.436.23 23.513l-.124 23.159-1.12 3.757c-3.207 10.764-11.167 19.182-20.875 22.077l-4.028 1.2c-5.215 1.553-15.27-.475-21.215-4.279-2.977-1.904-2.954-1.964 1.15-2.917 20.174-4.682 27.47-29.418 12.94-43.867-14.66-14.578-37.783-8.787-44.04 11.029-6.198 19.628 2.348 37.768 22.207 47.136 25.454 12.009 53.054 3.212 61.92-19.736 3.388-8.771 3.74-12.138 4.023-38.4l.24-22.4 110.4-.204 112.506-.865c6.857-2.154 12.376-8.315 13.89-15.505.95-4.52.91-124.324-.045-128.547-1.9-8.409-8.75-14.823-16.95-15.871-1.846-.236-44.585-.388-111.1-.396l-108.097-.312c.001-.165 1.396-1.835 3.1-3.71 28.233-31.085 45.54-77.27 40.168-107.19-4.167-23.206-19.517-37.763-36.042-34.179m7.198 19.613c4.324 1.263 9.356 7.658 11.75 14.933 5.653 17.179-.366 47.398-14.387 72.238-4.506 7.983-11.013 16.995-12.27 16.995-.702 0-.376-89.645.337-92.851 1.93-8.674 7.855-13.275 14.57-11.315M286.2 128.959c-4.948 3.082-4.986 10.762-.065 13.312 8.742 4.531 16.186-6.639 8.542-12.817-2.16-1.747-6.098-1.977-8.477-.495m24.7-.683c.385.1 1.015.1 1.4 0s.07-.183-.7-.183-1.085.082-.7.183m20.935.977a53.2 53.2 0 0 0-.327 2.347c-.087.808-.357 1.024-1.407 1.125-.784.076-1.464.433-1.715.9-.228.426-.768.775-1.2.775-1.242 0-1.21 2.398.063 4.896.612 1.2.918 1.463 1.316 1.133 1.846-1.532 4.934-2.717 7.835-3.005 4.404-.437 4.8-.618 4.79-2.177-.023-3.78-3-6.833-6.988-7.163l-2.15-.179-.22 1.348m-25.65 1.174c-.145.234-.168.522-.05.64.287.286 1.067-.219 1.067-.691 0-.511-.69-.477-1.016.051m5.093.803c.08.236.314.43.523.43s.445-.194.523-.43-.156-.43-.523-.43-.602.194-.523.43m-3.177 1.057c-.843.303-.596 1.713.3 1.713.525 0 .8-.267.8-.776 0-.882-.37-1.198-1.1-.937m-3.7 4.63c0 5.453 8.555 8.208 12.68 4.083 1.846-1.846 1.842-3.136-.006-2.119-.926.509-1.373.648-3.238 1.005-.927.178-1.116.101-.93-.382.237-.619-.37-1.504-1.032-1.504-.2 0-.272.36-.157.8.208.796-.274 1.115-.683.453-.118-.191-1.04-.44-2.05-.554s-2.227-.56-2.71-.993c-1.327-1.193-1.875-1.424-1.875-.789m-189.2 89.659l-.304 71.965c-.167.103-2.012-.139-4.1-.537C74.64 291.1 52.312 267.246 53.324 236.6c.82-24.82 14.498-45.068 47.436-70.213 5.99-4.574 11.49-9.096 12.8-10.531.533-.581 1.118-1.056 1.3-1.056s.33 32.299.33 71.776m230.95-65.973c2.86.831 4.92 2.653 6.3 5.568l1.15 2.429v61.885c0 70.36.3 64.471-3.338 67.815-3.046 2.808-3.794 2.937-16.262 2.811L323 301l-1.813-3.4-5.955-11.2-12.857-23.4c-.8-.793-1.33-.8-63.843-.8h-63.046l-.802 1.075c-.44.591-1.693 2.751-2.782 4.8l-17.695 33.135L126.2 301l-.1-69.471.3-70.5.39-1.029h108.65l110.722.603m-64.346 6.269c-.105.29-.24 2.215-.298 4.276l-.107 3.749-1.4.451c-1.913.617-2.05 2.378-.2 2.588 1.73.197 1.788.431 1.795 7.377.008 8.489 1.056 10.656 5.475 11.318 4.145.622 4.48-2 .37-2.892-2.895-.628-3.238-1.589-3.238-9.067V178.2l2.197-.2c3.67-.334 3.09-2.8-.66-2.8h-1.7l-.113-4.3c-.11-4.118-.152-4.305-1.016-4.428-.496-.07-.988.11-1.093.4m21.31 3.751l-.114 4.274-1.4.451c-1.78.575-2.06 2.367-.4 2.58 1.816.233 2 .954 2 7.855 0 8.605.91 10.289 5.875 10.877 3.59.425 4.055-2.142.5-2.749-3.477-.594-3.774-1.304-3.774-9.02V178.2l1.992-.126c3.71-.234 3.337-2.874-.407-2.874h-1.758l-.227-8.6-2.172-.25-.114 4.273m-156.82 5.008c-11.67 2.783-10.94 19.64.91 21.044 3.67.435 8.387-1.469 8.392-3.388.004-1.38-.96-1.476-3.268-.327-8.144 4.059-15.73-5.466-9.682-12.159 2.69-2.977 5.947-3.399 10.095-1.308 2.062 1.04 2.162 1.053 2.685.338 1.637-2.239-4.85-5.222-9.133-4.2m27.593.001c-9.492 2.263-11.348 14.83-2.92 19.769 3.2 1.876 7.857 1.696 11.125-.431 1.846-1.2 1.828-1.201 1.982.09.17 1.409 1.234 2.081 2.127 1.34 1.097-.91.722-12.779-.476-15.027-2.273-4.27-7.458-6.784-11.837-5.741m29.313-.167c-4.596.792-7.804 4.209-6.732 7.171.757 2.095 1.376 2.468 7.808 4.705l5.924 2.06v1.4c0 3.666-7.015 4.299-10.942.988-2.495-2.103-3.895.153-1.472 2.372 5.127 4.697 15.414 2.426 15.414-3.402 0-2.657-1.6-3.896-7.4-5.735-6.664-2.113-8-3.264-5.9-5.122 2.83-2.516 7.167-2.306 10.364.5 1.12.984 1.517 1.129 2.155.788 3.275-1.753-4.447-6.548-9.22-5.725m25.58.275c-4.904 1.335-7.095 4.543-5.376 7.868.76 1.469.89 1.535 7.348 3.746 7.1 2.43 7.566 2.88 5.23 5.064-2.33 2.177-6.858 2.057-9.624-.254-2.264-1.892-4.296-1.492-3.164.623 3.667 6.852 18.348 3.826 16.36-3.372-.528-1.914-1.77-2.64-7.953-4.649-5.712-1.857-6.332-2.266-5.78-3.822 1.217-3.428 8.29-3.631 11.395-.327 1.005 1.07 2.384.749 2.384-.556 0-2.689-6.816-5.411-10.82-4.321m29.22-.168c-11.814 2.43-11.177 19.684.778 21.1 3.646.432 8.407-1.482 8.417-3.385.008-1.392-1.035-1.499-3.326-.34-4.136 2.093-8.936.761-10.907-3.027-1.202-2.31-1.355-2.266 8.253-2.398 9.835-.136 9.788-.122 9.39-2.855-.863-5.909-6.904-10.268-12.604-9.095m70.8 0c-5.14 1.057-8.536 5.268-8.53 10.578.01 8.424 9.472 13.56 16.427 8.916 2.925-1.953 1.202-3.753-2.028-2.119-3.802 1.924-7.906 1.052-10.244-2.176-2.31-3.19-2.355-3.17 6.875-3.176 10.935-.008 11.073-.073 9.653-4.576-1.63-5.177-7.05-8.497-12.153-7.447m-149.42 3.403c5.634 2.491 6.3 9.546 1.282 13.587-2.1 1.692-6.474 1.819-8.757.254-8.044-5.511-1.42-17.775 7.475-13.841m83.063-.359c1.917.676 3.718 2.192 4.592 3.864 1.22 2.338 1.277 2.32-7.036 2.32s-8.257.018-7.036-2.32c1.854-3.548 5.808-5.16 9.48-3.864m71.007.021c1.797.74 3.58 2.301 4.385 3.843 1.22 2.338 1.277 2.32-7.036 2.32s-8.257.018-7.036-2.32c1.845-3.532 6.222-5.268 9.687-3.843M137.6 205.4v1h204v-2h-204v1m34.126 10.57c-1.713.755-2.137 2.419-.926 3.63.717.717 1.333.8 5.967.8h5.166l.352 1.054c.334 1.004.384 1.02 1.052.352.386-.386.807-.596.936-.467s.646-.089 1.148-.484c.798-.628 1.534-.697 5.774-.543 6.017.218 8.616-1.349 6.066-3.657-.872-.789-23.898-1.407-25.535-.685m59.888.804c-.627 1.172-.507 1.8.535 2.778.522.491 1.283 1.631 1.7 2.535.894 1.981 1.254 1.284 1.32-2.558.056-3.161-2.335-5.018-3.546-2.755m15.422-.014c-.523.578-.62 1.117-.407 2.253l.28 1.494 3.846-.261c3.513-.238 8.332.125 10.845.817.868.239.933.194.493-.343-.503-.614-.295-1.92.305-1.92 1.106 0-.047-1.492-1.598-2.069-2.81-1.044-12.812-1.023-13.764.029m41.126.082c-.675.746-.75 1.396-.657 5.672.124 5.691.035 5.518 2.034 3.934.867-.686 1.775-1.248 2.02-1.248.882 0 .564-7.478-.358-8.4-1.03-1.03-2.08-1.016-3.038.042m36.027.085c-.165.407-.1.923.15 1.173.675.675 1.042.028.565-.996-.386-.829-.445-.844-.716-.177m-175.79.265c-.33.208-.6.608-.6.888 0 .645-3.782 1.233-4.436.69-.823-.683-2.84 2.099-3.368 4.648-1.13 5.444 2.147 10.013 7.9 11.028 1.354.239 3.006.847 3.71 1.365 1.054.778 1.427.861 2.226.498 1.067-.487 1.277-1.109.373-1.109s-1.577-1.521-.985-2.235c.267-.321.41-.659.32-.75-.448-.448-4.123-1.815-4.882-1.816-5.082-.009-6.235-8.019-1.426-9.908.857-.337 1.56-.765 1.56-.952s.56-.339 1.247-.339c1.097 0 1.217-.108 1.005-.9-.133-.495-.244-1.035-.247-1.2-.007-.425-1.69-.361-2.405.092m183.2 1.408c0 .33.18.6.4.6s.4-.27.4-.6-.18-.6-.4-.6-.4.27-.4.6m-19.02.675c-1.047.48-2.2 2.172-1.225 1.798.48-.184.614-.011.554.713-.043.526-.22.869-.394.762s-.315.085-.315.428-.18.624-.4.624-.4.191-.4.424.145.334.32.225.282.375.233 1.076l-.088 1.275 1.08-1.2a27.97 27.97 0 0 1 2.381-2.286l1.3-1.086-.814-.814c-.448-.448-.814-1.073-.814-1.39 0-.808-.463-.987-1.42-.549M182.687 227.7c-.098.275-.01.827.195 1.226.46.893 1.518.213 1.518-.975 0-.853-1.422-1.062-1.713-.251m154.394 1.159c-.384.214-.613.528-.508.697s.3 1.274.435 2.457.323 2.275.417 2.427c.338.547 3.528-.716 3.897-1.543.526-1.18-.81-4.687-1.552-4.072-.35.29-.76.302-1.255.037-.48-.257-.98-.258-1.434-.003M209.7 236.8c.12 6.577.187 7.106 1.114 8.75 2.514 4.463 8.023 7.529 10.83 6.027.434-.232 2.106-.46 3.715-.505 6.023-.17 9.878-5.033 9.812-12.376-.03-3.272-.618-8.022-.72-5.809-.03.67-.242 1.029-.55.934-.275-.085-.995-.263-1.6-.395l-1.1-.241v3.592c0 5.972-1.595 9.005-5.688 10.815-6.445 2.85-11.846-2.076-11.96-10.907-.053-4.131-.4-6.353-.876-5.6-.35.553-2.23.006-2.783-.81-.177-.261-.264 2.675-.194 6.525m-26.9-5.609c-.5.315-.62 1.918-.722 9.479-.147 10.958-.127 11.092 1.537 10.262.67-.333 1.48-.505 1.8-.381.504.193.585-1.166.585-9.764V230.8l-1.3.006c-.715.003-1.57.177-1.9.385m122.258 1.286c-.467 1.742-.296 3.123.385 3.123.46 0 .557.2.343.7-.68 1.591-.586 2.82.382 5 .562 1.265 1.127 2.3 1.256 2.3.396 0 1.35-1.093 1.138-1.304-.11-.11.272-.318.848-.463 1.098-.275 1.142-2.034.083-3.347-.228-.283-.5-1.832-.603-3.441-.183-2.848-.215-2.925-1.24-2.913-.578.007-1.342-.12-1.698-.282-.472-.215-.715-.044-.895.627m-35.818 7.086c-1.262 3.056-1.283 3.199-.627 4.2.388.594.494 1.037.246 1.037-.24 0-.34.241-.228.536s-.073.767-.413 1.049-.618.742-.618 1.021c0 .894-1.255 1.05-8.17 1.012-8.49-.047-8.63-.079-8.634-1.961-.002-1.153-.23-1.601-1.1-2.146a38.66 38.66 0 0 1-1.778-1.185c-.946-.691-.977-.601-1.268 3.724-.387 5.732-.357 5.756 7.016 5.729 6.428-.024 8.643-.587 12.59-3.201 5.25-3.479 9.07-10.796 6.2-11.88-.7-.26-1.255-.614-1.255-.786 0-1.088-.836.129-1.96 2.851m-111.532.118c-.232.285-.512 1.329-.622 2.319s-.28 2.15-.378 2.578c-.19.834-1.108 1.377-1.108.655 0-.238-.45-.433-1-.433-.81 0-1 .198-1 1.036 0 .99-.602 1.828-3.5 4.877-1.53 1.608-1.552 1.687-.484 1.687 2.63 0 7.168-3.841 8.388-7.102 1.156-3.091.943-7.142-.296-5.617m181.32.548c-.346.345-.63.774-.63.953s-.333.412-.74.518c-.743.194-1.477 2.427-1.034 3.144.123.199-.057.644-.4.988s-.626.827-.626 1.075c0 .734 2.513-2.273 3.7-4.428 1.5-2.705 1.35-3.871-.27-2.25m-51.565 3.833c-.708 5.891-.08 8.338 2.136 8.338 1.922 0 2.4-1.173 2.4-5.889 0-4.061-.012-4.111-.95-4.111-.522 0-1.485-.107-2.14-.238-1.18-.236-1.192-.218-1.446 1.9m34.003 4.605c-.147.146-.267.596-.267 1s-.188.733-.417.733c-1.373 0-2.015 1.494-.75 1.746 3.33.667 5.006.235 5.228-1.346.103-.738.35-.969.94-.883.606.088.666.026.25-.256-.303-.204-.428-.572-.277-.816.303-.489-4.223-.66-4.705-.178m-21.54 22.233c.652 1.155 3.478 6.42 6.28 11.7l7.243 13.652c1.183 2.229 2.15 4.254 2.15 4.5 0 .329-20.46.448-77 .448-43.18 0-77-.152-77-.347s1.725-3.565 3.833-7.5l8.442-15.853 4.61-8.7H298.74l1.187 2.1m-95.436 5.368c-.95.382-1.738 2.482-1.47 3.915.268 1.425 1.072 1.571 1.58.286.277-.7.716-4.492.514-4.437a10.05 10.05 0 0 0-.624.236m-19.022 5.577c-1.17.634-1.277 3.09-.193 4.434.212.263.376 1.96.364 3.771s.135 3.485.326 3.721.41.772.5 1.192c.203 1.085 3.604-1.804 4.575-3.887.39-.839 1.04-1.7 1.44-1.914s.728-.654.728-.976.193-.586.43-.586c1.23 0 1.632-1.151.922-2.647-1.466-3.089-6.155-4.694-9.08-3.108m104.93-.372c-3.226.53-5.65 2.655-6.573 5.762-1.81 6.091 3.97 5.763 5.955-.339.377-1.157 1.026-2.286 1.443-2.509 1.823-.976 2.798-2.347 1.98-2.784-.764-.409-1.028-.422-2.805-.13m-81.78 1.295c-.312.505.882 1.632 1.73 1.632.817 0 1.65-.747 1.65-1.48 0-.604-3.017-.74-3.38-.152m86.103 11.442c-.592 1.299-.14 1.709.875.792.96-.87 1.007-1.238.2-1.551-.4-.154-.77.11-1.065.759m-150.568 26.563c-3.903 1.664-3.248 6.801 1.05 8.229 2.976.988 3.972 2.911 2.555 4.934-1.214 1.733-4.483 1.884-5.115.236-.293-.762-1.41-.73-1.708.048-.62 1.618 3.16 3.64 5.535 2.959 5.196-1.49 4.524-9.979-.8-9.979-2.147 0-2.75-3.29-.803-4.378 1.004-.561 1.167-.538 2.328.32 2.09 1.546 3.33.277 1.45-1.488-1.06-.997-3.232-1.422-4.502-.881m27.496.165c-.974 1.174-.414 16.039.6 16.185.82.117.867-.052 1-3.69.167-4.584.825-5.615 3.583-5.615 2.73 0 3.556 1.348 3.556 5.804 0 3.311.06 3.578.8 3.578.817 0 1.046-1.808.81-6.4-.206-3.986-3.49-5.891-7.89-4.579-.845.252-.886.143-1-2.647-.118-2.916-.566-3.721-1.467-2.636m51.234-.063c-.62.621-.684 14.806-.07 15.951.68 1.269 3.186.9 3.186-.469 0-.488-.282-.757-.79-.757-.756 0-.796-.331-.9-7.467-.108-7.367-.306-8.376-1.424-7.258m35.646.099c-1.406.622-1.897 1.346-2.323 3.426-.158.77-.674 1.717-1.148 2.105l-.86.706.885.747c.793.668.898 1.182 1 4.894.107 3.843.174 4.148.915 4.148s.808-.305.914-4.3l.113-4.3h1.138c1.22 0 2.268-.899 1.846-1.582-.142-.23-.793-.418-1.447-.418-2.55 0-1.954-3.081.764-3.944 1.214-.386 1.677-.736 1.59-1.2-.162-.856-1.783-.991-3.386-.282m14.863.326c-.668 2.715-.001 15.7.806 15.7.75 0 .807-.304.912-4.9.14-6.1.297-6.095 3.383.1 3.22 6.468 3.176 6.47 6.587-.374 3.2-6.419 3.318-6.414 3.318.131 0 5.275.09 5.737 1.04 5.373.456-.175.56-1.74.56-8.349 0-11.045-.257-11.126-4.95-1.569-1.67 3.403-3.2 6.188-3.4 6.188s-1.662-2.655-3.25-5.9c-3.57-7.298-4.495-8.481-5.007-6.4m54.35 1.699c-.138.36-.066.84.16 1.065.652.652 1.896.213 1.896-.669 0-1.018-1.69-1.344-2.055-.396m-167.986 2.876c-1.255.247-3.406 2.666-3.724 4.188-1.1 5.314 3.872 8.955 8.71 6.367 1.972-1.055.668-2.411-1.383-1.438-3.528 1.674-6.973-1.888-5.18-5.356.918-1.775 2.735-2.332 4.977-1.526 1.914.689 2.738.438 2.3-.701-.484-1.261-3.275-2.012-5.7-1.534m31.45.403a5.89 5.89 0 0 0-3.207 5.281c.006 7.244 10.688 7.848 11.5.65.512-4.541-4.315-7.993-8.292-5.931m18.194-.403c-3.206.889-5.14 5.162-3.64 8.045 2.93 5.634 11.035 3.93 11.035-2.32 0-3.932-3.655-6.761-7.395-5.725m31.998.268c-5.653 2.615-3.926 11.166 2.255 11.166 5.54 0 7.82-7.274 3.33-10.614-1.296-.964-4.095-1.241-5.584-.552m54.627.206c-2.715 5.073 1.943 12.36 6.826 10.678.862-.297 1.654-.378 1.775-.182s.574.355 1.007.355c.75 0 .782-.26.676-5.7-.093-4.751-.21-5.7-.71-5.7-.48 0-.623.718-.714 3.611-.144 4.561-1.003 5.971-3.64 5.971-2.746 0-3.407-1.025-3.647-5.66-.203-3.914-.706-4.993-1.573-3.373m18.504-.188c-3.754 1.698-2.784 4.769 1.97 6.237 2.99.924 3.49 1.383 2.54 2.331-.873.873-3.56.851-4.542-.038-1.028-.931-2.1-.887-2.1.086 0 2.615 5.843 3.437 8.264 1.163 2.097-1.97 1.026-3.772-3.064-5.155-3.25-1.099-3.904-1.635-2.96-2.419 1-.83 3.903-.722 4.902.183.875.791 2.057.642 2.057-.261 0-1.753-4.74-3.179-7.07-2.127m13.736-.294c-.857.856-.265 11.388.633 11.261.873-.124.903-.281 1.012-5.272.12-5.429-.382-7.252-1.645-5.989m11.95.025c-3.498.888-5.2 5.04-3.45 8.424 1.665 3.223 6.408 4.143 8.64 1.676 1.174-1.297.215-1.883-1.64-1.003-2.84 1.347-5.766-.391-5.766-3.424s2.773-4.656 5.806-3.388c2.65 1.107 3.087-.672.47-1.914-1.38-.655-2.53-.76-4.06-.371m-144.34 2.49c2.483 1.514 2.127 5.555-.588 6.69-2.823 1.179-5.3-.526-5.3-3.656 0-3.152 3.08-4.74 5.878-3.034m17.99.506c3.03 3.03-.486 7.975-4.362 6.136-2.98-1.414-3.08-5.805-.164-7.046 1.302-.554 3.506-.111 4.526.91m31.673-.718c3.5 1.815 2.056 7.212-1.944 7.212-2.915 0-4.775-3.077-3.402-5.627 1.06-1.968 3.313-2.636 5.346-1.585" fill="#f3efe8"/><path d="M43.6.208L40 .806c-1.65.264-3.54.718-4.2 1.01s-2 .801-3 1.131c-9.367 3.128-20.422 12.428-25.986 21.86-1.388 2.354-3.31 6.329-3.867 7.993-.33.99-.837 2.34-1.126 3C.153 39.612.2 34.815.2 200.2l1.755 163.989c.168.226.526 1.183.796 2.127.784 2.74 5.705 11.755 7.25 13.284.112.11.68.83 1.26 1.6 3.52 4.656 9.884 9.8 15.937 12.883 1 .504 1.9 1.017 2 1.14s.74.424 1.4.669l3.8 1.444c1.43.548 3.457 1.122 4.505 1.276s2.003.44 2.124.634c.285.462 317.083.47 317.59.008.21-.19 1.55-.567 2.98-.838s3.32-.812 4.2-1.203 2.275-.929 3.1-1.194 1.5-.611 1.5-.77.675-.527 1.5-.818 1.77-.756 2.1-1.032 1.195-.804 1.92-1.172 1.627-.935 2-1.258 1.85-1.515 3.28-2.647c3.263-2.583 4.54-3.859 7.122-7.122l2.647-3.279c.323-.373.9-1.273 1.258-2s.896-1.591 1.172-1.921.74-1.275 1.032-2.1.66-1.5.817-1.5.596-.945.973-2.1.835-2.291 1.018-2.525.74-1.943 1.236-3.8l.9-3.375.113-158.558-.243-159c-.195-.243-.484-1.252-.64-2.242s-.73-2.97-1.276-4.4l-1.437-3.8c-.245-.66-.547-1.292-.67-1.404s-.924-1.552-1.78-3.2c-1.666-3.204-2.095-3.832-5.33-7.788-2.352-2.878-4.84-5.378-6.913-6.945-.77-.582-1.5-1.149-1.6-1.261-1.513-1.53-10.224-6.277-13.2-7.192-1-.305-1.994-.698-2.23-.874C361.77.158 368.95.236 201.2.16 114.85.121 43.93.143 43.6.208m103.285 4.586c10.423 3.219 20.24 16.739 23.477 32.335 6.196 29.842-12.225 79.703-40.456 109.505-1.268 1.339-2.306 2.552-2.306 2.696s49.455.308 109.9.366l109.9.104 2.6 1.045c7.017 2.821 11.656 7.957 13.35 14.781.954 3.847.987 125.897.035 129.937-1.776 7.533-8.2 13.865-15.676 15.449-2.314.491-18.613.575-112.008.581l-109.3.007-.004 19.9c-.006 29.913-1.053 37.055-6.878 46.946-12.202 20.72-43.238 25.467-66.455 10.163-15.227-10.037-20.98-25.767-15.9-43.482 5.8-20.199 30.913-26.667 45.293-11.662 14.274 14.895 6.092 41.348-13.83 44.712l-2.775.468 1.375 1.033c15.712 11.801 39.225 2.804 46.055-17.623l1.29-3.855.292-46.93-2.73-.279c-8.074-.826-19.487-4.205-28.322-8.386-41.705-19.734-65.25-57.724-55.782-90.005 7.42-25.296 21.466-40.115 56.773-59.894 14.156-7.931 19.877-11.335 27.9-16.605l2.1-1.379V79.887l.847-57.861C119.564 8.033 133.135.547 146.885 4.794m-12.373 20.245c-3.743 1.811-6.08 5.163-7.37 10.561-.665 2.789-.716 6.145-.716 47.8v44.8l1.286-1.557c18.102-21.91 29.967-58.388 26.3-80.857-2.46-15.074-11.453-24.641-19.502-20.747m159.67 103.471c9.147 5.18 1.748 19.164-7.66 14.477-6.13-3.055-6.086-11.553.076-14.758 1.834-.954 5.653-.812 7.583.281m21.333-.149c5.232 2.683 6.105 9.398 1.735 13.345-7.467 6.746-17.846-3.279-11.628-11.232 2.084-2.666 6.835-3.681 9.893-2.113m22.35.257c7.42 4.349 3.97 15.402-4.656 14.915-10.546-.596-10.016-15.845.554-15.917 1.83-.012 2.757.214 4.102 1.002M112.4 157.627c-1.2 1.096-4.9 4.096-8.2 6.665l-11.793 9.29c-32.383 25.812-44.832 54.302-35.965 82.313 6.6 20.817 30.76 38.891 56.058 41.922l2.3.275-.1-142.475c-.055.01-1.1.914-2.3 2.01m14.39 3.802c-.25.66-.355 25.8-.3 70.1l.1 69.071 27.325.21 2-3.705 8.557-16.125 5.728-10.738c2.943-5.53 4.286-7.666 5.08-8.08.915-.476 10.685-.562 63.678-.562h62.597l1 .9c.983.894 1.55 1.886 6.563 11.5l2.895 5.4c.157.22 1.47 2.65 2.92 5.4l5.556 10.4 2.924 5.4 10.33.107c13.283.137 15.495-.498 18.1-5.2L353 293.4V167.8l-1.1-1.871c-.604-1.028-1.764-2.418-2.577-3.088-3.2-2.637 5.94-2.441-113.604-2.441H127.18l-.39 1.029m157.388 5.06c.46.657.623 1.908.623 4.8v3.911h1.75c2.04 0 2.856.72 2.486 2.195-.227.905-.45 1.005-2.245 1.005H284.8v6.53c0 7.344.23 7.952 3.22 8.52 4.405.838 3.79 4.09-.685 3.628-5.08-.524-6.5-3.241-6.516-12.553l-.018-6.074-1.3-.126c-2.35-.226-1.98-3.103.4-3.119.872-.006.9-.13.9-3.917 0-4.188.528-5.689 2-5.689.415 0 1.035.4 1.377.889m21.137-.389c.535.401.69 1.333.777 4.7l.11 4.2 1.96.2c2.22.227 3.143 1.112 2.398 2.3-.284.454-1.127.77-2.398.9l-1.96.2v6.041c0 7.483.652 8.959 3.957 8.959 1.46 0 2.473 1.377 1.915 2.602-.75 1.644-5.124 1.222-7.174-.692s-2.285-2.865-2.498-10.11l-.2-6.8-1.1-.127c-1.36-.156-2.1-1.352-1.514-2.446.227-.426.91-.831 1.514-.9l1.1-.127.2-4.316c.23-4.937.943-6.061 2.914-4.584m-153.352 9.489c3.107.891 4.887 2.825 4.046 4.396-.575 1.075-1.69 1.03-3.517-.143-5.262-3.379-11.62.443-11.22 6.744.374 5.866 5.585 8.577 11.06 5.754 1.936-.999 2.56-1.162 3.013-.787 3.975 3.3-6.315 7.454-11.642 4.7-12.35-6.387-5.11-24.499 8.26-20.664m28.32.219c2.416 1.01 4.94 3.364 5.964 5.559 1.098 2.36 1.47 14.358.474 15.353-1.148 1.148-3.12.271-3.12-1.388v-.908l-1.42.964c-7.327 4.972-17.164-.455-17.112-9.442.045-7.588 8.242-13.051 15.214-10.138m28.588-.048c3.922 1.401 6.124 4.822 3.788 5.886-.816.372-1.224.216-3.05-1.165-3.13-2.369-6.807-2.55-9.048-.445-2.046 1.923-1.656 2.239 5.64 4.574 9.042 2.893 10.443 8.55 2.92 11.787-4.682 2.014-13.12-.682-13.12-4.192 0-1.853 2.115-2.436 3.438-.949 2.027 2.278 5.697 2.896 8.577 1.444 2.983-1.504 2.587-2.624-1.415-4.001-10.138-3.49-10.595-3.809-10.6-7.414-.003-4.462 7.193-7.552 12.87-5.525m26.4 0c3.808 1.36 6.052 4.704 3.922 5.844-.885.474-1.023.416-3.455-1.435-3.324-2.53-9.737-1.59-9.737 1.427 0 .792.377.959 7.4 3.277 5.388 1.779 6.812 3.035 6.77 5.969-.1 6.789-12.574 8.726-17.105 2.656-1.997-2.674.604-3.956 3.517-1.733 2.812 2.147 6.495 2.392 8.79.586 2.232-1.756 1.582-2.37-4.79-4.523-7.183-2.426-8.396-3.446-8.076-6.783.433-4.507 7.153-7.289 12.765-5.285m28.298-.169c3.877 1.112 7.602 5.985 7.626 9.978.014 2.298-.524 2.431-9.856 2.431-4.696 0-8.538.099-8.538.22 0 3.962 6.623 6.483 10.993 4.184 2.76-1.453 3.934-1.167 3.73.908-.333 3.404-8.542 5.096-12.723 2.624-11.796-6.975-4.406-24.123 8.768-20.345m72.326.546c4.264 2.232 7.503 8.856 5.444 11.132-.602.665-1.437.731-9.2.731-4.696 0-8.538.153-8.538.34 0 .946 2.63 3.803 4.125 4.482 2.4 1.085 4.222.974 6.868-.418 4.107-2.161 5.69.884 1.728 3.326-9.74 6.006-21.294-6.377-14.782-15.841 2.935-4.266 9.897-6.086 14.355-3.752M173.8 178.978c-4.59 1.662-6.507 7.776-3.622 11.558 3.132 4.107 9.317 3.906 12.222-.396 3.812-5.646-2.218-13.472-8.6-11.162m84.25-.127c-2.518.741-6.084 4.587-4.92 5.306.634.392 13.645.205 13.895-.2 1.36-2.198-5.532-6.118-8.975-5.106m71.172-.175c-2.054.421-4.992 3.056-5.286 4.74-.15.851 12.935 1.472 13.754.653 1.826-1.826-4.92-6.121-8.468-5.393M342 205.357c0 .869-.228 1.445-.633 1.6-.827.318-202.707.318-203.534 0-.405-.155-.633-.731-.633-1.6V204H342v1.357m-188.365 11.3c3.697 2.013 5.176 4.968 3.383 6.761-1.37 1.371-2.408 1.229-4.172-.572-2.43-2.479-4.94-2.675-6.924-.541-2.986 3.21-1.225 6.541 4.048 7.657 6.77 1.434 10.86 8.242 8.876 14.776-2.716 8.943-13.784 11.281-19.995 4.225-3.348-3.804.073-7.568 3.57-3.929 3.302 3.436 7.31 3.503 10.114.169 3.183-3.782 1.08-8.557-4.386-9.966-6.166-1.59-8.95-4.647-8.95-9.83 0-7.739 7.707-12.411 14.435-8.75m43.71-.628c3.287 2.586.715 4.771-5.616 4.771h-4.93v30.436l-.982.982c-.54.54-1.358.982-1.818.982s-1.278-.442-1.818-.982l-.982-.982V220.8h-4.925c-4.403 0-5.017-.086-5.8-.816-1.227-1.143-1.147-2.912.18-3.955 1.638-1.288 25.054-1.288 26.692 0m15.18-.369c1.443.759 1.462.921 1.468 12.825.007 12.892.284 14.512 2.905 16.982 3.528 3.324 9.273 2.658 12.096-1.401l1.205-1.733.24-25.508 1.034-.812c1.36-1.07 2.18-1.025 3.492.191l1.083 1.004L235.8 243l-1.282 2.453c-5.313 10.165-19.49 10.086-24.566-.136-.935-1.883-.954-2.147-1.077-15.01l-.124-13.094 1.006-1.006c1.13-1.13 1.516-1.207 2.77-.547m49.674.698c15.787 5.6 17.075 27.893 2.022 35.014-4.012 1.898-14.843 2.669-16.933 1.205l-.89-.622v-35.51l.9-.653c1.38-1.003 11.57-.616 14.9.566m29.218-.176l.982.982v17.092c0 18.858-.012 18.944-2.625 18.944-2.822 0-2.686 1.848-2.58-35.084.008-2.568 2.464-3.693 4.222-1.934m37.13.02c9.408 2.735 15.483 13.619 12.802 22.936-4.106 14.272-21.12 18.719-31.622 8.266-10.026-9.979-5.857-26.896 7.673-31.134 3.852-1.206 7.163-1.226 11.147-.068M251.6 234.245v13.446l4.1-.166c19.295-.78 18.325-26.691-1-26.72l-3.1-.005v13.445m67.33-12.893c-15.196 4.967-10.755 27.189 5.228 26.163 13.5-.865 16.963-19.402 4.754-25.376-2.646-1.294-7.306-1.662-9.982-.787m-141.328 50.147l-1.567 2.901-13.096 24.589c-.296.434-.54 1.019-.54 1.3 0 .413 14.632.511 76.2.511l76.2-.479c0-.441-3.543-7.236-12.68-24.321l-3.53-6.6-119.73-.203-1.258 2.302m32.272 2.926c5.583 2.11 5.105 9.667-.71 11.217-3.24.864-7.165-2.209-7.165-5.607 0-3.963 4.24-6.983 7.874-5.61m64.112.475c4.83 2.477 3.964 9.202-1.378 10.698-5.068 1.419-9.318-5.192-5.928-9.22 2.048-2.433 4.482-2.926 7.306-1.478m-82.266 6.546c7.968 4.019 4.936 15.734-3.957 15.287-10.45-.524-10.105-15.845.357-15.917 1.37-.009 2.844.248 3.6.63m103.073.15c4.906 2.503 5.83 9.475 1.757 13.279-3.788 3.538-10.34 2.281-12.733-2.442-3.517-6.94 4.023-14.384 10.976-10.837M148.29 320.789c1.273.776 2.033 2.366 1.525 3.188-.393.636-2.096.508-2.36-.177-.32-.831-2.89-.805-3.212.033-.604 1.574.322 2.967 1.972 2.967 4.117 0 5.896 7.149 2.435 9.789-2.87 2.189-8.503.712-8.17-2.143.155-1.337 1.5-1.585 2.505-.464.458.507 1.24.818 2.05.818 3.524 0 3.73-4.525.24-5.238-4.366-.893-5.75-5.743-2.436-8.533 1.502-1.263 3.62-1.357 5.45-.24m25.23 2.103l.118 2.692 2.282-.231c4.18-.423 6.596 2.082 6.823 7.077.197 4.349-.05 5.17-1.55 5.17H180v-3.569c0-7.966-5.936-8.668-6.257-.739-.163 4.024-.26 4.308-1.488 4.308-1.386 0-1.455-.425-1.455-8.953 0-8.081.15-8.798 1.795-8.562.7.1.82.462.923 2.807m50.65-2.649c.545.209.633 1.241.633 7.386 0 6.733.046 7.167.8 7.571 1.867.999.098 3.212-2.123 2.655-1.354-.34-1.465-1.036-1.472-9.181-.006-8.159.252-9.164 2.162-8.431m38.156 1.018c.106.917-.085 1.129-1.4 1.553-2.52.812-3.723 2.786-1.697 2.786 1.27 0 2.374.744 2.374 1.6s-1.103 1.6-2.36 1.6c-.76 0-.82.281-.926 4.3l-.114 4.3h-2.4l-.113-4.293c-.1-3.794-.205-4.342-.9-4.714-1.018-.545-1-1.845.013-2.393.44-.235.8-.755.8-1.154 0-3.772 6.312-7.137 6.723-3.585m13.185-.161c.42.605 1.914 3.485 3.32 6.4s2.655 5.3 2.772 5.3 1.65-2.835 3.406-6.3c2.84-5.602 3.304-6.3 4.193-6.3h1v17.2l-.955.135c-1.422.201-1.63-.492-1.66-5.535l-.03-4.6-.7 1.6c-4.48 10.382-5.208 10.709-8.673 3.9l-2.392-4.7-.4 9.2H273l-.113-7.8c-.145-9.958.395-11.711 2.62-8.5m54.564 1.498c.37.812.332 1.135-.203 1.726-.445.492-.527.858-.252 1.133.978.978.278 11.93-.772 12.078-.525.074-1.107-.106-1.294-.4-.622-.982-.422-10.456.242-11.403.523-.748.523-.904 0-1.338-.803-.666-.748-1.864.107-2.362 1.117-.651 1.685-.503 2.172.566m-166.314 2.986c1.736.66 2.726 1.911 2.237 2.825-.498.93-1.486.999-2.57.178-2.203-1.665-5.73.558-5.285 3.332.342 2.138 1.574 3.007 3.847 2.713 3.886-.503 3.804-.516 3.938.645.4 3.371-7.022 3.245-9.38-.159-3.515-5.073 1.503-11.706 7.215-9.534m32.368.065c6.82 3.503 3.5 13.641-3.926 11.956-5.43-1.234-6.37-9.026-1.406-11.664 1.566-.833 4.02-.967 5.332-.292m17.75.214c3.662 1.737 4.593 6.808 1.8 9.803-3.962 4.247-10.875 1.594-10.875-4.173 0-4.574 4.898-7.613 9.075-5.63m32.93.237c5.5 3.75 3.33 11.592-3.22 11.592-5.272 0-8.096-5.991-4.8-10.182 1.835-2.333 5.672-3.007 8.02-1.41M298 329.26c.236 4.555.805 5.54 3.2 5.54s2.964-.985 3.2-5.536c.2-4.05.722-4.891 2.22-3.648.63.523.867 10.515.27 11.452-.27.424-2.666.628-6.5.553-3.253-.064-4.913-2.467-5.13-7.427-.18-4.107.174-5.131 1.695-4.913.764.109.852.446 1.035 3.979m22.058-3.179c2.205 1.239 2.647 3.519.68 3.519-.447 0-1.27-.36-1.83-.8-1.187-.934-3.007-1.046-3.686-.228-.57.686-.102.982 3.177 2.014 2.527.795 3.6 1.82 3.6 3.436 0 3.527-6.096 5.106-9.04 2.342-1.902-1.788-.693-3.882 1.387-2.401 1.223.871 3.424 1.095 4.44.453.76-.481.76-.481-2.897-1.791-3.24-1.159-3.89-1.783-3.89-3.722 0-3.168 4.586-4.774 8.058-2.822m25.345.322c1.89 1.776.725 3.388-1.636 2.262-1.97-.94-2.86-.833-4.198.504-3.018 3.018.63 7.266 4.472 5.209 2.145-1.148 3.12 1.027 1.125 2.51-3.353 2.494-8.867-.089-9.448-4.426-.73-5.447 5.912-9.603 9.685-6.059m-153.948 2.652c-1.47 1.47-1.31 4.361.305 5.439 2.548 1.701 6.607-1.45 5.25-4.076-1.31-2.536-3.776-3.142-5.554-1.363m17.265.164c-2.25 2.249-.86 5.581 2.326 5.581 2.746 0 4.295-2.336 3.09-4.659-1.276-2.46-3.5-2.839-5.415-.922m32.782-.428c-2.55 2.006-1.163 6.009 2.082 6.009 3.255 0 4.745-3.332 2.496-5.581-1.442-1.443-3.092-1.597-4.578-.428" fill="#040404"/><path d="M121.78 10.9l-1.58 1.7 1.7-1.581c1.58-1.471 1.884-1.819 1.58-1.819-.065 0-.83.765-1.7 1.7m35.402.9c3.517 3.842 3.954 4.259 2.52 2.4-.68-.88-2.102-2.41-3.16-3.4-1.474-1.379-1.325-1.146.64 1m-42.27 14.4c.003 1.1.08 1.503.173.895s.1-1.509-.005-2-.17.005-.168 1.105m16.06 1.1l-1.175 1.3 1.3-1.175c1.212-1.095 1.484-1.425 1.175-1.425-.07 0-.654.585-1.3 1.3m-3.926 6.915c-.137.358-.23 1.041-.208 1.518.026.548.162.353.37-.53.35-1.487.255-2.07-.16-.988M171.33 50.6c.002 1.54.074 2.121.16 1.291s.085-2.09-.003-2.8-.16-.031-.158 1.509m-16.838 10.6c0 .77.082 1.085.183.7s.1-1.015 0-1.4-.183-.07-.183.7m-.4 3.2c0 .77.082 1.085.183.7s.1-1.015 0-1.4-.183-.07-.183.7m2.985 41.005c-.366.767-.583 1.395-.482 1.395.274 0 1.488-2.449 1.305-2.632-.087-.087-.457.47-.823 1.237M309.8 127.803c.885.308 5.372.426 4.904.129-.277-.176-1.584-.308-2.904-.294s-2.22.088-2 .165m21.138.103c-.254.162 1.034.294 2.862.294s3.116-.132 2.862-.294-1.542-.294-2.862-.294-2.608.132-2.862.294m-14.538 1.019c0 .069.585.654 1.3 1.3l1.3 1.175-1.175-1.3c-1.095-1.212-1.425-1.484-1.425-1.175m11.375 1.175l-1.175 1.3 1.3-1.175c.715-.646 1.3-1.231 1.3-1.3 0-.309-.33-.037-1.425 1.175m-8.272 4.796c.2 3.394.428 3.824.46.904.014-1.32-.118-2.627-.294-2.904s-.25.624-.165 2m21.897.704c0 1.498.132 2.516.294 2.262s.294-1.272.294-2.262-.132-2.008-.294-2.262-.294.764-.294 2.262m-15.672 0c0 1.43.073 2.015.16 1.3s.09-1.885 0-2.6-.16-.13-.16 1.3m-27.608 0c0 1.21.075 1.705.167 1.1a8.9 8.9 0 0 0 0-2.2c-.092-.605-.167-.11-.167 1.1m5.59.4c0 .99.078 1.395.173.9s.096-1.305 0-1.8-.173-.09-.173.9m-21.31 2.689c0 .232.37.847.824 1.367l.823.944-.702-1.2c-.925-1.579-.945-1.603-.945-1.111m43.612.026c-.007.284.663 1.192 1.488 2.018.835.837 1.036.963.453.285-.576-.67-1.246-1.578-1.488-2.018s-.446-.568-.453-.285m-8.168 1.967c-.636.746-1.806 1.7-2.6 2.12s-1.3.771-1.124.78c1.02.057 5.592-3.665 5.053-4.114-.095-.079-.693.467-1.33 1.214m-11.1 1.218c.765.715 1.58 1.3 1.813 1.3s-.023-.298-.567-.662l-1.812-1.3c-.453-.351-.198-.053.566.662m-12.143.35c-.72.612-.866.855-.367.607.733-.364 2.108-1.681 1.716-1.643-.082.008-.69.474-1.35 1.036m-5.295 1.637c.61.092 1.51.09 2-.005s-.005-.171-1.105-.168-1.503.081-.895.173m21.8-.004c.497.096 1.217.092 1.6-.008s-.025-.179-.905-.174-1.193.086-.695.182m-181.7 2.913c-1.6 1.615-2.24 2.528-1.967 2.801s36.324.371 109.384.303l108.98-.101-109.1-.1-109.1-.387c0-.159 1.03-1.329 2.287-2.6s2.198-2.312 2.088-2.312-1.267 1.078-2.57 2.396m-16.226 9.904l-1.378 1.5 1.5-1.378 1.5-1.5c0-.306-.338-.018-1.622 1.378m235.022 5.154l1.8 1.549 1.398 1.197-.998-1.137c-.55-.625-1.36-1.322-1.8-1.549s-.62-.253-.4-.06M63.3 165.64c-.935.662-1.7 1.293-1.7 1.401s.8-.36 1.8-1.041 1.8-1.32 1.8-1.419c0-.276-.076-.233-1.9 1.059m218.25.624c-.503.608-.473.617.35.104.772-.481 1.028-.481 1.8 0 .824.513.854.504.35-.104-.302-.365-.865-.664-1.25-.664s-.95.299-1.25.664m20.85 4.618c-.11 2.355-.056 4.139.117 3.964s.263-2.101.198-4.281l-.118-3.965-.197 4.282m-21.45.318c0 2.31.066 3.255.147 2.1a36.33 36.33 0 0 0 0-4.2c-.08-1.155-.147-.21-.147 2.1m3.6 0c0 2.31.066 3.255.147 2.1a36.33 36.33 0 0 0 0-4.2c-.08-1.155-.147-.21-.147 2.1m79.247 59.4l.105 31.469v-63.2c-.058-17.308-.105-3.029-.105 31.731M56.678 170.609C55.205 171.824 54 172.91 54 173.023s1.125-.721 2.5-1.853c2.958-2.437 3.326-2.77 3.058-2.77-.11 0-1.407.994-2.88 2.209m37.522 1.235l-1.6 1.432 1.7-1.272c1.463-1.094 1.99-1.621 1.6-1.598-.055.003-.82.65-1.7 1.438M52.175 174.5L51 175.8l1.3-1.175c.715-.646 1.3-1.231 1.3-1.3 0-.309-.33-.037-1.425 1.175m257.772 1.198c.3.384.453 1.059.338 1.5s-.047.702.152.579c.602-.372.41-1.643-.337-2.228-.634-.497-.648-.483-.153.149M168.18 178.5l-1.58 1.7 1.7-1.581c1.58-1.471 1.884-1.819 1.58-1.819-.065 0-.83.765-1.7 1.7m-82.8.8L83.8 181l1.7-1.581c1.58-1.471 1.884-1.819 1.58-1.819-.065 0-.83.765-1.7 1.7m98.816-.499c1.896 2.217 1.923 2.241 1.49 1.399-.227-.44-.924-1.249-1.55-1.799l-1.137-.998 1.197 1.398m96.765 5.799c0 3.52.062 4.906.136 3.081a91.63 91.63 0 0 0-.001-6.4c-.075-1.695-.136-.201-.135 3.319m3.6-.2c0 3.41.06 4.805.136 3.1a85.45 85.45 0 0 0 0-6.2c-.075-1.705-.136-.31-.136 3.1m17.838.719l.2 6.681.11-6.369c.062-3.504-.028-6.51-.198-6.682s-.222 2.695-.112 6.37m-131.958-4.105c-.682.778-1.24 1.534-1.24 1.68s.136.095.303-.114.83-.965 1.475-1.68 1.067-1.3.938-1.3-.792.636-1.475 1.414m-125.466.686L43.8 183l1.3-1.175c.715-.646 1.3-1.231 1.3-1.3 0-.309-.33-.037-1.425 1.175m33.818 3.8l-4.193 4.3 4.3-4.193 4.3-4.3c0-.289-.513.199-4.407 4.193m262.695-1.1c.123 1.21.29 2.275.368 2.367.297.344.074-3-.252-3.767-.212-.498-.255.031-.116 1.4M137.32 186c0 1.21.075 1.705.167 1.1a8.9 8.9 0 0 0 0-2.2c-.092-.605-.167-.11-.167 1.1m67.48-1.667c.33.203 1.05.491 1.6.638.695.186.817.154.4-.104-.33-.203-1.05-.491-1.6-.638-.695-.186-.817-.154-.4.104m44.124 1.867c.002 1.32.077 1.812.166 1.093s.087-1.799-.004-2.4-.164-.013-.162 1.307m21.856-.71c-.11.929-.047 1.537.14 1.35s.276-.946.2-1.689c-.136-1.318-.144-1.309-.34.339m-129.866.71c.003 1.1.08 1.503.173.895s.1-1.509-.005-2-.17.005-.168 1.105m178.8 0c.003 1.1.08 1.503.173.895s.1-1.509-.005-2-.17.005-.168 1.105m-109.514.065a14.41 14.41 0 0 1 2.197 1.484l.997.851-.796-.941c-.775-.916-2.635-2.075-3.278-2.043-.176.009.22.301.88.649m46.678 1.633c2.353.071 6.313.071 8.8.001s.562-.128-4.278-.129-6.875.058-4.522.128m70.8 0c2.353.071 6.313.071 8.8.001s.562-.128-4.278-.129-6.875.058-4.522.128M209.3 189.632c.385.224.714.714.732 1.088.02.438.105.497.237.167.24-.596-.558-1.693-1.218-1.675-.248.007-.136.196.25.42m-67.386.572c.227.443.834 1.162 1.35 1.598.904.764.902.75-.057-.405-1.593-1.918-1.727-2.042-1.292-1.193m182.4 0c.227.443.834 1.162 1.35 1.598.904.764.902.75-.057-.405-1.593-1.918-1.727-2.042-1.292-1.193m-87.868.365c-.025.422-.354 1.142-.73 1.6-.66.801-.652.8.24-.019.56-.517.848-1.144.73-1.6-.184-.718-.194-.717-.24.019M72.778 191.9l-1.378 1.5 1.5-1.378c1.396-1.284 1.684-1.622 1.378-1.622-.066 0-.74.675-1.5 1.5m125.255-1.4c.092.055.707.55 1.367 1.1l1.2 1-.97-1.1c-.533-.605-1.148-1.1-1.366-1.1s-.322.045-.23.1m68.167 1.178c.44.249.932.649 1.094.888.202.299.296.283.3-.052.003-.267-.342-.672-.768-.9-1.052-.563-1.63-.505-.626.064M140.4 193.8c.746.77 1.447 1.4 1.557 1.4s-.41-.63-1.157-1.4-1.447-1.4-1.557-1.4.41.63 1.157 1.4m10.6-.786c-.66.303-.92.558-.576.568s.972-.246 1.4-.569c.948-.717.745-.717-.824.001m56.4 0c-.66.303-.92.558-.576.568s.972-.246 1.4-.569c.948-.717.745-.717-.824.001m31.025 1.155l-1.375 1.631 1.555-1.487c.855-.817 1.474-1.551 1.375-1.63s-.8.589-1.555 1.486m84.375-.369c.746.77 1.447 1.4 1.557 1.4s-.41-.63-1.157-1.4-1.447-1.4-1.557-1.4.41.63 1.157 1.4m4.576-.822c.428.342 1.058.608 1.4.59.54-.027.542-.061.024-.254-.33-.122-.96-.388-1.4-.59-.787-.362-.788-.358-.024.254m-160.176-.053c0 .069.585.654 1.3 1.3l1.3 1.175-1.175-1.3c-1.095-1.212-1.425-1.484-1.425-1.175m28.8 0c0 .069.585.654 1.3 1.3l1.3 1.175-1.175-1.3c-1.095-1.212-1.425-1.484-1.425-1.175m15.775 1.575l-1.175 1.3 1.3-1.175c.715-.646 1.3-1.231 1.3-1.3 0-.309-.33-.037-1.425 1.175m-64.075-.624c.385.1 1.015.1 1.4 0s.07-.183-.7-.183-1.085.082-.7.183m27.6 0c.385.1 1.015.1 1.4 0s.07-.183-.7-.183-1.085.082-.7.183m28.8 0c.385.1 1.015.1 1.4 0s.07-.183-.7-.183-1.085.082-.7.183m55.2 0c.385.1 1.015.1 1.4 0s.07-.183-.7-.183-1.085.082-.7.183m70.8 0c.385.1 1.015.1 1.4 0s.07-.183-.7-.183-1.085.082-.7.183M137.3 205.4c.004.88.086 1.193.182.695s.092-1.217-.008-1.6-.18.025-.174.905m204.4 0c.004.88.086 1.193.182.695s.092-1.217-.008-1.6-.18.025-.174.905m-153 1.7h101.8c27.995-.057 5.1-.103-50.9-.103l-50.9.103m-161.278 7.522c-.15.803-.194 1.54-.096 1.638s.3-.479.452-1.282.194-1.54.096-1.638-.3.479-.452 1.282m120.883.861c.497.096 1.217.092 1.6-.008s-.025-.179-.905-.174-1.193.086-.695.182m22.35.546c-.58.456-1.054.988-1.054 1.182s.442-.089.982-.629l.982-.982h12.33c13.935 0 14.326.073 14.03 2.621-.085.728-.012 1.235.162 1.127.744-.46.29-2.512-.738-3.319-1.638-1.288-25.054-1.288-26.692 0m39.47-.129c-.42.385-.565.572-.322.416s.88-.46 1.42-.675c.618-.247.737-.4.322-.416-.36-.014-1 .29-1.42.675m21.302.2l-1.018.9-.104 12.463c-.058 6.854.027 12.254.19 12s.297-5.904.3-12.554l.006-12.091 1-.655c.55-.361 1.36-.562 1.8-.447s.7.046.576-.153c-.397-.643-1.705-.387-2.75.537m15.898-.2c-.42.385-.502.52-.184.3s2.936-.5 5.818-.623l5.24-.223-5.056-.077c-4.327-.066-5.165.024-5.82.623m41.298-.337c-.123.199.136.268.576.153s1.295.093 1.9.461l1.1.67-.944-.823c-.987-.861-2.25-1.082-2.633-.461m33.482-.076c.61.092 1.51.09 2-.005s-.005-.171-1.105-.168-1.503.081-.895.173m-87.035.913c.182.33.425 6.18.54 13l.21 12.4.09-12.224c.077-10.614.006-12.325-.54-13-.346-.427-.48-.506-.3-.176m-92.382 1.231c-.82.678-1.682 1.623-1.913 2.1-.286.594-.144.515.448-.247.477-.614 1.52-1.559 2.315-2.1s1.267-.984 1.046-.984-1.074.554-1.896 1.231m171.612-.202c-1.55.841-1.375 1.132.2.33 1.508-.766 1.775-.965 1.267-.943-.202.009-.862.285-1.467.613M208.978 229.6c0 6.93.055 9.765.12 6.3a394.95 394.95 0 0 0 0-12.6c-.066-3.465-.12-.63-.12 6.3m101.087-8.935l-2.265 2.265 2.4-2.141 2.567-2.265c.09-.068.03-.124-.136-.124s-1.32 1.019-2.566 2.265m23.335-1.996c1.865 1.858 4.63 4.122 3.4 2.784-.77-.837-1.94-1.896-2.6-2.353s-1.02-.65-.8-.431m-277.17 1.16c-.148.586-.19 1.143-.097 1.237s.292-.308.44-.895.19-1.143.097-1.237-.292.308-.44.895m114.832.671c.102.165 2.423.3 5.158.3h4.97l.225 30.6-.015-30.8-5.263-.2c-2.895-.11-5.18-.065-5.076.1m20.74-.118l-5.2.218-.015 30.8.225-30.6h4.97c2.883 0 5.076-.168 5.22-.4.136-.22.192-.363.124-.318s-2.464.18-5.324.3m-44.2.424c-.422.276-.185.317.8.136 1.725-.317 2.05-.544.767-.536-.532.003-1.237.183-1.567.4m103.782.097c-.106.277-.146 6.442-.088 13.7l.106 13.197 6.8.047-6.6-.278v-26.737l6.6-.269-3.313-.082c-2.354-.057-3.368.065-3.505.422m70.723-.216c.61.092 1.51.09 2-.005s-.005-.171-1.105-.168-1.503.081-.895.173M139.293 223.6c0 .77.082 1.085.183.7s.1-1.015 0-1.4-.183-.07-.183.7m173.885 1.1l-1.378 1.5 1.5-1.378c1.396-1.284 1.684-1.622 1.378-1.622-.066 0-.74.675-1.5 1.5m19.222-.1c.746.77 1.447 1.4 1.557 1.4s-.41-.63-1.157-1.4-1.447-1.4-1.557-1.4.41.63 1.157 1.4m-306.258 3.2c-.001 1.98.066 2.84.15 1.912s.085-2.548.003-3.6-.152-.292-.153 1.688m113.064-.967c.003.752.17 1.628.373 1.946.237.375.286-.049.14-1.2-.283-2.209-.52-2.554-.512-.746m195.45.567c.925 1.579.945 1.603.945 1.111 0-.232-.37-.847-.824-1.367l-.823-.944.702 1.2m-29.606.415c-.137.358-.234.951-.215 1.318s.193.136.387-.513c.377-1.262.244-1.887-.172-.805m-159.85.342c0 .457 2.58 1.84 3.4 1.824.476-.01.2-.234-.704-.553-.827-.295-1.772-.759-2.1-1.031s-.596-.38-.596-.24m-4.887 2.043c.232.44 1.105 1.43 1.94 2.2 1.38 1.272.204-.242-2.175-2.8-.103-.11.003.16.235.6m10.12-.042c.34.322 3.167 1.394 3.167 1.201 0-.11-.624-.461-1.387-.779-1.344-.562-2.122-.746-1.78-.422m191.243 3.642c-.048 1.76-.18 3.65-.293 4.2l-.206 1 .427-.975c.234-.537.366-2.427.292-4.2l-.133-3.225-.087 3.2m-287.967-.6c0 .99.078 1.395.173.9s.096-1.305 0-1.8-.173-.09-.173.9m255.605 1c.003 1.1.08 1.503.173.895s.1-1.509-.005-2-.17.005-.168 1.105m-34.405.2c0 .99.078 1.395.173.9s.096-1.305 0-1.8-.173-.09-.173.9m61.6 0c0 .99.078 1.395.173.9s.096-1.305 0-1.8-.173-.09-.173.9m-66.808.2c.004.88.086 1.193.182.695s.092-1.217-.008-1.6-.18.025-.174.905m-112.902.1c.523.715 1.014 1.3 1.1 1.3.304 0-.688-1.5-1.344-2.033-.432-.351-.335-.071.254.733m153.002 3.7c.36 1.199 1.352 3.2 1.587 3.2.183 0-1.37-3.677-1.7-4-.108-.11-.062.25.103.8m25.277 1.805c-.366.767-.583 1.395-.482 1.395.274 0 1.488-2.449 1.305-2.632-.087-.087-.457.47-.823 1.237M27.28 239.8c0 .44.144 1.25.32 1.8.254.792.32.833.32.2 0-.44-.144-1.25-.32-1.8-.254-.792-.32-.833-.32-.2m131.98 1.05a32.92 32.92 0 0 1-.259 2.4l-.198 1.35.42-1.343c.23-.738.348-1.818.258-2.4l-.162-1.057-.06 1.05m113.62 1.359c-.48.985-.787 1.791-.684 1.791.27 0 1.887-3.249 1.706-3.43-.084-.084-.544.654-1.022 1.639m66.8.4c-.48.985-.787 1.791-.684 1.791.27 0 1.887-3.249 1.706-3.43-.084-.084-.544.654-1.022 1.639m-125.25-.585c-.018.342.248.972.6 1.4.612.764.616.763.254-.024-.202-.44-.468-1.07-.6-1.4-.193-.518-.227-.515-.254.024M53.71 243.6c0 .99.078 1.395.173.9s.096-1.305 0-1.8-.173-.09-.173.9m181.537-1.133a7.38 7.38 0 0 1-.276 1.4c-.218.695-.207.696.227.02.25-.391.376-1.021.276-1.4-.162-.619-.185-.621-.227-.02m70.754.222c0 .232.37.847.824 1.367l.823.944-.702-1.2c-.925-1.579-.945-1.603-.945-1.111m-40.625 1.411l-1.175 1.3 1.3-1.175c.715-.646 1.3-1.231 1.3-1.3 0-.309-.33-.037-1.425 1.175m-126.713-.2c-.102.165.5.3 1.338.3s1.44-.135 1.338-.3-.704-.3-1.338-.3-1.236.135-1.338.3m130.76 3.229l-2.38 2.671 2.11-2c1.735-1.645 3.25-3.493 2.763-3.371-.063.015-1.185 1.23-2.493 2.7m44.58-2.583c0 .11.54.584 1.2 1.054s1.2.764 1.2.654-.54-.584-1.2-1.054-1.2-.764-1.2-.654M143.476 246.3c.722.715 1.54 1.295 1.818 1.288s.146-.211-.294-.454-1.258-.822-1.82-1.288-.427-.261.295.454m-89.383.5c0 .77.082 1.085.183.7s.1-1.015 0-1.4-.183-.07-.183.7m179.474-.3c-.254.495-1.115 1.62-1.914 2.499l-1.453 1.6 1.534-1.4c1.372-1.251 2.996-3.599 2.5-3.599-.108 0-.403.405-.657.9m-76.073.803l-.706 1.297.806-.944c.686-.804 1.052-1.662.706-1.653-.055.001-.418.586-.806 1.3M212 248.4c.697.88 1.357 1.6 1.467 1.6s-.37-.72-1.067-1.6-1.357-1.6-1.467-1.6.37.72 1.067 1.6m7.4-1.014c1.272.613 4.487.801 5.263.308.254-.162-.646-.294-2-.294s-2.913-.133-3.463-.296c-.756-.224-.708-.155.2.282m40.2-.186c-.824.264-.86.326-.2.354.44.019 1.07-.141 1.4-.354.7-.453.214-.453-1.2 0m-112.9.682c.495.096 1.305.096 1.8 0s.1-.173-.9-.173-1.395.078-.9.173m174.79.007c.7.088 1.97.09 2.8.003s.25-.159-1.29-.161-2.22.069-1.51.158m-182.29 1.458c.77.835 1.76 1.708 2.2 1.94s.7.338.6.235c-2.558-2.379-4.072-3.555-2.8-2.175m193.097 1.019c-1.644 1.053-1.872 1.425-.422.688.7-.357 1.386-.83 1.523-1.051.32-.519.225-.488-1.1.363m-40.796 1.446c-.384.514-1.194 1.01-1.8 1.101-1.1.167-1.1.167-.07.227.937.055 3.185-1.668 2.738-2.099-.092-.09-.482.258-.867.771m-108.976.688c.42.385 1.15.685 1.62.666.694-.028.643-.099-.27-.373-.62-.185-1.347-.485-1.618-.665s-.15-.013.27.372m-38.925-.118a2.91 2.91 0 0 0 1.367.412c1.023.008.704-.221-.767-.55-.876-.196-1.038-.159-.6.138m7.2.018c-.824.264-.86.326-.2.354.44.019 1.07-.141 1.4-.354.7-.453.214-.453-1.2 0m109.4 0c-1.09.277-1.107.307-.2.325.55.01 1.36-.136 1.8-.325.986-.424.066-.424-1.6 0m57.4.083c1.3.59 9.5.59 10.8 0 .847-.384.725-.41-.8-.168-1 .157-3.06.285-4.6.285s-3.6-.128-4.6-.285c-1.525-.242-1.647-.216-.8.168m-98.4.32c.99.314 5.088.531 4.767.253-.092-.079-1.427-.24-2.967-.357-1.627-.124-2.38-.08-1.8.104m-72.295.284c.61.092 1.51.09 2-.005s-.005-.171-1.105-.168-1.503.081-.895.173M57.628 259.8c0 .22.258.85.572 1.4s.572.82.572.6-.258-.85-.572-1.4-.572-.82-.572-.6m181.23 2.198l63.82.802c.42.33.337.195-.18-.3l-.942-.9-125.755.195 63.058.203M59.8 264.4c.34.66.71 1.2.82 1.2s-.08-.54-.42-1.2-.71-1.2-.82-1.2.08.54.42 1.2m118.862 4.7c-.102.165 26.732.254 59.632.197l60.462.4c.572.446.582.424.095-.197-.58-.741-119.733-1.138-120.19-.4M169 272.4c-.34.66-.53 1.2-.42 1.2s.48-.54.82-1.2.53-1.2.42-1.2-.48.54-.82 1.2m132.6 2.8c.45.88.906 1.6 1.016 1.6s-.167-.72-.616-1.6-.906-1.6-1.016-1.6.167.72.616 1.6m-255.2.2c.746.77 1.447 1.4 1.557 1.4s-.41-.63-1.157-1.4-1.447-1.4-1.557-1.4.41.63 1.157 1.4m20-1.275c0 .069.585.654 1.3 1.3L69 276.6l-1.175-1.3c-1.095-1.212-1.425-1.484-1.425-1.175m140.9.151c.385.1 1.015.1 1.4 0s.07-.183-.7-.183-1.085.082-.7.183m63.2 0c.385.1 1.015.1 1.4 0s.07-.183-.7-.183-1.085.082-.7.183m-66.36 1.11c-2.724 1.908-2.767 6.54-.082 8.812l.94.796-.85-.997c-2.397-2.812-2.357-5.931.104-8.212 1.193-1.106 1.144-1.279-.113-.399m62.7.828c-.682.778-1.23 1.723-1.216 2.1.017.463.155.36.423-.314.22-.55.87-1.495 1.45-2.1s.947-1.1.818-1.1-.792.636-1.475 1.414M71 278.8c.86.88 1.652 1.6 1.762 1.6s-.503-.72-1.362-1.6-1.652-1.6-1.762-1.6.503.72 1.362 1.6m205.91 1.2c0 .99.078 1.395.173.9s.096-1.305 0-1.8-.173-.09-.173.9m27.69.8c.34.66.71 1.2.82 1.2s-.08-.54-.42-1.2-.71-1.2-.82-1.2.08.54.42 1.2m-119.4.406c-.422.276-.185.317.8.136 1.725-.317 2.05-.544.767-.536-.532.003-1.237.183-1.567.4m102.8-.011c-.41.26-.1.304 1 .137 1.977-.303 2.314-.534.767-.526-.642.003-1.437.178-1.767.389M53.6 282.6c.746.77 1.447 1.4 1.557 1.4s-.41-.63-1.157-1.4-1.447-1.4-1.557-1.4.41.63 1.157 1.4m159.6-.76c0 .352-.612 1.252-1.36 2s-1.217 1.36-1.04 1.36c.52 0 2.8-2.779 2.8-3.414 0-.322-.1-.586-.2-.586s-.2.288-.2.64m-30.313.86c-.957.935-.973.981-.106.306 1.707-1.33 1.788-1.406 1.505-1.406-.15 0-.78.495-1.4 1.1m103.007-.249c-.61.453-1.296 1.213-1.527 1.687l-.42.862.727-.871a15.4 15.4 0 0 1 1.727-1.687c1.304-1.063.922-1.057-.506.009m9.106-.594c2.037 1.807 2.787 2.334 2.002 1.406-.436-.515-1.155-1.122-1.598-1.349s-.624-.252-.404-.057m-101.203 1.344c1.896 2.217 1.923 2.241 1.49 1.399-.227-.44-.924-1.249-1.55-1.799l-1.137-.998 1.197 1.398M169.8 285.6c-.34.66-.53 1.2-.42 1.2s.48-.54.82-1.2.53-1.2.42-1.2-.48.54-.82 1.2m145.6.8c.34.66.71 1.2.82 1.2s-.08-.54-.42-1.2-.71-1.2-.82-1.2.08.54.42 1.2m-135.157.233c-.337.876-.294 3.868.063 4.429.162.254.294-.781.294-2.3 0-3.021-.005-3.048-.357-2.129m15.866 2.167c0 .99.078 1.395.173.9s.096-1.305 0-1.8-.173-.09-.173.9m86.73 0c-.014.99.132 2.049.325 2.354.216.341.278-.196.16-1.4-.264-2.709-.456-3.087-.486-.954m16.076.2c.003 1.1.08 1.503.173.895s.1-1.509-.005-2-.17.005-.168 1.105m-139.114.6c-.34.66-.53 1.2-.42 1.2s.48-.54.82-1.2.53-1.2.42-1.2-.48.54-.82 1.2m6.4 2.8c-.34.66-.53 1.2-.42 1.2s.48-.54.82-1.2.53-1.2.42-1.2-.48.54-.82 1.2m131.825-.06c-.503 1.213-2.047 2.834-3.425 3.594-.44.243-.58.447-.314.454 1.162.029 5.03-4.404 4.397-5.038-.096-.097-.393.349-.658.99m-13.66 1.193c.216.403.707.988 1.09 1.3.432.351.335.071-.254-.733-1.05-1.435-1.444-1.702-.837-.567m-101.22 1.567c.765.715 1.58 1.3 1.813 1.3s-.023-.298-.567-.662a40.55 40.55 0 0 1-1.812-1.3c-.453-.351-.198-.053.566.662M321 296.8c.34.66.71 1.2.82 1.2s-.08-.54-.42-1.2-.71-1.2-.82-1.2.08.54.42 1.2m-157.6.8c-.34.66-.53 1.2-.42 1.2s.48-.54.82-1.2.53-1.2.42-1.2-.48.54-.82 1.2m-51.8.38c1 .34 3.482.552 3.167.271-.092-.082-1.067-.252-2.167-.379-1.35-.156-1.674-.121-1 .108m202.922 1.62c.25.66.6 1.2.776 1.2s.043-.54-.298-1.2-.7-1.2-.776-1.2.05.54.298 1.2m-236.122.184c0 .11.72.567 1.6 1.016s1.6.726 1.6.616-.72-.567-1.6-1.016-1.6-.726-1.6-.616m8.8 4.416c.55.314 1.18.572 1.4.572s-.05-.258-.6-.572-1.18-.572-1.4-.572.05.258.6.572m270.378 1.3L356.2 307l1.5-1.378c.825-.759 1.5-1.434 1.5-1.5 0-.306-.338-.018-1.622 1.378m-13.878 5.976c.385.1 1.015.1 1.4 0s.07-.183-.7-.183-1.085.082-.7.183M142.887 321.1c-.62.605-.705.748-.192.317s1.782-.902 2.82-1.047l1.886-.263-1.694-.054c-1.35-.042-1.922.17-2.82 1.047m28.408-.635c-.367.367-.472 2.574-.408 8.515l.088 8.02.212-8.195c.22-8.452.635-10.026 2.096-7.944.304.433.346.422.216-.061-.208-.771-1.562-.977-2.204-.335m88.9-.182c.877.097 1.746.388 1.93.647.23.323.285.282.174-.13s-.725-.615-1.93-.647c-1.756-.046-1.757-.045-.174.13m27.79.398c-.466.614-.464.646.015.219.678-.605 1.858-.654 2.138-.09.112.226.157.18.102-.1-.16-.803-1.653-.823-2.255-.029m-63.494 6.796c-.083 6.728-.033 7.317.662 7.805.414.289.843.885.954 1.322.184.728.205.721.248-.09.026-.508-.292-1.067-.745-1.309-.737-.394-.8-.926-.9-7.714l-.118-7.291-.09 7.277m-2.323 1.323c0 4.29.06 6.045.13 3.9a140.86 140.86 0 0 0 0-7.8c-.072-2.145-.13-.39-.13 3.9m105.3-6.533c-.47.468-.287 1.619.338 2.137.39.323.472.662.234.949-.258.311-.028.447.76.447.773 0 1.017-.139.77-.437-.2-.24-.234-.565-.078-.721s.004-.177-.34-.045c-.823.316-1.702-.782-1.437-1.795.224-.856.176-.96-.248-.535m-183.6 1.6c-.362.361-.34 1.641.033 1.871.165.102.3-.337.3-.976s-.015-1.162-.033-1.162-.154.12-.3.267M258.1 325.2c.09.338.67.628 1.33.663 1.007.055 1.03.036.17-.14-.55-.112-1.15-.411-1.33-.663-.22-.308-.277-.261-.17.14m-198 .276c.385.1 1.015.1 1.4 0s.07-.183-.7-.183-1.085.082-.7.183m4.8 0c.385.1 1.015.1 1.4 0s.07-.183-.7-.183-1.085.082-.7.183m230.78.204c-.312.312-.453 1.68-.404 3.9l.075 3.42.225-3.6c.223-3.585.23-3.6 1.294-3.587.59.008.983-.127.877-.3-.294-.474-1.525-.375-2.067.167m10.608-.054c.312.401.533 2.561.613 6l.124 5.374.088-5.451c.076-4.78.001-5.519-.613-6s-.642-.474-.212.077m-237.055.518c.092.079.707.264 1.367.412.876.196 1.038.159.6-.138-.54-.365-2.368-.62-1.967-.274m87.608 1.27c-.682.778-1.236 1.633-1.23 1.9s.21.126.454-.314.9-1.295 1.462-1.9.917-1.1.788-1.1-.792.636-1.475 1.414M261 327.2c0 .618.135 1.04.3.938s.3-.524.3-.938-.135-.836-.3-.938-.3.32-.3.938m66.273 4.2c-.033 2.86.07 5.409.233 5.664s.244-1.456.183-3.8c-.174-6.736-.35-7.519-.416-1.864m-39.52.8c0 2.64.065 3.668.144 2.284s.077-3.543-.002-4.8-.143-.124-.142 2.516m-113.32-3.236c-.52.555-.826 1.277-.717 1.7.177.684.194.681.237-.038.025-.426.437-1.191.916-1.7s.78-.926.67-.926-.607.434-1.105.964m140.456-.494c-.525.525.05 1.54.86 1.518.248-.007.126-.201-.27-.432-.57-.332-.623-.54-.25-.988.57-.686.322-.757-.337-.098m4.02.33c.56.44 1.148.8 1.308.8s-.167-.36-.726-.8-1.148-.8-1.308-.8.167.36.726.8m20.292.198c-.515.55-.862 1.05-.77 1.113s.652-.387 1.242-.999.938-1.112.77-1.112-.727.449-1.243.998m-175.34-.098c.102.165.524.3.938.3s.836-.135.938-.3-.32-.3-.938-.3-1.04.135-.938.3m94.34 0c-.316.905-.408 8.63-.1 8.439.165-.102.3-2.054.3-4.336v-4.15l2.2-.333-1.113-.06c-.61-.033-1.2.165-1.286.44m-53.28 2.7c0 1.21.075 1.705.167 1.1a8.9 8.9 0 0 0 0-2.2c-.092-.605-.167-.11-.167 1.1m-22.378 1.8c-.001 1.98.066 2.84.15 1.912s.085-2.548.003-3.6-.152-.292-.153 1.688m7.504-1.976c-.025.672.237 1.572.584 2s.49.512.323.19-.432-1.223-.584-2c-.276-1.406-.277-1.407-.323-.19m59.647.176c0 .77.082 1.085.183.7s.1-1.015 0-1.4-.183-.07-.183.7M81.8 333.2c1.306 1.32 2.465 2.4 2.575 2.4s-.87-1.08-2.175-2.4-2.465-2.4-2.575-2.4.87 1.08 2.175 2.4m134.7.9c-.43 1.175-.42 1.226.112.524.51-.672.81-1.824.476-1.824-.062 0-.327.585-.588 1.3m32.7-.197c0 .239-.49 1.034-1.086 1.766-.893 1.095-.922 1.19-.163.535 1.078-.929 1.814-2.173 1.48-2.505-.127-.128-.232-.036-.232.204m-100 1.797c-.59.804-.686 1.084-.254.733.656-.533 1.648-2.033 1.344-2.033-.076 0-.567.585-1.1 1.3m11.7-.624c.385.1 1.015.1 1.4 0s.07-.183-.7-.183-1.085.082-.7.183m32 0c.385.1 1.015.1 1.4 0s.07-.183-.7-.183-1.085.082-.7.183m13.787.933c.708.742 1.355 1.269 1.438 1.17s-.496-.706-1.287-1.35l-1.438-1.171 1.287 1.351m3.813-.933c.385.1 1.015.1 1.4 0s.07-.183-.7-.183-1.085.082-.7.183m32.4 0c.385.1 1.015.1 1.4 0s.07-.183-.7-.183-1.085.082-.7.183m57.6 0c.385.1 1.015.1 1.4 0s.07-.183-.7-.183-1.085.082-.7.183m15.6 0c.385.1 1.015.1 1.4 0s.07-.183-.7-.183-1.085.082-.7.183m21.776 1.224c.722.715 1.54 1.295 1.818 1.288s.146-.211-.294-.454-1.258-.822-1.82-1.288-.427-.261.295.454m3.424-1.224c.385.1 1.015.1 1.4 0s.07-.183-.7-.183-1.085.082-.7.183M126.093 352c0 .77.082 1.085.183.7s.1-1.015 0-1.4-.183-.07-.183.7m-90.745 5.6c0 2.31.066 3.255.147 2.1a36.33 36.33 0 0 0 0-4.2c-.08-1.155-.147-.21-.147 2.1m90.345-.4c0 .77.082 1.085.183.7s.1-1.015 0-1.4-.183-.07-.183.7m-.4 3.2c0 .77.082 1.085.183.7s.1-1.015 0-1.4-.183-.07-.183.7m-88.825 6.2c-.006.44.143 1.16.332 1.6.438 1.019.438-.032 0-1.4-.257-.804-.323-.843-.332-.2m74.532 1c-.34.66-.53 1.2-.42 1.2s.48-.54.82-1.2.53-1.2.42-1.2-.48.54-.82 1.2m-29.215 3.3L79.8 373l2.1-1.985c1.155-1.092 2.1-2.037 2.1-2.1 0-.298-.37.034-2.215 1.985m41.244-1.071c-.148.586-.19 1.143-.097 1.237s.292-.308.44-.895.19-1.143.097-1.237-.292.308-.44.895M71 377.414c-1 .482-1.034.537-.2.334 1.133-.277 2.407-.927 1.8-.918-.22.003-.94.266-1.6.584m45.796 4.486c-.946 1.265-1.407 2.04-1.024 1.723.717-.595 3.193-4.023 2.905-4.023-.09 0-.936 1.035-1.88 2.3m-19.996-.3c-.77.422-1.256.774-1.08.783.424.022 2.68-1.151 2.68-1.393 0-.262-.023-.253-1.6.61m-51.6.525c0 .069.585.654 1.3 1.3l1.3 1.175-1.175-1.3c-1.095-1.212-1.425-1.484-1.425-1.175M75.8 384c.44.189 1.16.338 1.6.332.643-.009.604-.075-.2-.332-1.368-.438-2.42-.438-1.4 0m14.2 0c-.804.257-.843.323-.2.332.44.006 1.16-.143 1.6-.332 1.02-.438-.032-.438-1.4 0m-42 .525c0 .069.585.654 1.3 1.3L50.6 387l-1.175-1.3C48.33 384.488 48 384.216 48 384.525" fill="#57524b"/><path d="M138.3 3.882c.495.096 1.305.096 1.8 0s.1-.173-.9-.173-1.395.078-.9.173m-6.3.936c-.438.297-.276.334.6.138 1.47-.329 1.8-.558.767-.55a2.91 2.91 0 0 0-1.367.412m21 3.439c3.604 3.485 6.195 5.706 4.2 3.602-1.2-1.277-2.74-2.696-3.4-3.155s-1.02-.659-.8-.447M122.185 10.9L120.2 13l2.1-1.985 2.1-2.1c0-.298-.37.034-2.215 1.985M118.2 16c-.34.66-.53 1.2-.42 1.2s.48-.54.82-1.2.53-1.2.42-1.2-.48.54-.82 1.2m46.882 7.389c.59 1.204 1.14 2.122 1.223 2.04.18-.18-1.838-4.229-2.107-4.229-.104 0 .294.985.884 2.189m-27.577.494c.497.096 1.217.092 1.6-.008s-.025-.179-.905-.174-1.193.086-.695.182m5.295.981l3 2.742 2.8 2.571-2.2-2.318c-1.2-1.275-2.56-2.509-3-2.743s-.7-.347-.6-.252m-27.9 56.305l-.784 54.2-.685.831 1.773-1.625-.206-106.775-.098 53.369M168.456 31.6c0 .33.155.96.344 1.4.217.504.344.578.344.2 0-.33-.155-.96-.344-1.4-.217-.504-.344-.578-.344-.2m-16.79 4.82c.234.672.5 1.147.6 1.056.2-.198-.556-2.276-.826-2.276-.104 0 .002.549.236 1.22M126.193 83l.107 22.931v-45.6c-.06-12.612-.107-2.411-.107 22.669m27.075-42.2c.02 1.039.65 2.746.664 1.8.006-.44-.143-1.16-.332-1.6-.21-.49-.34-.568-.332-.2m17.656 4.2c.002 1.32.077 1.812.166 1.093s.087-1.799-.004-2.4-.164-.013-.162 1.307m-15.984 9.8c0 1.87.07 2.635.153 1.7a22.97 22.97 0 0 0 0-3.4c-.084-.935-.153-.17-.153 1.7m15.988 1.6c0 1.43.073 2.015.16 1.3s.09-1.885 0-2.6-.16-.13-.16 1.3m-.427 4.2c.004.88.086 1.193.182.695s.092-1.217-.008-1.6-.18.025-.174.905m-1.9 11c-.154.91-.196 1.738-.093 1.84s.306-.563.453-1.48.188-1.745.093-1.84-.3.57-.453 1.48m-16.954 6.467a7.38 7.38 0 0 1-.276 1.4c-.218.695-.207.696.227.02.25-.391.376-1.021.276-1.4-.162-.619-.185-.621-.227-.02m11.8 11.379c-.354 1.039-.574 1.959-.5 2.044s.444-.697.798-1.736.574-1.959.5-2.044-.444.697-.798 1.736m-19.38 10.371c-.67 1.471-.542 1.785.182.448.34-.625.54-1.211.45-1.302s-.375.293-.63.854m-2.782 5.996c-.7 1.423-1.2 2.587-1.085 2.587.268 0 2.687-4.849 2.508-5.028-.08-.08-.72 1.018-1.423 2.441M151.8 115.2c-.34.66-.53 1.2-.42 1.2s.48-.54.82-1.2.53-1.2.42-1.2-.48.54-.82 1.2m-4.047 6.9c-1.377 2.336-1.467 2.535-.766 1.7.813-.968 1.513-2.2 1.25-2.2-.105 0-.323.225-.485.5m-18.98 3.6c-.964 1.155-1.435 1.847-1.048 1.538.778-.62 3.242-3.638 2.97-3.638-.094 0-.96.945-1.922 2.1m160.126 2.187a8.9 8.9 0 0 0 2.2 0c.605-.092.1-.167-1.1-.167s-1.705.075-1.1.167m4.9.767l1.8 1.549 1.398 1.197-.998-1.137c-.55-.625-1.36-1.322-1.8-1.549s-.62-.253-.4-.06m43.033-.138l3.367 2.342-1.385-1.229c-.762-.676-1.557-1.229-1.767-1.229s-.306.052-.215.116M141.2 132c-.47.66-.764 1.2-.654 1.2s.584-.54 1.054-1.2.764-1.2.654-1.2-.584.54-1.054 1.2m199.42.587c.795 1.902.77 4.213-.044 4.213-.343 0-.512.18-.376.4.668 1.082 1.4.343 1.4-1.413 0-1.648-.87-4.587-1.36-4.587-.1 0 .06.624.38 1.387m-58.368 1.113c-.3 1.155-.272 3.107.076 3.985.15.377.272-.568.272-2.1 0-3.105-.008-3.151-.348-1.885M139.2 134.8c-.47.66-.764 1.2-.654 1.2s.584-.54 1.054-1.2.764-1.2.654-1.2-.584.54-1.054 1.2m186.8-.224c0 1.226.228 1.325.516.224.115-.439.046-.9-.154-1.023s-.362.236-.362.799m-21.867 2.889c.13.806.43 1.657.663 1.891.284.284.275-.005-.026-.87-.248-.713-.35-1.564-.223-1.891s.03-.595-.212-.595c-.283 0-.355.523-.202 1.465m21.9-.339c-.04 1.086.54 2.317 1.686 3.574.933 1.025 1.48 1.153 1.48.347 0-.575 3.382-2.367 5.3-2.809.605-.139 1.1-.44 1.1-.669s-.183-.303-.407-.165-.85.332-1.4.43c-1 .181-4.297 1.814-5.236 2.593-.537.446-1.514-.991-2.193-3.224-.3-.987-.306-.988-.34-.077m11.366.32c-1.59.559-1.59.561-.212.351.763-.117 1.564-.389 1.78-.605.463-.463.48-.466-1.568.254m-19 1.37c0 3.96-7.375 5.565-11.468 2.496-1.518-1.137-1.725-1.22-.966-.384 3.274 3.607 8.65 3.464 11.972-.318 1.336-1.522 1.5-2.009.862-2.41-.22-.136-.4.141-.4.616m-183.85 1.868c-1.072 1.256-1.74 2.155-1.485 1.999.56-.344 3.9-4.283 3.622-4.283-.104 0-1.066 1.028-2.137 2.284m180.427-1.262c-.763.612-.763.616.024.24.44-.211.95-.386 1.133-.389.607-.011.812-.473.2-.473-.324 0-.94.28-1.367.622M102.1 143.026c-.935.561-1.7 1.114-1.7 1.229 0 .216 2.7-1.317 3.38-1.919.687-.608.047-.345-1.68.69m190.1.02c-1.59.559-1.59.561-.212.351.763-.117 1.564-.389 1.78-.605.463-.463.48-.466-1.568.254M130.585 145.3l-1.985 2.1 2.1-1.985c1.155-1.092 2.1-2.037 2.1-2.1 0-.298-.37.034-2.215 1.985M95.9 146.629c-1.495.811-1.404 1.149.1.371.66-.341 1.2-.706 1.2-.81 0-.258-.043-.243-1.3.439m-2.8 1.6c-1.495.811-1.404 1.149.1.371.66-.341 1.2-.706 1.2-.81 0-.258-.043-.243-1.3.439m251.4 2.047c.385.1 1.015.1 1.4 0s.07-.183-.7-.183-1.085.082-.7.183m-257.8 1.553c-1.495.811-1.404 1.149.1.371.66-.341 1.2-.706 1.2-.81 0-.258-.043-.243-1.3.439m25.885 5.071L110.6 159l4.2-3.97v71.652l-.4 71.855c-.225.112-.18.157.1.1.583-.119.98-143.837.396-143.837-.174 0-1.21.945-2.3 2.1m243.815-1.975c0 .069.585.654 1.3 1.3l1.3 1.175-1.175-1.3c-1.095-1.212-1.425-1.484-1.425-1.175M126.662 160.3c-.168.271 73.61.27 178.938-.002 21.67-.056-9.684-.146-69.676-.2s-109.16.037-109.262.202m-.464 70.9l.002 69.8 28 .015-13.9-.112-13.9-.113-.205-139.39.001 69.8m224-67.999c1.896 2.217 1.923 2.241 1.49 1.399-.227-.44-.924-1.249-1.55-1.799l-1.137-.998 1.197 1.398m-283.702.61c-1.152.775-2.095 1.497-2.095 1.604s1-.464 2.2-1.268c1.922-1.276 2.487-1.747 2.095-1.747-.058 0-1.048.635-2.2 1.411m37.9-.182L103 164.858l1.5-1.077c1.326-.951 1.757-1.381 1.385-1.381-.063 0-.738.553-1.5 1.229m258.083.371c.02 1.039.65 2.746.664 1.8.006-.44-.143-1.16-.332-1.6-.21-.49-.34-.568-.332-.2M101 166.244l-1.6 1.432 1.7-1.272c1.463-1.094 1.99-1.621 1.6-1.598-.055.003-.82.65-1.7 1.438m180.68.236c-.32.321-.454 1.811-.402 4.5l.08 4.02.22-4.2c.22-4.154.233-4.2 1.222-4.2s1.002.032 1.22 4.4l.22 4.4.08-4.22c.08-4.316-.173-5.18-1.52-5.18a1.84 1.84 0 0 0-1.12.48m21.32.02c-.316.905-.408 8.63-.1 8.439.165-.102.3-2.086.3-4.408v-4.222l1.18.173c.648.095 1.088.026.976-.154-.32-.517-2.16-.382-2.354.172m2.747 4.7c0 2.31.066 3.255.147 2.1a36.33 36.33 0 0 0 0-4.2c-.08-1.155-.147-.21-.147 2.1m47.647 59.4l.105 31.069v-62.4c-.058-17.088-.105-2.989-.105 31.331M95.8 170.244l-1.6 1.432 1.7-1.272c1.463-1.094 1.99-1.621 1.6-1.598-.055.003-.82.65-1.7 1.438m204.28 5.436c-.623.623-.614 1.716.02 2.217.603.477 2.9.937 2.43.487-.18-.174-.778-.377-1.326-.45-1.232-.166-1.57-1.477-.57-2.208.396-.289.542-.526.323-.526s-.612.216-.876.48m-148.447.069c.412.368 2.767 1.451 2.767 1.272 0-.231-2.218-1.421-2.647-1.421-.157 0-.21.067-.12.149m82.8 0c.412.368 2.767 1.451 2.767 1.272 0-.231-2.218-1.421-2.647-1.421-.157 0-.21.067-.12.149m99.6 0c.412.368 2.767 1.451 2.767 1.272 0-.231-2.218-1.421-2.647-1.421-.157 0-.21.067-.12.149M48 178.6c-.972.99-1.677 1.8-1.567 1.8s.995-.81 1.967-1.8 1.677-1.8 1.567-1.8-.995.81-1.967 1.8m135.6 0c.746.77 1.447 1.4 1.557 1.4s-.41-.63-1.157-1.4-1.447-1.4-1.557-1.4.41.63 1.157 1.4m13.913-.7c-.887 1.017-1.615 2.532-1.345 2.801.127.128.232.047.232-.179s.445-1.065.988-1.866c1.06-1.562 1.114-1.89.125-.756m40.987.322c1.268 1.408 1.398 2.365.4 2.946-.385.224-.51.413-.28.42 1.675.048 1.72-1.93.08-3.413L237.4 177l1.1 1.222m13.675.278L251 179.8l1.3-1.175c.715-.646 1.3-1.231 1.3-1.3 0-.309-.33-.037-1.425 1.175m14.225-1.175c0 .069.585.654 1.3 1.3l1.3 1.175-1.175-1.3c-1.095-1.212-1.425-1.484-1.425-1.175m70.8 0c0 .069.585.654 1.3 1.3l1.3 1.175-1.175-1.3c-1.095-1.212-1.425-1.484-1.425-1.175m-58.448.787c.193.193.867.286 1.5.207 1.058-.132 1.03-.16-.35-.351-.86-.119-1.35-.058-1.148.144m7.648-.147l-2.2.235-.034 12 .255-11.8h1.966c1.08 0 2.077-.18 2.213-.4s.192-.371.124-.335-1.114.171-2.324.3M84.58 179.7L83 181.4l1.7-1.581c1.58-1.471 1.884-1.819 1.58-1.819-.065 0-.83.765-1.7 1.7m63.12-1.424c.385.1 1.015.1 1.4 0s.07-.183-.7-.183-1.085.082-.7.183m27.133-.131c.092.08.968.247 1.946.373 1.15.147 1.575.098 1.2-.139-.534-.339-3.52-.56-3.146-.234m27.988.234c-.375.237.05.286 1.2.139.978-.126 1.854-.293 1.946-.373.375-.326-2.612-.105-3.146.234m27.212-.235c.092.079 1.067.247 2.167.374 1.287.149 1.715.108 1.2-.115-.764-.331-3.714-.558-3.367-.259m27.988.235c-.375.237.05.286 1.2.139.978-.126 1.854-.293 1.946-.373.375-.326-2.612-.105-3.146.234m47.755.14c-.1.286-.144 3.031-.076 6.1l.125 5.581.175-11.758 4.2-.294-2.113-.074c-1.42-.05-2.177.096-2.31.445m23.857-.374c.092.08.968.247 1.946.373 1.15.147 1.575.098 1.2-.139-.534-.339-3.52-.56-3.146-.234m-186.24 1.914c-1.448 1.272-2.6 3.065-2.584 4.021.005.286.34-.213.748-1.108s1.434-2.201 2.282-2.9 1.42-1.272 1.266-1.272-.923.567-1.712 1.259m137.97 5.141c0 3.63.06 5.115.135 3.3a98.14 98.14 0 0 0 0-6.6c-.075-1.815-.135-.33-.135 3.3m-128.59-5.434c1.056 1.272 3.228 1.076 3.228-.291 0-.236-.26-.079-.58.349-.563.753-.618.755-1.864.058-.97-.542-1.16-.571-.784-.116m27.228-.455c0 .076.585.567 1.3 1.09.804.589 1.084.686.733.254-.533-.656-2.033-1.648-2.033-1.344m55.4.146c2.037 1.807 2.787 2.334 2.002 1.406-.436-.515-1.155-1.122-1.598-1.349s-.624-.252-.404-.057m18.978 1.243L253 182.2l1.5-1.378c1.396-1.284 1.684-1.622 1.378-1.622-.066 0-.74.675-1.5 1.5m10.822-.1c.746.77 1.447 1.4 1.557 1.4s-.41-.63-1.157-1.4-1.447-1.4-1.557-1.4.41.63 1.157 1.4m37.763 5c0 3.63.06 5.115.135 3.3a98.14 98.14 0 0 0 0-6.6c-.075-1.815-.135-.33-.135 3.3m22.363-5.1c-3.782 3.996-3.395 4.3 5.474 4.3h7.6l-.046-.9c-.035-.677-.092-.727-.23-.2-.218.835-14.524 1.104-14.524.274 0-.737.85-2.126 2.126-3.474.677-.715 1.14-1.3 1.03-1.3s-.754.585-1.43 1.3m10.674.1c.746.77 1.447 1.4 1.557 1.4s-.41-.63-1.157-1.4-1.447-1.4-1.557-1.4.41.63 1.157 1.4m-66.522.795c.366.767.736 1.324.823 1.237.183-.183-1.03-2.632-1.305-2.632-.1 0 .116.628.482 1.395M78.792 185.1L75 189l3.9-3.792c3.622-3.522 4.082-4.008 3.792-4.008-.06 0-1.814 1.755-3.9 3.9m104.71.196c.2 3.394.428 3.824.46.904.014-1.32-.118-2.627-.294-2.904s-.25.624-.165 2m17.54-1.914c.684.316 1.764.677 2.4.802.99.195.954.149-.244-.321-2.16-.847-3.687-1.187-2.156-.481m51.402.518l-.046.9h15.2l-.046-.9c-.035-.677-.092-.727-.23-.2-.165.634-.86.7-7.324.7s-7.16-.066-7.324-.7c-.138-.527-.195-.477-.23.2m-87.132 2.3c.003 1.1.08 1.503.173.895s.1-1.509-.005-2-.17.005-.168 1.105m-24.813 0c.004.88.086 1.193.182.695s.092-1.217-.008-1.6-.18.025-.174.905m46.457 4c0 3.08.063 4.287.14 2.682s.076-4.124-.001-5.6-.14-.162-.138 2.918m11.442-4.769c0 .27 2.078 1.025 2.276.826.09-.09-.384-.356-1.056-.59s-1.22-.34-1.22-.236m9 .169c.44.189 1.07.344 1.4.344.378 0 .304-.127-.2-.344-.44-.189-1.07-.344-1.4-.344-.378 0-.304.127.2.344m29.433.921c.092.067.707.437 1.367.824l1.2.702-.944-.823c-.52-.453-1.135-.824-1.367-.824s-.347.054-.256.121m-68.427 1.112c.003.532.183 1.237.4 1.567.276.422.317.185.136-.8-.317-1.725-.544-2.051-.536-.767m43.768.252c.425.508.898 1.687 1.05 2.619l.276 1.696.05-1.494c.038-1.131-.217-1.766-1.05-2.619-.605-.619-.752-.71-.326-.202m40.244.241c-.034 1.401 1.754 3.918 3.382 4.762.44.228.116-.194-.72-.937s-1.773-2.071-2.082-2.951-.57-1.273-.58-.874m70.816.098c-.02.452.25 1.172.596 1.6s.507.537.357.245-.418-1.013-.596-1.6c-.258-.858-.33-.906-.357-.245m-182.402.2c-.018.342.248.972.6 1.4.612.764.616.763.254-.024-.202-.44-.468-1.07-.6-1.4-.193-.518-.227-.515-.254.024M72.98 191.3L71.4 193l1.7-1.581c1.58-1.471 1.884-1.819 1.58-1.819-.065 0-.83.765-1.7 1.7m108.394.4L180.2 193l1.3-1.175c1.212-1.095 1.484-1.425 1.175-1.425-.07 0-.654.585-1.3 1.3m15.287-.569c-.736.814-.848 1.507-.3 1.846.2.123.274-.115.165-.53-.127-.486.13-.983.727-1.4.507-.356.73-.647.496-.647s-.725.329-1.09.731m26.487-.031c-.497.633-.483.648.146.155.382-.299.976-.436 1.32-.304.36.138.522.072.38-.156-.378-.611-1.24-.468-1.848.305m26.85-.477c0 .381 2.02 3.377 2.278 3.377.19 0-.05-.42-1.36-2.356-.504-.746-.917-1.205-.917-1.021m74.998.914c.436.515 1.155 1.122 1.598 1.349.85.435.725.301-1.193-1.292-1.155-.959-1.17-.961-.405-.057m-115.798.795c-.906.883-.917.932-.122.519.482-.25.995-.646 1.14-.88.492-.796-.016-.616-1.018.361m96.8-.868c0 .218.495.833 1.1 1.366l1.1.97-1-1.2c-.55-.66-1.045-1.275-1.1-1.367s-.1.012-.1.231m-153.2.978l-1 .825 1.255-.694c1.497-.826 2.528-.542 2.59.714.036.708.09.751.233.194.455-1.752-1.44-2.391-3.08-1.039m183.062-.542c-.102.165.32.3.938.3s1.04-.135.938-.3-.524-.3-.938-.3-.836.135-.938.3M140.6 193.6c.86.88 1.652 1.6 1.762 1.6s-.503-.72-1.362-1.6-1.652-1.6-1.762-1.6.503.72 1.362 1.6m31.344-.824c.52.453 1.135.824 1.367.824.492 0 .468-.02-1.11-.945l-1.2-.702.944.823m50.784-.176c.435.873 1.92 2.309 2.872 2.775.33.162.15-.07-.4-.516s-1.42-1.317-1.935-1.935c-.535-.641-.766-.78-.538-.324m4.416.176c.52.453 1.135.824 1.367.824.492 0 .468-.02-1.11-.945l-1.2-.702.944.823m95.856.769c.88.945 1.96 1.908 2.4 2.141s.7.341.6.241c-3.897-3.536-4.58-4.079-3-2.382m-154.8-.011c.66.734 1.56 1.521 2 1.749s.62.257.4.065l-3.598-3.148 1.2 1.334m43.424.635l-1.375 1.631 1.555-1.487c.855-.817 1.474-1.551 1.375-1.63s-.8.589-1.555 1.486m70.375-.711c0 .216.585.921 1.3 1.567l1.3 1.175-1.2-1.398c-.66-.769-1.245-1.474-1.3-1.567s-.1.008-.1.223m-99.038 1.004c-.17.274-.11.353.146.195.237-.147.514.05.615.438.14.537.195.49.23-.195.05-.957-.517-1.207-.992-.438m70.205.083c.533.656 2.033 1.648 2.033 1.344 0-.076-.585-.567-1.3-1.09-.804-.589-1.084-.686-.733-.254m36.932 1.445c-.26.415-.972.83-1.585.922-1.11.168-1.11.168-.076.228.948.055 2.748-1.288 2.31-1.724-.1-.099-.39.16-.65.574m-255.5.81c-.34.66-.53 1.2-.42 1.2s.48-.54.82-1.2.53-1.2.42-1.2-.48.54-.82 1.2m193-.418a2.91 2.91 0 0 0 1.367.412c1.023.008.704-.221-.767-.55-.876-.196-1.038-.159-.6.138m-79.695.701c.497.096 1.217.092 1.6-.008s-.025-.179-.905-.174-1.193.086-.695.182m27.6 0c.497.096 1.217.092 1.6-.008s-.025-.179-.905-.174-1.193.086-.695.182m28.8 0c.497.096 1.217.092 1.6-.008s-.025-.179-.905-.174-1.193.086-.695.182m26.4 0c.497.096 1.217.092 1.6-.008s-.025-.179-.905-.174-1.193.086-.695.182m28.395-.001c.495.096 1.305.096 1.8 0s.1-.173-.9-.173-1.395.078-.9.173m70.8 0c.495.096 1.305.096 1.8 0s.1-.173-.9-.173-1.395.078-.9.173m-297.835 4.735c-.67 1.471-.542 1.785.182.448.34-.625.54-1.211.45-1.302s-.375.293-.63.854M188.5 204.3h102.2c28.105-.057 5.1-.103-51.1-.103l-51.1.103m-158.056 1.344c-.246.707-.378 1.356-.292 1.441s.357-.423.604-1.129.378-1.356.292-1.441-.357.423-.604 1.129M188.5 206.7h102.2c28.105-.057 5.1-.103-51.1-.103l-51.1.103m-128.52 3.339c-.46.901-.767 1.707-.683 1.791s.544-.654 1.022-1.639c1.1-2.244.796-2.376-.34-.152m-1.915 4.178c-.67 1.471-.542 1.785.182.448.34-.625.54-1.211.45-1.302s-.375.293-.63.854m132.648 1.678c1.163.081 2.963.081 4-.002s.087-.148-2.113-.147-3.05.068-1.887.149m42.762.146c1.668.483 1.84 1.172 1.58 6.289-.13 2.569-.084 3.792.116 3.07 1.29-4.645.183-9.854-2.072-9.764-.705.028-.624.116.375.405m17.025-.144a63.15 63.15 0 0 0 5.4 0c1.485-.077.27-.14-2.7-.14s-4.185.063-2.7.14m37.5.503c-.44.44-.78 1.205-.754 1.7.042.815.065.824.242.1.512-2.105 2.324-2.788 3.712-1.4.922.922 1.24 8.4.358 8.4-.244 0-1.125.54-1.958 1.2-2 1.585-1.944 1.63-2.103-1.7-.133-2.802-.14-2.775-.218.803l-.08 3.704.885-.504c.486-.276 1.144-.744 1.463-1.038s.983-.457 1.478-.362c1.14.218 1.374-.793 1.374-5.971 0-5.052-2.018-7.314-4.4-4.932m-117.845.612c-.365.557-.59 1.086-.502 1.175s.465-.367.836-1.013c.825-1.438.58-1.557-.334-.162m61.125-.532c-.7.69-.623 3.12.087 3.12.31 0 .936.495 1.387 1.1s.826.971.833.814-.56-.939-1.26-1.737c-1.145-1.305-1.23-1.568-.835-2.614.492-1.303.472-1.366-.21-.683m29.52.219c1.55.604 2.7 2.101 1.598 2.101-.6 0-.808 1.306-.305 1.917.442.537.36.579-.64.33-2.654-.661-3.493-.621-1.453.07 1.2.41 2.8 1.064 3.555 1.453l1.354.707-.84-1.179c-.892-1.253-.835-4.096.082-4.099.99-.004-2.2-1.567-3.623-1.777l-1.53-.224 1.8.701m-118.663 2.01c-1.307 1.048-2.537 3.347-2.51 4.691.022.995.114.871.543-.723a8.32 8.32 0 0 1 1.852-3.3c1.442-1.489 1.49-1.771.114-.668m170.023.432c-1.996 1.461-3.485 3.113-2.473 2.744.885-.322 1.323.38.703 1.127-.304.367-.367.981-.17 1.683.586 2.099-1.077 6.608-2.7 7.32-.885.388-.88.396.128.2 1.043-.203 1.048-.19 1.24 2.812.106 1.658.37 3.192.586 3.408.256.256.26-.424.013-1.964-.9-5.594 1.578-11.172 6.118-13.764 1.85-1.057 1.95-1.331.612-1.667-.732-.183-1.05-.603-1.245-1.643-.318-1.695-.788-1.737-2.813-.256M26.9 219.8c.004.88.086 1.193.182.695s.092-1.217-.008-1.6-.18.025-.174.905m219.58.8c-.024 1.687.04 1.862.397 1.12.328-.678.85-.914 2.273-1.028l1.848-.148-2.072-.072c-1.803-.063-2.095-.189-2.246-.972-.095-.495-.185 0-.2 1.1m67.518-.776c0 .317.366.942.814 1.39l.814.814-1.3 1.086a27.97 27.97 0 0 0-2.381 2.286l-1.08 1.2.088-1.275c.05-.701-.056-1.185-.233-1.076s-.32.008-.32-.225.18-.424.4-.424.4-.281.4-.624.142-.536.315-.428.35-.236.394-.762c.06-.724-.074-.897-.554-.713-.976.374.178-1.318 1.225-1.798.957-.438 1.42-.259 1.42.549m-164.8.471c.77.092 1.67.396 2 .675 1.222 1.035 1.763 1.096.717.081-.82-.797-1.45-1.036-2.6-.987l-1.517.064 1.4.167m103.507-.005c.72.089 1.8.087 2.4-.004s.013-.164-1.307-.162-1.812.077-1.093.166m-106.66.762c-3.655 2.56-1.694 9.348 2.7 9.348.433 0 1.637.365 2.676.81s1.98.721 2.09.611-.32-.384-.957-.61-1.468-.591-1.85-.811-1.156-.4-1.72-.4c-4.277 0-6.08-5.31-2.817-8.3 1.504-1.378 1.436-1.739-.122-.648m35.826.348c.257 1.287.43 1.631.7 1.367.1-.092-.083-.707-.384-1.367l-.546-1.2.24 1.2m3.276-.323c-.307.378-.342.552-.08.395.274-.164.546.012.653.423.115.44.202.291.23-.395.054-1.282-.06-1.342-.805-.423M26.493 222.8c0 .77.082 1.085.183.7s.1-1.015 0-1.4-.183-.07-.183.7m113.143 4.474c-.17 3.16 3.75 6.674 8.57 7.684 1.447.304 2.952.842 3.344 1.197s.87.645 1.06.645c1.29 0-2.715-2.004-4.703-2.354-3.863-.68-6.9-3.187-7.836-6.446-.22-.77-.414-1.097-.434-.726m200.064.826c.063.315-.27.459-.9.389-.9-.1-.926-.066-.26.341.55.338.855.336 1.198-.007s.633-.086 1.16 1.058c.417.906.6 1.115.476.519-.43-1.922-2.04-4.134-1.674-2.3m-3.986.42c.49 1.281 1.085 5.346 1.02 6.988-.088 2.245.13 2.349.94.452.37-.866.517-1.478.327-1.361-.595.368-1.022-1.405-1.342-5.566-.032-.422-.313-.851-.623-.954-.38-.127-.485.016-.322.441m-126.508 7.18c.003 4.015.138 7.508.3 7.763s.243-2.715.18-6.6c-.086-5.314-.002-6.914.338-6.463.38.505.414.485.214-.133-.13-.403-.238-.988-.238-1.3s-.18-.567-.4-.567c-.252 0-.398 2.696-.394 7.3m4.3-1.3c.113 3.41.27 6.275.35 6.367.27.309.07-8.147-.245-10.367-.184-1.301-.227.333-.105 4m21.232-3.724c-.035.398-.033.994.004 1.324s.218 2.76.404 5.4l.338 4.8.058-5.876c.036-3.552-.1-5.975-.34-6.124-.22-.136-.428.078-.463.476M185.8 240.838c0 5.699.135 10.362.3 10.362s.3-4.579.3-10.176-.135-10.26-.3-10.362-.3 4.477-.3 10.176m119.093-9.238c0 .77.082 1.085.183.7s.1-1.015 0-1.4-.183-.07-.183.7m-123.026-.133c-.805.804-.238 20.533.6 20.533.206 0 .175-.366-.07-.822-.295-.553-.4-3.967-.314-10.401l.093-9.577c-.02 0-.154.12-.3.267M26.493 232.8c0 .77.082 1.085.183.7s.1-1.015 0-1.4-.183-.07-.183.7m204.375 3.42l.068 4.78.258-4.4c.14-2.42.1-4.571-.07-4.78s-.294 1.771-.257 4.4M53.36 238.4c0 3.41.06 4.805.136 3.1a85.45 85.45 0 0 0 0-6.2c-.075-1.705-.136-.31-.136 3.1m287.718-5.043c-.164.417-.204.852-.088.967.364.365.685-.233.533-.993-.14-.696-.162-.695-.445.026M26.9 235.8c.004.88.086 1.193.182.695s.092-1.217-.008-1.6-.18.025-.174.905m242.502 1.643c-.385 1.424-1.092 3.167-1.57 3.873-1.246 1.838-1.583 2.828-.87 2.554.315-.121.67.039.792.355s.517.575.88.575c.607 0 .605-.083-.02-1.037-.656-1.001-.635-1.144.627-4.2 1.124-2.722 1.96-3.939 1.96-2.851 0 .172.565.526 1.255.786 1.302.492 1.417 1.323.54 3.902-.22.65-.19.687.166.2 1.436-1.968 1.414-4.986-.038-5.096-.482-.036-1.358-.422-1.948-.858l-1.072-.793-.7 2.59m35.438.057c.037 1.698.074 1.773.35.7.17-.66.442-1.515.602-1.9.208-.498.107-.7-.35-.7-.506 0-.634.405-.602 1.9m35.96-.676c0 .453.18.712.4.576s.4-.507.4-.824-.18-.576-.4-.576-.4.371-.4.824M158.393 238.6a2 2 0 0 0 .021.8c.06.22.238 1.12.397 2l.29 1.6v-1.4c.01-1.4-.553-3.755-.717-3m147.053 1.8c.515 2.169 2.954 5.644 2.954 4.21 0-1.328 1.27-2.679 2.28-2.426l.953.239-.668-1.311c-.897-1.765-1.082-1.918-.76-.629.235.937.13 1.118-.786 1.348-.58.146-.967.355-.858.465.213.212-.743 1.304-1.14 1.304-.13 0-.68-.945-1.225-2.1s-.88-1.65-.75-1.1m33.808 2.075c-.513.892-.734 1.498-.49 1.348.497-.307 1.77-2.622 1.56-2.833-.075-.075-.556.593-1.07 1.485m-109.21-.031c-.703 2.016-2.22 3.733-4.01 4.54-.905.408-1.57.816-1.48.906.29.291 3.21-1.378 4.124-2.357.92-.985 2.296-3.89 1.99-4.197-.098-.097-.38.401-.625 1.108M287.2 243c0 1.063.073 1.858.163 1.767.31-.317.412-3.125.125-3.412-.158-.159-.288.582-.288 1.645m-40.735 1.82l.064 3.38.26-3c.143-1.65.114-3.171-.064-3.38s-.295 1.141-.26 3m-12.123-.607c-.35.973-.493 1.68-.318 1.572.375-.232 1.324-2.97 1.105-3.19-.083-.083-.437.645-.787 1.618m37.614-.913c-1.692 3.221-6.093 6.914-9.71 8.146-2.026.691-2.484 1.123-.745.704 3.384-.814 8.618-4.882 10.426-8.101.51-.907.83-1.649.714-1.649s-.425.405-.684.9m20.128 3.311c-.096 4.601-.606 5.789-2.484 5.789-.74 0-1.378-.319-1.777-.889-.343-.489-.623-.697-.623-.462 0 .832 1.528 1.811 2.625 1.681 2.056-.244 2.623-1.653 2.474-6.146l-.132-3.984-.083 4.011m-134.02-1.461c-.644 2.147-3.463 5.258-5.663 6.25-1.806.814-1.933 1.259-.168.588 2.833-1.077 6.86-5.976 6.5-7.894-.076-.396-.36.058-.66 1.056m57.1-.905c.498 1.036 3.086 3.355 3.744 3.355.263 0-.173-.443-.97-.984s-1.838-1.486-2.315-2.1c-.55-.707-.718-.806-.46-.271m-76.563.155c-.292.473.1.473 1.2 0 .77-.331.77-.345-.076-.372-.482-.015-.988.152-1.124.372m111.3.088c.702.339.9.773.9 1.973 0 .847.155 1.539.345 1.539.32 0 .268-.915-.177-3.1-.126-.621-.46-.892-1.076-.873l-.892.027.9.434m-96.854.612a20.18 20.18 0 0 1-.511 1.293c-.233.524-.195.524.323 0 .74-.749 1.226-1.993.776-1.993-.187 0-.452.315-.588.7m56.955-.4c.008 1.455 3.956 5.629 6.43 6.797 2.008.949 7.565 1.705 6.17.84-.778-.482-.773-.504.2-.809l1-.313-1 .173a40.37 40.37 0 0 0-2.111.442c-2.797.674-8.03-2.591-9.66-6.027-.633-1.334-1.03-1.76-1.027-1.103m126.052 1.967c-.96.974-1.67 1.849-1.575 1.944s.96-.63 1.922-1.611 1.67-1.856 1.575-1.944-.96.636-1.922 1.611M268 245.638c0 .241-.37.96-.825 1.597-.633.889-.68 1.103-.2.919.344-.132.625-.468.625-.748s.27-.732.6-1.006c.686-.569.79-1.2.2-1.2-.22 0-.4.197-.4.438m-35.574 1.925c-.997 1.4-4.267 3.637-5.318 3.637-.415 0-.65.169-.523.376.587.949 5.523-2.336 6.637-4.417.615-1.15.14-.908-.796.404m94.374.037c-.55.176-2.125.338-3.5.36-1.873.03-2.5.182-2.5.607 0 .312-.11.852-.243 1.2s-.056.633.172.633.473-.405.543-.9c.115-.81.382-.912 2.664-1.02 1.848-.087 2.458.006 2.25.345-.158.255-.04.632.264.836.417.282.357.344-.25.256s-.83.142-.926.982c-.19 1.656-1.783 1.852-7.074.874-.93-.172-1.054-.128-.55.195 1.53.98 8.757 1.015 8.154.04-.125-.202.15-.569.61-.815.574-.308.797-.76.71-1.442s.187-1.235.875-1.764c1.057-.813.595-.962-1.2-.387m-71 .4l-4 .245 3.876.078c2.24.044 3.98-.092 4.124-.323.136-.22.192-.365.124-.323s-1.924.188-4.124.323m-33.7.276c.385.1 1.015.1 1.4 0s.07-.183-.7-.183-1.085.082-.7.183m109.5 1.924c-.688.393-.797.576-.35.586.358.008.875-.256 1.15-.586.61-.734.484-.734-.8 0m-85.2.894c0 1.368 1.69 1.906 6.14 1.956l4.46.05-4.536-.25c-4.128-.228-4.604-.335-5.3-1.194-.42-.52-.764-.773-.764-.562m-103.443.436c.382.618 2.92 1.265 4.972 1.268 1.553.002 1.666-.06 1.115-.612-.342-.342-1.196-.582-1.93-.543-.723.038-2.016-.071-2.873-.242-1.1-.22-1.478-.182-1.285.129M31.6 252.542c0 .435 3.186 6.658 3.41 6.658.18 0-2.88-6.36-3.255-6.767-.085-.091-.154-.042-.154.109M302.8 263.5c.523.715 1.014 1.3 1.1 1.3.304 0-.688-1.5-1.344-2.033-.432-.351-.335-.071.254.733M40 267.2c.47.66.944 1.2 1.054 1.2s-.184-.54-.654-1.2-.944-1.2-1.054-1.2.184.54.654 1.2m266.2 2.4c.34.66.71 1.2.82 1.2s-.08-.54-.42-1.2-.71-1.2-.82-1.2.08.54.42 1.2m-128.4.4c-.34.66-.53 1.2-.42 1.2s.48-.54.82-1.2.53-1.2.42-1.2-.48.54-.82 1.2m122.6 2.4c.45.88.906 1.6 1.016 1.6s-.167-.72-.616-1.6-.906-1.6-1.016-1.6.167.72.616 1.6m8.2 1.6c.34.66.71 1.2.82 1.2s-.08-.54-.42-1.2-.71-1.2-.82-1.2.08.54.42 1.2m-262.4.8c.86.88 1.652 1.6 1.762 1.6s-.503-.72-1.362-1.6-1.652-1.6-1.762-1.6.503.72 1.362 1.6m122-.4c-.34.66-.53 1.2-.42 1.2s.48-.54.82-1.2.53-1.2.42-1.2-.48.54-.82 1.2m-99.4 2.54c1.2 1.278 3.1 3.061 4.2 3.962 2.304 1.888 1.737 1.299-3-3.116-2.533-2.361-2.84-2.577-1.2-.846m135.25-.902c-1.68 1.564-2.153 4.434-1.05 6.362.314.55.578.771.586.49s.464-.681 1.014-.89c.6-.228 1-.696 1-1.166 0-1.084-.688-1.416-.986-.477-.443 1.394-1.315 1.299-1.59-.174-.304-1.621.578-3.603 1.773-3.982.442-.14.804-.423.804-.628 0-.607-.588-.43-1.55.465M174 277.2c-.45.88-.726 1.6-.616 1.6s.567-.72 1.016-1.6.726-1.6.616-1.6-.567.72-1.016 1.6m129.4.8c.557 1.1 1.103 2 1.213 2s-.256-.9-.813-2-1.103-2-1.213-2 .256.9.813 2m-253.414.915c1.203 1.257 2.232 2.285 2.288 2.285.42 0-.704-1.292-2.42-2.785l-2.053-1.784 2.186 2.284M165 280.4c-.557 1.1-.923 2-.813 2s.656-.9 1.213-2 .923-2 .813-2-.656.9-1.213 2m124.3.823c-3.1.611-6.126 3.993-6.088 6.803.01.647.252.283.723-1.08 1.054-3.049 3.743-5.346 6.26-5.346.527 0 1.07-.18 1.205-.4.275-.446.276-.446-2.1.023M54.2 282.8c.86.88 1.652 1.6 1.762 1.6s-.503-.72-1.362-1.6-1.652-1.6-1.762-1.6.503.72 1.362 1.6m131-1.272c-2.18.988-2.847 1.862-1.66 2.172.918.24 1.422 2.614 1.364 6.429-.054 3.604-.208 3.964-1.5 3.476-1.35-.513-1.328.142.047 1.416 2.007 1.86 6.012 2.404 5.87.797-.082-.921 1.464-3.739 3.338-6.085 1.413-1.771 1.572-2.133.93-2.133-.22 0-.4.264-.4.586s-.328.761-.728.976-1.05 1.075-1.44 1.914c-.97 2.083-4.372 4.972-4.575 3.887-.08-.42-.3-.956-.5-1.192s-.337-1.91-.326-3.721-.152-3.508-.364-3.771c-1.084-1.344-.977-3.8.193-4.434 1.112-.603.903-.848-.27-.317m6.85.818c1.974 1.252 3.624 3.913 2.758 4.448-.337.208-.274.372.215.56 2.364.907-.446-4.221-3.052-5.568-1.886-.976-1.842-.658.08.56m20.44-.646c-.223.275-.472.855-.552 1.29s-.595 1.017-1.144 1.294c-.672.34-.78.506-.332.51.763.007 2.736-2.175 2.736-3.025 0-.7-.18-.718-.708-.069m80.793-.077c.69.402-1.162 2.777-2.165 2.777-.37 0-1.215 1.804-1.688 3.6-.145.55.202.068.77-1.072 1.133-2.273 3.913-4.327 5.268-3.892.502.161.38-.088-.392-.801-.618-.569-1.428-1.03-1.8-1.023-.633.012-.632.039.007.411m-84.64.705c-.112.18.328.249.976.154s1.18-.242 1.18-.327c0-.305-1.957-.148-2.155.173M170.6 283.6c-.34.66-.53 1.2-.42 1.2s.48-.54.82-1.2.53-1.2.42-1.2-.48.54-.82 1.2m136 .4c.34.66.71 1.2.82 1.2s-.08-.54-.42-1.2-.71-1.2-.82-1.2.08.54.42 1.2m-229.8-.254c0 .11.54.584 1.2 1.054s1.2.764 1.2.654-.54-.584-1.2-1.054-1.2-.764-1.2-.654m84.8 3.054c-.45.88-.726 1.6-.616 1.6s.567-.72 1.016-1.6.726-1.6.616-1.6-.567.72-1.016 1.6m6 2.4c-.666 1.32-1.122 2.4-1.012 2.4s.746-1.08 1.412-2.4 1.122-2.4 1.012-2.4-.746 1.08-1.412 2.4m148.6-.8c.34.66.71 1.2.82 1.2s-.08-.54-.42-1.2-.71-1.2-.82-1.2.08.54.42 1.2m-32.975 1.54c-.033.713 1.16 3.203 1.692 3.532.26.16.322.006.165-.403-.18-.469.092-.842.932-1.276.652-.338 1.186-.704 1.186-.814s-.506.062-1.124.382c-1.286.665-1.87.431-2.43-.972-.217-.544-.406-.746-.42-.449m26.975.86c.34.66.71 1.2.82 1.2s-.08-.54-.42-1.2-.71-1.2-.82-1.2.08.54.42 1.2m8.4 2c.557 1.1 1.103 2 1.213 2s-.256-.9-.813-2-1.103-2-1.213-2 .256.9.813 2m44.44 1.64c-.147.917-.188 1.745-.093 1.84s.3-.57.453-1.48.196-1.738.093-1.84-.306.563-.453 1.48m-294.44-.633c.44.359 1.16.828 1.6 1.044l.8.393-.8-.651c-.44-.359-1.16-.828-1.6-1.044l-.8-.393.8.651m225.898-.107c-.8 1-.99 2.3-.338 2.3.367 0 .527-.229.397-.569-.12-.313-.018-.943.226-1.4.494-.922.335-1.106-.285-.331m1.486-.118c.5.315.47.505-.197 1.294-.748.885-.735.883.316-.046 1.332-1.178 1.388-1.632.197-1.624-.706.005-.774.086-.316.376M164.4 295.2c-.45.88-.726 1.6-.616 1.6s.567-.72 1.016-1.6.726-1.6.616-1.6-.567.72-1.016 1.6m-92.6.607c.44.359 1.16.828 1.6 1.044l.8.393-.8-.651c-.44-.359-1.16-.828-1.6-1.044l-.8-.393.8.651m278.32 2.04c-1.144 1.187-1.758 1.987-1.366 1.777.72-.385 3.645-3.455 3.645-3.825 0-.309-.07-.246-2.28 2.048m-36.32-.247c.34.66.71 1.2.82 1.2s-.08-.54-.42-1.2-.71-1.2-.82-1.2.08.54.42 1.2m-207-.438c.33.191 1.4.454 2.4.585 1.18.155 1.456.124.8-.09-1.655-.539-3.866-.881-3.2-.495m-31.6.617c0 .11.54.48 1.2.821s1.2.531 1.2.421-.54-.48-1.2-.821-1.2-.531-1.2-.421m246.878 1.521l.937 1.7 22.385.019-22.2-.231-.813-1.594c-.447-.877-.913-1.594-1.035-1.594s.2.765.716 1.7m-160.064.274c-.228.425-.414.965-.414 1.2 0 .3 22.734.397 77.1.327l77.1-.099-76.9-.102-76.9-.327c0-.124.186-.574.414-.999s.324-.774.214-.774-.386.348-.614.774m199.064.631c-.366.767-.583 1.395-.482 1.395.274 0 1.488-2.449 1.305-2.632-.087-.087-.457.47-.823 1.237M85.2 303c.55.314 1.18.572 1.4.572s-.05-.258-.6-.572-1.18-.572-1.4-.572.05.258.6.572m272.185 2.3l-1.985 2.1 2.1-1.985c1.95-1.844 2.283-2.215 1.985-2.215-.063 0-1.008.945-2.1 2.1M94.6 306.8c.44.189 1.07.344 1.4.344.378 0 .304-.127-.2-.344-.44-.189-1.07-.344-1.4-.344-.378 0-.304.127.2.344m253.2 3.815c-1.584.548-1.586.551-.2.323.77-.126 1.67-.384 2-.572.88-.502.03-.384-1.8.249m-237.295.072c.61.092 1.51.09 2-.005s-.005-.171-1.105-.168-1.503.081-.895.173m3.592.365c.65.191.704 1.701.805 22.377L115 355.6l-.005-22.295c-.005-21.998-.016-22.295-.805-22.377-.615-.063-.64-.035-.103.124m12.086.648c-.105.275-.143 9.23-.083 19.9l.108 19.4.192-39.399 217-.202-108.513-.1c-86.514-.079-108.55.002-108.704.401m130.986 9.869c-.65.651-1.16 1.582-1.146 2.1.017.736.122.637.5-.469.325-.954.923-1.623 1.877-2.099.868-.434 1.122-.7.67-.7-.402-.001-1.257.525-1.9 1.168m15.874-.536c-.6 1.561-.26 15.656.39 16.195 1.445 1.199 1.952.027 2.166-5.016l.2-4.704 1.598 3.283c.88 1.806 1.744 3.373 1.923 3.484s-.497-1.436-1.502-3.437c-2.368-4.715-2.572-4.62-2.707 1.262-.105 4.596-.162 4.9-.912 4.9-.774 0-.8-.267-.8-8.3l-.057-8.3c-.032 0-.167.285-.3.633m-130.642.765c-.515.55-.862 1.066-.77 1.148s.587-.368 1.098-.999c1.146-1.412.944-1.503-.33-.149m30.875 1.902c-.066 2.336.018 2.699.624 2.694.472-.004.545-.105.223-.31-.263-.167-.544-1.379-.625-2.694l-.147-2.39-.075 2.7m116.892 5.3c0 4.4.058 6.255.13 4.121a149.17 149.17 0 0 0 .001-8c-.072-2.266-.13-.521-.13 3.879m37.694-6.7c-.102.165.32.3.938.3s1.04-.135.938-.3-.524-.3-.938-.3-.836.135-.938.3m-41.882 2.539c-.46.901-.767 1.707-.683 1.791s.544-.654 1.022-1.639c1.1-2.244.796-2.376-.34-.152m-144.687-.039c0 .77.082 1.085.183.7s.1-1.015 0-1.4-.183-.07-.183.7m114.34.336c-.018.295-.437.868-.932 1.274-.9.73-.89.746-.122 1.464.753.702.76.702.22-.012-.495-.653-.452-.818.375-1.441.518-.391.834-.952.71-1.263-.175-.443-.227-.448-.252-.022m-193.132.34c.385.1 1.015.1 1.4 0s.07-.183-.7-.183-1.085.082-.7.183m243.4.123c.892 1.001.69 11.601-.22 11.601-.396 0-.89-.148-1.1-.328s-1-.101-1.78.177c-.887.321-1.107.512-.6.522.44.009 1.054-.144 1.364-.34.344-.218.832-.191 1.247.069.376.234.977.313 1.336.176 1.015-.39.972-11.137-.047-11.908-.596-.45-.625-.446-.2.031m-247 .277c.385.1 1.015.1 1.4 0s.07-.183-.7-.183-1.085.082-.7.183m85.262.424c.42.495 1.14.879 1.6.854.806-.045.807-.054.038-.242-.44-.107-1.16-.491-1.6-.853-.793-.654-.794-.652-.038.241m114.062-.261c.093.15.788.345 1.544.433s1.3.038 1.208-.111-.788-.345-1.544-.433-1.3-.038-1.208.111m39.376 3.558c.193 3.793.854 5.603 2.044 5.603.176 0-.122-.442-.662-.982-.897-.897-.982-1.293-.982-4.576 0-1.977-.135-3.679-.3-3.781s-.2 1.578-.1 3.736m7.003-3.497c-.297.862-.417 7.478-.13 7.182.256-.265.657-7.685.414-7.683-.06.001-.2.226-.284.501m23.172.021c-.1.287-.15 2.852-.086 5.7l.115 5.179.198-5.701c.195-5.615.17-6.21-.227-5.178m-170.4 1.179l-1.175 1.3 1.3-1.175c1.212-1.095 1.484-1.425 1.175-1.425-.07 0-.654.585-1.3 1.3m180.717-.679c-.487.341-1.08 1.016-1.316 1.5l-.43.879.727-.888c.4-.489 1.087-1.158 1.527-1.487 1.06-.795.625-.798-.508-.004m-172.947.274c.3.382.436.976.304 1.321-.138.36-.072.522.156.381.61-.378.468-1.241-.305-1.848-.633-.497-.648-.483-.155.146m23.89.736c-.57.677-1.03 1.442-1.024 1.7s.21.109.455-.331.81-1.205 1.257-1.7.7-.9.58-.9-.7.554-1.27 1.231m26.21-.25a14.52 14.52 0 0 1 1.088 1.619c.244.44.448.578.455.306s-.483-1-1.088-1.619-.8-.757-.455-.306m72.22-.408c-.133.345-.067.627.147.627.228 0 .387 1.962.387 4.776 0 2.627.135 4.861.3 4.963s.245-2.182.178-5.076c-.115-4.945-.458-6.735-1.012-5.29m25.157.316c-.892 1.273-.775 2.858.277 3.749.9.761.9.761.2-.069-.867-1.03-.898-2.509-.077-3.68.342-.489.532-.889.422-.889s-.48.4-.822.889m-169.52 1.011c.518.495 1.247.889 1.62.875.45-.017.346-.158-.314-.421-.545-.218-1.274-.612-1.62-.875s-.204-.074.314.421m141.097.1c-.34.66-.53 1.2-.42 1.2s.48-.54.82-1.2.53-1.2.42-1.2-.48.54-.82 1.2m-35.672-.144c.18.271.48.999.665 1.618.274.913.345.964.373.27.02-.47-.28-1.199-.666-1.619s-.553-.541-.372-.269m-69.328.664c.385.487.683 2.074.83 4.42l.23 3.66.07-3.478c.063-3.113-.024-3.576-.83-4.419-.495-.518-.63-.6-.3-.183m2.256-.52c.174.33.435 1.32.58 2.2l.264 1.6.05-1.424c.027-.782-.233-1.772-.58-2.2s-.487-.506-.314-.176m9.345.598c-.515.55-.862 1.066-.77 1.148s.587-.368 1.098-.999c1.146-1.412.944-1.503-.33-.149m17.228.056c-.456.58-.818 1.345-.804 1.7.016.391.182.254.42-.346a6.81 6.81 0 0 1 1.037-1.7c.353-.389.536-.708.408-.708s-.606.474-1.062 1.054m5.605-.007c.53.686 1.046 1.176 1.145 1.088s-.336-.649-.966-1.247l-1.144-1.088.965 1.247m42.114 3.353c0 2.31.066 3.255.147 2.1a36.33 36.33 0 0 0 0-4.2c-.08-1.155-.147-.21-.147 2.1m-17.9-2.985c-.137.358-.224 1.401-.193 2.318.053 1.568.073 1.537.336-.533.298-2.345.26-2.832-.143-1.785m-88.325.385c.202.44.468 1.07.6 1.4.193.518.227.515.254-.024.018-.342-.248-.972-.6-1.4-.612-.764-.616-.763-.254.024m90.5.174c-.228.425-.396 1.19-.373 1.7.033.743.1.682.336-.309.162-.679.425-1.444.583-1.7s.193-.465.078-.465-.396.348-.624.774m-92.663.31c.193.286.5 1.105.66 1.818.283 1.19.312 1.21.35.242.023-.58-.274-1.399-.66-1.819s-.542-.528-.35-.241m-69.15-.027c3.604 3.485 6.195 5.706 4.2 3.602-1.2-1.277-2.74-2.696-3.4-3.155s-1.02-.659-.8-.447m109.51 1.343c0 .99.078 1.395.173.9s.096-1.305 0-1.8-.173-.09-.173.9m-30.016 0c0 .77.082 1.085.183.7s.1-1.015 0-1.4-.183-.07-.183.7m15.647 2c0 1.87.07 2.635.153 1.7a22.97 22.97 0 0 0 0-3.4c-.084-.935-.153-.17-.153 1.7m43.553-2c0 .77.082 1.085.183.7s.1-1.015 0-1.4-.183-.07-.183.7m65.46.5c-.26.495-.672 1.032-.914 1.194-.307.205-.292.296.05.3.27.003.77-.534 1.1-1.194s.532-1.2.424-1.2-.41.405-.67.9M44.18 333.3L42.6 335l1.7-1.581c.935-.87 1.7-1.635 1.7-1.7 0-.303-.348 0-1.82 1.581m137.893 1.372c-.066 2.218-.167 2.49-.974 2.646l-.9.173.913.055c1.154.068 1.37-.512 1.184-3.194l-.15-2.152-.074 2.472m113.56-1.648c-.02.452.25 1.172.596 1.6s.507.537.357.245-.418-1.013-.596-1.6c-.258-.858-.33-.906-.357-.245m42.366-.335c0 .232.37.847.824 1.367l.823.944-.702-1.2c-.925-1.579-.945-1.603-.945-1.111m-132.788.817c-.007.278.573 1.096 1.288 1.818s.92.855.454.295-1.046-1.379-1.288-1.819-.447-.572-.454-.294m-64.677.718c-.237.618 1.64 2.976 2.37 2.976.195 0-.212-.478-.906-1.061-.833-.701-1.196-1.312-1.068-1.8.235-.898-.063-.984-.397-.115m171.732-.357c-.498.497-.27 1.633.433 2.165.596.45.625.446.2-.031-.72-.807-.615-1.912.2-2.125.56-.147.574-.192.067-.23-.35-.025-.754.074-.9.221m-155.265 1.674c.938 1.108 2.664 2.066 3.678 2.041.396-.009.028-.264-.818-.565s-2.014-.969-2.597-1.483l-1.06-.934.796.941m90.75.084c-.454.454-1.53 1.076-2.39 1.383s-1.24.565-.844.574c.962.024 2.705-.905 3.643-1.941.98-1.083.67-1.095-.4-.016m-205.83.275c-.705.821-1.233 1.7-1.022 1.7.082 0 .548-.54 1.036-1.2.964-1.304.955-1.628-.014-.5m278.355.313c-.618.543-.964.987-.77.987s.775-.45 1.292-1c1.195-1.272.93-1.266-.522.013m24.8 0c-.618.543-.964.987-.77.987s.775-.45 1.292-1c1.195-1.272.93-1.266-.522.013m-181.878.812c-.966.366-1.145.537-.576.552.452.013 1.172-.241 1.6-.564.91-.69.83-.689-1.024.012M37.845 343.45c-.355 1.041-.632 2.085-.616 2.321s.376-.547.8-1.739.7-2.237.616-2.322-.444.698-.8 1.74m50.623 1.35c.02 1.039.65 2.746.664 1.8.006-.44-.143-1.16-.332-1.6-.21-.49-.34-.568-.332-.2m-52.675 7.738c-.155 1.649-.2 3.237-.103 3.53s.304-.977.458-2.821.2-3.432.103-3.53-.304 1.172-.458 2.821M125.72 354c0 1.21.075 1.705.167 1.1a8.9 8.9 0 0 0 0-2.2c-.092-.605-.167-.11-.167 1.1m-11.22 3.4c.004.88.086 1.193.182.695s.092-1.217-.008-1.6-.18.025-.174.905m-78.698 3.901c.087 1.925.35 3.815.583 4.2.34.561.375.477.17-.429-.14-.62-.403-2.51-.582-4.2l-.327-3.072.157 3.501m46.975 8.199L81.4 371l1.5-1.378c1.396-1.284 1.684-1.622 1.378-1.622-.066 0-.74.675-1.5 1.5m-45.35-.3c.147.55.435 1.27.638 1.6.258.417.3.295.104-.4-.147-.55-.435-1.27-.638-1.6-.258-.417-.3-.295-.104.4m31.77 8.4c-.824.264-.86.326-.2.354.44.019 1.07-.141 1.4-.354.7-.453.214-.453-1.2 0m-3.633 1.345c.533.656 2.033 1.648 2.033 1.344 0-.076-.585-.567-1.3-1.09-.804-.589-1.084-.686-.733-.254M46.2 382.8c.86.88 1.652 1.6 1.762 1.6s-.503-.72-1.362-1.6-1.652-1.6-1.762-1.6.503.72 1.362 1.6m68.168 1.7c-1.184 1.375-1.836 2.248-1.448 1.941.814-.647 4.042-4.441 3.777-4.441-.097 0-1.146 1.125-2.33 2.5m-30.568.3l-4.8.239 4.6.074c2.53.041 4.87-.1 5.2-.313s.42-.354.2-.313-2.56.182-5.2.313m-31.652 2.941c1.075.905 4.718 3.085 4.227 2.53-.123-.14-1.383-.983-2.8-1.875s-2.058-1.186-1.427-.655m4.652 2.855c0 .274 2.45 1.488 2.632 1.305.087-.087-.47-.457-1.237-.823s-1.395-.583-1.395-.482m47.5 1.633c-1.495.811-1.404 1.149.1.371.66-.341 1.2-.706 1.2-.81 0-.258-.043-.243-1.3.439m-39.7 1.926c.66.3 1.65.656 2.2.791.803.197.764.138-.2-.301-.66-.3-1.65-.656-2.2-.791-.803-.197-.764-.138.2.301m27.8 2.245c-1.367.288-1.372.295-.2.319.66.014 1.56-.13 2-.319.962-.413.164-.413-1.8 0m-10.51 1.089c.7.088 1.97.09 2.8.003s.25-.159-1.29-.161-2.22.069-1.51.158" fill="#7c7c7c"/><path d="M308.226 128.611c-.453.227-.842.677-.864 1-.097 1.427-.218 1.589-1.182 1.589-1.08 0-2.18 1.83-2.18 3.626 0 1.184 2.697 3.506 4.4 3.788l2.3.417c.62.127.9-.005.9-.423 0-.335.158-.608.35-.608.516 0 1.284 1.032.988 1.327-.57.57 1.064.691 1.93.143 1.003-.636 3.417-1.28 4.232-1.128.695.129.665-4.373-.04-6.061-.563-1.346-3.13-3.866-3.974-3.901-4.164-.175-6.182-.107-6.86.231m21.974-.031c-1.62.705-3.57 2.821-3.182 3.449.186.301.14.393-.114.235-.613-.379-.997.941-.462 1.587.616.742 1.438.692 1.9-.115.204-.366.978-.861 1.72-1.1 1.202-.389 1.376-.631 1.602-2.236.3-2.205.083-2.489-1.454-1.82m-17.877 2.65c-.078.236-.314.43-.523.43s-.444-.194-.523-.43.156-.43.523-.43.602.194.523.43m-3.356 1.013c.814.312.81 1.113-.01 1.793-.857.711-2.022-.635-1.3-1.503.5-.615.48-.609 1.31-.29m29.933 5.017c-.254.254-1.055.503-1.78.554-3.216.227-7.714 2.153-8.052 3.449-.317 1.212 2.78 2.492 5.42 2.238 3.648-.35 7.982-4.656 6.112-6.07-.977-.739-1.118-.753-1.7-.171m-192.946 78.867c-1.53.573-3.954 2.155-3.954 2.58 0 .139.2.043.466-.213.355-.355.57-.329.9.108.55.728 4.434.271 4.434-.522 0-1.208 2.727-1.767 3.157-.647.503 1.311.256 1.767-.957 1.767-.66 0-1.2.18-1.2.4s.602.4 1.338.4c1.395 0 2.662.985 2.662 2.07 0 1.695 2.923 2.541 4.138 1.199 3.192-3.527-5.516-9.188-10.984-7.142m64.135.096c-.93.652-1.44 12.177-.54 12.177.193 0 .45.506.575 1.124.487 2.437 3.01 2.353 3.138-.104.043-.837.15-.592.337.78.17 1.241.298-.848.337-5.5.075-8.942-.71-10.674-3.848-8.477m109.25-.277c-3.7.663-4.884 1.534-4.445 3.267.523 2.058 1.787 2.516 4.744 1.719 5.495-1.482 11.457.913 15.17 6.094.894 1.248 4.87 2.238 4.758 1.185-.02-.177.177-.452.436-.612 1.487-.919-5.304-8.835-7.447-8.682-.892.064-1.18-.103-1.272-.737-.245-1.706-7.413-3.047-11.944-2.234m5.795 1.63c.1.62-.038.857-.4.737-.294-.097-.594-.587-.668-1.089-.1-.62.038-.857.4-.737.294.097.594.587.668 1.089m-60.995.353c-.932.611-.964 2.912-.058 4.184.49.69.622 1.078.298.884s.273.522 1.314 1.586c2.264 2.313 3.304 4.339 3.993 7.778.544 2.709 1.62 4.006 3.435 4.143.483.036.882.253.885.481s.18.145.394-.185c1.483-2.295-1.45-13.186-3.556-13.206-.496-.005-.524-.083-.12-.338.383-.243-.087-.89-1.75-2.409-2.527-2.309-4.212-3.326-4.836-2.918m-33.34 7.38c0 6.459.48 8.291 2.177 8.291.747 0 1.013-.335 1.42-1.793.276-.986.66-1.695.852-1.576s.33-1.189.303-2.907c-.035-2.289-.13-2.803-.353-1.924l-.305 1.2-.048-1.456c-.053-1.637-2.295-5.26-3.386-5.473-.6-.116-.66.489-.66 5.638m-44.828-3.809c-.02.755-.113.902-.3.468-.302-.701-2.872-.304-2.872.443 0 .781-.75.363-.918-.511-.095-.495-.198 1.481-.228 4.39l-.054 5.29.992-.377c.545-.207 1.615-.419 2.378-.47l1.388-.094.12-5.12c.066-2.816-.014-5.12-.18-5.12s-.313.496-.328 1.101m63.183-.808c-2.702.216-2.773.516-2.724 11.527l.042 9.358 1.24 1.211c.68.667 1.64 1.212 2.13 1.212s.978.225 1.086.5.258-5.035.333-11.8.048-12.268-.062-12.228-1.03.139-2.045.22m60.21 1.313c-1.77.68-4.894 7.037-4.28 8.705.577 1.565 2.585 1.762 3.515.343 1.28-1.956 2.147-5.127 1.68-6.154-.327-.719-.31-1.162.074-1.776.625-1 .137-1.552-.99-1.118M292 226.745c0 .565-.226.701-.937.565-.515-.099-1.198.061-1.517.355a8.87 8.87 0 0 1-1.363.978c-1.003.568-1.427 12.091-.473 12.882.9.746 3.885 1.071 3.918.426.016-.308.184-.198.38.249.216.491.344-2.486.332-7.7-.01-4.675-.09-8.5-.18-8.5s-.16.335-.16.745m-107.428 1.126c.415 1.083-.803 2.07-1.587 1.286-.75-.751-.372-1.957.615-1.957a1.13 1.13 0 0 1 .972.671m119.972 6.529c0 2.09.068 2.945.15 1.9a29.38 29.38 0 0 0 0-3.8c-.082-1.045-.15-.19-.15 1.9m-151.24-1.707c-.544 1.153-.052 2.507.91 2.507.984 0 .654.675-.58 1.186l-1.166.483.833 1.412c.77 1.305.976 3.142.62 5.519-.086.571.137.836.78.928.495.07.9.31.9.533s.21.336.465.251c.52-.174.726-.881 1.024-3.512.112-.99.526-2.254.92-2.809 1.012-1.427-.512-4.584-3.257-6.743-.97-.763-.973-.762-1.45.245m185.556 1.585c-.297.119-.878.96-1.29 1.869-.51 1.126-.765 1.398-.795.853-.024-.44-.277.044-.56 1.076-.934 3.389-4.15 7.24-7.134 8.537-.703.306-1.008.568-.678.584.394.019.236.3-.46.821-.762.569-1 1.031-.84 1.64.156.594-.065 1.064-.736 1.57-.875.66-.896.746-.237.999.862.331 4.716-.658 4.782-1.227.085-.721.883-1.327 1.3-.988.232.189.834.004 1.4-.431.546-.42.842-.767.657-.772-.288-.008.253-.788 2.163-3.114.227-.278.316-.664.195-.859-.434-.702.3-2.943 1.025-3.132.4-.105.826-.504.947-.886.363-1.142 2.174-1.798 1.902-.689-.118.479-.107.776.023.66.405-.362 1.02-3.598.638-3.362-.196.121-.357-.15-.357-.603s.18-.824.4-.824.4-.341.4-.757c0-1.05-1.34-1.522-2.74-.965m-29.795 8.681c-.365.557-.664 1.3-.664 1.651 0 .403-.183.527-.5.337-.34-.204-.324-.084.05.376.302.372.797.677 1.1.677s.55.323.55.718c0 1.249 6.4 5.51 7.677 5.112.288-.09.995-.266 1.572-.392 1.748-.38 2.646-3.838.997-3.838-1.286 0-4.363-1.677-6.158-3.357-2.464-2.304-3.726-2.655-4.624-1.284m-43.43 1.204c-1.198 1.275-5.624 3.63-6.635 3.53l-.8-.08.8.365c2.046.935 7.295.492 8.134-.685 1.273-1.789 1.127-3.922-.233-3.4-.418.161-.534.085-.343-.225.472-.765.044-.535-.923.495m-127.82.939c-.48 1.248-.143 2.194 1.35 3.807 1.53 1.653 4.47 3.717 3.836 2.693-.248-.402.02-.446 1.24-.204 2.962.587 6.376.058 6.045-.937-.048-.145.678-.982 1.612-1.862 1.64-1.543 2.16-2.599 1.277-2.599-.233 0-.29-.214-.13-.475s-.438.113-1.333.832c-2.834 2.278-6.55 2.075-8.793-.481-1.257-1.431-4.654-1.946-5.104-.774m45.94 5.69c-.825.333-1.614 1.575-1.043 1.641l1.287.152c1.406.166 2.565-.878 1.81-1.631-.625-.625-.862-.644-2.055-.162m39.65.629c-1.93.542-.75 1.602 1.287 1.155 1.9-.417 2.1-.53 1.89-1.075-.248-.647-1.086-.668-3.178-.08m-17.666 23.285c-.3.191-.43 1.464-.376 3.633.08 3.157.035 3.358-.84 3.69-2.905 1.104 1.624 4.223 4.928 3.394l1.096-.275-1.142-.91c-1.638-1.306-1.16-2.425.9-2.109 4.332.666 4.183-5.698-.172-7.354-1.17-.444-3.743-.485-4.396-.069m63.46-.025c-.945.344-2.794 2.206-2.562 2.58.115.187.027.339-.196.339-1.568 0-.7 4.82 1.194 6.634 4.478 4.29 11.643-1.964 8.38-7.315-1.18-1.933-5.616-3.608-5.616-2.119 0 .22-.19.4-.424.4s-.312-.18-.176-.4c.27-.436.272-.436-.6-.119m5.988 2.535c-.754.477-1.188.482-1.188.013 0-.38 1.25-.8 1.588-.534.104.082-.076.316-.4.521m20.61 5.552c.253.429.164.503-.362.301-1.455-.559-4.104 1.576-5.425 4.372-.967 2.047-1.608 2.829-3.09 3.768-2.304 1.462-2.485 2.472-.688 3.844 2.754 2.1 7.5 2.305 7.625.329.1-1.546.915-2.273 2.386-2.101 3.31.386 3.42-7.449.144-10.281-.51-.44-.775-.544-.59-.232m-113.76.986c-1.68 2.025-2.073 5.85-.87 8.497.717 1.579 1.904 2.919 1.383 1.562-.204-.53-.076-.565.82-.225 1.33.506 1.477.18 1.546-3.459.095-4.966-1.364-8.198-2.877-6.375m10.935 5.546c-4.593 5.968-4.767 9.016-.35 6.122 3.11-2.038 4.724-8.14 2.173-8.216-.113-.003-.933.939-1.822 2.094" fill="#a16e34"/></svg>