<?xml version="1.0" standalone="no"?>
<!DOCTYPE svg PUBLIC "-//W3C//DTD SVG 20010904//EN"
 "http://www.w3.org/TR/2001/REC-SVG-20010904/DTD/svg10.dtd">
<svg version="1.0" xmlns="http://www.w3.org/2000/svg"
 width="200.000000pt" height="200.000000pt" viewBox="0 0 200.000000 200.000000"
 preserveAspectRatio="xMidYMid meet">

<g transform="translate(0.000000,200.000000) scale(0.100000,-0.100000)"
fill="#000000" stroke="none">
<path d="M427 1620 c-52 -10 -88 -38 -114 -90 -23 -44 -23 -46 -23 -530 0
-484 0 -486 23 -530 12 -25 37 -55 56 -67 l34 -23 597 0 597 0 34 23 c19 12
44 42 57 67 19 39 22 59 22 170 0 134 -5 150 -47 150 -34 0 -43 -34 -43 -170
0 -177 67 -160 -621 -160 l-568 0 -28 24 -28 24 0 492 0 492 28 24 28 24 568
0 c560 0 569 0 595 -21 l26 -20 0 -264 c0 -147 4 -275 10 -289 10 -28 47 -35
68 -14 9 9 12 86 12 283 0 261 -1 272 -22 315 -28 54 -62 80 -119 91 -54 10
-1089 10 -1142 -1z"/>
<path d="M664 1296 c-30 -30 -34 -40 -34 -84 0 -39 6 -57 25 -81 76 -90 215
-40 215 78 0 76 -48 121 -131 121 -33 0 -47 -6 -75 -34z"/>
<path d="M1260 1139 c-27 -12 -89 -64 -165 -139 -67 -66 -127 -120 -134 -120
-7 0 -36 20 -64 45 -63 55 -110 70 -169 54 -34 -9 -66 -34 -155 -122 l-113
-111 0 -93 c0 -81 2 -94 19 -103 27 -14 1015 -14 1042 0 18 10 19 24 19 275
l0 264 -32 24 c-69 51 -170 62 -248 26z"/>
</g>
</svg>
