<?xml version="1.0" standalone="no"?>
<!DOCTYPE svg PUBLIC "-//W3C//DTD SVG 20010904//EN"
 "http://www.w3.org/TR/2001/REC-SVG-20010904/DTD/svg10.dtd">
<svg version="1.0"  xmlns="http://www.w3.org/2000/svg"
     width="160" height="160"
     viewBox="0 0 320 320"
     preserveAspectRatio="xMidYMid meet">

<g transform="translate(150,200) scale(0.01,-0.01)"
fill="#FFFFFF" stroke="none">
<path d="M1524 3166 l-34 -34 0 -332 0 -332 34 -34 c39 -39 86 -45 136 -19 58
30 60 43 60 385 0 342 -2 355 -60 385 -50 26 -97 20 -136 -19z"/>
<path d="M2292 2975 c-20 -15 -77 -107 -269 -435 -45 -76 -73 -136 -73 -153 0
-88 112 -146 182 -93 10 7 88 132 174 277 182 307 189 326 131 384 -29 29 -42
35 -79 35 -24 0 -53 -7 -66 -15z"/>
<path d="M2589 2329 c-270 -160 -319 -199 -319 -249 0 -38 23 -84 52 -104 51
-36 79 -24 343 134 305 184 302 181 316 229 21 70 -34 141 -109 141 -20 0
-111 -49 -283 -151z"/>
<path d="M2463 1700 c-28 -11 -63 -66 -63 -98 0 -45 28 -92 64 -107 54 -23
624 -22 671 1 35 16 65 65 65 106 0 33 -36 87 -66 98 -32 13 -641 12 -671 0z"/>
<path d="M2348 1249 c-15 -6 -36 -25 -48 -43 -28 -47 -26 -89 8 -126 15 -16
146 -97 291 -180 298 -169 310 -173 367 -116 27 27 34 42 34 73 -1 21 -7 49
-14 62 -16 29 -537 331 -581 336 -16 3 -42 0 -57 -6z"/>
<path d="M1082 907 c-18 -11 -69 -77 -59 -77 2 0 23 20 47 45 47 48 48 52 12
32z"/>
<path d="M2015 910 c-38 -15 -67 -57 -69 -97 0 -32 25 -82 148 -298 82 -143
162 -272 177 -287 64 -61 179 -10 179 79 0 40 -283 543 -330 586 -31 27 -66
33 -105 17z"/>
<path d="M1034 757 c-82 -84 -160 -172 -173 -197 -19 -37 9 -13 163 140 102
102 186 188 186 191 0 4 -6 9 -14 12 -9 4 -70 -52 -162 -146z"/>
<path d="M987 582 c-157 -157 -247 -254 -247 -267 0 -14 80 60 255 235 227
227 274 280 247 280 -4 0 -118 -111 -255 -248z"/>
<path d="M1553 783 c-60 -30 -63 -48 -63 -383 0 -346 2 -357 72 -385 49 -19
97 -7 128 32 19 25 20 40 20 352 0 362 0 359 -66 387 -41 17 -51 17 -91 -3z"/>
<path d="M945 420 c-145 -145 -176 -180 -161 -186 33 -13 367 339 344 361 -2
3 -84 -76 -183 -175z"/>
<path d="M909 254 c-18 -20 -28 -35 -20 -32 13 4 69 68 59 68 -2 0 -20 -16
-39 -36z"/>
</g>
</svg>
