<svg xmlns="http://www.w3.org/2000/svg" width="400" height="374.067" viewBox="0 0 400 NaN" fill-rule="evenodd"><path d="M160.302 58.512c-6.18 1.429-10.406 5.543-12.144 11.823l-.467 1.69-.096 72.026-3.06 2.015c-3.864 2.545-7.17 4.505-14.87 8.819-6.723 3.765-10.163 5.791-13.41 7.898-27.942 18.131-34.57 46.086-16.443 69.371 10.52 13.514 29.044 24.64 44.507 26.733l2.71.371.577.083-.001 14.513c0 15.714-.024 16.171-.983 19.207-4.247 13.444-20.012 19.095-30.9 11.076l-.888-.654 1.428-.205c13.632-1.954 19.525-19.032 9.993-28.96-9.798-10.206-25.982-5.678-29.6 8.283-3.654 14.102 3.62 26.211 18.837 31.359 16.558 5.602 32.482-1.276 37.338-16.128 1.73-5.291 1.924-7.596 2.044-24.209l.1-14.032 72.203-.091 73.2-.399c4.93-1.521 8.367-5.044 9.57-9.813.357-1.411.36-1.781.313-43.073l-.046-41.65-.5-1.421c-1.783-5.081-6.092-8.531-11.417-9.141-1.05-.12-25.4-.182-72.43-.183l-70.846-.001 1.99-2.069c19.026-19.791 30.933-52.962 26.26-73.153-3.12-13.477-13.246-22.332-22.97-20.085m4.186 12.996c3.85 1.125 7.37 6.309 8.673 12.773 2.435 12.076-2.182 31.065-11.23 46.181-2.363 3.947-6.338 9.325-6.892 9.325-.102 0-.145-11.543-.113-29.974l.052-29.973.398-1.421c1.45-5.173 5.236-8.045 9.112-6.911m96.377 67.991c-3.805 1.066-5.05 5.838-2.25 8.636 3.278 3.279 8.77.998 8.77-3.641 0-3.453-3.22-5.92-6.52-4.995m29.588-.103c-.22.033-.4.18-.4.327 0 .303-.417.774-.686.774-.212 0-.044 1.303.18 1.391.187.074-.288.563-.546.563-.104 0-.2.08-.2.178s-.222.177-.494.177c-.3 0-.6.147-.75.356-.14.195-.44.355-.66.355s-.405.074-.405.165-.18.191-.4.222c-.56.08-.524 1.572.07 2.753.45.894 1.025 1.382 1.168.99.044-.123.234-.222.42-.222s.34-.08.34-.178.16-.178.356-.178c.23 0 .355-.118.355-.335 0-.261.177-.361.8-.455.44-.066.8-.195.8-.286s.28-.167.62-.167.622-.08.622-.178.16-.177.355-.177.355.08.355.177.24.178.533.178.533-.08.533-.178.273-.177.607-.177.653-.1.7-.222c.083-.178.125-.178.208 0 .327.701.962.224.962-.724 0-2.966-2.74-5.537-5.462-5.129m-14.65.164a4.74 4.74 0 0 0 1.066-.001c.267-.041.006-.073-.58-.072s-.805.034-.486.073m-3.037 1.411c-.245.244-.106.592.237.592a.31.31 0 0 0 .355-.355c0-.342-.348-.482-.592-.237m1.302.059c0 .098.12.178.267.178s.266.08.266.177.08.178.178.178.178-.16.178-.355c0-.261-.12-.355-.444-.355-.245 0-.445.08-.445.177m2.176.444c-.307.349-.28.444.134.444a.31.31 0 0 0 .355-.355c0-.413-.175-.446-.49-.089m-2.53 1.51c0 .59.58.777.78.252.21-.551.11-.785-.337-.785-.375 0-.444.083-.444.533m5.15-.355c0 .097.16.177.355.177s.356-.08.356-.177-.16-.178-.356-.178-.355.08-.355.178m-1.598.71c0 .098.16.178.355.178s.355-.08.355-.178-.16-.177-.355-.177-.355.08-.355.177m-5.765 2.354c.906 4.199 6.745 5.315 9.208 1.761.756-1.091-.116-1.709-1-.701-.3.334-.37.354-.523.133-.137-.197-.203-.207-.27-.039-.05.122-.204.222-.342.222s-.252.08-.252.178c0 .36-1.855.206-2.13-.178-.187-.26-.46-.355-1.016-.355-.418 0-.76-.08-.76-.178s-.314-.177-.698-.177c-.693 0-.926-.142-1.43-.867-.435-.628-.947-.499-.796.201m4.877.755c0 .165.167.266.444.266.496 0 .595-.259.163-.425-.445-.171-.607-.128-.607.159m-128.775 57.66V251.2l-.932-.12c-4.373-.563-11.635-2.808-16.386-5.065-24.532-11.654-30.394-38.554-13.32-61.117 5.023-6.637 10.442-11.728 22.258-20.91 2.985-2.32 6.072-4.835 6.86-5.588l1.476-1.377c.024-.004.044 21.184.044 47.085M298.77 160.85c1.987.581 3.377 1.802 4.32 3.795l.55 1.163.053 40.231c.054 42.094.064 41.537-.71 43.055-.552 1.082-2.036 2.538-3.14 3.081l-.997.489-14.956.103-6.647-12.466c-5.975-11.206-6.7-12.5-7.262-12.796-.82-.439-81.603-.524-82.65-.087-.755.315-.19-.67-7.585 13.213l-6.458 12.122h-18.462l.118-13.617.118-46.093v-32.475h71.37l72.336.282m-41.93 3.804c-.324.324-.355.592-.355 3.108v2.753h-.764c-.886 0-1.2.233-1.2.914 0 .603.576 1.04 1.372 1.04h.582v3.899c0 6.431.735 7.859 4.19 8.136 2.33.187 2.664-1.61.358-1.923-2.334-.316-2.584-.911-2.59-6.16l-.004-3.952h1.115c1.324 0 1.904-.317 1.904-1.04 0-.756-.297-.914-1.722-.914h-1.297v-2.832c0-3.312-.455-4.173-1.6-3.029m14.388-.232c-.628.224-.71.617-.71 3.374v2.719h-.764c-.886 0-1.2.233-1.2.914 0 .599.575 1.04 1.356 1.04h.566l.066 4.396c.072 4.787.158 5.251 1.174 6.322 1.086 1.143 3.823 1.81 4.53 1.102.725-.725.086-1.696-1.12-1.696-2.173 0-2.564-.889-2.633-5.994l-.057-4.13h1.127c2.606 0 2.815-1.877.222-1.989l-1.236-.054-.046-2.753c-.05-3.119-.25-3.622-1.286-3.251m-103.857 6.341c-6.035 1.965-6.56 10.521-.81 13.215 3.197 1.498 9.608-.638 7.538-2.512-.457-.413-.64-.378-1.827.355-3.466 2.139-7.792-.243-7.792-4.29 0-4.173 4.786-6.609 8.067-4.106.717.547 1.178.588 1.583.14 1.522-1.682-3.635-3.82-6.76-2.802m17.942.073c-5.9 2.098-6.32 10.34-.685 13.093 2.184 1.067 5.15.777 7.212-.703l.88-.632v.582c0 .804.436 1.371 1.054 1.371.898 0 .927-.161.867-4.739l-.056-4.231-.522-1.065c-1.56-3.187-5.49-4.837-8.75-3.676m18.644.016c-2.652.983-3.817 2.987-2.872 4.938.502 1.037 1.172 1.388 5.18 2.713 4.237 1.401 4.534 1.683 3.188 3.028-1.59 1.592-4.507 1.434-6.68-.36-1.006-.831-1.06-.841-1.615-.285s-.434.978.562 1.896c4.078 3.759 12.247.836 9.996-3.578-.5-.98-1.002-1.238-4.99-2.568-4.383-1.462-4.815-1.891-3.268-3.25 1.618-1.42 4.443-1.236 6.456.422 1.715 1.412 2.927.368 1.442-1.244-1.674-1.816-5.027-2.591-7.4-1.712m17.595-.091c-2.7.883-4.114 3.184-3.104 5.085.506.953 1.184 1.301 5.016 2.578 3.843 1.282 4.25 1.536 3.907 2.44-.8 2.105-4.842 2.326-7.11.388-1.04-.886-1.276-.944-1.786-.435-.547.548-.432.945.54 1.853 4.24 3.966 12.71.791 9.935-3.725-.472-.768-1.25-1.137-5.015-2.384-4.072-1.349-4.58-1.789-3.415-2.955 1.6-1.609 4.634-1.533 6.738.17 1.057.855 1.138.883 1.617.569 2.444-1.601-3.89-4.702-7.32-3.584m18.645.075c-7.205 2.567-5.69 13.315 1.928 13.679 2.978.143 5.867-1.421 5.14-2.781-.35-.653-.826-.631-1.995.091-2.917 1.8-6.672.375-7.7-2.917l-.123-.4h5.772c6.78 0 6.423.1 6.29-1.766-.3-4.322-5.152-7.391-9.32-5.906m46.36 0c-4.868 1.734-6.3 8.028-2.64 11.679 2.484 2.484 7.02 2.734 9.41.519 1.35-1.251-.013-2.251-1.673-1.227a5.16 5.16 0 0 1-7.717-2.899l-.123-.4h5.772c6.78 0 6.423.1 6.29-1.766-.3-4.322-5.152-7.391-9.32-5.906m-96.767 2.051c3.294 1.537 3.946 6.066 1.217 8.462-3.308 2.905-8.397.593-8.405-3.818-.007-3.722 3.84-6.207 7.188-4.644m54.718-.082c1.35.613 2.552 1.935 2.918 3.21l.154.539h-10.123l.123-.399c.895-2.895 4.303-4.543 6.928-3.35m46.36 0c1.35.613 2.552 1.935 2.917 3.21l.155.539h-10.123l.123-.399c.895-2.895 4.303-4.543 6.928-3.35m-128.52 17.337v.799h133.747v-1.598H162.345v.799m22.29 6.825c-1.113.467-1.414 1.876-.56 2.612.478.411.572.421 3.835.421h3.346l.112.444c.105.421.637.643.637.266 0-.097.16-.177.355-.177s.356-.08.356-.178.36-.177.8-.177.8-.078.8-.174.226-.128.504-.072c.334.067.6.005.787-.182.353-.353.485-.358.485-.016 0 .528 4.88.376 5.426-.17.582-.582.585-1.502.007-2.174l-.428-.498-8.053-.037c-4.43-.02-8.213.03-8.408.112m50.244-.021c-1.042.148-1.662 2.195-.896 2.96.31.309.652.358.652.094 0-.4 6.794-.042 8.126.428l.755.267v-.993c0-.789.077-1.059.375-1.317.435-.378.234-.7-.673-1.081-.46-.194-7.403-.492-8.34-.358m-11.066.502c-.386.491-.494 1.131-.19 1.131.098 0 .178.102.178.227s.16.343.355.484.356.398.356.572.08.316.177.316.178.159.178.355c0 .233.118.355.343.355.198 0 .396.166.468.391.124.392.495.852.686.852.056 0 .1-.948.1-2.107 0-2.585-.227-3.044-1.51-3.044-.624 0-.845.091-1.142.468m37.328-.349c-.607.245-.75 1.059-.75 4.252 0 3.087.006 3.137.33 2.761.252-.29.533-.382 1.168-.382.805 0 1.343-.279 1.343-.698 0-.104.086-.19.19-.19.445 0 .123-4.895-.355-5.404-.417-.443-1.288-.596-1.927-.339m19.96.34c-.152.397-.14.43.16.43.148 0 .267-.158.267-.356 0-.423-.273-.471-.426-.074m-111.075.34a.95.95 0 0 0-.222.526c0 .152-.152.274-.34.274s-.367.079-.4.177c-.096.284-3.35.458-3.517.188-.098-.159-.272-.048-.6.382-2.984 3.913-.714 9.309 4.242 10.085.8.125 1.538.379 2.092.72.993.611 1.474.665 1.627.182.06-.189.286-.378.5-.42.384-.074.383-.076-.02-.1-.767-.045-1.313-1.232-.698-1.519.178-.083.178-.124 0-.207-.122-.057-.222-.288-.222-.514 0-.491-.93-.921-2.555-1.183-3.664-.591-4.358-5.047-.97-6.229.366-.127.505-.293.505-.602 0-.466.08-.494 1.2-.435.668.035.755-.005.755-.344 0-.407-.38-.891-.698-.891-.104 0-.2-.08-.2-.178 0-.25-.227-.209-.488.088m114.377.01c-.19.217-.186.309.032.527.297.297 1 .357 1 .085 0-.097-.08-.177-.177-.177s-.178-.16-.178-.355c0-.415-.344-.456-.676-.08m4.94.79a.31.31 0 0 0 .355.355c.403 0 .455-.184.142-.497s-.497-.261-.497.142m-12.76.651c-.648.507-.73 1.103-.207 1.48.195.141.355.341.355.445s-.16.303-.355.444c-.21.15-.356.459-.356.749 0 .272-.08.494-.177.494-.258 0-.22.839.044.962.178.083.178.124 0 .207-.122.057-.222.276-.222.486 0 .29.148.163.61-.524.546-.811 2.32-2.552 2.6-2.552.06 0 .022-.28-.085-.622s-.3-.621-.43-.621c-.29 0-.743-.434-.743-.711 0-.573-.47-.68-1.036-.237m-66.06-.17c-.54.104-.508.407.044.407.277 0 .444-.101.444-.266 0-.147-.02-.256-.044-.243s-.224.059-.444.102m78.82.762c0 .196.08.356.177.356s.178-.16.178-.356-.08-.355-.178-.355-.177.16-.177.355m-118.292.134c.002.073.322.397.71.72.81.673 1.027.338.27-.418-.413-.413-.99-.59-.982-.302m89.873 4.484c0 .421.112.446.456.102s.32-.457-.1-.457a.31.31 0 0 0-.355.355m-68.97.488c-.122.64-.03.756.595.756.48 0 .523-.052.523-.622 0-.842-.96-.957-1.118-.134m41.793.401c0 .097.12.177.266.177s.267-.08.267-.177-.12-.178-.267-.178-.266.08-.266.178m58.614.325a38.46 38.46 0 0 0 .284 1.481c.155.769.255 1.797.222 2.283s-.002.884.072.884.133-.12.133-.266.074-.267.165-.267.217-.16.28-.355c.08-.249.27-.355.634-.355.286 0 .52-.08.52-.178s.28-.178.622-.178c.718 0 .818-.544.417-2.281l-.205-.887-1.57.017c-.865.01-1.572.056-1.572.102m-17.54.662c-.122.132-.222.426-.222.653 0 .683-.584 1.024-1.756 1.024-1.022 0-1.043.01-1.15.55-.174.867.03 1.418.484 1.312.61-.143.952.168.587.532-.162.163-.295.37-.295.461s-.16.164-.36.164c-.3 0-.34.082-.25.489.312 1.412 1.056 3.303 1.536 3.903.135.168.236.154.452-.061.222-.222.23-.306.046-.421-.387-.238.78-1.245 1.442-1.245.45 0 .523-.054.415-.311-.73-1.736-.85-2.228-.93-3.81-.053-1.041-.006-2.052.12-2.553.232-.919.21-1.043-.118-.687m-65.586 3.622c0 5.089.36 6.347 2.44 8.554 1.73 1.832 4.998 3.122 5.345 2.108.032-.096.172-.174.31-.174a.26.26 0 0 0 .251-.266c0-.322.64-.358.785-.045.083.178.124.178.207 0 .057-.122.25-.222.43-.222s.366-.099.416-.222c.07-.177.092-.177.103 0 .01.139.282.222.725.222.4 0 .7.08.7.178 0 1.033 3.05-1.119 4.244-2.996 1.085-1.703 1.94-8.016 1.085-8.016-.098 0-.178.08-.178.177 0 .32-.804.186-1.066-.177-.164-.228-.46-.356-.823-.356-.313 0-.602-.1-.643-.222s-.093.817-.114 2.087c-.084 5.134-1.838 7.461-5.613 7.447s-5.362-2.15-5.544-7.453c-.103-3.011-.108-3.042-.494-2.968-.214.041-.516-.052-.67-.207s-.43-.282-.61-.282-.443-.16-.584-.355c-.626-.869-.71-.49-.71 3.188m-16.518-3.011c0 .098-.152.178-.337.178s-.382.12-.438.266a.44.44 0 0 1-.374.267c-.24 0-.272.765-.27 6.35.002 4.23.06 6.261.178 6.083.155-.237.194-.237.35 0 .117.178.176.193.177.044.002-.14.265-.222.714-.222.4 0 .7-.08.7-.177s.2-.178.444-.178h.444v-6.14c0-5.085-.043-6.185-.254-6.395-.287-.287-1.344-.347-1.344-.076m32.504.888c0 .098.075.178.166.178s.216.16.278.355c.187.59.8.454.8-.177 0-.491-.05-.533-.62-.533-.342 0-.622.08-.622.177m23.837 2.54c-.106.215-.247.671-.314 1.013s-.334 1.061-.594 1.598c-.54 1.12-.543 1.954-.004 1.954.384 0 .464.277.12.416-.167.068-.157.14.045.295s.212.226.044.294c-.122.05-.222.326-.222.614 0 .368-.197.721-.66 1.185l-.66.66-2.67-.061-5.023-.143-2.354-.083v-1.067c0-.987-.027-1.06-.355-.955-.252.08-.355.032-.355-.166 0-.16-.15-.278-.355-.278-.196 0-.356-.08-.356-.178s-.16-.178-.355-.178-.355-.08-.355-.177-.125-.178-.28-.178c-.197 0-.245-.103-.165-.355s.032-.355-.166-.355c-.234 0-.285.328-.32 2.087-.104 5.158-.397 4.841 4.47 4.837 5.742-.004 7.878-.795 10.822-4.009 1.67-1.822 3.394-5.506 2.463-5.263-.23.06-.318.025-.244-.095.2-.339-.09-.755-.542-.755-.26 0-.643-.215-.933-.524l-.49-.524-.193.391m-14.423 1.013c0 .195.08.355.177.355s.178-.16.178-.355-.08-.356-.178-.356-.177.16-.177.356m1.643-.077c-.298.321-.283.375.133.483.362.095.462-.143.22-.52-.095-.147-.19-.137-.352.037m-60.255.92c-.002.281-.11.4-.358.4-.395 0-.478.268-.133.429.177.083.177.125 0 .207-.134.063-.222.455-.222.99 0 .551-.1.987-.267 1.152-.146.147-.266.427-.266.622 0 .33-.376.863-.61.863-.205 0-.094-.861.12-.938.13-.046.156-.145.064-.237s-.19-.064-.237.065c-.1.284-1.063.291-1.157.009-.044-.134-.114-.1-.186.089-.064.166-.04.301.056.301s.172.16.172.356.08.355.177.355.178.08.178.178-.12.177-.266.177-.267.158-.267.355a.31.31 0 0 1-.355.356c-.26 0-.355.118-.355.444s-.095.444-.356.444c-.276 0-.355.118-.355.533 0 .293-.08.532-.177.532s-.178-.08-.178-.177c0-.322-.33-.185-.446.185-.07.215-.326.404-.634.466-.638.128-.747.77-.13.77 2.322 0 5.303-2.335 6.185-4.845.384-1.091.494-3.723.177-4.214-.14-.215-.173-.19-.175.133m117.937.857c0 .561-.377.964-.903.964h-.395l.383.332c.476.412.483.556.027.556a.31.31 0 0 0-.355.355.31.31 0 0 0 .355.356c.25 0 .356.119.36.399l.004.4.35-.444c.58-.732 1.406-2.488 1.3-2.763-.054-.141-.01-.257.098-.257s.197-.08.197-.177-.32-.178-.71-.178c-.644 0-.7.042-.7.457m-33.51 1.237c-.324.845.042 6.165.447 6.493.622.503 1.637.448 2.17-.119.477-.508.803-6.469.353-6.469-.104 0-.19.08-.19.177 0 .217-.658.239-.74.025-.103-.265-1.943-.361-2.04-.107m33.864.361c0 .175-.498.609-.698.609-.22 0-.23-.047-.082-.429.1-.258.78-.414.78-.18m-1.954 2.591c0 .371.01.373.356.061.195-.177.355-.349.355-.383s-.16-.061-.355-.061c-.246 0-.356.118-.356.383m-8.145.848c-.59.071-1.037.231-1.174.419-.122.167-.354.304-.514.304-.34 0-.39.291-.07.401.262.09-.847 1.197-1.2 1.197-.583 0-.388.496.236.599.926.153 3.4.138 3.428-.021a14.58 14.58 0 0 0 .066-.57c.024-.24.134-.467.244-.503s.2-.22.2-.408.08-.34.178-.34.177-.16.177-.355.086-.356.19-.356.07-.119-.076-.266-.372-.255-.502-.241-.663.076-1.186.14m4.593.012c0 .098.12.178.266.178s.267-.08.267-.178-.12-.177-.267-.177-.266.08-.266.177m2.664.111c0 .236.048.248.267.067.146-.122.266-.251.266-.288s-.12-.067-.266-.067-.267.129-.267.288m-18.017 23.946l5.584 10.524c0 .03-22.7.055-50.444.055s-50.444-.041-50.444-.092c0-.089 9.324-17.633 10.595-19.935l.613-1.11 78.513.089 5.583 10.469m-67.84-5.399c-.477.567-.826 1.562-.807 2.301.012.472.308 1.31.33.933.007-.122.173-.222.368-.222s.355-.119.355-.267.08-.266.178-.266.178-.16.178-.355.08-.355.177-.355c.28 0 .215-1.765-.074-2.054-.218-.218-.314-.179-.704.285m46.07.155c0 .187-.1.381-.222.43-.138.056-.1.095.075.104.515.024.858-.19.858-.538 0-.218-.125-.336-.355-.336s-.356.118-.356.34m.356 2.146c0 .098.16.178.355.178s.355-.08.355-.178-.16-.177-.355-.177-.355.08-.355.177m-57.646.654c-.645.128-1.447.934-1.14 1.146.197.137.207.203.04.271-.264.107-.3.594-.045.594.098 0 .178.313.178.695 0 .398.095.728.22.77.162.054.228.771.244 2.665.023 2.534.033 2.601.482 3.049.55.551.652.567.652.103a.31.31 0 0 0-.356-.355c-.195 0-.355-.08-.355-.178s.32-.177.71-.177.7-.072.7-.159.2-.208.444-.27c.287-.072.444-.236.444-.463 0-.193.08-.352.178-.352s.177-.142.177-.316.16-.431.356-.572.355-.324.355-.407c0-.214.47-.659.698-.659.104 0 .2-.239.2-.532 0-.415.08-.533.355-.533.196 0 .356-.075.356-.166s.15-.214.335-.272c.44-.139.583-.942.275-1.537-.86-1.663-3.428-2.758-5.503-2.345m67.592-.017l-1.02.366c-.415.149-.755.349-.755.446 0 .234-.46.683-.698.683-.104 0-.2.08-.2.177s-.12.178-.263.178c-.78 0-1.603 3.182-1.166 4.503.2.578.72.924.72.47 0-.097.28-.177.62-.177s.622-.08.622-.178.15-.177.336-.177c.583 0 1.417-.946 1.546-1.754.064-.403.187-.733.272-.733s.155-.16.155-.355.08-.356.178-.356.177-.142.177-.316.17-.433.38-.577.565-.441.79-.661.46-.399.52-.399c.173 0 .617-.49.617-.679 0-.337-2.2-.694-2.842-.461m-51.865.962c0 .098-.28.178-.62.178s-.622.074-.622.165c0 .281.542.723.886.723.18 0 .358.09.395.201.1.301.85-.216.85-.585 0-.534-.21-.86-.55-.86-.185 0-.337.08-.337.178m37.656 0c0 .098.16.178.355.178s.355-.08.355-.178-.16-.178-.355-.178-.355.08-.355.178m17.762 7.294c0 .117-.167.358-.372.535-.313.272-.333.362-.133.579.386.416 1.728-.416 1.427-.886-.19-.298-.922-.479-.922-.228m-98.757 17.594c-2.935 1.164-2.294 5.15.922 5.733.918.167 1.565.971 1.565 1.946 0 1.879-2.115 2.707-3.4 1.332-.874-.937-2.03-.319-1.286.686 2.02 2.728 6.107 1.304 6.107-2.129 0-1.659-1.504-3.326-3-3.326-.693 0-1.502-.976-1.367-1.65.257-1.285 1.7-1.734 2.517-.784.55.639 1.268.651 1.426.023.293-1.17-2.048-2.4-3.483-1.831m17.864.08c-.24.241-.28.982-.28 5.405 0 5.357.046 5.684.79 5.684.478 0 .6-.504.66-2.697.08-3.039.956-4.197 2.797-3.702 1.3.351 1.613 1.007 1.616 3.396.004 2.728.326 3.511 1.16 2.818.434-.36.364-4.773-.1-5.661-.882-1.73-3.164-2.551-4.775-1.718-.3.155-.587.281-.64.281s-.098-.823-.098-1.829c0-2.166-.348-2.77-1.14-1.977m33.504-.066c-.156.156-.213 1.619-.213 5.471s.057 5.314.213 5.471c.465.465 2.273.121 2.273-.433 0-.316-.424-.775-.716-.775-.34 0-.35-.147-.35-4.694 0-5.176-.208-6.04-1.208-5.04m23.704.046c-1.263.45-1.686 1.088-1.982 2.983-.08.502-.188.666-.445.666-.516 0-.75.573-.424 1.038.148.211.384.383.524.383.212 0 .257.445.26 2.531.003 2.857.07 3.273.558 3.428.757.24.86-.139.86-3.139v-2.82h.765c1.7 0 1.98-1.269.3-1.421l-.977-.089.02-.684c.03-.9.627-1.499 1.673-1.677.64-.108.803-.212.85-.539.126-.878-.65-1.136-1.984-.66m9.51-.046c-.157.156-.213 1.619-.213 5.471 0 5.305.042 5.684.644 5.684.685 0 .776-.458.787-3.965l.01-3.406 1.81 3.598c2.44 4.851 2.15 4.852 4.616-.016l1.814-3.582.048 3.45c.055 3.888.27 4.554 1.182 3.642.428-.428.42-10.391-.008-10.819-.583-.583-.844-.226-3.1 4.256l-2.244 4.437-2.174-4.348c-2.397-4.794-2.552-5.011-3.16-4.402m35.482 1.398c-.248.463.198 1.231.717 1.231.2 0 .474-.194.63-.432.392-.599.085-1.167-.63-1.167-.345 0-.587.125-.717.368m-109.95 2.031c-3.83 1.213-3.346 7.007.64 7.645 1.466.234 3.344-.629 3.244-1.493-.072-.614-.607-.69-1.5-.212-2.493 1.336-4.94-1.908-2.943-3.904.956-.956 1.7-1.066 2.963-.432.8.406 1.016.451 1.24.265 1.256-1.042-1.613-2.512-3.646-1.869m21.414-.101c-3.06.745-4.09 4.375-1.874 6.592 1.912 1.911 4.935 1.447 6.125-.941 1.488-2.984-1.097-6.419-4.25-5.651m11.367 0c-3.06.745-4.1 4.375-1.873 6.592 1.91 1.911 4.935 1.447 6.125-.941 1.487-2.984-1.097-6.419-4.252-5.651m21.315 0c-1.864.454-2.985 1.887-2.998 3.83-.025 3.869 4.878 5.403 7.085 2.217 1.946-2.807-.787-6.85-4.087-6.047m35.213.026c-.485.282-.458 4.685.034 5.649.95 1.864 3.406 2.698 4.956 1.684.386-.253.436-.246.676.097.3.442.646.472 1.026.092.67-.669.334-7.714-.367-7.714-.663 0-.775.365-.775 2.54 0 2.862-.66 4.032-2.27 4.032-1.596 0-2.17-.986-2.17-3.727 0-2.592-.238-3.161-1.1-2.653m12.744-.026c-1.49.363-2.22 1.104-2.22 2.253 0 1.053.496 1.446 2.783 2.209 2.152.718 2.403.994 1.447 1.594-.783.491-1.874.386-2.723-.262-1.074-.819-2.078-.136-1.21.823 1.406 1.554 4.805 1.432 5.65-.204.774-1.497.104-2.345-2.505-3.168-2.13-.673-2.414-.906-1.742-1.434.954-.751 2.092-.632 3.296.345 1.056.857 1.625-.263.626-1.231a3.73 3.73 0 0 0-3.401-.925m8.183.113c-.48.479-.4 7.276.076 7.536a.67.67 0 0 0 .711 0c.54-.29.552-7.342.012-7.631-.445-.238-.47-.235-.8.095m8.158-.113c-2.192.534-3.457 2.615-2.928 4.819.6 2.46 3.704 3.778 5.705 2.416 1.55-1.056.85-1.994-.867-1.163-1.792.867-3.74-.48-3.542-2.447.2-1.961 2.16-2.865 3.94-1.815 1.122.662 1.804-.276.807-1.108-.848-.708-2.012-.97-3.114-.702m-94.796 1.722c1.1.702 1.427 2.368.698 3.459-1.12 1.676-3.44 1.511-4.302-.306-1.047-2.208 1.547-4.478 3.604-3.153m11.368 0c1.1.702 1.426 2.368.698 3.459-1.12 1.676-3.44 1.511-4.302-.306-1.048-2.208 1.547-4.478 3.604-3.153m21.314 0c1.212.781 1.464 2.769.48 3.796-1.046 1.091-2.504 1.126-3.547.083-2.076-2.077.604-5.466 3.067-3.879" fill="#f7f2eb"/><path d="M0 187.034v187.033h400V0H0v187.034M167.384 58.613c7.94 2.12 14.637 11.335 16.526 22.737 3.308 19.973-8.404 50.734-26.83 70.469l-1.865 1.997 72.082.048 73.147.37a14.22 14.22 0 0 1 9.619 9.62c.445 1.483.603 82.343.165 84.668-1.094 5.805-5.855 10.223-11.822 10.97-1.038.13-23.49.188-72.407.188h-70.902l-.083 13.544c-.09 14.573-.178 16.237-1.106 20.826-3.544 17.509-20.132 26.119-38.498 19.982-15.01-5.015-22.435-17.229-18.934-31.141 3.582-14.232 19.657-18.963 29.723-8.748 9.242 9.38 4.446 25.98-8.348 28.895l-2.132.491-.532.126 1.132.77c10.767 7.317 25.713 1.928 30.047-10.833 1.14-3.353 1.112-2.914 1.19-19.277l.07-14.939-1.383-.125c-13.17-1.194-29.66-9.622-41.016-20.964-17.906-17.883-20.593-38.69-7.516-58.203 6.043-9.018 13.625-15.029 31.784-25.199 7.228-4.049 12.522-7.203 15.7-9.361l2.31-1.563.094-36.235c.105-40.502-.02-36.629 1.282-39.836 2.915-7.185 11.05-11.265 18.495-9.277m-6.563 13.103c-2.685.959-4.676 3.608-5.42 7.209-.32 1.555-.335 2.906-.337 31.254l-.003 29.628 1.032-1.209c11.043-12.941 19.05-36.536 17.43-51.349-1.14-10.409-6.996-17.572-12.702-15.533m103.784 68.043c4.888 2.514 3.13 9.975-2.35 9.975-5.39 0-7.202-7.491-2.408-9.951 1.27-.653 3.513-.664 4.757-.024m14.08-.067c4.937 2.548 3.596 9.645-1.9 10.003-5.278.345-7.588-6.642-3.165-9.571 1.42-.941 3.692-1.135 5.055-.432m14.3.067c1.943.92 3.012 2.606 3.007 4.745-.014 5.61-7.628 7.229-10 2.127-2.018-4.342 2.647-8.927 6.993-6.872m-146.094 18.065c-.84.88-3.518 3.072-7.372 6.037-10.96 8.433-16.366 13.412-21.527 19.83-18.578 23.104-12.303 51.619 13.85 62.934 4.524 1.958 15.177 4.993 15.697 4.473.035-.034.043-21.181.018-46.993l-.045-46.931-.62.65m8.28 3.476c-.06.306-.11 21.009-.11 46.006v45.45l18.162-.092 6.54-12.255c4.338-8.132 6.722-12.421 7.085-12.745l.547-.488H269.8l.536.488c.344.313 2.887 4.9 7.066 12.745l6.53 12.255h7.19c8.8 0 9.494-.175 11.308-2.818 1.213-1.769 1.13 1.56 1.08-43.457l-.045-40.758-.476-1.016c-.63-1.342-1.85-2.619-3.116-3.261l-1.027-.519-143.56-.091-.112.556m102.838 3.134c.484.324.604.998.604 3.405v2.498h1.154c1.643 0 2.3.72 1.59 1.737-.24.344-.437.395-1.5.395h-1.233v4.13c.001 5.166.21 5.669 2.477 5.938 1.072.126 1.43.41 1.43 1.131 0 1.427-3.122 1.326-4.68-.152-1.206-1.145-1.265-1.433-1.326-6.473l-.056-4.574h-.778c-.603 0-.84-.089-1.055-.395-.612-.874-.043-1.737 1.145-1.737h.7v-2.694c0-3.123.4-3.962 1.528-3.209m14.28.22c.324.323.356.592.356 3.019v2.664h1.154c1.267 0 1.865.352 1.865 1.097 0 .758-.483 1.035-1.804 1.035h-1.215v4.002c0 5.53.028 5.585 3.247 6.213 1.4.276.81 1.957-.695 1.945-3.8-.031-4.684-1.523-4.684-7.904v-4.256h-.7c-.73 0-1.42-.463-1.42-.953 0-.585.722-1.179 1.434-1.179h.697v-2.694c0-3.273.556-4.209 1.776-2.989m-100.21 6.187c1.897.722 2.816 1.771 2.275 2.598-.405.618-1.146.589-2.103-.083-3.387-2.38-8.1.467-7.724 4.664.332 3.693 4.73 5.799 7.714 3.695 1.785-1.258 3.186.126 1.555 1.536-2.517 2.176-6.798 1.84-9.38-.736-5.356-5.344.57-14.373 7.663-11.674m18.24.041c1.48.554 3.4 2.473 4.005 3.985.65 1.652.766 8.778.153 9.431-.793.844-1.76.333-1.76-.929v-.803l-.74.634c-2.96 2.534-8 1.702-10.26-1.698-3.894-5.83 1.99-13.093 8.603-10.62m18.992.134c2.198 1.029 3.244 2.407 2.472 3.26-.482.533-1.087.393-2.05-.473-2.28-2.049-7.08-1.464-6.86.835l.056.584 3.64 1.247c4.65 1.594 5.09 1.863 5.484 3.371.938 3.583-4.73 6.17-8.903 4.062-1.137-.575-2.443-1.844-2.443-2.374 0-1.102 1.2-1.406 2.054-.517 2.172 2.288 7.434 1.794 7.15-.671-.055-.483-.183-.543-3.744-1.754-4.91-1.669-5.554-2.178-5.425-4.275.196-3.17 4.937-4.994 8.566-3.295m16.128-.434c1.75.412 4.045 2.069 4.045 2.919 0 1.147-1.13 1.403-2.146.485-2.4-2.167-7.25-1.769-7.056.578l.054.658 3.687 1.254c2.028.689 3.906 1.416 4.174 1.615 3.33 2.467-.098 6.985-4.99 6.576-2.948-.247-5.913-2.646-4.796-3.88.483-.534 1.087-.394 2.054.475 2.293 2.061 7.125 1.397 6.855-.942-.053-.456-.234-.541-3.698-1.723-3.893-1.329-4.716-1.73-5.173-2.519-1.856-3.201 2.43-6.569 6.99-5.496m19.764.3c2.94 1.099 5.605 5.856 4.116 7.345l-.458.459h-11.23l.124.399c.966 3.132 4.71 4.425 7.554 2.608 1.79-1.145 3.068.266 1.45 1.601-2.943 2.428-7.925 1.551-10.155-1.788-3.902-5.844 1.974-13.102 8.6-10.624m46.36 0c2.94 1.099 5.605 5.856 4.116 7.345l-.46.459H284l.124.399c.973 3.156 5.05 4.5 7.706 2.539 1.598-1.18 2.84.33 1.338 1.627-2.13 1.841-6.03 1.876-8.426.075-6.732-5.059-1.058-15.394 6.83-12.444m-105.56 1.913c-5.324 1.9-3.997 9.7 1.65 9.7 6.412 0 6.684-9.482.287-9.961a4.5 4.5 0 0 0-1.938.261m55.057-.073c-1.677.547-3.406 2.407-3.406 3.666 0 .099 1.974.166 4.885.166 5.377 0 5.113.067 4.55-1.154-1-2.166-3.793-3.407-6.028-2.678m46.36 0c-1.677.547-3.406 2.407-3.406 3.666 0 .099 1.974.166 4.885.166 5.377 0 5.112.067 4.55-1.154-1.002-2.177-3.78-3.411-6.028-2.678m8.672 17.509v.888H162.345v-1.776h133.747v.888m-123.588 7.146c2.686 1.231 3.967 3.968 2.268 4.846-.924.478-1.683.221-2.4-.815-1.444-2.083-4.67-1.459-5.42 1.049-.442 1.473.775 3.435 2.275 3.67 4.555.712 7.328 3.603 7.328 7.639 0 7.103-9.25 10.247-13.542 4.604-1.85-2.43.568-4.295 2.648-2.043 2.293 2.481 5.758 2.102 7.1-.778 1.085-2.331-.138-5.171-2.473-5.743-2.54-.623-3.144-.827-3.917-1.321-6.48-4.144-.863-14.315 6.135-11.108m29.108-.055c.578.577.66 1.18.266 1.942-.418.808-.912.914-4.284.914h-3.1v9.866c0 8.453-.04 9.941-.268 10.386-.536 1.036-1.746 1.207-2.588.365l-.52-.519v-20.098h-3.117c-2.433 0-3.23-.059-3.636-.269-1.036-.535-1.207-1.746-.365-2.587l.52-.519h16.573l.52.519m10.234-.091l.5.429.177 16.283.437.881c2.027 4.089 7.743 4.165 9.725.128l.495-1.009.178-16.283.498-.429c.66-.566 1.542-.566 2.2 0l.498.429.054 7.697c.07 9.815-.085 10.646-2.458 13.183-4.767 5.096-13.386 2.71-14.83-4.105-.383-1.804-.378-16.003.005-16.744.5-.986 1.664-1.196 2.52-.46m31.997.144c8.728 3.138 11.225 13.826 4.744 20.307-2.892 2.892-5.048 3.632-10.58 3.632h-3.397l-1.04-1.038v-22.435l1.073-1.072 3.948.069c3.727.065 4.022.095 5.252.537m19.198-.112l.547.46v22.672l-.547.46c-.928.781-2.284.446-2.623-.648-.248-.797-.26-21.634-.014-22.295.425-1.137 1.688-1.448 2.637-.649m24.677.164c9.72 3.28 11.327 16.285 2.7 21.946-6.908 4.537-16.683.655-18.59-7.384-2.21-9.325 6.83-17.616 15.88-14.562m-50.773 11.612v8.901l2.176-.005c6.145-.012 9.933-3.643 9.684-9.284-.228-5.166-3.626-8.268-9.24-8.435l-2.62-.077v8.9m44.386-8.604c-6.482 1.788-8.638 10.205-3.823 14.926 5.69 5.58 15.2 1.599 15.2-6.363 0-5.8-5.744-10.119-11.387-8.563m-92.583 32.469l-4.913 9.192-5.003 9.369-.704 1.288h100.877l-11.13-20.87-78.513-.09-.613 1.111m21.65 2.881c2.95 1.729 2.194 6.11-1.186 6.869-2.238.503-4.44-1.32-4.44-3.675 0-2.936 3.082-4.686 5.627-3.194m40.48-.423c2.138.539 3.354 3.025 2.49 5.094-.856 2.049-3.374 2.879-5.304 1.747-3.733-2.188-1.384-7.898 2.815-6.841m-53.07 4.713c3.18 1.501 3.958 5.767 1.517 8.297-3.297 3.419-8.983 1.192-8.995-3.523-.01-3.939 3.926-6.451 7.478-4.774m67.318 0c2.533 1.196 3.67 4.311 2.503 6.858-2.327 5.082-9.956 3.487-9.968-2.084-.01-3.939 3.917-6.45 7.465-4.774m-96.265 25.478c1.165.44 1.853 1.673 1.263 2.262-.347.347-.753.247-1.296-.319-.915-.956-2.398-.453-2.398.812 0 .616.496 1.318.932 1.32 2.907.013 4.557 3.875 2.567 6.009-1.517 1.627-4.883 1.283-5.533-.565-.403-1.144.58-1.506 1.546-.568 1.587 1.542 4.053-.124 3.1-2.101-.293-.615-.724-.886-1.87-1.177-1.553-.395-2.46-1.655-2.31-3.213.2-1.981 2.114-3.168 3.988-2.46m16.923.155c.1.189.184 1.068.184 1.954s.03 1.61.067 1.61.374-.129.75-.285c1.69-.707 3.658.101 4.556 1.872.888 1.752.68 5.873-.295 5.873-.682 0-.782-.333-.845-2.795l-.06-2.35-.55-.549c-1.893-1.892-3.625-.485-3.625 2.944 0 2.228-.146 2.75-.77 2.75-.8 0-.83-.127-.83-5.684 0-3.852.057-5.315.214-5.471.326-.326.996-.253 1.2.131m33.363-.131c.155.155.214 1.48.214 4.846v4.632l.532.201c1.167.441.586 1.476-.828 1.476-1.324 0-1.303.092-1.303-5.684 0-3.105.07-5.127.184-5.34.205-.384.875-.457 1.2-.131m24.757.23c.274.602-.213 1.156-1.017 1.156-.82 0-1.327.482-1.447 1.378l-.1.753h.8c1.14 0 1.597.484 1.184 1.255-.144.269-.376.344-1.066.344h-.882v2.676c0 2.841-.12 3.363-.77 3.363-.76 0-.828-.266-.828-3.233 0-2.584-.025-2.806-.32-2.806-.874 0-1.042-1.163-.213-1.476.455-.171.533-.293.533-.835 0-2.126 3.363-4.23 4.117-2.575m10.604 3.994l2.2 4.348 2.198-4.393c2.294-4.585 2.523-4.882 3.226-4.179.305.305.305 10.637 0 10.942-1.013 1.013-1.383.046-1.394-3.639l-.01-3.164-1.773 3.519c-2.343 4.65-2.1 4.657-4.55-.144l-1.812-3.553-.008 3.384c-.01 3.573-.06 3.81-.837 3.81-.7 0-.77-.447-.77-5.684 0-5.4.052-5.743.856-5.65.43.05.688.474 2.675 4.403m33.668-3.092c.598.598.233 1.497-.61 1.497-.254 0-.558-.096-.675-.213-.503-.502-.045-1.563.675-1.563.18 0 .455.125.61.279m-108.643 2.305c1.224.511 1.767 1.303 1.25 1.821-.308.308-.763.263-1.426-.142-1.142-.696-2.74-.269-3.365.899-1.172 2.184 1.264 4.466 3.386 3.172 1.468-.894 2.228.456.802 1.425-2.084 1.416-5.328.047-5.94-2.506-.747-3.114 2.392-5.882 5.295-4.669m21.05-.036c4.258 1.785 2.793 8.054-1.804 7.721-3.916-.283-4.97-5.64-1.467-7.464 1.072-.558 2.318-.656 3.27-.257m11.368 0c4.258 1.785 2.793 8.054-1.804 7.721-3.916-.283-4.97-5.64-1.468-7.464 1.072-.558 2.318-.656 3.272-.257m21.314 0c4.277 1.793 2.8 8.054-1.82 7.72-3.853-.279-4.897-5.661-1.448-7.463 1.07-.558 2.315-.656 3.27-.257m33.84-.026c.142.142.213.92.213 2.327 0 2.925.514 3.854 2.13 3.854 1.626 0 2.132-.864 2.132-3.644 0-2.547.485-3.437 1.385-2.537.302.301.302 7.265 0 7.567s-.983.265-1.164-.059c-.137-.244-.22-.244-.803 0-3.076 1.285-5.28-.863-5.28-5.147 0-2.37.51-3.238 1.386-2.361m14.117.026c.984.413 1.726 1.155 1.726 1.727 0 .795-.656.868-1.606.18-.86-.623-1.806-.721-2.665-.277-.89.46-.65.724 1.208 1.338 2.334.77 2.692.975 3 1.708 1.104 2.642-3.44 4.214-5.803 2.007-1.143-1.069-.133-2.136 1.066-1.127.918.772 2.97.749 3.272-.036.12-.311-.11-.428-2.24-1.13-1.965-.648-2.625-1.209-2.625-2.231 0-1.673 2.77-2.954 4.668-2.159m6.956.156c.324.462.41 6.339.103 7.142-.188.495-.83.624-1.212.243-.3-.302-.3-7.266 0-7.567.33-.33.805-.253 1.11.182m10.025.192c.502.332.73.611.73.89 0 .796-.823 1.106-1.444.545-1.348-1.22-3.707.053-3.707 2.001s1.887 2.974 3.67 2c1.133-.619 2.024.186 1.206 1.09-1.38 1.526-4.608 1.017-5.896-.929-2.26-3.414 2.045-7.843 5.44-5.597m-100.28 1.349c-1.938 1.217-1.273 4.199.984 4.415 2.348.226 3.537-2.471 1.817-4.119-.71-.679-1.978-.813-2.8-.296m11.367 0c-1.937 1.217-1.272 4.199.985 4.415 2.348.226 3.537-2.471 1.816-4.119-.708-.679-1.977-.813-2.8-.296m21.315 0c-2.042 1.283-1.12 4.458 1.293 4.458 1.687 0 2.89-1.884 2.134-3.339-.692-1.33-2.27-1.846-3.427-1.119" fill="#040404"/><path d="M289.14 139.532c-1.536.473-3.145 2.269-3.44 3.838-.115.611-.1.633.34.549.253-.049.46-.159.46-.245s.162-.157.36-.157c.257 0 .4-.151.466-.533.1-.553.642-.748.846-.311.083.178.125.178.208 0 .057-.122.262-.222.456-.222.376 0 .96-.464.71-.563-.223-.088-.39-1.391-.18-1.391.268 0 .686-.47.686-.771 0-.146.1-.305.222-.354.498-.201-.35-.081-1.135.16m-15.102.397c-.957.471-1.432.924-.97.924.17 0 .288.146.288.355a.31.31 0 0 1-.355.355c-.22 0-.356-.119-.357-.311 0-.224-.102-.163-.365.222-.98 1.434-1.3 3.641-.542 3.641.164 0 .415.17.558.377.503.725.736.867 1.43.867.384 0 .698.08.698.177s.342.178.76.178c.556 0 .83.095 1.016.355.276.384 2.13.538 2.13.178 0-.098.12-.178.267-.178s.266-.08.266-.177.16-.178.355-.178.356-.08.356-.178.4-.177.892-.177c2.45 0 1.21-5.178-1.55-6.489-1.063-.505-3.8-.472-4.877.059m.918 1.279c0 .195-.08.355-.178.355s-.178-.08-.178-.178-.12-.177-.266-.177-.267-.08-.267-.178.2-.177.445-.177c.325 0 .444.094.444.355m1.846.281c.16.414.147.429-.337.429-.5 0-.54-.082-.222-.444.29-.331.427-.327.56.015m-1.846 1.241c0 .392-.44.787-.876.787-.3 0-.368-.112-.368-.533 0-.491.05-.533.622-.533.447 0 .622.079.622.279m4.618-.101c0 .097-.16.177-.356.177s-.355-.08-.355-.177.16-.178.355-.178.356.08.356.178m-1.6.71c0 .098-.16.178-.355.178s-.355-.08-.355-.178.16-.177.355-.177.355.08.355.177m15.63 2.309c0 .098-.44.178-.977.178s-.977.072-.977.161-.42.218-.93.289c-.563.077-1.046.26-1.22.461-.16.183-.46.332-.667.332-.26 0-.38.111-.38.356 0 .273-.12.355-.514.355-.754 0-.823.446-.145.945 1.982 1.458 4.88 1.217 6.65-.553.64-.639 1.52-2.296 1.36-2.556-.13-.21-2.2-.18-2.2.032m-16.34.8c0 .151-.16.266-.368.266a1.04 1.04 0 0 1-.635-.266c-.236-.237-.196-.267.368-.267.446 0 .635.08.635.267m-109.108 50.596c-.85.239-2.572 1.306-3.006 1.861-.207.265-.198.27.08.052.242-.19.31-.194.31-.018 0 .28 3.427.104 3.522-.18.033-.099.213-.18.4-.18s.34-.122.34-.279c0-.389.568-.945.666-.652.04.121.153.221.25.221.306 0 .683.492.683.891 0 .339-.087.379-.755.344-1.12-.059-1.2-.031-1.2.437 0 .236-.1.459-.2.496s.25.077.8.09 1-.05 1-.141c0-.318.555-.158 1.003.29.28.279.42.582.367.786-.266 1.02 1.754 1.711 2.622.896 2.252-2.116-3.144-5.97-6.883-4.914m41.647.201l-.568.478v8.316h.444c.375 0 .444.083.444.533 0 .421.078.533.368.533.203 0 .493.124.645.276s.393.233.535.178.375-.099.518-.099c.474 0 .273-9.641-.21-10.125-.614-.613-1.5-.65-2.175-.09m72.3-.326c-.47.068-.577.164-.577.517 0 .274-.102.433-.28.433-.197 0-.246-.104-.166-.356.18-.563-2-.015-3.154.794l-.388.272h.395c.302 0 .394.104.394.444 0 .244.08.444.178.444s.178.16.178.355.085.356.2.356c.238 0 .698.448.698.68 0 .096.394.024.876-.159 4.204-1.598 9.01.096 11.178 3.938.524.929 1.445 1.357 1.445.671 0-.086.28-.157.62-.157s.622.08.622.178.28.177.62.177h.62l-.337-.887c-1.048-2.758-3.875-5.83-5.255-5.711-.56.048-.623.008-.623-.385 0-.975-4.578-1.989-7.238-1.604m2.975.95c0 .195.08.355.178.355s.177.08.177.177c0 .268-.7.214-.99-.076-.407-.406-.312-.812.2-.812.326 0 .444.095.444.356m-40.142.521c0 .3-.08.544-.178.544s-.177.2-.177.444.07.444.155.444.19.38.237.844c.073.761.198.961 1.267 2.028 1.46 1.457 2.326 3.16 2.606 5.121.23 1.607.43 2.132.8 2.132.16 0 .512.24.786.533s.556.532.628.532.272.164.445.364c.426.491.51.289.637-1.547.203-2.913-1.22-7.501-2.376-7.666-.396-.056-.575-.387-.2-.387.66 0-2.126-2.567-3.743-3.447l-.887-.483v.544m-21.667 5.651c.002 3.564.062 5.369.173 5.195a.93.93 0 0 0 .088-.621c-.045-.196-.037-.256.02-.134s.357.222.67.222c.364 0 .66.128.823.356.378.524.71.441.71-.178 0-.355-.09-.533-.267-.533-.146 0-.266-.08-.266-.177s-.16-.178-.355-.178-.355-.08-.355-.178.473-.177 1.065-.177h1.066v-2.753c0-1.84-.063-2.754-.2-2.754-.105 0-.305-.114-.444-.253s-.254-.34-.254-.444-.086-.191-.2-.191c-.283 0-.698-.467-.698-.786 0-.154-.08-.279-.178-.279s-.177-.16-.177-.356a.31.31 0 0 0-.352-.355c-.227 0-.392-.157-.464-.444-.317-1.266-.428.032-.425 5.018m-12.26-4.84c0 .165-.167.266-.444.266-.552 0-.585-.303-.044-.407.22-.043.42-.088.444-.102s.044.096.044.243m79.04.368c0 .055-.114.215-.253.355-.345.344-.457.319-.457-.102a.31.31 0 0 1 .355-.355c.195 0 .355.046.355.102m-56.475 5.316c-.018 4.444.012 5.062.252 5.062.15 0 .273.08.273.177s-.12.178-.266.178c-.475 0-.384 3.733.093 3.857.257.068.33.191.255.428-.073.229-.02.333.172.333.154 0 .28.08.28.178s.16.177.355.177.355.08.355.178.16.178.356.178.355.079.355.177.16.178.355.178c.415 0 .532-1.309.133-1.495-.177-.083-.177-.125 0-.207.41-.192.294-2.398-.133-2.51s-.435-.174-.103-.506c.194-.194.273-.201.34-.032.05.121.096-2.313.103-5.41.013-5.166.04-5.646.325-5.812.278-.161.268-.181-.09-.186-.22-.003-.4.074-.4.172s-.533.178-1.244.178-1.243-.077-1.243-.178-.113-.178-.252-.178c-.2 0-.255.824-.273 5.063m41.283-4.154c-1.957 2.127-3.345 5.314-3.256 7.475.017.417.046.471.1.187.07-.356.183-.4 1.042-.4.53 0 .964-.075.964-.166s.16-.216.355-.278.408-.327.473-.589.252-.597.416-.743c.64-.572 1.067-2.842.532-2.842-.255 0-.22-.487.045-.594.167-.068.157-.14-.045-.294s-.212-.227-.044-.295c.122-.05.222-.283.222-.519s.08-.43.178-.43.177-.16.177-.355-.074-.355-.164-.355-.19-.131-.222-.291c-.043-.216-.242-.09-.774.489m-82.143-.376c0 .098-.155.178-.344.178s-.394.16-.456.355c-.147.465-.344.45-.582-.044-.145-.301-.192.547-.19 3.419.001 2.1.042 3.719.092 3.597a.4.4 0 0 1 .346-.222c.142 0 .304-.12.36-.267s.253-.266.438-.266.337-.08.337-.178c0-.259 1.2-.218 1.293.045.254.712.39-.451.372-3.158-.017-2.534-.07-3.132-.298-3.36-.304-.304-1.367-.381-1.367-.099m57.37 3.197c0 .098-.16.178-.355.178s-.356-.08-.356-.178.16-.177.356-.177.355.08.355.177m12.966.888c-.264.367-.888.492-.888.178 0-.098-.12-.178-.266-.178-.188 0-.267.19-.267.642 0 .637-.004.641-.622.525l-.62-.117.001 4.315.002 4.316 1.187.044c.664.025 1.243.135 1.314.251.536.867.693-.341.693-5.345 0-4.952-.04-5.312-.533-4.631m-69.88.254c.538.538.206.99-.727.99-.52 0-.6-.138-.492-.756.106-.554.772-.681 1.22-.234m41.107.635c0 .097-.12.177-.267.177s-.266-.08-.266-.177.12-.178.266-.178.267.08.267.178m-61.812 2.195c0 .242.1.486.222.543.178.083.178.124 0 .207-.604.282-.113 1.394.682 1.544.393.074.397.082.04.105a.59.59 0 0 0-.506.397c-.093.293-.228.356-.638.296l-.52-.076.428.458c.958 1.025 1.34 2.839.865 4.1-.236.625-.09.888.492.888.276 0 .54-.1.582-.222.046-.129.145-.156.237-.065s.065.191-.064.237c-.215.077-.326.938-.12.938.233 0 .61-.533.61-.863 0-.195.12-.475.266-.622.166-.165.267-.601.267-1.152 0-.535.088-.927.222-.99.177-.082.177-.124 0-.207-.345-.161-.262-.429.133-.429.25 0 .356-.119.358-.4.002-.33.035-.353.19-.133.287.409.03-.444-.466-1.554-.45-1.006-1.845-2.599-2.73-3.118l-.547-.321v.439m100.533-.153c0 .177-.164.26-.49.246-.3-.013-.37-.052-.177-.102.17-.044.31-.155.31-.246s.08-.164.177-.164.178.12.178.266m22.913 1.155c0 .097-.28.177-.622.177s-.622.08-.622.178-.24.178-.532.178-.533.08-.533.177.08.178.177.178.178.08.178.177-.12.178-.267.178-.266.12-.266.267-.08.266-.178.266-.177.168-.177.374c0 .248-.084.342-.25.279-.172-.066-.283.087-.36.494-.38 2.025-2.512 4.586-4.68 5.622-1 .477-1.264.685-1.272 1.002-.006.22-.1.399-.188.399s-.177.4-.177.889-.068.888-.15.888c-.2 0-.915.625-.915.8 0 .208 1.553-.048 2.8-.462.61-.202 1.066-.441 1.01-.531s.024-.163.176-.163.277-.08.277-.177.167-.178.372-.178c.488 0 1.404-.546 1.404-.837 0-.126.08-.229.178-.229s.177-.129.177-.287c0-.196.11-.258.343-.197.223.058.487-.072.755-.374.227-.254.272-.356.1-.225-.273.21-.31.193-.31-.138 0-.277.11-.377.417-.377.23 0 .57-.174.755-.386s.238-.327.116-.256c-.148.087-.222.008-.222-.236s-.115-.365-.355-.365a.31.31 0 0 1-.355-.356.31.31 0 0 1 .355-.355c.456 0 .45-.144-.027-.556l-.383-.332h.395c.53 0 .903-.404.903-.982 0-.453.036-.472.794-.412l.794.064.17-.801c.234-1.092.448-3.553.308-3.553-.062 0-.113.08-.113.178m-24.275 1.598c.03.84.643 1.274.9.631.156-.407-.054-.808-.422-.808-.178 0-.363-.14-.41-.311s-.074.049-.057.488m-36.65 1.244c0 .195-.08.355-.178.355s-.177-.16-.177-.355.08-.356.177-.356.178.16.178.356m40.675 2.575c0 .147-.142.267-.316.267s-.43.159-.572.355-.358.355-.483.355-.228.16-.228.355c0 .201-.118.356-.272.356-.397 0-.1.479 1.098 1.774 1.878 2.027 5.17 3.801 5.83 3.141.163-.164.375-.297.47-.297.347 0 1.045-.884 1.045-1.324 0-.293.098-.453.28-.453.154 0 .4-.119.546-.266.237-.237.19-.267-.413-.27-1.765-.01-4.02-1.241-5.687-3.107-1.06-1.185-1.297-1.347-1.297-.886m-29.396 1.435c-1.323 1.339-3.257 2.351-4.804 2.512-1.628.17-.52.41 2.317.503 2.65.087 3.286.004 3.286-.428 0-.166.16-.417.356-.558.372-.269.532-1.776.187-1.776-.092 0-.192-.3-.222-.667l-.054-.666-1.066 1.08m47.266-.532c-.147.382-.138.429.082.429.2 0 .698-.434.698-.609 0-.234-.68-.078-.78.18m-130.126.555c-.884.325-1.283 1.426-.832 2.297.52 1.008 3.32 3.311 3.32 2.733 0-.279.828-.217 1.13.084.324.324.758.346.9.045.083-.178.124-.178.207 0 .122.26.607.3.607.05 0-.094.4-.224.888-.289.707-.094.888-.186.888-.45 0-.183.12-.333.267-.333s.266.08.266.178.08.177.178.177.177-.239.177-.532c0-.415.08-.533.355-.533.26 0 .356-.119.356-.444s.094-.444.355-.444a.31.31 0 0 0 .355-.356c0-.197.12-.355.267-.355s.266-.08.266-.177-.08-.178-.178-.178-.177-.16-.177-.355c0-.514-.39-.437-.988.194-1.818 1.912-4.515 1.716-6.572-.479-.882-.941-1.286-1.107-2.032-.833m125.933 2.716c0 .098-.12.178-.267.178s-.266-.08-.266-.178.12-.177.266-.177.267.08.267.177m-95.915 1.599c0 .097-.32.177-.7.177-.45 0-.712.082-.714.222-.001.149-.06.134-.177-.044-.15-.227-.2-.229-.336-.016-.362.561.53 1.269 1.467 1.165 1.09-.121 2-1.682.978-1.682-.28 0-.508.08-.508.178m25.947.113c-.012.323-.157.397-.99.501-.538.067-.977.196-.977.287s-.416.165-.924.165c-.74 0-.88.044-.7.222.41.411 3.667.254 4.91-.236.8-.316.966-.436.666-.483-.22-.033-.4-.135-.4-.226s-.313-.166-.696-.166c-.4 0-.735-.097-.785-.222s-.096-.051-.103.158m-11.56 15.522c-.558.098-1.776.628-1.776.772 0 .031.15.23.333.441.253.292.313.569.247 1.15-.062.555-.007.844.2 1.051.32.321.377.667.108.667-.098 0-.177.159-.177.355 0 .26-.12.355-.444.355-.245 0-.445.08-.445.178s-.16.177-.355.177c-.46 0-.448.112.084.809.62.811 1.767 1.324 2.947 1.316.876-.005 2.353-.503 1.543-.52-.17-.003-.31-.084-.31-.18s-.2-.225-.444-.286c-.728-.183-.59-.783.178-.783.342 0 .62-.08.62-.178s.16-.178.356-.178.355.08.355.178c0 .316.36.189.85-.301 1.098-1.098-.182-4.77-1.693-4.858-.073-.004-.453-.067-.844-.141a4.5 4.5 0 0 0-1.332-.024m40.806.109c-.172.05-.26.178-.193.285.075.121.018.155-.15.09-.778-.298-1.992 1.624-1.992 3.153 0 4.671 6.894 4.945 7.308.29.14-1.567-.61-2.767-1.296-2.08-.154.154-.454.273-.667.266s-.287-.055-.165-.104.222-.238.222-.419c0-.241.154-.344.578-.384l.577-.056-.78-.529c-.773-.524-2.507-.782-3.44-.512m4.132 3.616c0 .098-.16.178-.355.178s-.355-.08-.355-.178.16-.177.355-.177.355.08.355.177m-60.93 2.104c-1.853 1.922-1.91 5.457-.118 7.108l.456.42.456-.456c.25-.251.456-.62.456-.819s.08-.364.177-.364.178-.153.178-.34.1-.381.222-.431c.167-.067.156-.136-.044-.278-.18-.128-.195-.19-.045-.191.122-.002.222-.156.222-.344s-.1-.387-.222-.444c-.177-.082-.177-.124 0-.207.264-.123.3-.784.045-.784-.098 0-.178-.12-.178-.267s-.08-.266-.178-.266c-.258 0-.218-1.022.045-1.116.15-.054.093-.194-.178-.435-.402-.358-.553-1.113-.222-1.113.098 0 .178-.12.178-.267 0-.476-.404-.284-1.25.594m56.667-.505c0 .098-.16.178-.355.178s-.355-.08-.355-.178.16-.178.355-.178.355.08.355.178m16.697.178c0 .273-.12.355-.514.355-.293 0-.558.114-.616.266a.45.45 0 0 1-.387.267c-.347 0-.793.42-.793.747 0 .132-.16.355-.355.496s-.355.358-.355.483-.08.227-.178.227-.177.238-.177.527c0 .59-1.4 2.138-1.947 2.138-.1 0-.185.08-.185.177s-.205.178-.456.178c-1.775 0-.062 2.448 2.127 3.04 2.086.564 3.48.202 3.48-.904 0-.958.132-1.07 1.258-1.07.436 0 .698.083.7.222.002.122.16.022.35-.222.954-1.224 1.172-3.562.47-5.062-.486-1.041-1.32-2.087-1.552-1.944-.088.055-.16.015-.16-.089s-.16-.188-.355-.188a.31.31 0 0 0-.355.356m-64.965 2.262c-.122.042-.222.155-.222.252 0 .27-.475.683-.787.683-.153 0-.28.142-.28.316s-.16.431-.355.572-.355.401-.355.577-.12.368-.267.424a.46.46 0 0 0-.266.4c0 .163-.16.412-.355.553s-.356.393-.356.56-.16.355-.355.417-.355.261-.355.443-.12.45-.266.597c-.613.612-.343 1.061.562.937 1.625-.223 3.317-1.655 3.868-3.273.438-1.286.294-3.632-.212-3.458" fill="#aa6e2f"/><path d="M184.434 88.721c.001.977.03 1.354.067.838s.035-1.316-.001-1.776-.066-.039-.066.938m111.53 55.684c0 .44.035.619.077.4s.042-.58 0-.8-.077-.04-.077.4m-139.134 7.593l-.612.666.666-.612c.62-.57.748-.72.612-.72-.03 0-.33.3-.666.666m33.994 8.704h71.225c19.555-.025 3.503-.046-35.67-.046l-35.554.046m67.685 7.06c0 1.465.028 2.041.06 1.28s.033-1.961 0-2.665-.06-.08-.06 1.385m45.132 38.988l.046 19.849v-39.698c-.026-10.917-.046-1.985-.046 19.849m-75.398-34.758c0 .03.26.29.577.577l.577.522-.522-.578c-.486-.538-.632-.659-.632-.521m30.27 4.296c0 2.149.025 3.004.057 1.899s.03-2.863-.001-3.907-.056-.141-.056 2.008m-18.05 2.353c1.594.029 4.15.029 5.684 0s.23-.054-2.898-.054-4.38.024-2.786.054m46.36 0c1.594.029 4.15.029 5.684 0s.228-.054-2.898-.054-4.38.024-2.786.054m-77.683 27.132l.052 3.851v-7.815c-.03-2.119-.052-.335-.052 3.964m51.152-1.954c0 3.126.025 4.38.054 2.786a179.49 179.49 0 0 0 0-5.684c-.03-1.532-.054-.228-.054 2.898m-74.013-3.687a54.55 54.55 0 0 0 3.286 0c.903-.032.164-.058-1.643-.058s-2.547.026-1.643.058m8.11.116c-.053.136-.064.556-.025.932.068.654.072.647.1-.155l.03-.839 6.483-.106-3.247-.04c-2.64-.033-3.265.006-3.342.208m42.46-.024c-.047.123-.063 2.78-.036 5.905l.05 5.683.084-11.622 3.64-.115-1.826-.038c-1.332-.027-1.85.023-1.912.187m46.59-.098a1.96 1.96 0 0 0 .71-.004c.17-.044-.01-.079-.4-.077s-.53.038-.31.081m-89.082 2.538c0 .342.037.482.082.311s.044-.451 0-.622-.082-.031-.082.311m-30.905.533c0 .342.036.482.08.311s.044-.451 0-.622-.08-.031-.08.311m30.915 3.641c.001.489.036.668.077.398s.04-.67-.003-.889-.075.003-.074.491m54.53 2.309c.002.489.036.668.077.398s.04-.67-.002-.888-.076.002-.075.49m-12.046 5.862l.006 3.019 3.73.021-3.633-.122-.11-5.938.006 3.02m23.438 1.421c0 1.954.026 2.777.057 1.83s.032-2.546.001-3.553-.058-.231-.058 1.723m23.238 1.632c.17.045.45.045.62 0s.032-.081-.3-.081-.482.036-.31.081m-120.47.466c0 .031.26.29.577.577l.578.522-.522-.577c-.486-.538-.633-.659-.633-.522m86.545 16.763a1.45 1.45 0 0 0 .622 0c.17-.044.03-.081-.31-.081s-.482.037-.31.081m-59.32 9.469c0 .44.035.62.077.4a2.49 2.49 0 0 0 0-.799c-.042-.22-.077-.04-.077.399m67.315.089c.002.391.038.53.08.309s.04-.541-.003-.711-.08.011-.077.402m-62.52 5.19c.27.04.67.039.89-.003s-.003-.075-.49-.074-.668.036-.398.077m-4.442 9.597h71.314c19.61-.025 3.566-.045-35.657-.045l-35.657.045m27.2 11.412c0 2.882.024 4.061.054 2.62s.03-3.799 0-5.24-.054-.262-.054 2.62m70.5 1.687c0 1.856.027 2.592.06 1.634s.03-2.476-.001-3.375-.058-.115-.058 1.741m-85.3.089c0 .342.036.482.08.311a1.45 1.45 0 0 0 0-.622c-.045-.171-.08-.031-.08.311m11.367 0c0 .342.037.482.082.311s.044-.451 0-.622-.082-.031-.082.311m-59.493 10.036c.002.488.036.667.077.397s.04-.67-.002-.888-.076.002-.075.491" fill="#5c554b"/><path d="M162.922 58.209c.268.041.708.041.977 0s.05-.074-.49-.074-.757.033-.488.074m-.533 13.144c.27.04.708.04.977 0s.05-.074-.49-.074-.757.033-.488.074m-7.418 39.304l.047 14.609V96.048c-.026-8.035-.047-1.461-.047 14.609m18.808-19.183c0 1.124.03 1.583.065 1.022a19.89 19.89 0 0 0 0-2.043c-.036-.562-.065-.102-.065 1.021m101.976 47.868c.452.153 1.893.216 1.667.073-.135-.085-.606-.15-1.045-.144s-.72.038-.622.071m-1.155 3.361c0 .139-.055.398-.123.577-.115.305-.104.307.178.028.33-.327.405-.857.123-.857-.098 0-.178.114-.178.252m12.79 0c0 .139-.056.398-.125.577-.088.229.017.183.356-.155.573-.574.592-.674.124-.674-.195 0-.355.114-.355.252m4.263 2.945c0 .098-.28.178-.622.178s-.62.075-.62.167-.36.22-.8.286c-.622.094-.8.194-.8.455 0 .428.32.43.69.003.174-.201.657-.384 1.22-.461.512-.071.93-.201.93-.289s.16-.161.355-.161.355-.08.355-.178-.16-.177-.355-.177-.355.08-.355.177m-12.23.996c-.324.366-.116.54.23.193.15-.152.275-.321.275-.377 0-.186-.264-.091-.506.184m8.676.603c0 .098-.16.178-.355.178s-.355.079-.355.177c0 .272-.375.212-.785-.126-.203-.167-.14-.067.14.222.334.345.538.45.592.304.046-.122.317-.222.602-.222.4 0 .518-.081.518-.355 0-.196-.08-.356-.178-.356s-.178.08-.178.178m9.46 6.694c.17.045.45.045.62 0s.03-.081-.3-.081-.482.037-.31.081m-150.844 3.874c-.43.44-.744.8-.696.8s.442-.36.874-.8.744-.799.695-.799-.442.36-.873.799m125.836 9.947l.008 2.664 2.13.026-2.033-.131-.114-5.223.008 2.664m37.84 38.899l.046 20.19v-40.498c-.025-11.104-.046-1.966-.046 20.308m-141.16-36.198c.22.043.54.041.71-.003s-.01-.08-.402-.078-.53.039-.31.081m18.118 0c.22.043.54.041.7-.003s-.01-.08-.402-.078-.53.039-.308.081m18.648 0a2.55 2.55 0 0 0 .799 0c.22-.043.04-.077-.4-.077s-.62.034-.4.077m17.408 0c.22.043.54.041.71-.003s-.01-.08-.402-.078-.53.039-.31.081m18.828 0c.22.043.54.041.71-.003s-.01-.08-.402-.078-.53.039-.31.081m13.322 0c.22.043.54.041.7-.003s-.01-.08-.402-.078-.53.039-.308.081m3.368.003a6.62 6.62 0 0 0 1.244.001c.368-.038.1-.07-.574-.071s-.985.03-.67.07m10.664-.003c.22.043.54.041.7-.003s-.01-.08-.402-.078-.53.039-.308.081m19.005 0c.22.043.54.041.7-.003s-.01-.08-.4-.078-.53.039-.31.081m-184.42 1.873l-1.417 1.465 1.465-1.417c1.36-1.316 1.547-1.514 1.417-1.514-.026 0-.686.66-1.465 1.466m168.375 4.041c0 2.198.025 3.097.057 1.998s.03-2.898 0-3.997-.057-.199-.057 1.999m-148.84.754l-.702.755.755-.702c.415-.386.755-.726.755-.755 0-.134-.155 0-.808.702m38.69.4c.002.489.036.667.077.397s.04-.669-.002-.888-.076.003-.075.491m18.118 0c.001.489.035.667.076.397s.04-.669-.002-.888-.076.003-.074.491m54.884 0c.001.489.036.667.077.397s.04-.669-.003-.888-.075.003-.074.491m46.353 0c.002.391.038.53.08.309s.04-.541-.004-.711-.08.011-.077.402m-87.004 2.931c0 1.905.026 2.684.058 1.732a62.51 62.51 0 0 0 0-3.464c-.032-.952-.058-.173-.058 1.732m23.55 1.654c0 .031.26.29.577.577l.577.522-.52-.577c-.487-.538-.633-.659-.633-.522m-49.066 2.557c.22.042.54.041.71-.004s-.01-.079-.402-.077-.53.038-.31.081m18.118 0c.22.042.54.041.7-.004s-.01-.079-.402-.077-.53.038-.308.081m18.736-.003c.17.044.45.044.622 0s.03-.082-.31-.082-.48.037-.31.082m17.407 0c.17.044.45.044.622 0s.03-.082-.31-.082-.482.037-.31.082m18.74.003c.22.042.54.041.71-.004s-.01-.079-.402-.077-.53.038-.31.081m46.36 0c.22.042.54.041.7-.004s-.01-.079-.4-.077-.53.038-.31.081m-92.794 6.402h66.963c18.382-.025 3.29-.046-33.54-.046l-33.422.046m41.024 5.86c.86.033 2.22.033 3.02 0s.098-.06-1.563-.059-2.316.027-1.457.059m7.052.756l.4.355-.383.332c-.924.801-.274 3.164.79 2.869.067-.019.182.064.255.183s.09-.174.04-.651-.164-.894-.247-.927c-.214-.083-.19-.918.025-.918.532 0 .157-1.069-.466-1.329-.845-.354-.913-.34-.422.086m-17.34 2.487c0 1.123.028 1.583.064 1.021a19.89 19.89 0 0 0 0-2.043c-.036-.561-.064-.102-.064 1.022m-2.893-1.421c-.016.376.293.815.457.651.076-.076.052-.193-.052-.261s-.236-.244-.292-.39c-.1-.237-.103-.237-.113 0m53.625.088c0 .147.08.267.177.267s.178.126.178.279c0 .343.422.787.75.787.133 0 .32.259.412.577.182.616.407.704.684.265.18-.285-.2-.842-.6-.842-.105 0-.2-.16-.2-.356s-.08-.355-.178-.355-.178-.2-.178-.444c0-.375-.083-.444-.532-.444-.356 0-.533.089-.533.266m-1.305.769c-.324.359-.395.919-.116.919.097 0 .177.16.177.355s-.08.355-.177.355-.178.194-.178.43-.1.469-.222.519c-.168.068-.157.14.044.295s.212.226.045.294c-.264.107-.3.594-.045.594.098 0 .178-.12.178-.267s.08-.266.178-.266.177-.222.177-.494c0-.29.147-.599.356-.749.195-.141.355-.341.355-.444s-.16-.304-.355-.445c-.397-.285-.467-.882-.143-1.207.118-.118.17-.213.117-.213s-.23.146-.39.324m-41.324.386c0 .098.44.178.977.178s.977-.08.977-.178-.44-.178-.977-.178-.977.08-.977.178m2.977-.052c.22.042.54.041.71-.004s-.01-.079-.402-.077-.53.039-.31.081m-46.48.177c-.02.313.374 1.118.547 1.118.082 0 .15-.08.15-.177s-.073-.178-.162-.178-.243-.22-.342-.488-.184-.393-.192-.275m86.132 2.628c-.432.44-.745.799-.696.799s.442-.359.873-.799.745-.799.696-.799-.442.359-.873.799m-14.032.279c0 .419-.538.698-1.343.698-1.292 0-2.213 1.544-1.1 1.842.736.197.844.132.844-.51 0-.342-.08-.622-.178-.622s-.177.08-.177.178-.08.178-.178.178-.177-.16-.177-.356a.31.31 0 0 1 .355-.355c.195 0 .355.08.355.178s.12.177.267.177.266.08.266.178c0 .326.544.183.985-.258s.62-1.518.258-1.518c-.097 0-.177.086-.177.19m-173.647 1.764c0 1.025.03 1.445.065.932s.036-1.352 0-1.865-.065-.093-.065.933m103.487.355c0 .195.08.355.177.355s.178-.16.178-.355-.08-.355-.178-.355-.177.16-.177.355m99.9.229c-.144.165.025.215.723.215.73 0 .867-.044.69-.222-.28-.281-1.165-.277-1.412.007m-83.738.837c0 .097.12.177.267.177s.266.08.266.178.08.178.178.178.177-.16.177-.356c0-.26-.118-.355-.444-.355-.244 0-.444.08-.444.178m65.063 1.154c-.116.127-.316.268-.444.313s-.177.142-.1.214.3-.036.52-.241.364-.404.322-.444-.17.031-.288.158m-61.974 2.309c0 1.27.028 1.766.063 1.103a25.75 25.75 0 0 0-.001-2.309c-.034-.607-.063-.064-.062 1.206m-17.93 3.553c0 3.126.025 4.38.054 2.786a179.49 179.49 0 0 0 0-5.684c-.03-1.532-.054-.228-.054 2.898m30.117-5.418c0 .098.153.178.34.178s.376.1.42.222.14.166.213.097c.18-.167-.343-.674-.694-.674-.154 0-.28.08-.28.177m1.953.356c0 .414-.08.532-.355.532a.31.31 0 0 0-.355.356c0 .195.08.355.178.355s.177-.08.177-.178.078-.177.172-.177.197.897.23 2.087c.05 1.804.06 1.707.075-.711.01-1.538-.013-2.797-.052-2.797s-.07.239-.07.533m-35.266 5.772c0 3.322.024 4.655.053 2.964s.03-4.409 0-6.039-.053-.246-.053 3.075m101.575-4.884c0 .635.033.894.072.577s.04-.837 0-1.155-.072-.057-.072.578m-43.825.803c-.148.59-.02.769.225.312.1-.184.116-.438.038-.565-.1-.16-.178-.083-.263.253m44.346-.182c-.122.138-.222.335-.222.437s-.08.185-.178.185-.177.16-.177.355.08.355.177.355.178-.159.178-.355.08-.355.177-.355.178-.12.178-.266.12-.267.266-.267.267-.08.267-.178c0-.258-.408-.204-.666.089m-20.94.356c.146.146.352.266.456.266.29 0 .227-.303-.1-.425-.485-.186-.643-.118-.366.159m-38.785.088c0 .098.12.178.267.178s.266-.08.266-.178-.12-.177-.266-.177-.267.08-.267.177m15.808-.08c0 .216.89.968 1.147.968.377 0 .346-.122-.162-.629-.39-.389-.985-.595-.985-.339m-26.048 1.679c0 .83.03 1.17.068.755s.038-1.095 0-1.51-.068-.075-.068.755m27.888-.26c.014.24.12.437.233.437s.253.1.31.223.052.025-.01-.214c-.17-.669-.565-.999-.533-.446m-74.786 2.303c.001.586.034.804.073.485a4.68 4.68 0 0 0-.002-1.066c-.04-.267-.072-.006-.07.581m97.77.454c-.27.28-.49.552-.49.604 0 .257.842.052 1.066-.259.14-.196.398-.355.572-.355s.316-.12.316-.267c0-.458-.928-.282-1.465.277m-40.562 1.943c0 1.222.028 1.721.063 1.111s.034-1.61 0-2.221-.063-.111-.063 1.11m13.786-1.332c0 .44.08.8.177.8.363 0 .197 1.451-.206 1.8-.21.183-.336.381-.277.44.225.225 1.016-.81 1.016-1.329 0-.29.1-.567.222-.617.168-.068.157-.14-.044-.294s-.212-.227-.045-.295c.348-.141.26-.416-.133-.416-.26 0-.355-.118-.355-.444 0-.244-.08-.444-.178-.444s-.177.36-.177.799m1.065 2.842c-.43.44-.744.799-.695.799s.44-.359.873-.799.744-.799.695-.799-.44.36-.873.799m37.3.355c0 .147.034.267.075.267s.2.048.355.108c.2.077.28.002.28-.267 0-.256-.113-.374-.355-.374-.198 0-.356.118-.356.266m-74.075.666c.737.785.896.926.896.792 0-.028-.38-.408-.844-.843l-.843-.792.79.843m12.167 0l-.703.755.755-.702c.702-.653.837-.807.702-.807-.03 0-.368.339-.754.754m59.066-.399c0 .098-.16.177-.355.177s-.355.08-.355.178c0 .3.513.197.888-.178.276-.276.296-.355.09-.355-.147 0-.267.08-.267.178m2.842.533c0 .195-.08.355-.177.355s-.178.153-.178.34-.083.369-.185.403-.218.32-.258.636l-.073.574.444-.444c.244-.244.52-.443.613-.443s.17-.4.17-.888-.08-.889-.178-.889-.178.16-.178.356m-3.907.882c-.244.284-.624.563-.844.62s-.397.238-.394.411c.005.289.02.289.242-.004.13-.171.318-.311.42-.311.2 0 1.287-.962 1.287-1.137 0-.239-.292-.066-.7.421m-64.3.45c0 .148.158.266.356.266s.355-.118.355-.266-.158-.267-.355-.267-.356.119-.356.267m1.066-.089c0 .098.16.178.355.178s.356-.08.356-.178-.16-.178-.356-.178-.355.08-.355.178m-52.753.374c0 .108.124.149.276.091s.232-.035.178.051c-.147.239.466.411.684.193.136-.136.115-.239-.074-.358-.365-.232-1.064-.216-1.064.023m3.242-.071c-.262.05-.4.205-.4.447 0 .365-.005.365-.346-.028l-.345-.399-.4.372c-.315.293-.34.371-.113.371.157 0 .327-.1.378-.222.067-.159.15-.134.29.089s.414.306.942.296c.41-.007.647-.054.524-.103-.38-.154-.254-.74.178-.823.323-.062.33-.077.044-.077a4.87 4.87 0 0 0-.754.077m67.23.895a56.25 56.25 0 0 0 3.286 0c.903-.032.164-.059-1.643-.059s-2.547.027-1.643.059m46.803-.005a3.89 3.89 0 0 0 .976 0c.27-.041.05-.074-.488-.074s-.757.033-.488.074m-79.707 10.484l64.448.002c-.045-.074-17.762-.114-39.37-.09l-25.078.088m-48.497 11.946l.05 4.574v-9.147c-.028-2.516-.05-.458-.05 4.573m-51.947-7.582c0 .031.26.291.577.578l.577.521-.522-.577c-.486-.538-.632-.659-.632-.522m14.742 1.277c.33.342.642.622.69.622s-.182-.28-.513-.622-.643-.622-.692-.622.183.28.514.622m88.455 1.51c0 .195-.08.355-.178.355s-.178.12-.178.266-.15.267-.336.267-.385.126-.444.281c-.16.414-.147.429.336.429.245 0 .444-.08.444-.177s.2-.178.445-.178c.325 0 .444-.095.444-.355 0-.196.08-.355.177-.355.258 0 .218-.341-.076-.635-.36-.359-.634-.314-.634.102m-12.745 1.105c-.22.106-.4.26-.4.343 0 .237.162.179.574-.205.426-.397.402-.416-.175-.138m71.36.155c0 .201-.438.694-.617.694-.06 0-.295.179-.52.399s-.582.517-.79.661-.38.397-.38.563-.1.336-.222.38-.166.14-.097.214c.147.158.674-.325.674-.619s.463-.71.793-.71a.45.45 0 0 0 .387-.267c.058-.152.323-.266.616-.266.39 0 .514-.083.514-.342 0-.189.135-.369.3-.4.227-.044.184-.111-.178-.276-.314-.143-.478-.154-.478-.031m-53.264.321c-.135.085-.2.243-.124.351.076.123.018.156-.155.089-.202-.077-.274.007-.27.313l.006.419.438-.498c.56-.638.617-.998.105-.674m47.844.444c-.51.451-.62.626-.397.632.17.004.31-.073.31-.171s.086-.177.2-.177c.275 0 .738-.503.665-.722-.034-.102-.38.095-.77.438m-66.693.297c0 .42.486.985.674.783.07-.074.025-.17-.097-.214-.264-.094-.3-.582-.045-.582.098 0 .178-.08.178-.178s-.16-.177-.355-.177c-.24 0-.355.118-.355.368m.355 1.763c0 .293.08.533.177.533s.178.086.178.19.134.324.297.488c.278.278.3.257.174-.324-.068-.341-.202-.647-.297-.68s-.174-.212-.174-.399-.08-.341-.178-.341-.177.24-.177.533m6.4.704c-.143.09-.207.219-.14.284s.25-.009.407-.168c.312-.312.154-.382-.266-.116m-.893.717c0 .195.08.355.178.355s.177-.16.177-.355-.08-.355-.177-.355-.178.16-.178.355m-5.15.533c0 .098.08.177.178.177s.177.16.177.356-.1.356-.222.358c-.15.001-.136.063.045.191.2.142.21.211.044.278-.122.05-.222.244-.222.431s-.08.34-.178.34-.177.164-.177.364-.2.573-.467.829c-.45.45-.454.476-.133.722 1.193.914 3.264 1.269 3.264.559 0-.202.12-.488.267-.634s.266-.415.266-.597.16-.381.355-.443.355-.25.355-.417.16-.42.356-.56.355-.39.355-.553a.46.46 0 0 1 .266-.4c.147-.056.267-.27.267-.475 0-.332-.03-.344-.267-.107-.146.146-.266.334-.266.417s-.16.266-.355.407-.356.398-.356.572-.08.316-.177.316-.178.159-.178.352c0 .227-.157.391-.444.463-.244.062-.444.183-.444.27s-.32.159-.7.159-.71.08-.71.177.16.178.355.178a.31.31 0 0 1 .356.355c0 .477-.126.449-.692-.157-.448-.48-.475-.602-.425-1.91.058-1.52-.036-2.196-.308-2.196-.096 0-.174.08-.174.178m65.187 1.598c0 .098-.12.178-.267.178s-.266.08-.266.178.12.177.266.177.267-.08.267-.177.24-.178.532-.178.533-.08.533-.178-.24-.177-.533-.177-.532.08-.532.177m6.438 1.361c-.216.088-.323.771-.12.771.174 0 .61-.498.61-.698s-.125-.219-.49-.073m1.066.005c.17.045.31.155.31.246s.08.165.177.165.178-.12.178-.267c0-.177-.163-.259-.488-.246-.3.013-.37.052-.178.102m-1.288 1.388c0 .146.08.266.178.266s.178-.12.178-.266-.08-.267-.178-.267-.178.12-.178.267m-109.863 21.58l.05 5.64v-11.279c-.028-3.102-.05-.564-.05 5.639m30.887-3.108c.001.977.03 1.354.067.838s.035-1.316-.001-1.776-.066-.039-.066.938m65.2 3.286c0 2.784.025 3.923.055 2.531s.03-3.67 0-5.062-.055-.253-.055 2.531m-9.776-2.309c.016.394.098.446.728.459l.71.015-.656-.069c-.506-.053-.67-.158-.727-.459-.06-.322-.07-.312-.056.054m-128.888.126c.22.042.54.04.71-.004s-.01-.079-.402-.077-.53.038-.31.081m148.32.718c-.03.073-.012 1.572.04 3.33l.095 3.197.038-3.33c.035-2.999.001-3.62-.173-3.197m5.074 1.731c0 1.075.03 1.492.065.926s.035-1.444-.001-1.953-.065-.047-.064 1.027m5.863.178c0 1.172.03 1.629.064 1.014s.034-1.573-.001-2.131-.064-.055-.063 1.117m-30.37 1.865c0 1.514.028 2.134.06 1.377a38.32 38.32 0 0 0 0-2.754c-.033-.757-.06-.137-.06 1.377m-55.42.71c0 1.124.028 1.584.064 1.022a19.89 19.89 0 0 0 0-2.043c-.036-.562-.064-.102-.064 1.021m5.862.089c0 1.173.03 1.629.064 1.015s.034-1.574-.001-2.132-.064-.055-.063 1.117m-20.986-.977c0 .342.036.482.08.311s.045-.45 0-.621-.08-.032-.08.31m-44.8.8c.33.342.642.621.69.621s-.182-.279-.514-.621-.642-.622-.69-.622.182.28.514.622m5.03 12.167c0 .635.032.894.07.577s.04-.837 0-1.155-.07-.057-.07.578m-35.34 3.73c0 .928.03 1.307.066.843s.037-1.223 0-1.687-.066-.084-.066.844m30.13 8.614c-.432.44-.745.8-.696.8s.442-.36.874-.8.744-.799.695-.799-.442.36-.873.799m.577 17.448c.366.038.966.038 1.332 0s.067-.07-.666-.07-1.032.031-.666.07" fill="#7c7c7c"/></svg>